<svg width="" height="" viewBox="0 0 43 43" fill="none" xmlns="http://www.w3.org/2000/svg">
<path d="M17.2171 33.9298H8.60904C6.92935 33.9298 5.45929 32.7123 5.37598 30.9897C7.89551 29.1003 9.49188 26.7488 10.5414 24.1446C11.5492 21.5404 11.9268 18.6849 12.1377 15.6615C12.3057 13.6042 13.6494 11.7566 15.4971 10.3698C16.5466 9.61328 17.6807 8.98441 18.8565 8.60547C18.8565 8.47916 18.7718 8.35284 18.7718 8.26953C18.7718 6.75781 19.9893 5.58203 21.501 5.58203C23.0127 5.58203 24.2301 6.75781 24.2301 8.26953C24.2301 8.35419 24.1455 8.52216 24.1455 8.60547C25.3213 8.98306 26.497 9.61328 27.5465 10.3268C29.3942 11.6706 30.8642 13.5182 30.8642 15.5338C31.0322 18.5156 31.4944 21.4974 32.5439 24.1003C33.5934 26.7461 35.1898 29.1393 37.6246 30.987C37.54 32.7083 36.0713 33.9271 34.3916 33.9271H25.7835C25.3629 35.9427 23.6416 37.4128 21.5426 37.4128C19.4437 37.4128 17.6794 35.9427 17.2171 33.9271V33.9298ZM9.70016 30.991H33.3004C31.4111 28.8907 30.109 26.4975 29.3525 23.9363C28.5543 21.4168 28.1767 18.7293 28.0088 15.9571C27.9241 14.6134 26.8746 13.3959 25.5725 12.4714C24.3121 11.5469 22.8004 11.043 21.5413 11.043C20.3655 11.043 18.8121 11.6316 17.4684 12.4714C16.1663 13.3113 15.0752 14.5717 15.0322 15.8308C14.9059 18.56 14.4866 21.2905 13.7301 23.8517C12.8902 26.4558 11.5465 28.8907 9.69882 30.991H9.70016ZM21.5413 36.0717C21.7509 36.0717 21.8356 35.9454 21.8356 35.7358C21.8356 35.4832 21.7509 35.3582 21.5413 35.3582C20.1975 35.3582 19.1897 34.3087 19.1897 33.0066C19.1897 32.754 19.0634 32.629 18.8538 32.629C18.6012 32.629 18.4332 32.7553 18.4332 33.0066C18.4332 34.6863 19.8186 36.0717 21.5413 36.0717Z" fill="#F0AE28"/>
</svg>
