<svg width="" height="" viewBox="0 0 43 43" fill="none" xmlns="http://www.w3.org/2000/svg">
<g clip-path="url(#clip0_33_1082)">
<path fill-rule="evenodd" clip-rule="evenodd" d="M28.6663 10.7499C29.6559 10.7499 30.458 11.5521 30.458 12.5416V16.1249H32.2497C35.2183 16.1249 37.6247 18.5313 37.6247 21.4999V35.8333C38.6142 35.8333 39.4163 36.6354 39.4163 37.6249C39.4163 38.6145 38.6142 39.4166 37.6247 39.4166H5.37467C4.38517 39.4166 3.58301 38.6145 3.58301 37.6249C3.58301 36.6354 4.38517 35.8333 5.37467 35.8333V21.4999C5.37467 18.5313 7.78115 16.1249 10.7497 16.1249H12.5413V12.5416C12.5413 11.5521 13.3435 10.7499 14.333 10.7499C15.3225 10.7499 16.1247 11.5521 16.1247 12.5416V16.1249H19.708V12.5416C19.708 11.5521 20.5101 10.7499 21.4997 10.7499C22.4892 10.7499 23.2913 11.5521 23.2913 12.5416V16.1249H26.8747V12.5416C26.8747 11.5521 27.6768 10.7499 28.6663 10.7499ZM31.7249 28.1418C30.0357 29.831 27.297 29.831 25.6078 28.1418C25.3179 27.8519 24.8481 27.8519 24.5582 28.1418C22.869 29.831 20.1303 29.831 18.4411 28.1418C18.1512 27.8519 17.6814 27.8519 17.3916 28.1418C15.7024 29.831 12.9636 29.831 11.2744 28.1418C10.9846 27.8519 10.5147 27.8519 10.2249 28.1418L8.95801 29.4087V35.8333H34.0413V29.4087L32.7745 28.1418C32.4846 27.8519 32.0148 27.8519 31.7249 28.1418ZM32.2497 19.7083H10.7497C9.83085 19.7083 9.07356 20.3999 8.97006 21.291L8.95801 21.4999V24.7283C10.5525 24.0032 12.4967 24.2965 13.8082 25.608C14.0981 25.8979 14.5679 25.8979 14.8578 25.608C16.547 23.9188 19.2857 23.9188 20.9749 25.608C21.2648 25.8979 21.7346 25.8979 22.0245 25.608C23.7136 23.9188 26.4524 23.9188 28.1416 25.608C28.4315 25.8979 28.9012 25.8979 29.1911 25.608C30.4207 24.3785 32.2064 24.0439 33.7385 24.6043L34.0413 24.7283V21.4999C34.0413 20.5811 33.3497 19.8238 32.4586 19.7203L32.2497 19.7083ZM22.3955 3.58325C21.9467 4.48084 22.1724 5.13008 22.5095 5.67895L22.701 5.96926L22.7986 6.10862C23.0561 6.47402 23.2913 6.808 23.2913 7.16659C23.2913 8.15609 22.4892 8.95825 21.4997 8.95825C20.5101 8.95825 19.708 8.15609 19.708 7.16659C19.708 6.17708 20.6038 4.47909 22.3955 3.58325ZM15.2288 3.58325C14.78 4.48084 15.0058 5.13008 15.3428 5.67895L15.5343 5.96926L15.632 6.10862C15.8894 6.47402 16.1247 6.808 16.1247 7.16659C16.1247 8.15609 15.3225 8.95825 14.333 8.95825C13.3435 8.95825 12.5413 8.15609 12.5413 7.16659C12.5413 6.17708 13.4372 4.47909 15.2288 3.58325ZM29.5622 3.58325C29.1134 4.48084 29.3391 5.13008 29.6761 5.67895L29.8676 5.96926L29.9653 6.10862C30.2228 6.47402 30.458 6.808 30.458 7.16659C30.458 8.15609 29.6559 8.95825 28.6663 8.95825C27.6768 8.95825 26.8747 8.15609 26.8747 7.16659C26.8747 6.17708 27.7705 4.47909 29.5622 3.58325Z" fill="#F0AE28"/>
</g>
<defs>
<clipPath id="clip0_33_1082">
<rect width="43" height="43" fill="white"/>
</clipPath>
</defs>
</svg>
