<svg width="" height="" viewBox="0 0 43 43" fill="none" xmlns="http://www.w3.org/2000/svg">
<g clip-path="url(#clip0_33_1045)">
<path d="M4.18039 22.7578L12.0012 24.8524L15.0159 23.1134V19.85L12.0357 18.1386L4.18057 20.2434C4.02268 20.2855 3.86403 20.3063 3.70679 20.3063C2.89994 20.3063 2.16159 19.7674 1.94354 18.9512C1.68224 17.9758 2.26055 16.9734 3.23588 16.7123L7.5422 15.5585L3.57237 13.2793C2.69739 12.7768 2.39459 11.6596 2.89725 10.7842C3.40157 9.90888 4.51651 9.60561 5.39187 10.1094L9.36986 12.3939L8.21631 8.08613C7.95528 7.11099 8.53275 6.10837 9.50854 5.84734C10.4778 5.59309 11.4844 6.16499 11.7458 7.13948L13.8418 14.9607L16.8406 16.6829L19.6835 15.0392V11.5903L13.9346 5.84158C13.221 5.12756 13.221 3.97103 13.9346 3.25692C14.6484 2.54299 15.8047 2.54299 16.5191 3.25692L19.6835 6.42119V1.82757C19.6834 0.81836 20.5019 0 21.5112 0C22.5203 0 23.3388 0.818267 23.3388 1.82757V6.39854L26.4801 3.25692C27.1941 2.54299 28.3506 2.54299 29.0647 3.25692C29.7786 3.97094 29.7786 5.12747 29.0647 5.84158L23.3388 11.5674V15.0525L26.1601 16.6801L29.1589 14.9595L31.2535 7.13958C31.5144 6.16508 32.5162 5.5916 33.4906 5.84743C34.4658 6.10846 35.0446 7.11108 34.7833 8.08622L33.6298 12.3933L37.6076 10.1094C38.4846 9.60552 39.6008 9.90813 40.1026 10.7847C40.6049 11.6602 40.302 12.7767 39.4268 13.2792L35.4573 15.5584L39.7637 16.7122C40.7391 16.9733 41.3176 17.9757 41.0564 18.9511C40.8378 19.7673 40.0997 20.3062 39.2927 20.3062C39.1356 20.3062 38.9768 20.2854 38.8185 20.2433L30.9624 18.1378L27.9855 19.8469L27.9824 23.1133L30.998 24.8555L38.8185 22.7578C39.7869 22.5036 40.7948 23.0762 41.0564 24.0503C41.3176 25.0253 40.7391 26.028 39.7637 26.2877L35.4731 27.4384L39.4313 29.7235C40.3051 30.2285 40.6049 31.3453 40.0996 32.2192C39.761 32.8074 39.1469 33.133 38.5159 33.133C38.2062 33.133 37.8918 33.0559 37.6037 32.8874L33.6255 30.5916L34.7833 34.9152C35.0446 35.8919 34.4658 36.8915 33.4906 37.1541C33.3327 37.1969 33.1741 37.2171 33.0168 37.2171C32.2102 37.2171 31.4721 36.6774 31.2535 35.8606L29.1485 28.007L26.1547 26.2796L23.3388 27.9044V31.4342L29.0647 37.1602C29.7786 37.874 29.7786 39.0304 29.0647 39.7447C28.7077 40.1017 28.2409 40.2786 27.7725 40.2786C27.3056 40.2786 26.8371 40.1017 26.4801 39.7447L23.3388 36.6032V41.1726C23.3388 42.1837 22.5203 43.0003 21.5112 43.0003C20.5019 43.0003 19.6834 42.1835 19.6834 41.1726V36.5804L16.519 39.7447C16.1621 40.1017 15.6953 40.2786 15.2268 40.2786C14.7583 40.2786 14.2914 40.1017 13.9345 39.7447C13.2209 39.0305 13.2209 37.8742 13.9345 37.1602L19.6834 31.4113V27.9185L16.8433 26.2794L13.8503 28.0068L11.7454 35.8604C11.5271 36.6772 10.7889 37.2169 9.98243 37.2169C9.82573 37.2169 9.66663 37.1967 9.50836 37.1539C8.53257 36.8913 7.95518 35.8917 8.21612 34.915L9.37525 30.5914L5.39549 32.8872C5.10736 33.0556 4.79304 33.1328 4.48319 33.1328C3.85225 33.1328 3.23829 32.8072 2.89966 32.219C2.3944 31.3452 2.69405 30.2285 3.56792 29.7233L7.52614 27.4386L3.2356 26.2878C2.26027 26.0281 1.68196 25.0253 1.94327 24.0505C2.203 23.0762 3.20673 22.5024 4.18039 22.7578ZM18.6712 23.1134L21.4998 24.747L24.3264 23.1133L24.3295 19.844L21.4998 18.2115L18.6712 19.8464V23.1134Z" fill="#F0AE28"/>
</g>
<defs>
<clipPath id="clip0_33_1045">
<rect width="43" height="43" fill="white" transform="matrix(-1 0 0 1 43 0)"/>
</clipPath>
</defs>
</svg>
