<svg width="" height="" viewBox="0 0 43 43" fill="none" xmlns="http://www.w3.org/2000/svg">
<g clip-path="url(#clip0_33_1088)">
<path d="M33.0989 5.28042H30.0522V1.63467C30.0663 1.46049 30.052 1.28118 30.0019 1.10305C29.7754 0.298988 28.9399 -0.169475 28.1357 0.0570298L9.45863 5.31703C8.16729 5.52935 7.17871 6.6528 7.17871 8.00335V40.2772C7.17871 41.7786 8.40017 43.0001 9.90164 43.0001H33.099C34.6005 43.0001 35.822 41.7786 35.822 40.2772V8.00335C35.8218 6.50188 34.6003 5.28042 33.0989 5.28042ZM27.0269 3.51272V5.28042H20.7499L27.0269 3.51272ZM32.7964 39.9745H10.2041V8.30586H32.7964V39.9745Z" fill="#F0AE28"/>
<path d="M28.1865 13.0224C26.4641 11.3 23.6613 11.2998 21.9385 13.0224L21.5759 13.385L21.2134 13.0224C19.5035 11.3124 16.7288 11.2999 15.0036 12.9848C14.2281 13.6782 13.7732 14.7958 13.7536 16.0628C13.7335 17.3647 14.1821 18.5385 14.986 19.2908L20.5064 24.811L20.5065 24.8111C20.8019 25.1065 21.189 25.2542 21.5761 25.2542C21.9632 25.2542 22.3504 25.1065 22.6457 24.8111L28.1865 19.2703C29.9091 17.5478 29.9091 14.7449 28.1865 13.0224ZM26.0473 17.131L21.5762 21.6022L17.105 17.1309L17.0557 17.0839C16.9136 16.954 16.7728 16.5797 16.7788 16.1156C16.7854 15.6018 16.9583 15.2939 17.0207 15.24L17.1052 15.1618C17.3682 14.8988 17.7178 14.7539 18.0897 14.7539C18.4616 14.7539 18.8113 14.8989 19.0744 15.1618L20.5057 16.5931C20.5061 16.5934 20.5063 16.5938 20.5066 16.5941C21.0976 17.1848 22.0551 17.1847 22.6461 16.594L24.0782 15.1618C24.6212 14.6189 25.5045 14.6189 26.0474 15.1618C26.5903 15.7047 26.5903 16.5881 26.0473 17.131Z" fill="#F0AE28"/>
<path d="M26.2122 28.2432H16.9385C16.103 28.2432 15.4258 28.9205 15.4258 29.7559C15.4258 30.5914 16.1031 31.2686 16.9385 31.2686H26.2122C27.0477 31.2686 27.7249 30.5913 27.7249 29.7559C27.7249 28.9205 27.0477 28.2432 26.2122 28.2432Z" fill="#F0AE28"/>
<path d="M26.2122 32.4788H16.9385C16.103 32.4788 15.4258 33.1561 15.4258 33.9915C15.4258 34.827 16.1031 35.5042 16.9385 35.5042H26.2122C27.0477 35.5042 27.7249 34.8269 27.7249 33.9915C27.7249 33.156 27.0477 32.4788 26.2122 32.4788Z" fill="#F0AE28"/>
</g>
<defs>
<clipPath id="clip0_33_1088">
<rect width="43" height="43" fill="white"/>
</clipPath>
</defs>
</svg>