<svg width="" height="" viewBox="0 0 43 43" fill="none" xmlns="http://www.w3.org/2000/svg">
<g clip-path="url(#clip0_33_1061)">
<path d="M42.9848 29.0738C42.918 28.5792 41.7319 26.4206 36.4149 23.5091L32.792 22.5069L29.5786 13.0642L36.9845 7.55722C39.3894 6.16568 38.5037 5.08858 36.2888 5.08934C22.8612 5.0937 16.9196 3.44324 14.1334 11.7979C13.4465 13.8578 12.1929 18.4413 11.1544 22.3356C-0.176946 25.3672 -0.307542 28.1259 0.118259 28.9218L2.10399 32.6322L10.0195 36.4212L13.7536 32.7509V37.1815C13.7536 37.1815 21.2234 38.8275 27.8059 37.5613C34.3899 36.2951 37.9342 34.6498 37.9342 34.6498L36.9209 31.8644L40.0868 33.2567L42.5688 30.4431C42.8996 30.0686 43.0508 29.5686 42.9848 29.0738Z" fill="#F0AE28"/>
</g>
<defs>
<clipPath id="clip0_33_1061">
<rect width="43" height="43" fill="white"/>
</clipPath>
</defs>
</svg>
