<svg width="" height="" viewBox="0 0 43 43" fill="none" xmlns="http://www.w3.org/2000/svg">
<path d="M41.1818 16.1614C37.5886 13.8528 34.025 12.454 30.2195 12.6435C30.1604 8.61759 28.7468 5.04456 26.7016 1.68115C23.4484 3.78009 20.136 5.8105 18.1728 9.41578C14.4224 7.37865 10.6706 6.81025 6.92023 6.98225C6.91755 10.7327 7.37845 14.4844 9.35377 18.2348C5.60739 20.4937 3.64283 23.6434 1.61914 26.7636C5.11558 28.7268 8.64964 30.4965 12.5815 30.2815C12.7225 33.9352 14.1993 37.5902 16.0994 41.2438C19.4037 39.0347 22.4231 36.5985 24.6282 33.5092C28.1367 35.5316 31.9301 36.1295 35.8807 35.9441C36.0568 31.8967 35.479 28.0764 33.4472 24.6915C36.8348 22.8882 39.3436 19.9562 41.1818 16.1614ZM21.5738 28.282C17.6555 28.282 14.4802 25.1054 14.4802 21.187C14.4802 17.2687 17.6568 14.092 21.5738 14.092C25.4922 14.092 28.6675 17.2687 28.6675 21.187C28.6675 25.1054 25.4909 28.282 21.5738 28.282Z" fill="#F0AE28"/>
</svg>
