<svg width="" height="" viewBox="0 0 36 45" fill="none" xmlns="http://www.w3.org/2000/svg">
<path d="M1.30474 6.64822C0.888956 6.04125 0.987127 5.5804 1.08819 5.42584C1.17495 5.00433 1.86779 4.75143 2.12765 4.58283C2.33554 4.44794 3.97559 4.02081 4.76963 3.82411C5.14499 3.24805 5.94769 2.02848 6.15558 1.75872C6.41544 1.42151 6.76193 1 7.4116 1C8.06126 1 8.53769 1.63226 8.581 1.75872C8.61565 1.85988 9.57715 3.1778 10.0536 3.82411L12.7822 4.58283C13.2673 4.71771 13.5906 5.20104 13.6917 5.42584C13.9083 6.31101 13.6051 6.43746 13.4751 6.64822C13.3712 6.81682 12.3057 8.1235 11.786 8.75576V11.3691C11.786 12.2543 11.5261 12.3807 11.1797 12.5915C10.8332 12.8022 10.0103 12.8022 9.62046 12.5915C9.30862 12.4229 8.01795 12.0154 7.4116 11.8328C6.79081 12.0295 5.4626 12.4566 5.11611 12.5915C4.683 12.7601 3.99003 12.9709 3.55692 12.5915C3.12381 12.2121 2.99387 12.0014 2.99387 11.3691V8.75576C2.60407 8.30615 1.72053 7.25519 1.30474 6.64822Z" fill="#F0AE28"/>
<path d="M10.3567 31.0957C10.8332 30.9271 11.1797 30.5899 11.0064 29.6626C10.6946 28.1789 8.91305 28.8196 8.06126 29.3254C6.89187 29.7048 5.50591 31.9388 5.50591 32.8661C5.50591 33.7934 5.15942 39.6524 11.3962 39.2309C17.633 38.8093 17.8062 33.7934 17.7629 31.5172C17.7196 29.2411 13.9949 24.0987 8.62431 25.4054C3.25374 26.712 1.78116 30.2106 1.39136 34.2149C1.00156 38.2192 4.63969 41.6335 6.15558 42.3922C7.67146 43.1509 12.4357 45.5956 17.5897 42.3922C22.7437 39.1887 23.5233 34.6364 23.5666 31.0957C23.6099 27.5551 20.7947 24.183 20.7514 24.0987C20.7081 24.0144 19.7119 22.8763 18.6725 23.5929C17.633 24.3094 18.6292 25.7004 18.8457 25.8269C19.0623 25.9533 20.2317 27.9344 20.5348 28.946C20.838 29.9577 21.4444 32.8661 20.0151 36.1538C18.5858 39.4416 15.1643 40.8747 13.9949 41.2119C12.8255 41.5492 9.7937 41.7178 7.28167 40.0739C4.76963 38.43 4.24989 36.744 3.99003 34.3414C3.73016 31.9388 5.72247 29.6626 6.15558 29.3254C6.58869 28.9882 7.19504 28.3138 9.79371 27.9344C12.3924 27.5551 15.7273 30.1684 15.1643 33.3719C14.7138 35.9347 12.4646 36.6878 11.3962 36.744C9.23066 36.8283 8.14789 35.0579 8.06126 34.2149C7.97464 33.3719 8.10458 33.2454 8.40775 32.3603C8.71093 31.4751 9.88033 31.2643 10.3567 31.0957Z" fill="#F0AE28"/>
<path d="M15.3808 15.6685C14.4453 15.3313 14.529 14.4321 14.6879 14.0246C15.069 13.013 16.1171 13.2378 16.5935 13.4767C18.0228 13.6031 22.3972 16.4272 23.5666 17.481C24.736 18.5348 27.4646 20.7266 28.9805 25.8269C30.4964 30.9271 28.9372 34.7207 28.7639 35.2687C28.5907 35.8166 27.8544 36.1538 27.0315 35.8166C26.3732 35.5469 26.2663 34.7207 26.2952 34.3414C27.3306 31.9483 26.9479 28.9698 26.7737 27.6133L26.7716 27.5972C26.5984 26.2484 25.6022 23.34 22.6138 20.1365C19.6253 16.933 16.5502 16.09 15.3808 15.6685Z" fill="#F0AE28"/>
<path d="M20.968 9.93599C18.1267 10.0709 17.2143 7.37883 17.1133 6.01596C17.0542 5.5523 17.7629 2.43313 20.968 2.43313C24.173 2.43313 24.9093 5.00433 24.9526 6.01596C24.9959 7.02758 24.5195 9.76739 20.968 9.93599Z" fill="#F0AE28"/>
<path d="M10.0969 20.1787C10.1315 19.2345 10.9487 18.9422 11.3529 18.9141C11.7716 18.9141 12.6176 19.167 12.6522 20.1787C12.6869 21.1903 11.8004 21.4713 11.3529 21.4853C10.9198 21.4432 10.0622 21.1228 10.0969 20.1787Z" fill="#F0AE28"/>
<path d="M1.34805 17.5231C1.34805 16.6801 2.21427 16.3289 2.64738 16.2586C3.06606 16.3148 3.91207 16.6464 3.94672 17.5231C3.99003 18.6191 2.90725 18.7877 2.64738 18.7877C2.38752 18.7877 1.34805 18.5769 1.34805 17.5231Z" fill="#F0AE28"/>
<path d="M23.9131 15.2892C23.7399 15.1205 22.8303 13.0833 22.3972 12.0857C22.0403 11.2764 22.6528 10.6807 23.0036 10.4839C23.9737 10.0456 24.6783 10.779 24.9093 11.2005L26.1653 14.1511C26.3039 14.9267 25.9054 15.4016 25.6889 15.5421C24.6061 16.0057 24.1297 15.4999 23.9131 15.2892Z" fill="#F0AE28"/>
<path d="M28.5907 17.1438C27.0661 14.4124 27.7245 11.5658 28.2442 10.4839C29.0758 8.08978 31.9401 6.50772 33.2683 6.01596C33.9613 5.64503 34.5387 6.17051 34.7409 6.47962C35.1018 6.87302 35.3645 7.87903 33.5282 8.75576C31.2327 9.85169 31.0161 10.7369 30.4531 12.0857C29.89 13.4345 30.7562 15.2892 31.0161 16.3851C31.224 17.2618 30.7274 17.8463 30.4531 18.029C29.1018 18.4673 28.6484 17.6215 28.5907 17.1438Z" fill="#F0AE28"/>
<path d="M28.9805 3.65551C28.9805 2.77877 29.8467 2.41908 30.2798 2.34883C30.6841 2.41908 31.5099 2.77877 31.5792 3.65551C31.6485 4.53224 30.7418 4.86383 30.2798 4.92003C29.8467 4.86383 28.9805 4.53224 28.9805 3.65551Z" fill="#F0AE28"/>
<path d="M1.30474 6.64822C0.888956 6.04125 0.987127 5.5804 1.08819 5.42584C1.17495 5.00433 1.86779 4.75143 2.12765 4.58283C2.33554 4.44794 3.97559 4.02081 4.76963 3.82411C5.14499 3.24805 5.94769 2.02848 6.15558 1.75872C6.41544 1.42151 6.76193 1 7.4116 1C8.06126 1 8.53769 1.63226 8.581 1.75872C8.61565 1.85988 9.57715 3.1778 10.0536 3.82411L12.7822 4.58283C13.2673 4.71771 13.5906 5.20104 13.6917 5.42584C13.9083 6.31101 13.6051 6.43746 13.4751 6.64822C13.3712 6.81682 12.3057 8.1235 11.786 8.75576V11.3691C11.786 12.2543 11.5261 12.3807 11.1797 12.5915C10.8332 12.8022 10.0103 12.8022 9.62046 12.5915C9.30862 12.4229 8.01795 12.0154 7.4116 11.8328C6.79081 12.0295 5.4626 12.4566 5.11611 12.5915C4.683 12.7601 3.99003 12.9709 3.55692 12.5915C3.12381 12.2121 2.99387 12.0014 2.99387 11.3691V8.75576C2.60407 8.30615 1.72053 7.25519 1.30474 6.64822Z" stroke="#F0AE28"/>
<path d="M10.3567 31.0957C10.8332 30.9271 11.1797 30.5899 11.0064 29.6626C10.6946 28.1789 8.91305 28.8196 8.06126 29.3254C6.89187 29.7048 5.50591 31.9388 5.50591 32.8661C5.50591 33.7934 5.15942 39.6524 11.3962 39.2309C17.633 38.8093 17.8062 33.7934 17.7629 31.5172C17.7196 29.2411 13.9949 24.0987 8.62431 25.4054C3.25374 26.712 1.78116 30.2106 1.39136 34.2149C1.00156 38.2192 4.63969 41.6335 6.15558 42.3922C7.67146 43.1509 12.4357 45.5956 17.5897 42.3922C22.7437 39.1887 23.5233 34.6364 23.5666 31.0957C23.6099 27.5551 20.7947 24.183 20.7514 24.0987C20.7081 24.0144 19.7119 22.8763 18.6725 23.5929C17.633 24.3094 18.6292 25.7004 18.8457 25.8269C19.0623 25.9533 20.2317 27.9344 20.5348 28.946C20.838 29.9577 21.4444 32.8661 20.0151 36.1538C18.5858 39.4416 15.1643 40.8747 13.9949 41.2119C12.8255 41.5492 9.7937 41.7178 7.28167 40.0739C4.76963 38.43 4.24989 36.744 3.99003 34.3414C3.73016 31.9388 5.72247 29.6626 6.15558 29.3254C6.58869 28.9882 7.19504 28.3138 9.79371 27.9344C12.3924 27.5551 15.7273 30.1684 15.1643 33.3719C14.7138 35.9347 12.4646 36.6878 11.3962 36.744C9.23066 36.8283 8.14789 35.0579 8.06126 34.2149C7.97464 33.3719 8.10458 33.2454 8.40775 32.3603C8.71093 31.4751 9.88033 31.2643 10.3567 31.0957Z" stroke="#F0AE28"/>
<path d="M15.3808 15.6685C14.4453 15.3313 14.529 14.4321 14.6879 14.0246C15.069 13.013 16.1171 13.2378 16.5935 13.4767C18.0228 13.6031 22.3972 16.4272 23.5666 17.481C24.736 18.5348 27.4646 20.7266 28.9805 25.8269C30.4964 30.9271 28.9372 34.7207 28.7639 35.2687C28.5907 35.8166 27.8544 36.1538 27.0315 35.8166C26.3732 35.5469 26.2663 34.7207 26.2952 34.3414C27.3306 31.9483 26.9479 28.9698 26.7737 27.6133L26.7716 27.5972C26.5984 26.2484 25.6022 23.34 22.6138 20.1365C19.6253 16.933 16.5502 16.09 15.3808 15.6685Z" stroke="#F0AE28"/>
<path d="M20.968 9.93599C18.1267 10.0709 17.2143 7.37883 17.1133 6.01596C17.0542 5.5523 17.7629 2.43313 20.968 2.43313C24.173 2.43313 24.9093 5.00433 24.9526 6.01596C24.9959 7.02758 24.5195 9.76739 20.968 9.93599Z" stroke="#F0AE28"/>
<path d="M10.0969 20.1787C10.1315 19.2345 10.9487 18.9422 11.3529 18.9141C11.7716 18.9141 12.6176 19.167 12.6522 20.1787C12.6869 21.1903 11.8004 21.4713 11.3529 21.4853C10.9198 21.4432 10.0622 21.1228 10.0969 20.1787Z" stroke="#F0AE28"/>
<path d="M1.34805 17.5231C1.34805 16.6801 2.21427 16.3289 2.64738 16.2586C3.06606 16.3148 3.91207 16.6464 3.94672 17.5231C3.99003 18.6191 2.90725 18.7877 2.64738 18.7877C2.38752 18.7877 1.34805 18.5769 1.34805 17.5231Z" stroke="#F0AE28"/>
<path d="M23.9131 15.2892C23.7399 15.1205 22.8303 13.0833 22.3972 12.0857C22.0403 11.2764 22.6528 10.6807 23.0036 10.4839C23.9737 10.0456 24.6783 10.779 24.9093 11.2005L26.1653 14.1511C26.3039 14.9267 25.9054 15.4016 25.6889 15.5421C24.6061 16.0057 24.1297 15.4999 23.9131 15.2892Z" stroke="#F0AE28"/>
<path d="M28.5907 17.1438C27.0661 14.4124 27.7245 11.5658 28.2442 10.4839C29.0758 8.08978 31.9401 6.50772 33.2683 6.01596C33.9613 5.64503 34.5387 6.17051 34.7409 6.47962C35.1018 6.87302 35.3645 7.87903 33.5282 8.75576C31.2327 9.85169 31.0161 10.7369 30.4531 12.0857C29.89 13.4345 30.7562 15.2892 31.0161 16.3851C31.224 17.2618 30.7274 17.8463 30.4531 18.029C29.1018 18.4673 28.6484 17.6215 28.5907 17.1438Z" stroke="#F0AE28"/>
<path d="M28.9805 3.65551C28.9805 2.77877 29.8467 2.41908 30.2798 2.34883C30.6841 2.41908 31.5099 2.77877 31.5792 3.65551C31.6485 4.53224 30.7418 4.86383 30.2798 4.92003C29.8467 4.86383 28.9805 4.53224 28.9805 3.65551Z" stroke="#F0AE28"/>
</svg>
