<svg width="" height="" viewBox="0 0 43 43" fill="none" xmlns="http://www.w3.org/2000/svg">
<g clip-path="url(#clip0_33_1073)">
<path d="M12.1832 18.3095H14.3332C15.5186 18.3095 16.4832 17.3448 16.4832 16.1595V16.0276C16.7082 16.1079 16.9476 16.1595 17.1999 16.1595H19.3499C20.5352 16.1595 21.4999 15.1948 21.4999 14.0095V11.8595C21.4999 10.6741 20.5352 9.70947 19.3499 9.70947H17.1999C16.0145 9.70947 15.0499 10.6741 15.0499 11.8595V11.9913C14.8248 11.9111 14.5855 11.8595 14.3332 11.8595H12.1832C10.9978 11.8595 10.0332 12.8241 10.0332 14.0095V16.1595C10.0332 17.3448 10.9978 18.3095 12.1832 18.3095ZM16.4832 11.8595C16.4832 11.4639 16.8043 11.1428 17.1999 11.1428H19.3499C19.7455 11.1428 20.0665 11.4639 20.0665 11.8595V14.0095C20.0665 14.4051 19.7455 14.7261 19.3499 14.7261H17.1999C16.8043 14.7261 16.4832 14.4051 16.4832 14.0095V11.8595ZM11.4665 14.0095C11.4665 13.6139 11.7876 13.2928 12.1832 13.2928H14.3332C14.7288 13.2928 15.0499 13.6139 15.0499 14.0095V16.1595C15.0499 16.5551 14.7288 16.8761 14.3332 16.8761H12.1832C11.7876 16.8761 11.4665 16.5551 11.4665 16.1595V14.0095Z" fill="#F0AE28"/>
<path d="M40.334 21.614C40.4229 21.3109 40.4745 21.0034 40.4745 20.6917C40.4745 20.2137 40.3562 19.7364 40.1312 19.2655C40.3548 18.7918 40.4745 18.3052 40.4745 17.8085C40.4745 17.3348 40.3584 16.8604 40.1369 16.3938C40.3591 15.9223 40.4745 15.4371 40.4745 14.9426C40.4745 14.3406 40.2939 13.7371 39.9377 13.1495C39.9305 13.138 39.9233 13.1273 39.9162 13.1165C37.5204 9.61345 29.9466 7.16675 21.5 7.16675C13.0534 7.16675 5.47963 9.61345 3.0616 13.1502C2.70542 13.7379 2.52482 14.3413 2.52482 14.9433C2.52482 15.4342 2.64378 15.9158 2.8681 16.3838C2.64307 16.8539 2.52482 17.3319 2.52482 17.81C2.52482 18.3045 2.6445 18.7889 2.87168 19.2598C2.6445 19.7328 2.52482 20.2129 2.52482 20.6931C2.52482 20.9963 2.57355 21.2951 2.65955 21.5889C0.901567 22.7571 0 24.1811 0 25.8345C0 30.6505 6.72807 35.8334 21.5 35.8334C41.4498 35.8334 43 28.1801 43 25.8345C43 24.2091 42.097 22.7937 40.334 21.614ZM39.0168 23.8457C39.0082 23.8966 38.9938 23.9482 38.9809 23.9991C38.9709 24.0407 38.963 24.0815 38.9501 24.1231C38.9343 24.174 38.9121 24.2241 38.8913 24.275C38.8749 24.3173 38.8605 24.3589 38.8412 24.4011C38.8182 24.4506 38.7889 24.5008 38.7616 24.5502C38.738 24.5932 38.7172 24.6362 38.6914 24.6792C38.662 24.7272 38.6269 24.7745 38.5939 24.8225C38.5631 24.8677 38.5344 24.9121 38.5008 24.9573C38.4656 25.0031 38.4255 25.049 38.3875 25.0949C38.3495 25.1407 38.313 25.1873 38.2721 25.2332C38.2313 25.2783 38.1847 25.3235 38.1403 25.3686C38.0951 25.4145 38.0521 25.4611 38.0041 25.507C37.9568 25.5521 37.9045 25.5965 37.8543 25.641C37.8027 25.6868 37.754 25.732 37.6995 25.7779C37.6451 25.823 37.5856 25.8674 37.5282 25.9126C37.4716 25.957 37.4172 26.0015 37.3577 26.0459C37.2975 26.0903 37.2315 26.1348 37.1685 26.1792C37.1061 26.2229 37.0459 26.2666 36.9807 26.3096C36.9141 26.3541 36.8424 26.3971 36.7729 26.4408C36.7048 26.4831 36.6396 26.5261 36.5693 26.5683C36.4955 26.6128 36.416 26.6565 36.3386 26.7002C36.2669 26.7411 36.1981 26.7819 36.1243 26.822C36.044 26.8658 35.9595 26.908 35.8763 26.951C35.7996 26.9912 35.7244 27.0313 35.6448 27.0707C35.5617 27.1116 35.4736 27.1517 35.3876 27.1926C35.303 27.2327 35.2213 27.2728 35.1339 27.3122C35.0443 27.3524 34.9504 27.3918 34.8587 27.4319C34.7698 27.4699 34.6838 27.5093 34.5928 27.5466C34.4975 27.586 34.3978 27.624 34.3004 27.6627C34.2072 27.6992 34.1162 27.7372 34.0209 27.7731C33.9198 27.811 33.8145 27.8476 33.7113 27.8856C33.6145 27.9207 33.5192 27.9565 33.4196 27.9909C33.3142 28.0275 33.2046 28.0626 33.0964 28.0984C32.9939 28.1321 32.8943 28.1665 32.7896 28.1995C32.6807 28.2339 32.5682 28.2668 32.4571 28.2998C32.3489 28.3328 32.2428 28.3657 32.1325 28.398C32.0185 28.431 31.9003 28.4618 31.7842 28.494C31.6724 28.5248 31.5627 28.5564 31.4495 28.5858C31.3319 28.6166 31.2094 28.646 31.0897 28.6753C31.0381 28.6882 30.9872 28.7011 30.9356 28.7133C31.304 28.3278 31.5333 27.8082 31.5333 27.2334V27.1689C34.9669 26.3053 37.5526 25.0734 39.0354 23.6322C39.034 23.663 39.0311 23.6938 39.0282 23.7246C39.0246 23.7647 39.0232 23.8056 39.0168 23.8457ZM27.9966 29.2924C27.8855 29.3096 27.7766 29.3275 27.6648 29.344C27.5028 29.3676 27.338 29.3884 27.1738 29.4099C27.2684 29.3576 27.3638 29.3074 27.4512 29.2451C27.5157 29.1992 27.5723 29.1462 27.6318 29.096C27.7178 29.0236 27.8031 28.952 27.8798 28.8703C27.8962 28.8524 27.9177 28.8387 27.9342 28.8208C28.1112 28.9821 28.3169 29.1104 28.5391 29.2057C28.5147 29.21 28.4911 29.2143 28.4667 29.2186C28.3126 29.2444 28.1535 29.268 27.9966 29.2924ZM24.2499 29.6923C24.065 29.7038 23.8765 29.7116 23.6894 29.721C23.5755 29.7267 23.4629 29.7339 23.3483 29.7382C23.187 29.7446 23.0236 29.7482 22.8609 29.7532C22.7176 29.7575 22.5757 29.7632 22.4317 29.7661C22.1235 29.7726 21.8132 29.7754 21.5 29.7754C11.5197 29.7754 4.0506 26.5311 3.96245 23.6092C6.81335 26.3856 13.5987 28.3435 21.5 28.3435C22.092 28.3435 22.6925 28.3285 23.311 28.3034C23.6701 28.9419 24.262 29.4243 24.9758 29.6407C24.8432 29.6507 24.7099 29.66 24.5759 29.6694C24.467 29.6765 24.3595 29.6858 24.2499 29.6923ZM7.76078 20.1979C7.84463 20.2337 7.92705 20.2696 8.01305 20.3047C8.12915 20.352 8.24668 20.3978 8.36493 20.4437C8.5742 20.5247 8.78705 20.6042 9.00492 20.6816C9.04218 20.6945 9.07873 20.7089 9.116 20.7218C11.5928 21.5875 14.6293 22.201 17.9804 22.4575C18.0435 22.4626 18.1073 22.4676 18.1704 22.4719C18.5595 22.4998 18.9515 22.5249 19.3493 22.5435V23.9747C10.3071 23.5433 4.0506 20.4788 3.95815 17.8673C4.859 18.738 6.16477 19.5242 7.76078 20.1979ZM19.5693 25.4174C19.9541 26.281 20.8113 26.8865 21.8125 26.9052C21.7093 26.9059 21.6018 26.9102 21.5 26.9102C12.6355 26.9102 5.75412 24.351 4.26273 21.7316C4.25915 21.7258 4.25772 21.7194 4.25342 21.7144C4.06493 21.3782 3.96245 21.0414 3.95958 20.7089C6.56753 23.2459 12.4807 25.1235 19.5693 25.4174ZM22.9333 26.8858C22.5872 26.8973 22.2518 26.9002 21.9149 26.903C22.2776 26.8944 22.6237 26.8149 22.9333 26.6672V26.8858ZM31.5333 21.4255C31.954 21.3202 32.3568 21.207 32.7517 21.0901C32.7653 21.0858 32.7782 21.0823 32.7911 21.078C35.6069 20.2416 37.7432 19.1372 39.039 17.8737C38.9687 19.6905 36.006 21.6226 31.5333 22.8101V21.4255ZM39.0354 20.7497C38.9738 22.5679 36.0125 24.5036 31.5333 25.6926V24.2872C34.9669 23.4236 37.5519 22.1909 39.0354 20.7497ZM4.26632 13.9263C6.07662 11.279 12.5782 8.60008 21.5 8.60008C30.4039 8.60008 36.8961 11.2689 38.7222 13.9099C38.9372 14.2689 39.0411 14.6072 39.0411 14.9426C39.0411 15.2923 38.9286 15.6463 38.7222 15.9997C38.7172 16.0068 38.7107 16.0126 38.7057 16.0204C38.5889 16.2154 38.442 16.4096 38.27 16.6009C38.2535 16.6196 38.237 16.6375 38.2205 16.6561C38.1474 16.7357 38.0679 16.8138 37.9855 16.8926C37.9446 16.9313 37.9016 16.97 37.8586 17.008C37.7877 17.0718 37.716 17.1349 37.64 17.1979C37.5454 17.2753 37.4458 17.3513 37.3426 17.428C37.3068 17.4545 37.2738 17.4817 37.2373 17.5082C37.0789 17.6208 36.9119 17.7326 36.7349 17.8429C36.7263 17.8487 36.7163 17.8537 36.7077 17.8594C36.5371 17.9648 36.3586 18.0687 36.1723 18.1719C36.153 18.1826 36.1329 18.1934 36.1128 18.2041C35.9286 18.3045 35.7366 18.4034 35.5373 18.5001C35.523 18.5073 35.5087 18.5144 35.4943 18.5216C34.8465 18.8348 34.1219 19.1293 33.3322 19.401C33.2884 19.416 33.2426 19.4311 33.1982 19.4454C32.9925 19.5149 32.7818 19.5823 32.5668 19.6482C32.4922 19.6711 32.417 19.6941 32.3417 19.7163C32.1454 19.7751 31.9447 19.8317 31.7419 19.8869C31.6616 19.9091 31.5835 19.9313 31.5025 19.9528C31.2252 20.0259 30.9428 20.0976 30.654 20.1649C30.3293 20.2395 30.1 20.529 30.1 20.8615V23.7275V27.2334C30.1 27.629 29.7789 27.9501 29.3833 27.9501C28.9877 27.9501 28.6667 27.629 28.6667 27.2334V26.9095C28.6667 26.5132 28.3463 26.1928 27.95 26.1928C27.5537 26.1928 27.2333 26.5132 27.2333 26.9095C27.2333 27.7 26.5905 28.3428 25.8 28.3428C25.1693 28.3428 24.6383 27.93 24.4469 27.3631C24.4455 27.3574 24.4469 27.3517 24.4455 27.3466C24.4197 27.2685 24.4011 27.1954 24.3882 27.1252C24.3774 27.0542 24.3667 26.9833 24.3667 26.9102V24.4019C24.3667 24.0055 24.0463 23.6852 23.65 23.6852C23.2537 23.6852 22.9333 24.0055 22.9333 24.4019C22.9333 24.9945 22.451 25.4769 21.8583 25.4769C21.333 25.4769 20.8966 25.0985 20.8034 24.5997C20.8027 24.5975 20.8041 24.5954 20.8034 24.5925C20.7926 24.5309 20.7833 24.4671 20.7833 24.4011V21.8541C20.7833 21.4671 20.4759 21.1503 20.0889 21.1374C19.5112 21.1195 18.9458 21.0901 18.3904 21.0514C18.3051 21.0457 18.2234 21.0371 18.1388 21.0307C17.6515 20.9941 17.1699 20.9518 16.7012 20.9002C16.6646 20.8966 16.6302 20.8916 16.5937 20.8873C8.99847 20.0288 3.95815 17.2911 3.95815 14.9433C3.95815 14.6022 4.06637 14.2589 4.26632 13.9263ZM21.5 34.4001C6.77752 34.4001 1.43333 29.2781 1.43333 25.8345C1.43333 24.9931 1.80027 24.2148 2.52697 23.5075C2.52553 23.5254 2.52482 23.5433 2.52482 23.5576C2.52482 27.7766 11.0367 31.2095 21.5 31.2095C31.9633 31.2095 40.4752 27.7766 40.4752 23.5576C40.4752 23.5526 40.4752 23.5476 40.4752 23.5426C41.2004 24.2478 41.5667 25.0146 41.5667 25.8345C41.5667 32.1497 31.2008 34.4001 21.5 34.4001Z" fill="#F0AE28"/>
<path d="M24.0633 19.188C30.3815 19.188 37.0981 17.3648 37.0981 13.9857C37.0981 13.5894 36.7777 13.269 36.3814 13.269C35.9851 13.269 35.6647 13.5894 35.6647 13.9857C35.6647 15.7645 30.7033 17.7547 24.0633 17.7547C23.667 17.7547 23.3467 18.075 23.3467 18.4713C23.3467 18.8676 23.667 19.188 24.0633 19.188Z" fill="#F0AE28"/>
</g>
<defs>
<clipPath id="clip0_33_1073">
<rect width="43" height="43" fill="white"/>
</clipPath>
</defs>
</svg>
