<svg width="" height="" viewBox="0 0 43 43" fill="none" xmlns="http://www.w3.org/2000/svg">
<path d="M20.5686 6.26902C20.6444 6.08418 20.7734 5.92605 20.9393 5.81476C21.1052 5.70347 21.3005 5.64404 21.5003 5.64404C21.7 5.64404 21.8953 5.70347 22.0612 5.81476C22.2271 5.92605 22.3561 6.08418 22.4319 6.26902L26.2392 15.4262C26.3105 15.5976 26.4276 15.7459 26.5778 15.855C26.7279 15.9641 26.9053 16.0296 27.0903 16.0444L36.9767 16.8363C37.8707 16.9079 38.2326 18.0241 37.5518 18.6064L30.0196 25.06C29.8789 25.1804 29.774 25.3372 29.7165 25.5132C29.659 25.6893 29.6511 25.8777 29.6935 26.058L31.9958 35.7061C32.0421 35.8997 32.03 36.1026 31.961 36.2893C31.892 36.476 31.7692 36.638 31.6082 36.755C31.4471 36.8719 31.2551 36.9385 31.0562 36.9463C30.8573 36.9542 30.6606 36.9029 30.4908 36.799L22.0252 31.6301C21.8671 31.5337 21.6854 31.4827 21.5003 31.4827C21.3151 31.4827 21.1334 31.5337 20.9753 31.6301L12.5097 36.8008C12.3399 36.9047 12.1432 36.956 11.9443 36.9481C11.7455 36.9403 11.5534 36.8737 11.3923 36.7568C11.2313 36.6398 11.1085 36.4778 11.0395 36.2911C10.9705 36.1044 10.9584 35.9015 11.0047 35.7079L13.307 26.058C13.3497 25.8777 13.3418 25.6892 13.2843 25.5131C13.2267 25.3371 13.1218 25.1803 12.9809 25.06L5.44871 18.6064C5.29787 18.4767 5.18876 18.3053 5.13508 18.1138C5.0814 17.9222 5.08555 17.7191 5.14702 17.5299C5.20849 17.3407 5.32453 17.1739 5.48054 17.0505C5.63655 16.9271 5.82557 16.8525 6.02383 16.8363L15.9103 16.0444C16.0952 16.0296 16.2726 15.9641 16.4227 15.855C16.5729 15.7459 16.69 15.5976 16.7613 15.4262L20.5686 6.26902Z" stroke="#F0AE28" stroke-width="3" stroke-linecap="round" stroke-linejoin="round"/>
</svg>
