<svg width="" height="" viewBox="0 0 43 43" fill="none" xmlns="http://www.w3.org/2000/svg">
<g clip-path="url(#clip0_33_1064)">
<path d="M42.9953 22.9312C43.1014 20.6501 41.3356 18.7113 39.0524 18.6055C37.9369 18.5523 36.9061 18.95 36.1294 19.6321C35.2906 18.7444 34.1224 18.1631 32.8038 18.1026C31.1772 18.0279 29.7036 18.7602 28.7607 19.9414C30.7434 21.7981 31.9627 24.4513 31.8918 27.3763C31.8897 27.454 31.8785 27.5266 31.8742 27.6022C32.8454 29.3345 33.39 31.3351 33.3389 33.4659C33.3037 34.9465 32.9806 36.3514 32.4386 37.6391C34.8348 37.7448 36.8682 35.891 36.9789 33.4924C36.9833 33.419 36.9789 33.3465 36.9789 33.2731C38.9969 32.6357 40.5061 30.7998 40.6076 28.5603C40.641 27.879 40.5346 27.2216 40.3245 26.6129C41.8205 26.0469 42.9157 24.6347 42.9953 22.9312Z" fill="#F0AE28"/>
<path d="M10.8769 26.8763C10.9463 23.9642 12.2765 21.3867 14.3242 19.6278C13.4591 18.4501 12.0804 17.6696 10.5061 17.6293C9.18744 17.5984 7.98033 18.094 7.08321 18.9242C6.35523 18.1868 5.35489 17.7199 4.23874 17.694C1.95286 17.6379 0.0554807 19.4479 0.00122678 21.734C-0.0398416 23.4376 0.95403 24.9202 2.40755 25.5929C2.15425 26.1835 2.00392 26.8316 1.98704 27.5136C1.93413 29.7552 3.30929 31.6933 5.27855 32.4724C5.27318 32.545 5.26419 32.6162 5.26209 32.6889C5.20557 35.0945 7.10622 37.088 9.50935 37.1454C9.6255 37.1476 9.74165 37.1433 9.8557 37.1368C9.36548 35.8132 9.10438 34.3838 9.1399 32.8881C9.19164 30.7573 9.83009 28.7839 10.8833 27.0999C10.8833 27.0245 10.8759 26.9518 10.8769 26.8763Z" fill="#F0AE28"/>
<path d="M17.7716 31.2884C17.7241 33.2293 19.273 34.2976 21.2124 34.3444C23.1541 34.3911 24.7497 33.3969 24.7961 31.4567C24.8425 29.5165 23.2958 28.4475 21.3542 28.4007C19.4146 28.3548 17.8169 29.3504 17.7716 31.2884Z" fill="#F0AE28"/>
<path d="M26.5303 34.0459C24.3861 34.8444 23.2884 36.3047 21.1665 36.2544C19.0447 36.2056 18.0178 34.6919 15.9157 33.7934C13.8136 32.8928 12.1939 34.915 13.2971 36.7055C14.6268 38.8608 16.3196 41.3966 20.882 41.5045C25.4458 41.6153 27.5744 39.168 29.006 37.0796C30.1946 35.3444 28.672 33.2474 26.5303 34.0459ZM27.0436 36.9113C26.9572 37.0112 24.8883 39.3694 21.2007 39.2831C17.5145 39.1946 15.5596 36.7386 15.4787 36.6343C15.3161 36.427 15.3524 36.1257 15.5617 35.9638C15.7686 35.8027 16.0696 35.8379 16.2322 36.0487C16.2488 36.0681 18.0044 38.25 21.2241 38.3277C24.4437 38.4025 26.3022 36.307 26.3199 36.2875C26.4926 36.0861 26.7957 36.066 26.9925 36.2386C27.1918 36.4091 27.2137 36.7098 27.0436 36.9113Z" fill="#F0AE28"/>
<path d="M15.532 29.8548C15.8683 29.8634 16.1737 28.775 16.2765 27.3168C17.7369 27.2859 18.8387 27.0318 18.8466 26.6952C18.8545 26.3615 17.7668 26.0535 16.3096 25.9513C16.2765 24.491 16.0219 23.3888 15.6856 23.3802C15.3504 23.3716 15.0439 24.4621 14.941 25.9182C13.4807 25.9491 12.38 26.2059 12.3721 26.5398C12.3646 26.8764 13.4519 27.1815 14.9079 27.2858C14.9421 28.7462 15.1957 29.8461 15.532 29.8548Z" fill="#F0AE28"/>
<path d="M27.8779 26.2262C27.8448 24.7659 27.5902 23.6638 27.256 23.6573C26.9197 23.648 26.6122 24.7371 26.5104 26.1953C25.05 26.2262 23.9483 26.4823 23.9415 26.8168C23.9328 27.1527 25.0212 27.4584 26.4773 27.5599C26.5104 29.0203 26.765 30.1224 27.1013 30.1316C27.4355 30.1381 27.743 29.0519 27.8469 27.5936C29.3051 27.5599 30.4068 27.3081 30.4159 26.9714C30.4224 26.6355 29.334 26.3277 27.8779 26.2262Z" fill="#F0AE28"/>
<path d="M27.6105 18.189L25.6919 8.16148C25.7384 8.16366 25.7782 8.17441 25.8246 8.17441C27.6702 8.17441 29.1658 6.67882 29.1658 4.8336C29.1658 2.98829 27.6702 1.49194 25.8246 1.49194C23.9795 1.49194 22.4824 2.98829 22.4824 4.8336C22.4824 5.81336 22.9129 6.68528 23.5856 7.2982L15.6816 17.5056L27.6105 18.189Z" fill="#F0AE28"/>
</g>
<defs>
<clipPath id="clip0_33_1064">
<rect width="43" height="43" fill="white"/>
</clipPath>
</defs>
</svg>
