<svg width="" height="" viewBox="0 0 43 43" fill="none" xmlns="http://www.w3.org/2000/svg">
<path d="M28.2187 18.8125L36.6754 10.3558C36.8633 10.1681 37.1027 10.0404 37.3632 9.9886C37.6237 9.93685 37.8937 9.96346 38.1391 10.0651C38.3845 10.1667 38.5942 10.3387 38.7419 10.5595C38.8896 10.7802 38.9685 11.0398 38.9687 11.3054V31.6946C38.9685 31.9602 38.8896 32.2198 38.7419 32.4405C38.5942 32.6613 38.3845 32.8333 38.1391 32.9349C37.8937 33.0365 37.6237 33.0631 37.3632 33.0114C37.1027 32.9596 36.8633 32.8319 36.6754 32.6442L28.2187 24.1875M8.0625 33.5937H24.1875C25.2567 33.5937 26.282 33.169 27.038 32.413C27.794 31.657 28.2187 30.6317 28.2187 29.5625V13.4375C28.2187 12.3683 27.794 11.343 27.038 10.587C26.282 9.83097 25.2567 9.40625 24.1875 9.40625H8.0625C6.99335 9.40625 5.96798 9.83097 5.21198 10.587C4.45597 11.343 4.03125 12.3683 4.03125 13.4375V29.5625C4.03125 30.6317 4.45597 31.657 5.21198 32.413C5.96798 33.169 6.99335 33.5937 8.0625 33.5937Z" stroke="#F0AE28" stroke-width="3" stroke-linecap="round"/>
</svg>
