<svg width="" height="" viewBox="0 0 43 43" fill="none" xmlns="http://www.w3.org/2000/svg">
<path d="M21.5 12.0936V14.7811C19.0723 14.7811 16.6679 14.8815 14.2903 15.0785C12.264 15.247 10.75 16.9723 10.75 19.0059V23.5083M21.5 14.7829C23.9277 14.7829 26.3321 14.8815 28.7097 15.0785C30.736 15.247 32.25 16.9723 32.25 19.0059V23.5083M26.875 14.7829V12.0954M16.125 14.7829V12.0954M37.625 29.5642L34.9375 30.9079C34.1031 31.3252 33.1829 31.5424 32.25 31.5424C31.3171 31.5424 30.3969 31.3252 29.5625 30.9079C28.7281 30.4907 27.8079 30.2735 26.875 30.2735C25.9421 30.2735 25.0219 30.4907 24.1875 30.9079C23.3531 31.3252 22.4329 31.5424 21.5 31.5424C20.5671 31.5424 19.6469 31.3252 18.8125 30.9079C17.9781 30.4907 17.0579 30.2735 16.125 30.2735C15.1921 30.2735 14.2719 30.4907 13.4375 30.9079C12.6031 31.3252 11.6829 31.5424 10.75 31.5424C9.81706 31.5424 8.89694 31.3252 8.0625 30.9079L5.375 29.5624M32.25 23.5065C28.6838 23.0634 25.0936 22.842 21.5 22.8436C17.8593 22.8436 14.2724 23.0676 10.75 23.5065C10.0543 23.5942 9.35965 23.6903 8.66629 23.795C6.751 24.0817 5.375 25.7551 5.375 27.6901V36.953C5.37547 37.4873 5.58804 37.9995 5.966 38.3771C6.34395 38.7547 6.85636 38.9668 7.39062 38.9668H35.6094C36.722 38.9668 37.625 38.0638 37.625 36.953V27.6901C37.625 25.7533 36.2508 24.0799 34.3337 23.7932C33.6421 23.6893 32.9487 23.5943 32.25 23.5065ZM21.9748 5.57196C22.0688 5.66589 22.1329 5.78561 22.1589 5.91596C22.1849 6.04631 22.1716 6.18145 22.1208 6.30426C22.07 6.42708 21.9839 6.53206 21.8734 6.60593C21.7629 6.67979 21.6329 6.71922 21.5 6.71922C21.3671 6.71922 21.2371 6.67979 21.1266 6.60593C21.0161 6.53206 20.93 6.42708 20.8792 6.30426C20.8284 6.18145 20.8151 6.04631 20.8411 5.91596C20.8671 5.78561 20.9312 5.66589 21.0252 5.57196L21.5 5.09717L21.9748 5.57196ZM16.5998 5.57196C16.6938 5.66589 16.7579 5.78561 16.7839 5.91596C16.8099 6.04631 16.7966 6.18145 16.7458 6.30426C16.695 6.42708 16.6089 6.53206 16.4984 6.60593C16.3879 6.67979 16.2579 6.71922 16.125 6.71922C15.9921 6.71922 15.8621 6.67979 15.7516 6.60593C15.6411 6.53206 15.555 6.42708 15.5042 6.30426C15.4534 6.18145 15.4401 6.04631 15.4661 5.91596C15.4921 5.78561 15.5562 5.66589 15.6502 5.57196L16.125 5.09717L16.5998 5.57196ZM27.3498 5.57196C27.4438 5.66589 27.5079 5.78561 27.5339 5.91596C27.5599 6.04631 27.5466 6.18145 27.4958 6.30426C27.445 6.42708 27.3589 6.53206 27.2484 6.60593C27.1379 6.67979 27.0079 6.71922 26.875 6.71922C26.7421 6.71922 26.6121 6.67979 26.5016 6.60593C26.3911 6.53206 26.305 6.42708 26.2542 6.30426C26.2034 6.18145 26.1901 6.04631 26.2161 5.91596C26.2421 5.78561 26.3062 5.66589 26.4002 5.57196L26.875 5.09717L27.3498 5.57196Z" stroke="#F0AE28" stroke-width="3" stroke-linecap="round" stroke-linejoin="round"/>
</svg>
