<svg width="" height="" viewBox="0 0 43 43" fill="none" xmlns="http://www.w3.org/2000/svg">
<path d="M17.0745 28.8855C16.6058 27.7299 15.7499 26.7733 14.6534 26.1795C13.5569 25.5856 12.2881 25.3915 11.0642 25.6304C9.84027 25.8692 8.73751 26.5262 7.94474 27.4887C7.15198 28.4513 6.71856 29.6595 6.7187 30.9065C6.7187 31.4585 6.60532 32.0046 6.3856 32.5111C6.16587 33.0175 5.84447 33.4734 5.44132 33.8505C5.03818 34.2276 4.56187 34.5179 4.04194 34.7034C3.522 34.8888 2.9695 34.9656 2.4187 34.9288C3.30459 36.4677 4.67375 37.6712 6.31365 38.3523C7.95354 39.0334 9.77243 39.1541 11.4879 38.6956C13.2034 38.2371 14.7196 37.2251 15.801 35.8167C16.8825 34.4082 17.4687 32.6822 17.4687 30.9065C17.4687 30.1916 17.3289 29.509 17.0745 28.8855ZM17.0745 28.8855C19.2049 28.1596 21.2423 27.1854 23.1447 25.983M14.1093 25.9382C14.8353 23.8033 15.8108 21.7616 17.0154 19.8555M23.1429 25.983C26.5405 23.8363 29.4487 20.999 31.6784 17.6553L38.6229 7.23855C38.8889 6.8418 39.009 6.36501 38.9626 5.88959C38.9161 5.41417 38.7061 4.96961 38.3683 4.63184C38.0306 4.29407 37.586 4.08403 37.1106 4.0376C36.6352 3.99117 36.1584 4.11122 35.7616 4.37726L25.3449 11.3235C22.0007 13.5526 19.1628 16.4601 17.0154 19.8573C19.7421 21.0764 21.9237 23.258 23.1429 25.9848" stroke="#F0AE28" stroke-width="3" stroke-linecap="round" stroke-linejoin="round"/>
</svg>
