<svg width="" height="" viewBox="0 0 50 50" fill="none" xmlns="http://www.w3.org/2000/svg">
<path d="M32.4792 29.9375C32.913 31.7731 32.9258 33.683 32.5166 35.5242C32.1074 37.3654 31.2869 39.0902 30.1165 40.5693C28.9461 42.0483 27.4561 43.2433 25.7582 44.0648C24.0604 44.8862 22.1986 45.3128 20.3125 45.3125V35.3125M32.4792 29.9375C36.4581 27.0391 39.6949 23.2406 41.9253 18.8523C44.1557 14.4639 45.3164 9.61015 45.3125 4.68751C40.3902 4.68395 35.5369 5.84477 31.1489 8.07515C26.7609 10.3055 22.9628 13.5422 20.0646 17.5208M32.4792 29.9375C28.8581 32.586 24.709 34.4196 20.3125 35.3125M20.3125 35.3125C20.0979 35.3563 19.8812 35.3979 19.6646 35.4375C17.7746 33.9388 16.0633 32.2275 14.5646 30.3375C14.6039 30.1204 14.6435 29.9037 14.6875 29.6875M20.0646 17.5208C18.2289 17.0867 16.3187 17.0736 14.4772 17.4826C12.6357 17.8916 10.9107 18.7121 9.4314 19.8825C7.95209 21.053 6.75687 22.5431 5.93531 24.2411C5.11375 25.9392 4.68716 27.8012 4.6875 29.6875H14.6875M20.0646 17.5208C17.4164 21.1413 15.5807 25.2918 14.6875 29.6875M10.0229 34.6667C8.65246 35.6858 7.58693 37.0604 6.94172 38.6416C6.29651 40.2229 6.0962 41.9506 6.3625 43.6375C8.04964 43.9036 9.77742 43.703 11.3587 43.0574C12.94 42.4118 14.3145 41.3458 15.3333 39.975M34.375 18.75C34.375 19.5788 34.0458 20.3737 33.4597 20.9597C32.8737 21.5458 32.0788 21.875 31.25 21.875C30.4212 21.875 29.6263 21.5458 29.0403 20.9597C28.4542 20.3737 28.125 19.5788 28.125 18.75C28.125 17.9212 28.4542 17.1263 29.0403 16.5403C29.6263 15.9542 30.4212 15.625 31.25 15.625C32.0788 15.625 32.8737 15.9542 33.4597 16.5403C34.0458 17.1263 34.375 17.9212 34.375 18.75Z" stroke="#F0AE28" stroke-width="3" stroke-linecap="round" stroke-linejoin="round"/>
</svg>
