<svg width="" height="" viewBox="0 0 63 63" fill="none" xmlns="http://www.w3.org/2000/svg">
<g clip-path="url(#clip0_204_450)">
<path d="M62.9777 42.5968C62.8799 41.8721 61.1421 38.7096 53.352 34.4439L48.0442 32.9756L43.3361 19.1408L54.1867 11.0725C57.71 9.03372 56.4125 7.45564 53.1673 7.45675C33.4944 7.46315 24.7892 5.04503 20.7071 17.2856C19.7007 20.3036 17.864 27.0189 16.3425 32.7245C-0.259246 37.1662 -0.450585 41.208 0.173263 42.3741L3.08258 47.8102L14.6798 53.3616L20.1507 47.9842V54.4755C20.1507 54.4755 31.0947 56.8871 40.7389 55.032C50.3853 53.1768 55.5779 50.7663 55.5779 50.7663L54.0934 46.6853L58.7319 48.7252L62.3683 44.603C62.8529 44.0542 63.0745 43.3217 62.9777 42.5968Z" fill="#5AC7FF"/>
</g>
<defs>
<clipPath id="clip0_204_450">
<rect width="63" height="63" fill="white"/>
</clipPath>
</defs>
</svg>
