<svg width="" height="" viewBox="0 0 63 63" fill="none" xmlns="http://www.w3.org/2000/svg">
<path d="M25.7591 41.748L23.625 49.2188L21.4909 41.748C20.9393 39.8183 19.9051 38.0609 18.4859 36.6417C17.0667 35.2225 15.3094 34.1883 13.3796 33.6368L5.90625 31.5L13.377 29.3659C15.3067 28.8143 17.0641 27.7801 18.4833 26.3609C19.9025 24.9417 20.9367 23.1844 21.4882 21.2546L23.625 13.7812L25.7591 21.252C26.3107 23.1817 27.3449 24.9391 28.7641 26.3583C30.1833 27.7775 31.9406 28.8117 33.8704 29.3632L41.3438 31.5L33.873 33.6341C31.9433 34.1857 30.1859 35.2199 28.7667 36.6391C27.3475 38.0583 26.3133 39.8156 25.7618 41.7454L25.7591 41.748ZM47.9299 22.8769L47.25 25.5938L46.5701 22.8769C46.181 21.3192 45.3758 19.8965 44.2407 18.761C43.1056 17.6254 41.6833 16.8197 40.1258 16.4299L37.4062 15.75L40.1258 15.0701C41.6833 14.6803 43.1056 13.8746 44.2407 12.739C45.3758 11.6035 46.181 10.1808 46.5701 8.62313L47.25 5.90625L47.9299 8.62313C48.3193 10.1812 49.1248 11.604 50.2604 12.7396C51.396 13.8752 52.8188 14.6807 54.3769 15.0701L57.0938 15.75L54.3769 16.4299C52.8188 16.8193 51.396 17.6248 50.2604 18.7604C49.1248 19.896 48.3193 21.3188 47.9299 22.8769ZM44.3467 53.9884L43.3125 57.0938L42.2783 53.9884C41.9883 53.1185 41.4998 52.3281 40.8515 51.6798C40.2031 51.0314 39.4127 50.543 38.5429 50.253L35.4375 49.2188L38.5429 48.1845C39.4127 47.8945 40.2031 47.4061 40.8515 46.7577C41.4998 46.1094 41.9883 45.319 42.2783 44.4491L43.3125 41.3438L44.3467 44.4491C44.6367 45.319 45.1252 46.1094 45.7735 46.7577C46.4219 47.4061 47.2123 47.8945 48.0821 48.1845L51.1875 49.2188L48.0821 50.253C47.2123 50.543 46.4219 51.0314 45.7735 51.6798C45.1252 52.3281 44.6367 53.1185 44.3467 53.9884Z" fill="#5AC7FF" stroke="#5AC7FF" stroke-width="4" stroke-linecap="round" stroke-linejoin="round"/>
</svg>
