<svg width="" height="" viewBox="0 0 63 63" fill="none" xmlns="http://www.w3.org/2000/svg">
<path d="M23.6252 23.625L51.1877 15.75M51.1877 32.9516V42.7954C51.1874 44.0787 50.7692 45.327 49.9962 46.3515C49.2232 47.3759 48.1376 48.1208 46.9037 48.4732L43.4387 49.4629C42.8379 49.6444 42.207 49.7047 41.5827 49.6401C40.9584 49.5755 40.3532 49.3874 39.8022 49.0867C39.2513 48.7861 38.7657 48.3788 38.3737 47.8887C37.9816 47.3986 37.691 46.8354 37.5187 46.2319C37.3463 45.6284 37.2958 44.9966 37.3699 44.3734C37.444 43.7501 37.6413 43.1479 37.9504 42.6016C38.2595 42.0554 38.6741 41.576 39.1702 41.1916C39.6663 40.8071 40.2338 40.5251 40.8399 40.362L46.9037 38.6295C48.1376 38.277 49.2232 37.5322 49.9962 36.5077C50.7692 35.4833 51.1874 34.235 51.1877 32.9516ZM51.1877 32.9516V5.90625L23.6252 13.7812V40.8266M23.6252 40.8266V50.6704C23.6249 51.9537 23.2067 53.202 22.4337 54.2265C21.6607 55.2509 20.5751 55.9958 19.3412 56.3482L15.8762 57.3379C14.6762 57.6608 13.3973 57.4987 12.3157 56.8868C11.2342 56.2748 10.4367 55.262 10.0955 54.0671C9.75428 52.8721 9.89672 51.591 10.4921 50.5002C11.0874 49.4094 12.0879 48.5965 13.2774 48.237L19.3412 46.5045C20.5751 46.152 21.6607 45.4072 22.4337 44.3827C23.2067 43.3583 23.6249 42.11 23.6252 40.8266Z" stroke="#5AC7FF" stroke-width="4" stroke-linecap="round" stroke-linejoin="round"/>
</svg>
