<svg width="" height="" viewBox="0 0 63 63" fill="none" xmlns="http://www.w3.org/2000/svg">
<path d="M26.3813 12.0094C26.3813 11.4664 26.2743 10.9288 26.0665 10.4272C25.8588 9.92561 25.5542 9.46984 25.1703 9.08593C24.7864 8.70202 24.3306 8.39748 23.829 8.18971C23.3274 7.98194 22.7898 7.875 22.2469 7.875C21.7039 7.875 21.1663 7.98194 20.6647 8.18971C20.1631 8.39748 19.7073 8.70202 19.3234 9.08593C18.9395 9.46984 18.635 9.92561 18.4272 10.4272C18.2194 10.9288 18.1125 11.4664 18.1125 12.0094V19.8844M26.3813 12.0094V8.07188C26.3813 6.97537 26.8168 5.92378 27.5922 5.14843C28.3675 4.37308 29.4191 3.9375 30.5156 3.9375C31.6121 3.9375 32.6637 4.37308 33.4391 5.14843C34.2144 5.92378 34.65 6.97537 34.65 8.07188V12.0094M26.3813 12.0094L26.5781 27.5625M18.1125 19.8844C18.1125 18.7879 17.6769 17.7363 16.9016 16.9609C16.1262 16.1856 15.0746 15.75 13.9781 15.75C12.8816 15.75 11.83 16.1856 11.0547 16.9609C10.2793 17.7363 9.84375 18.7879 9.84375 19.8844V41.3438C9.84375 46.0431 11.7105 50.5499 15.0335 53.8728C18.3564 57.1957 22.8632 59.0625 27.5625 59.0625H32.8597C36.5146 59.0621 40.0196 57.6098 42.6037 55.0252L47.1502 50.4787C49.7348 47.8946 51.1871 44.3896 51.1875 40.7347L51.1954 35.4218C51.1979 34.957 51.3849 34.5123 51.7151 34.1854C52.0991 33.8014 52.4038 33.3455 52.6116 32.8437C52.8194 32.342 52.9264 31.8042 52.9264 31.2611C52.9264 30.718 52.8194 30.1803 52.6116 29.6785C52.4038 29.1768 52.0991 28.7209 51.7151 28.3369C51.3311 27.9529 50.8752 27.6482 50.3735 27.4404C49.8717 27.2326 49.334 27.1256 48.7909 27.1256C48.2478 27.1256 47.71 27.2326 47.2083 27.4404C46.7065 27.6482 46.2506 27.9529 45.8666 28.3369C43.9936 30.2075 42.9367 32.7431 42.9266 35.3903M18.1125 19.8844V31.5M34.65 12.0094V29.5312M34.65 12.0094C34.65 10.9129 35.0856 9.86128 35.8609 9.08593C36.6363 8.31058 37.6879 7.875 38.7844 7.875C39.8809 7.875 40.9325 8.31058 41.7078 9.08593C42.4832 9.86128 42.9188 10.9129 42.9188 12.0094V39.375M42.9188 39.375C41.3682 39.3742 39.8327 39.6795 38.4003 40.2731C36.9679 40.8668 35.6667 41.7373 34.5713 42.8348M42.9188 39.375H42.924" stroke="#5AC7FF" stroke-width="4" stroke-linecap="round" stroke-linejoin="round"/>
</svg>
