<svg width="" height="" viewBox="0 0 63 63" fill="none" xmlns="http://www.w3.org/2000/svg">
<path d="M40.3253 13.6867C44.8531 15.71 48.5495 19.2256 50.797 23.6463C53.0446 28.067 53.7072 33.1251 52.6742 37.9756C51.6412 42.8261 48.9751 47.1752 45.1213 50.2965C41.2674 53.4178 36.4593 55.1222 31.5001 55.1249C27.2581 55.1248 23.1096 53.8788 19.5695 51.5417C16.0294 49.2046 13.2536 45.8792 11.5868 41.9785C9.91988 38.0777 9.4353 33.7734 10.1932 29.5996C10.951 25.4259 12.918 21.5667 15.8498 18.5009C17.8702 21.3221 20.5361 23.619 23.6251 25.1999C23.6792 21.7313 24.4979 18.3174 26.0229 15.2016C27.548 12.0857 29.7417 9.34474 32.4477 7.17407C34.5129 9.94395 37.2138 12.1767 40.3227 13.6841L40.3253 13.6867Z" fill="#5AC7FF" stroke="#5AC7FF" stroke-width="4" stroke-linecap="round" stroke-linejoin="round"/>
<path d="M31.4999 47.25C33.9973 47.2491 36.4009 46.299 38.224 44.5921C40.0471 42.8853 41.1532 40.5493 41.3184 38.0574C41.4836 35.5655 40.6955 33.104 39.1137 31.1714C37.5319 29.2388 35.2747 27.9798 32.7993 27.6492C30.0891 30.0742 28.3034 33.3637 27.7462 36.9574C25.724 36.4627 23.8207 35.5704 22.147 34.3324C21.661 35.811 21.5325 37.3837 21.7721 38.9216C22.0117 40.4595 22.6125 41.9186 23.5253 43.1792C24.4381 44.4399 25.6367 45.4662 27.023 46.1738C28.4092 46.8814 29.9435 47.2503 31.4999 47.25Z" fill="white" stroke="#5AC7FF" stroke-width="1.5" stroke-linecap="round" stroke-linejoin="round"/>
</svg>
