<svg width="" height="" viewBox="0 0 57 73" fill="none" xmlns="http://www.w3.org/2000/svg">
<path d="M18 58.7308L34.5455 42L31 54.2692H44L27.4545 71L31 58.7308H18Z" stroke="#5AC7FF" stroke-width="3" stroke-linecap="round" stroke-linejoin="round"/>
<path d="M5.34375 35.6251C5.34375 38.4596 6.46975 41.178 8.47405 43.1823C10.4783 45.1866 13.1967 46.3126 16.0313 46.3126H42.75C44.8348 46.3149 46.8544 45.5857 48.4569 44.252C50.0593 42.9184 51.1432 41.0648 51.5195 39.0142C51.8959 36.9637 51.541 34.846 50.5166 33.0302C49.4922 31.2144 47.8632 29.8155 45.9135 29.0772C46.3542 27.8238 46.4357 26.4721 46.1487 25.1748C45.8616 23.8775 45.2176 22.6863 44.2893 21.7357C43.3609 20.7852 42.1853 20.1131 40.8952 19.7955C39.605 19.4779 38.2518 19.5273 36.9883 19.9382C36.171 16.8033 34.1657 14.1095 31.3969 12.4273C28.6282 10.7452 25.3134 10.2067 22.1545 10.926C18.9956 11.6452 16.2407 13.5657 14.4732 16.2808C12.7057 18.9958 12.0643 22.2923 12.6849 25.472C10.5488 26.177 8.6894 27.5378 7.37138 29.3607C6.05337 31.1835 5.34384 33.3757 5.34375 35.6251Z" stroke="#5AC7FF" stroke-width="4" stroke-linecap="round" stroke-linejoin="round"/>
</svg>
