<svg width="" height="" viewBox="0 0 63 63" fill="none" xmlns="http://www.w3.org/2000/svg">
<path d="M31.4999 47.2501V33.4689V47.2501ZM31.4999 33.4689C32.828 33.4699 34.151 33.3032 35.4374 32.9727L31.4999 33.4689ZM31.4999 33.4689C30.1717 33.4699 28.8487 33.3032 27.5624 32.9727L31.4999 33.4689ZM37.4061 52.6025C33.5035 53.3436 29.4962 53.3436 25.5936 52.6025H37.4061ZM35.4374 58.8579C32.8195 59.1319 30.1802 59.1319 27.5624 58.8579H35.4374ZM37.4061 47.2501V46.7461C37.4061 44.1657 39.1334 41.9607 41.3646 40.6666C45.1131 38.4959 48.0411 35.1494 49.6948 31.1459C51.3485 27.1423 51.6357 22.705 50.5119 18.5217C49.388 14.3383 46.9158 10.6424 43.4784 8.00657C40.041 5.37073 35.8302 3.94214 31.4985 3.94214C27.1669 3.94214 22.9561 5.37073 19.5187 8.00657C16.0812 10.6424 13.6091 14.3383 12.4852 18.5217C11.3614 22.705 11.6485 27.1423 13.3023 31.1459C14.956 35.1494 17.884 38.4959 21.6325 40.6666C23.8637 41.9607 25.5936 44.1657 25.5936 46.7461V47.2501" fill="#5AC7FF"/>
<path d="M31.4999 47.2501V33.4689M31.4999 33.4689C32.828 33.4699 34.151 33.3032 35.4374 32.9727M31.4999 33.4689C30.1717 33.4699 28.8487 33.3032 27.5624 32.9727M37.4061 52.6025C33.5035 53.3436 29.4962 53.3436 25.5936 52.6025M35.4374 58.8579C32.8195 59.1319 30.1802 59.1319 27.5624 58.8579M37.4061 47.2501V46.7461C37.4061 44.1657 39.1334 41.9607 41.3646 40.6666C45.1131 38.4959 48.0411 35.1494 49.6948 31.1459C51.3485 27.1423 51.6357 22.705 50.5119 18.5217C49.388 14.3383 46.9158 10.6424 43.4784 8.00657C40.041 5.37073 35.8302 3.94214 31.4985 3.94214C27.1669 3.94214 22.9561 5.37073 19.5187 8.00657C16.0812 10.6424 13.6091 14.3383 12.4852 18.5217C11.3614 22.705 11.6485 27.1423 13.3023 31.1459C14.956 35.1494 17.884 38.4959 21.6325 40.6666C23.8637 41.9607 25.5936 44.1657 25.5936 46.7461V47.2501" stroke="#5AC7FF" stroke-width="4" stroke-linecap="round" stroke-linejoin="round"/>
</svg>
