<svg width="" height="" viewBox="0 0 63 63" fill="none" xmlns="http://www.w3.org/2000/svg">
<g clip-path="url(#clip0_218_140)">
<path d="M42.3678 49.7179C41.5575 48.9076 14.3451 21.6946 13.281 20.6304C12.4776 19.827 11.1759 19.827 10.3725 20.6304C9.56914 21.433 9.56914 22.7359 10.3725 23.5388L12.3642 25.5306L0.117421 60.2567C-0.146391 61.0039 0.0423628 61.8356 0.602841 62.3953C1.1664 62.9589 1.99979 63.1427 2.7414 62.8807L37.4669 50.6339L39.4594 52.6264C40.2628 53.4297 41.5644 53.4299 42.3679 52.6264C43.1712 51.8236 43.1712 50.5207 42.3678 49.7179ZM17.0394 53.4762L9.52189 45.9594L11.7973 39.5081L23.4908 51.201L17.0394 53.4762Z" fill="#F0AE28"/>
<path d="M47.3331 15.665C46.5297 14.8617 45.228 14.8617 44.4247 15.665L31.5845 28.5046C30.7811 29.3072 30.7811 30.6097 31.5845 31.4131C32.3878 32.2164 33.6894 32.2166 34.4929 31.4131L47.3331 18.5735C48.1365 17.7709 48.1365 16.4684 47.3331 15.665Z" fill="#F0AE28"/>
<path d="M45.1935 34.5713H38.0055C36.87 34.5713 35.9487 35.4919 35.9487 36.628C35.9487 37.7642 36.87 38.6847 38.0055 38.6847H45.1935C46.329 38.6847 47.2502 37.7641 47.2502 36.628C47.2502 35.4918 46.329 34.5713 45.1935 34.5713Z" fill="#F0AE28"/>
<path d="M26.3702 15.748C25.2347 15.748 24.3135 16.6686 24.3135 17.8048V24.9935C24.3135 26.1298 25.2347 27.0503 26.3702 27.0503C27.5057 27.0503 28.4269 26.1296 28.4269 24.9935V17.8048C28.4269 16.6687 27.5057 15.748 26.3702 15.748Z" fill="#F0AE28"/>
<path d="M61.1909 32.2655C58.7819 29.8552 54.8771 29.8535 52.4656 32.2648C50.0549 34.6739 50.0513 38.5799 52.4656 40.9914C54.8748 43.4019 58.78 43.4036 61.1909 40.9914C63.6015 38.5823 63.6052 34.6769 61.1909 32.2655ZM58.2827 38.0822C58.2827 38.083 58.2827 38.083 58.2827 38.083C57.0544 39.3112 54.7718 38.5099 54.7718 36.6282C54.7718 35.5006 55.6831 34.5721 56.8285 34.5721C58.6666 34.5719 59.5667 36.7982 58.2827 38.0822Z" fill="#F0AE28"/>
<path d="M30.733 1.80589C28.3282 -0.598935 24.4127 -0.598935 22.0052 1.80725C19.6016 4.21281 19.6016 8.12694 22.0065 10.5325C24.411 12.9386 28.3283 12.9379 30.733 10.5332V10.5325C33.1441 8.12435 33.1466 4.21946 30.733 1.80589ZM27.8247 7.62355V7.62429C27.0225 8.42569 25.7196 8.42692 24.9149 7.62429C24.1141 6.82214 24.1141 5.51723 24.9149 4.71583C25.7172 3.91467 27.0188 3.91209 27.8247 4.71509C28.6303 5.52216 28.6273 6.82092 27.8247 7.62355Z" fill="#F0AE28"/>
<path d="M52.5479 27.0495C53.6838 27.0495 54.6047 26.1287 54.6047 24.9928C54.6047 23.8569 53.6838 22.936 52.5479 22.936C51.412 22.936 50.4912 23.8569 50.4912 24.9928C50.4912 26.1287 51.412 27.0495 52.5479 27.0495Z" fill="#F0AE28"/>
<path d="M38.0055 12.5065C39.1414 12.5065 40.0622 11.5857 40.0622 10.4498C40.0622 9.3139 39.1414 8.39307 38.0055 8.39307C36.8696 8.39307 35.9487 9.3139 35.9487 10.4498C35.9487 11.5857 36.8696 12.5065 38.0055 12.5065Z" fill="#F0AE28"/>
<path d="M52.5479 50.32C53.6838 50.32 54.6047 49.3992 54.6047 48.2633C54.6047 47.1274 53.6838 46.2065 52.5479 46.2065C51.412 46.2065 50.4912 47.1274 50.4912 48.2633C50.4912 49.3992 51.412 50.32 52.5479 50.32Z" fill="#F0AE28"/>
<path d="M14.735 12.5065C15.8709 12.5065 16.7917 11.5857 16.7917 10.4498C16.7917 9.3139 15.8709 8.39307 14.735 8.39307C13.5991 8.39307 12.6782 9.3139 12.6782 10.4498C12.6782 11.5857 13.5991 12.5065 14.735 12.5065Z" fill="#F0AE28"/>
<path d="M54.6056 0.165527C53.4701 0.165527 52.5488 1.08616 52.5488 2.22226V4.27898C52.5488 5.4152 53.4701 6.33571 54.6056 6.33571C55.741 6.33571 56.6623 5.41508 56.6623 4.27898V2.22238C56.6623 1.08616 55.741 0.165527 54.6056 0.165527Z" fill="#F0AE28"/>
<path d="M54.6056 10.4492C53.4701 10.4492 52.5488 11.3699 52.5488 12.5059V14.5627C52.5488 15.6989 53.4701 16.6194 54.6056 16.6194C55.741 16.6194 56.6623 15.6988 56.6623 14.5627V12.5059C56.6623 11.3699 55.741 10.4492 54.6056 10.4492Z" fill="#F0AE28"/>
<path d="M50.4919 6.33594H48.4351C47.2997 6.33594 46.3784 7.25657 46.3784 8.39267C46.3784 9.52876 47.2997 10.4494 48.4351 10.4494H50.4919C51.6274 10.4494 52.5486 9.52876 52.5486 8.39267C52.5486 7.25657 51.6274 6.33594 50.4919 6.33594Z" fill="#F0AE28"/>
<path d="M60.7756 6.33594H58.7188C57.5834 6.33594 56.6621 7.25657 56.6621 8.39267C56.6621 9.52876 57.5834 10.4494 58.7188 10.4494H60.7756C61.911 10.4494 62.8323 9.52876 62.8323 8.39267C62.8323 7.25657 61.911 6.33594 60.7756 6.33594Z" fill="#F0AE28"/>
</g>
<defs>
<clipPath id="clip0_218_140">
<rect width="63" height="63" fill="white"/>
</clipPath>
</defs>
</svg>
