<svg width="" height="" viewBox="0 0 56 56" fill="none" xmlns="http://www.w3.org/2000/svg">
<g clip-path="url(#clip0_218_113)">
<path d="M17.0945 49.5607L11.072 40.5731C11.3181 39.9186 11.2941 39.1649 10.937 38.5002C10.2825 37.2765 8.75978 36.8185 7.53784 37.4748C6.31415 38.1293 5.8562 39.6503 6.5107 40.8739C6.95159 41.6942 7.78393 42.1694 8.65204 42.195L14.6762 51.1843C14.4284 51.8388 14.4541 52.5925 14.8112 53.2572C15.4657 54.4792 16.9884 54.9389 18.2103 54.2826C19.4323 53.6281 19.892 52.1054 19.2357 50.8835C18.7966 50.0614 17.9643 49.5863 17.0945 49.5607Z" fill="#F0AE28"/>
<path d="M0.749473 48.8978C-0.0554174 49.4754 -0.241792 50.5965 0.335926 51.4031L2.69777 54.6998C3.27538 55.5064 4.39647 55.6927 5.20311 55.1151L11.5982 50.8887L7.48632 44.6064L0.749473 48.8978Z" fill="#F0AE28"/>
<path d="M51.443 18.8759C57.8671 8.85444 50.6877 0.548828 50.6877 0.548828C50.6877 0.548828 50.5014 1.19316 50.0007 2.63209C45.6069 12.9663 37.021 22.188 29.3203 28.9607C31.5437 30.856 33.6594 32.5291 35.5359 33.9442C42.0419 29.0137 48.5258 23.4269 51.443 18.8759Z" fill="#F0AE28"/>
<path d="M13.8657 40.6414L17.7862 46.146C17.7862 46.146 21.4845 43.8628 26.4849 40.4431C24.5691 39.1066 22.5268 37.6403 20.4623 36.0972C16.5283 39.0041 13.8657 40.6414 13.8657 40.6414Z" fill="#F0AE28"/>
<path d="M47.3482 42.195C48.2164 42.1694 49.0487 41.6942 49.4896 40.8739C50.1441 39.6502 49.6844 38.1293 48.4624 37.4748C47.2405 36.8185 45.7178 37.2765 45.0633 38.5002C44.706 39.1649 44.6822 39.9186 44.9283 40.5731L38.9041 49.5607C38.0359 49.5863 37.2037 50.0614 36.7628 50.8835C36.1083 52.1054 36.568 53.6281 37.7899 54.2826C39.0119 54.9389 40.5346 54.4792 41.1891 53.2572C41.5463 52.5925 41.5702 51.8388 41.3241 51.1843L47.3482 42.195Z" fill="#F0AE28"/>
<path d="M55.2488 48.8977L48.5119 44.6064L44.4019 50.8887L50.7969 55.1151C51.6035 55.6927 52.7246 55.5064 53.3022 54.6998L55.6641 51.4031C56.2417 50.5965 56.0554 49.4754 55.2488 48.8977Z" fill="#F0AE28"/>
<path d="M38.214 46.1462L39.7623 43.9723C22.1121 32.0368 14.0029 24.9086 10.0585 20.1337C8.71352 18.5034 7.85394 17.143 7.27622 15.9638C6.50546 14.3915 6.24394 13.1389 5.99107 12.081C5.91243 11.7597 6.11072 11.435 6.43371 11.3581C6.75505 11.2812 7.07968 11.4794 7.15657 11.8025C7.41633 12.886 7.64701 13.99 8.35455 15.4359C9.06035 16.8817 10.2532 18.6743 12.4527 21.0413C16.7372 25.659 24.8377 32.4351 40.4578 42.995L42.1326 40.6417C42.1326 40.6417 15.0931 24.0149 5.9996 2.63209C5.49724 1.19305 5.31097 0.548828 5.31097 0.548828C5.31097 0.548828 -1.86676 8.85454 4.55727 18.876C11.4429 29.6186 38.214 46.1462 38.214 46.1462Z" fill="#F0AE28"/>
</g>
<defs>
<clipPath id="clip0_218_113">
<rect width="56" height="56" fill="white"/>
</clipPath>
</defs>
</svg>
