<svg width="" height="" viewBox="0 0 63 63" fill="none" xmlns="http://www.w3.org/2000/svg">
<path d="M24.7302 43.4833L21.441 48.4183C21.1773 48.8137 21.0258 49.2732 21.0027 49.7479C20.9797 50.2225 21.0859 50.6946 21.3101 51.1136C21.5343 51.5326 21.8681 51.8829 22.2758 52.1271C22.6835 52.3713 23.1498 52.5003 23.625 52.5002H28.875V57.7502C28.875 58.4464 29.1516 59.1141 29.6439 59.6064C30.1362 60.0987 30.8039 60.3752 31.5 60.3752C32.1962 60.3752 32.8639 60.0987 33.3562 59.6064C33.8485 59.1141 34.125 58.4464 34.125 57.7502V52.5002H39.375C39.8503 52.5003 40.3166 52.3713 40.7243 52.1271C41.132 51.8829 41.4658 51.5326 41.69 51.1136C41.9142 50.6946 42.0204 50.2225 41.9973 49.7479C41.9743 49.2732 41.8228 48.8137 41.559 48.4183L38.2699 43.4833C42.9791 41.8796 46.966 38.6562 49.5203 34.3873C52.0747 30.1184 53.0307 25.0814 52.2179 20.1735C51.4051 15.2656 48.8763 10.8056 45.0822 7.58806C41.288 4.37056 36.4748 2.60449 31.5 2.60449C26.5253 2.60449 21.7121 4.37056 17.9179 7.58806C14.1237 10.8056 11.595 15.2656 10.7822 20.1735C9.96944 25.0814 10.9254 30.1184 13.4797 34.3873C16.0341 38.6562 20.021 41.8796 24.7302 43.4833ZM32.6944 44.5832L34.4689 47.2502H28.5312L30.3057 44.5832C30.4395 44.5832 30.5682 44.5832 30.6915 44.5832C30.954 44.5832 31.2165 44.6252 31.5 44.6252C31.7835 44.6252 32.0382 44.5937 32.3085 44.5832C32.4372 44.578 32.55 44.5937 32.6944 44.5832ZM31.5 7.87522C35.4743 7.90517 39.2904 9.43653 42.1829 12.1622C45.0754 14.8879 46.8304 18.6063 47.0961 22.5719C47.3618 26.5374 46.1185 30.4567 43.6155 33.5439C41.1125 36.6311 37.5348 38.6578 33.6 39.2177C32.2059 39.3989 30.7942 39.3989 29.4 39.2177C25.4653 38.6578 21.8876 36.6311 19.3846 33.5439C16.8816 30.4567 15.6383 26.5374 15.904 22.5719C16.1696 18.6063 17.9247 14.8879 20.8172 12.1622C23.7097 9.43653 27.5258 7.90517 31.5 7.87522Z" fill="#F0AE28"/>
</svg>
