<svg width="" height="" viewBox="0 0 51 65" fill="none" xmlns="http://www.w3.org/2000/svg">
<path d="M1.43633 9.2753C0.841005 8.38601 0.981569 7.71081 1.12627 7.48438C1.2505 6.86682 2.24251 6.49628 2.61459 6.24926C2.91226 6.05164 5.2605 5.42584 6.39742 5.13765C6.93487 4.29365 8.08419 2.50685 8.38185 2.11161C8.75393 1.61756 9.25004 1 10.1802 1C11.1104 1 11.7926 1.92634 11.8546 2.11161C11.9042 2.25982 13.2809 4.19072 13.9631 5.13765L17.8699 6.24926C18.5645 6.44688 19.0275 7.15501 19.1722 7.48438C19.4823 8.78125 19.0482 8.96652 18.8621 9.2753C18.7133 9.52232 17.1878 11.4368 16.4436 12.3631V16.192C16.4436 17.4888 16.0715 17.6741 15.5754 17.9829C15.0793 18.2917 13.9011 18.2917 13.3429 17.9829C12.8964 17.7359 11.0484 17.1389 10.1802 16.8713C9.29138 17.1595 7.38964 17.7853 6.89353 17.9829C6.27339 18.2299 5.28117 18.5387 4.66104 17.9829C4.0409 17.4271 3.85486 17.1183 3.85486 16.192V12.3631C3.29674 11.7044 2.03166 10.1646 1.43633 9.2753Z" fill="#F0AE28"/>
<path d="M14.3972 45.0938C15.0793 44.8467 15.5754 44.3527 15.3274 42.994C14.8809 40.8202 12.33 41.7589 11.1104 42.5C9.43608 43.0558 7.45165 46.3289 7.45165 47.6875C7.45165 49.0461 6.95554 57.6302 15.8855 57.0126C24.8154 56.3951 25.0635 49.0461 25.0015 45.7113C24.9395 42.3765 19.6063 34.8423 11.9166 36.7567C4.22694 38.6711 2.11848 43.7969 1.56036 49.6637C1.00224 55.5305 6.21138 60.5327 8.38185 61.6443L8.44828 61.6784C10.6887 62.8267 17.4475 66.2909 24.7534 61.6443C32.133 56.9509 33.2493 50.2812 33.3113 45.0938C33.3733 39.9062 29.3424 34.9658 29.2804 34.8423C29.2184 34.7188 27.7921 33.0513 26.3038 34.1012C24.8154 35.151 26.2417 37.189 26.5518 37.3743C26.8619 37.5595 28.5363 40.4621 28.9703 41.9442C29.4044 43.4263 30.2726 47.6875 28.2262 52.5045C26.1797 57.3214 21.2807 59.4211 19.6063 59.9152C17.9319 60.4092 13.591 60.6562 9.9942 58.2478C6.39742 55.8393 5.65326 53.369 5.28117 49.849C4.90909 46.3289 7.76172 42.994 8.38185 42.5C9.00199 42.006 9.87018 41.0179 13.591 40.4621C17.3118 39.9062 22.0868 43.7351 21.2807 48.4286C20.6357 52.1833 17.4152 53.2867 15.8855 53.369C12.7848 53.4926 11.2345 50.8988 11.1104 49.6637C10.9864 48.4286 11.1725 48.2433 11.6066 46.9464C12.0407 45.6496 13.715 45.3408 14.3972 45.0938Z" fill="#F0AE28"/>
<path d="M21.5907 22.4911C20.2512 21.997 20.3711 20.6796 20.5985 20.0826C21.1442 18.6004 22.645 18.9298 23.3271 19.2798C25.3736 19.465 31.6369 23.6027 33.3113 25.1466C34.9857 26.6905 38.8925 29.9018 41.063 37.3743C43.2335 44.8467 41.001 50.4048 40.7529 51.2076C40.5049 52.0104 39.4506 52.5045 38.2724 52.0104C37.3298 51.6152 37.1768 50.4048 37.2181 49.849C38.7006 46.3428 38.1527 41.979 37.9033 39.9916L37.9003 39.968C37.6522 37.9918 36.2259 33.7307 31.947 29.0372C27.6681 24.3438 23.2651 23.1086 21.5907 22.4911Z" fill="#F0AE28"/>
<path d="M29.5905 14.0923C25.5224 14.2899 24.216 10.3457 24.0713 8.34896C23.9866 7.66964 25.0015 3.0997 29.5905 3.0997C34.1795 3.0997 35.2337 6.86682 35.2957 8.34896C35.3577 9.8311 34.6756 13.8452 29.5905 14.0923Z" fill="#F0AE28"/>
<path d="M14.0251 29.099C14.0747 27.7156 15.2447 27.2875 15.8235 27.2463C16.4229 27.2463 17.6343 27.6168 17.6839 29.099C17.7335 30.5811 16.4643 30.9928 15.8235 31.0134C15.2033 30.9516 13.9755 30.4823 14.0251 29.099Z" fill="#F0AE28"/>
<path d="M1.49835 25.2083C1.49835 23.9732 2.73862 23.4586 3.35876 23.3557C3.95822 23.438 5.16955 23.9238 5.21916 25.2083C5.28117 26.814 3.73084 27.061 3.35876 27.061C2.98667 27.061 1.49835 26.7522 1.49835 25.2083Z" fill="#F0AE28"/>
<path d="M33.8074 21.9353C33.5593 21.6882 32.2571 18.7034 31.6369 17.2418C31.1259 16.0561 32.0028 15.1833 32.5051 14.8951C33.8942 14.2528 34.903 15.3274 35.2337 15.9449L37.0321 20.2679C37.2305 21.4042 36.66 22.1 36.35 22.3058C34.7996 22.9851 34.1175 22.244 33.8074 21.9353Z" fill="#F0AE28"/>
<path d="M40.5049 24.6525C38.322 20.6507 39.2646 16.4802 40.0088 14.8951C41.1994 11.3874 45.3006 9.06944 47.2023 8.34896C48.1945 7.80551 49.0214 8.5754 49.3108 9.02827C49.8276 9.60466 50.2038 11.0786 47.5744 12.3631C44.2877 13.9688 43.9776 15.2656 43.1714 17.2418C42.3653 19.218 43.6055 21.9353 43.9776 23.5409C44.2753 24.8254 43.5642 25.6818 43.1714 25.9494C41.2366 26.5917 40.5875 25.3524 40.5049 24.6525Z" fill="#F0AE28"/>
<path d="M41.063 4.89062C41.063 3.6061 42.3033 3.07912 42.9234 2.97619C43.5022 3.07912 44.6846 3.6061 44.7838 4.89062C44.883 6.17515 43.5849 6.66096 42.9234 6.7433C42.3033 6.66096 41.063 6.17515 41.063 4.89062Z" fill="#F0AE28"/>
<path d="M1.43633 9.2753C0.841005 8.38601 0.981569 7.71081 1.12627 7.48438C1.2505 6.86682 2.24251 6.49628 2.61459 6.24926C2.91226 6.05164 5.2605 5.42584 6.39742 5.13765C6.93487 4.29365 8.08419 2.50685 8.38185 2.11161C8.75393 1.61756 9.25004 1 10.1802 1C11.1104 1 11.7926 1.92634 11.8546 2.11161C11.9042 2.25982 13.2809 4.19072 13.9631 5.13765L17.8699 6.24926C18.5645 6.44688 19.0275 7.15501 19.1722 7.48438C19.4823 8.78125 19.0482 8.96652 18.8621 9.2753C18.7133 9.52232 17.1878 11.4368 16.4436 12.3631V16.192C16.4436 17.4888 16.0715 17.6741 15.5754 17.9829C15.0793 18.2917 13.9011 18.2917 13.3429 17.9829C12.8964 17.7359 11.0484 17.1389 10.1802 16.8713C9.29138 17.1595 7.38964 17.7853 6.89353 17.9829C6.27339 18.2299 5.28117 18.5387 4.66104 17.9829C4.0409 17.4271 3.85486 17.1183 3.85486 16.192V12.3631C3.29674 11.7044 2.03166 10.1646 1.43633 9.2753Z" stroke="#F0AE28"/>
<path d="M14.3972 45.0938C15.0793 44.8467 15.5754 44.3527 15.3274 42.994C14.8809 40.8202 12.33 41.7589 11.1104 42.5C9.43608 43.0558 7.45165 46.3289 7.45165 47.6875C7.45165 49.0461 6.95554 57.6302 15.8855 57.0126C24.8154 56.3951 25.0635 49.0461 25.0015 45.7113C24.9395 42.3765 19.6063 34.8423 11.9166 36.7567C4.22694 38.6711 2.11848 43.7969 1.56036 49.6637C1.00224 55.5305 6.21138 60.5327 8.38185 61.6443L8.44828 61.6784C10.6887 62.8267 17.4475 66.2909 24.7534 61.6443C32.133 56.9509 33.2493 50.2812 33.3113 45.0938C33.3733 39.9062 29.3424 34.9658 29.2804 34.8423C29.2184 34.7188 27.7921 33.0513 26.3038 34.1012C24.8154 35.151 26.2417 37.189 26.5518 37.3743C26.8619 37.5595 28.5363 40.4621 28.9703 41.9442C29.4044 43.4263 30.2726 47.6875 28.2262 52.5045C26.1797 57.3214 21.2807 59.4211 19.6063 59.9152C17.9319 60.4092 13.591 60.6562 9.9942 58.2478C6.39742 55.8393 5.65326 53.369 5.28117 49.849C4.90909 46.3289 7.76172 42.994 8.38185 42.5C9.00199 42.006 9.87018 41.0179 13.591 40.4621C17.3118 39.9062 22.0868 43.7351 21.2807 48.4286C20.6357 52.1833 17.4152 53.2867 15.8855 53.369C12.7848 53.4926 11.2345 50.8988 11.1104 49.6637C10.9864 48.4286 11.1725 48.2433 11.6066 46.9464C12.0407 45.6496 13.715 45.3408 14.3972 45.0938Z" stroke="#F0AE28"/>
<path d="M21.5907 22.4911C20.2512 21.997 20.3711 20.6796 20.5985 20.0826C21.1442 18.6004 22.645 18.9298 23.3271 19.2798C25.3736 19.465 31.6369 23.6027 33.3113 25.1466C34.9857 26.6905 38.8925 29.9018 41.063 37.3743C43.2335 44.8467 41.001 50.4048 40.7529 51.2076C40.5049 52.0104 39.4506 52.5045 38.2724 52.0104C37.3298 51.6152 37.1768 50.4048 37.2181 49.849C38.7006 46.3428 38.1527 41.979 37.9033 39.9916L37.9003 39.968C37.6522 37.9918 36.2259 33.7307 31.947 29.0372C27.6681 24.3438 23.2651 23.1086 21.5907 22.4911Z" stroke="#F0AE28"/>
<path d="M29.5905 14.0923C25.5224 14.2899 24.216 10.3457 24.0713 8.34896C23.9866 7.66964 25.0015 3.0997 29.5905 3.0997C34.1795 3.0997 35.2337 6.86682 35.2957 8.34896C35.3577 9.8311 34.6756 13.8452 29.5905 14.0923Z" stroke="#F0AE28"/>
<path d="M14.0251 29.099C14.0747 27.7156 15.2447 27.2875 15.8235 27.2463C16.4229 27.2463 17.6343 27.6168 17.6839 29.099C17.7335 30.5811 16.4643 30.9928 15.8235 31.0134C15.2033 30.9516 13.9755 30.4823 14.0251 29.099Z" stroke="#F0AE28"/>
<path d="M1.49835 25.2083C1.49835 23.9732 2.73862 23.4586 3.35876 23.3557C3.95822 23.438 5.16955 23.9238 5.21916 25.2083C5.28117 26.814 3.73084 27.061 3.35876 27.061C2.98667 27.061 1.49835 26.7522 1.49835 25.2083Z" stroke="#F0AE28"/>
<path d="M33.8074 21.9353C33.5593 21.6882 32.2571 18.7034 31.6369 17.2418C31.1259 16.0561 32.0028 15.1833 32.5051 14.8951C33.8942 14.2528 34.903 15.3274 35.2337 15.9449L37.0321 20.2679C37.2305 21.4042 36.66 22.1 36.35 22.3058C34.7996 22.9851 34.1175 22.244 33.8074 21.9353Z" stroke="#F0AE28"/>
<path d="M40.5049 24.6525C38.322 20.6507 39.2646 16.4802 40.0088 14.8951C41.1994 11.3874 45.3006 9.06944 47.2023 8.34896C48.1945 7.80551 49.0214 8.5754 49.3108 9.02827C49.8276 9.60466 50.2038 11.0786 47.5744 12.3631C44.2877 13.9688 43.9776 15.2656 43.1714 17.2418C42.3653 19.218 43.6055 21.9353 43.9776 23.5409C44.2753 24.8254 43.5642 25.6818 43.1714 25.9494C41.2366 26.5917 40.5875 25.3524 40.5049 24.6525Z" stroke="#F0AE28"/>
<path d="M41.063 4.89062C41.063 3.6061 42.3033 3.07912 42.9234 2.97619C43.5022 3.07912 44.6846 3.6061 44.7838 4.89062C44.883 6.17515 43.5849 6.66096 42.9234 6.7433C42.3033 6.66096 41.063 6.17515 41.063 4.89062Z" stroke="#F0AE28"/>
</svg>
