<svg width="" height="" viewBox="0 0 63 63" fill="none" xmlns="http://www.w3.org/2000/svg">
<path d="M5.90625 39.375C5.90625 42.5079 7.15078 45.5124 9.36605 47.7277C11.5813 49.943 14.5859 51.1875 17.7188 51.1875H47.25C49.5543 51.19 51.7864 50.384 53.5576 48.91C55.3287 47.4359 56.5267 45.3873 56.9427 43.1208C57.3587 40.8544 56.9664 38.5139 55.8341 36.5069C54.7019 34.5 52.9015 32.9538 50.7465 32.1379C51.2336 30.7525 51.3236 29.2585 51.0064 27.8246C50.6892 26.3908 49.9773 25.0742 48.9513 24.0236C47.9252 22.9729 46.6259 22.2302 45.1999 21.8791C43.774 21.528 42.2783 21.5827 40.8818 22.0369C39.9785 18.5719 37.7621 15.5946 34.7019 13.7353C31.6417 11.8761 27.9779 11.2809 24.4866 12.0759C20.9952 12.8709 17.9503 14.9935 15.9967 17.9944C14.0431 20.9953 13.3342 24.6387 14.0201 28.1531C11.6592 28.9323 9.60407 30.4363 8.14732 32.4511C6.69056 34.4659 5.90634 36.8887 5.90625 39.375Z" stroke="#F0AE28" stroke-width="4" stroke-linecap="round" stroke-linejoin="round"/>
</svg>
