<svg width="" height="" viewBox="0 0 52 52" fill="none" xmlns="http://www.w3.org/2000/svg">
<path d="M2 17.7498L11.267 27.0168M11.267 27.0168C10.3728 28.9939 9.875 31.1889 9.875 33.5C9.875 42.1985 16.9265 49.25 25.625 49.25C34.3235 49.25 41.375 42.1985 41.375 33.5C41.375 31.1889 40.8773 28.9939 39.983 27.0168M11.267 27.0168C12.5198 24.2466 15.1757 20.9249 18.1586 19.8825M39.983 27.0168L49.25 17.7498M39.983 27.0168C38.73 24.2466 36.0743 20.9249 33.0916 19.8825M18.1586 19.8825C20.0619 21.8075 22.7042 23 25.625 23C28.5458 23 31.1882 21.8075 33.0916 19.8825M18.1586 19.8825C16.283 17.9859 15.125 15.3782 15.125 12.5C15.125 6.70101 19.826 2 25.625 2C31.4239 2 36.125 6.70101 36.125 12.5C36.125 15.3782 34.9669 17.9859 33.0916 19.8825M25.625 38.75H25.6513M25.625 30.875H25.6513" stroke="#5AC7FF" stroke-width="4" stroke-linecap="round" stroke-linejoin="round"/>
</svg>
