<svg width="" height="" viewBox="0 0 63 63" fill="none" xmlns="http://www.w3.org/2000/svg">
<path d="M31.1442 31.5229H26.1128L28.7545 62.9998H30.4771H32.1343H33.882L36.5256 31.5229H31.4903H31.1442Z" fill="#5AC7FF"/>
<path d="M37.7236 62.9998H43.8798L49.3054 31.5229H41.6747L37.7236 62.9998Z" fill="#5AC7FF"/>
<path d="M13.3315 31.5229L18.7572 62.9998H24.9133L20.9643 31.5229H13.3315Z" fill="#5AC7FF"/>
<path d="M51.0819 20.3662C50.4686 19.5838 49.6976 18.9416 48.8325 18.4417C48.9094 18.0186 48.9613 17.5899 48.9613 17.1458C48.9613 15.2366 48.225 13.4774 47.0271 12.174C46.1312 11.1935 44.9641 10.4552 43.6491 10.0745C42.7782 7.89801 40.9805 6.21768 38.7426 5.47755C38.1523 2.36102 35.4202 0 32.1307 0C30.5676 0 29.1141 0.542144 27.9798 1.44199C27.1704 2.08035 26.5224 2.90895 26.0746 3.85297C23.4674 4.66434 21.4315 6.7426 20.6778 9.3747C17.2325 10.1995 14.6716 13.2892 14.6697 16.9882C14.6697 17.0843 14.6851 17.1766 14.6889 17.2728C13.6103 17.8881 12.6663 18.711 11.9357 19.7068C10.8783 21.1526 10.2496 22.9522 10.2515 24.8786C10.2515 26.6897 10.8014 28.3739 11.7414 29.7735H16.8287V29.1026C16.398 28.8776 15.9943 28.6046 15.6502 28.2624C14.7811 27.3895 14.2485 26.2052 14.2485 24.8786C14.2485 23.8193 14.5849 22.8599 15.1637 22.0677C15.7406 21.2755 16.5576 20.6681 17.4997 20.3489L19.2608 19.7548L18.7956 17.9572C18.7091 17.6265 18.6648 17.3074 18.6648 16.9882C18.6628 14.9002 20.3375 13.2007 22.4177 13.1546L24.2289 13.1122L24.3633 11.3049C24.5076 9.37654 25.9822 7.80966 27.8664 7.52124L29.168 7.32326L29.4987 6.04862C29.6505 5.46033 29.9967 4.94119 30.4581 4.57587C30.9233 4.21054 31.4886 3.99902 32.1308 3.99718C32.8941 3.99915 33.565 4.30098 34.0668 4.79895C34.5552 5.29114 34.8512 5.9487 34.8628 6.69461C34.857 6.74272 34.8474 6.81384 34.8378 6.92729L34.6898 8.87488L36.6336 9.0672C38.3716 9.23442 39.7944 10.5399 40.1442 12.2165L40.4479 13.6582L41.9149 13.7966C42.7704 13.8755 43.5279 14.2734 44.0816 14.8733C44.6315 15.477 44.9621 16.2634 44.9641 17.1458C44.9641 17.6861 44.8353 18.1917 44.6026 18.6551L43.4971 20.8604L45.885 21.4834C46.706 21.6987 47.4269 22.1813 47.9384 22.8331C48.4498 23.4868 48.7498 24.2943 48.7516 25.1941C48.7496 26.2592 48.0557 28.3395 46.4944 29.2123L46.4329 29.7738H51.2625C52.1931 28.4838 52.7487 26.9052 52.7487 25.1941C52.7488 23.3789 52.1238 21.6908 51.0819 20.3662Z" fill="#5AC7FF"/>
</svg>
