<svg width="" height="" viewBox="0 0 63 63" fill="none" xmlns="http://www.w3.org/2000/svg">
<g clip-path="url(#clip0_218_223)">
<path d="M56.8749 33.3429L45.4165 36.4116L40.9997 33.8638V29.0825L45.3661 26.5752L56.8747 29.6589C57.106 29.7206 57.3384 29.7511 57.5688 29.7511C58.7509 29.7511 59.8327 28.9616 60.1522 27.7657C60.535 26.3366 59.6877 24.8679 58.2588 24.4855L51.9495 22.795L57.7658 19.4557C59.0477 18.7194 59.4913 17.0826 58.7549 15.8002C58.016 14.5177 56.3825 14.0733 55.1 14.8114L49.2718 18.1586L50.9619 11.8471C51.3443 10.4184 50.4982 8.94947 49.0686 8.56703C47.6484 8.19452 46.1738 9.03243 45.7908 10.4602L42.7199 21.9191L38.3262 24.4424L34.1611 22.0342V16.9812L42.5839 8.5586C43.6295 7.51247 43.6295 5.81802 42.5839 4.77176C41.538 3.72577 39.844 3.72577 38.7973 4.77176L34.1611 9.40779V2.6776C34.1613 1.19899 32.962 0 31.4833 0C30.0048 0 28.8057 1.19886 28.8057 2.6776V9.37461L24.2032 4.77176C23.1572 3.72577 21.4628 3.72577 20.4165 4.77176C19.3705 5.81789 19.3705 7.51233 20.4165 8.5586L28.8057 16.9476V22.0537L24.6721 24.4383L20.2785 21.9174L17.2097 10.4603C16.8274 9.03256 15.3597 8.19234 13.9321 8.56716C12.5033 8.9496 11.6553 10.4186 12.0381 11.8473L13.7281 18.1576L7.90013 14.8114C6.61532 14.0732 4.9799 14.5166 4.24467 15.8008C3.50877 17.0836 3.95254 18.7193 5.2349 19.4556L11.0506 22.7949L4.74122 24.4854C3.31225 24.8678 2.46455 26.3365 2.84726 27.7656C3.16754 28.9615 4.24903 29.7509 5.43129 29.7509C5.66154 29.7509 5.8941 29.7205 6.12612 29.6587L17.6362 26.5739L21.9977 29.078L22.0022 33.8636L17.584 36.4161L6.12612 33.3428C4.70722 32.9704 3.23051 33.8092 2.84726 35.2365C2.46455 36.665 3.31225 38.1341 4.74122 38.5145L11.0275 40.2005L5.22824 43.5483C3.94805 44.2883 3.50877 45.9246 4.24916 47.2049C4.74516 48.0666 5.64495 48.5437 6.56935 48.5437C7.02319 48.5437 7.48383 48.4308 7.90584 48.1838L13.7345 44.8202L12.0381 51.1548C11.6553 52.5858 12.5033 54.0503 13.9321 54.435C14.1634 54.4977 14.3959 54.5274 14.6262 54.5274C15.808 54.5274 16.8894 53.7366 17.2097 52.54L20.2937 41.0335L24.68 38.5027L28.8057 40.8832V46.0547L20.4165 54.444C19.3705 55.4898 19.3705 57.184 20.4165 58.2306C20.9396 58.7536 21.6235 59.0128 22.3098 59.0128C22.9938 59.0128 23.6802 58.7536 24.2032 58.2306L28.8057 53.628V60.3227C28.8057 61.804 30.0048 63.0004 31.4833 63.0004C32.962 63.0004 34.1613 61.8037 34.1613 60.3227V53.5945L38.7974 58.2306C39.3204 58.7536 40.0043 59.0128 40.6907 59.0128C41.3771 59.0128 42.0611 58.7536 42.584 58.2306C43.6296 57.1843 43.6296 55.4901 42.584 54.444L34.1613 46.0213V40.9039L38.3223 38.5024L42.7074 41.0333L45.7913 52.5397C46.1112 53.7364 47.1927 54.5271 48.3743 54.5271C48.6039 54.5271 48.837 54.4974 49.0688 54.4347C50.4985 54.05 51.3444 52.5855 50.9621 51.1545L49.2639 44.82L55.0947 48.1836C55.5168 48.4303 55.9773 48.5434 56.4313 48.5434C57.3557 48.5434 58.2552 48.0663 58.7514 47.2046C59.4916 45.9243 59.0526 44.2883 57.7723 43.5481L51.973 40.2008L58.2592 38.5146C59.6881 38.1342 60.5354 36.665 60.1526 35.2367C59.7721 33.8092 58.3015 32.9686 56.8749 33.3429ZM35.6442 33.8638L31.5 36.2573L27.3587 33.8636L27.3541 29.0738L31.5 26.6819L35.6442 29.0773V33.8638Z" fill="#5AC7FF"/>
</g>
<defs>
<clipPath id="clip0_218_223">
<rect width="63" height="63" fill="white"/>
</clipPath>
</defs>
</svg>
