<svg width="" height="" viewBox="0 0 63 63" fill="none" xmlns="http://www.w3.org/2000/svg">
<path d="M40.4806 13.6869C45.0083 15.7102 48.7047 19.2259 50.9523 23.6466C53.1999 28.0673 53.8625 33.1254 52.8295 37.9758C51.7964 42.8263 49.1303 47.1754 45.2765 50.2967C41.4227 53.418 36.6146 55.1224 31.6553 55.1252C27.4134 55.125 23.2648 53.879 19.7248 51.5419C16.1847 49.2048 13.4089 45.8795 11.742 41.9787C10.0752 38.078 9.59057 33.7736 10.3484 29.5999C11.1063 25.4262 13.0732 21.5669 16.0051 18.5012C18.0254 21.3224 20.6914 23.6193 23.7803 25.2002C23.8344 21.7316 24.6532 18.3176 26.1782 15.2018C27.7032 12.086 29.897 9.34498 32.603 7.17432C34.6682 9.9442 37.3691 12.1769 40.478 13.6843L40.4806 13.6869Z" fill="#5AC7FF" stroke="#5AC7FF" stroke-width="4" stroke-linecap="round" stroke-linejoin="round"/>
<path d="M31.6552 47.2498C34.1526 47.2489 36.5562 46.2988 38.3793 44.5919C40.2024 42.8851 41.3085 40.5491 41.4737 38.0572C41.6389 35.5653 40.8508 33.1037 39.269 31.1712C37.6872 29.2386 35.43 27.9795 32.9546 27.6489C30.2444 30.074 28.4587 33.3634 27.9014 36.9572C25.8793 36.4625 23.9759 35.5701 22.3023 34.3322C21.8163 35.8108 21.6878 37.3835 21.9274 38.9214C22.167 40.4592 22.7678 41.9183 23.6806 43.179C24.5933 44.4397 25.792 45.4659 27.1783 46.1735C28.5645 46.8812 30.0988 47.25 31.6552 47.2498Z" fill="white" stroke="#5AC7FF" stroke-width="1.5" stroke-linecap="round" stroke-linejoin="round"/>
</svg>
