<svg width="" height="" viewBox="0 0 63 63" fill="none" xmlns="http://www.w3.org/2000/svg">
<path d="M27.7302 43.4833L24.441 48.4183C24.1773 48.8137 24.0258 49.2732 24.0027 49.7479C23.9797 50.2225 24.0859 50.6946 24.3101 51.1136C24.5343 51.5326 24.8681 51.8829 25.2758 52.1271C25.6835 52.3713 26.1498 52.5003 26.625 52.5002H31.875V57.7502C31.875 58.4464 32.1516 59.1141 32.6439 59.6064C33.1362 60.0987 33.8039 60.3752 34.5 60.3752C35.1962 60.3752 35.8639 60.0987 36.3562 59.6064C36.8485 59.1141 37.125 58.4464 37.125 57.7502V52.5002H42.375C42.8503 52.5003 43.3166 52.3713 43.7243 52.1271C44.132 51.8829 44.4658 51.5326 44.69 51.1136C44.9142 50.6946 45.0204 50.2225 44.9973 49.7479C44.9743 49.2732 44.8228 48.8137 44.559 48.4183L41.2699 43.4833C45.9791 41.8796 49.966 38.6562 52.5203 34.3873C55.0747 30.1184 56.0307 25.0814 55.2179 20.1735C54.4051 15.2656 51.8763 10.8056 48.0822 7.58806C44.288 4.37056 39.4748 2.60449 34.5 2.60449C29.5253 2.60449 24.7121 4.37056 20.9179 7.58806C17.1237 10.8056 14.595 15.2656 13.7822 20.1735C12.9694 25.0814 13.9254 30.1184 16.4797 34.3873C19.0341 38.6562 23.021 41.8796 27.7302 43.4833ZM35.6944 44.5832L37.4689 47.2502H31.5312L33.3057 44.5832C33.4395 44.5832 33.5682 44.5832 33.6915 44.5832C33.954 44.5832 34.2165 44.6252 34.5 44.6252C34.7835 44.6252 35.0382 44.5937 35.3085 44.5832C35.4372 44.578 35.55 44.5937 35.6944 44.5832ZM34.5 7.87522C38.4743 7.90517 42.2904 9.43653 45.1829 12.1622C48.0754 14.8879 49.8304 18.6063 50.0961 22.5719C50.3618 26.5374 49.1185 30.4567 46.6155 33.5439C44.1125 36.6311 40.5348 38.6578 36.6 39.2177C35.2059 39.3989 33.7942 39.3989 32.4 39.2177C28.4653 38.6578 24.8876 36.6311 22.3846 33.5439C19.8816 30.4567 18.6383 26.5374 18.904 22.5719C19.1696 18.6063 20.9247 14.8879 23.8172 12.1622C26.7097 9.43653 30.5258 7.90517 34.5 7.87522Z" fill="#5AC7FF"/>
</svg>
