<svg width="" height="" viewBox="0 0 55 55" fill="none" xmlns="http://www.w3.org/2000/svg">
<path d="M15.3554 17.4674C10.3349 20.3137 7.00055 25.6195 6.99539 31.7056C6.99539 32.8915 7.95789 33.854 9.14383 33.854C10.3298 33.854 11.2923 32.8915 11.2923 31.7056C11.2957 27.2231 13.7518 23.3163 17.3904 21.2521L17.4505 21.2212C18.1123 20.8465 18.5523 20.147 18.5523 19.3443C18.5523 18.1567 17.5898 17.1959 16.4038 17.1959C16.0188 17.1959 15.6579 17.2973 15.3451 17.4743L15.3554 17.4674ZM49.0085 6.15119H47.1488V4.2915C47.1488 3.10557 46.1863 2.14307 45.0004 2.14307C43.8145 2.14307 42.852 3.10557 42.852 4.2915V6.15119H40.9923C39.8063 6.15119 38.8438 7.11197 38.8438 8.29791C38.8438 9.17963 39.3749 9.93588 40.1346 10.2676L40.1484 10.2728L39.1446 11.3092L36.1712 8.65713C35.793 8.31854 35.2912 8.11057 34.7412 8.11057C34.0416 8.11057 33.4195 8.44572 33.0276 8.96479L33.0241 8.96994L31.3398 11.2146C28.973 10.2556 26.2282 9.69869 23.351 9.69869C23.3321 9.69869 23.3115 9.69869 23.2926 9.69869H23.296C11.1565 9.70728 1.31836 19.5488 1.31836 31.6901C1.31836 43.8348 11.1634 53.6815 23.3098 53.6815C35.4562 53.6815 45.3012 43.8365 45.3012 31.6901C45.3012 28.0824 44.4332 24.6793 42.8932 21.6749L42.9516 21.7987L45.1173 19.7706C45.5349 19.377 45.7962 18.8218 45.7962 18.2031C45.7962 17.5671 45.5195 16.9948 45.0795 16.6012L45.0777 16.5995L42.357 14.1726L43.1596 13.3424C43.5223 14.0042 44.2115 14.4459 45.0021 14.4545C46.188 14.4545 47.1523 13.492 47.1523 12.306V10.4463H49.012C50.1979 10.4463 51.1604 9.48385 51.1604 8.29791C51.1604 7.11197 50.1979 6.14947 49.012 6.14947L49.0085 6.15119ZM23.2943 49.4138C23.2874 49.4138 23.2788 49.4138 23.2702 49.4138C13.4905 49.4138 5.56195 41.4853 5.56195 31.7056C5.56195 21.9259 13.4905 13.9973 23.2702 13.9973C23.2788 13.9973 23.2874 13.9973 23.296 13.9973C23.3098 13.9973 23.3252 13.9973 23.3424 13.9973C26.1629 13.9973 28.827 14.6624 31.1885 15.8449L31.0871 15.7985C31.3638 15.9378 31.6904 16.0203 32.0359 16.0203C32.7354 16.0203 33.3576 15.6851 33.7495 15.1643L33.7529 15.1592L35.0591 13.4215L40.4646 18.2426L38.7888 19.8118C38.3712 20.2054 38.1116 20.7606 38.1116 21.3793C38.1116 21.7935 38.2285 22.1803 38.4313 22.5085L38.4262 22.4999C40.0452 25.121 41.0043 28.3007 41.0043 31.7021C41.0043 41.4835 33.0757 49.4121 23.2943 49.4138Z" fill="#5AC7FF"/>
</svg>
