<svg width="" height="" viewBox="0 0 63 63" fill="none" xmlns="http://www.w3.org/2000/svg">
<g clip-path="url(#clip0_218_262)">
<path fill-rule="evenodd" clip-rule="evenodd" d="M10.1704 22.2835C9.65555 10.7732 18.7263 0 31.4999 0C44.274 0 53.3447 10.7737 52.8294 22.2843C54.7233 23.3416 56.0791 25.2124 56.4104 27.5208C56.8076 30.2537 55.7833 32.7227 53.6405 34.2925C52.0387 35.4659 49.9873 36.0189 47.7634 36.0405L40.2995 49.7246L33.8044 61.6321C33.3445 62.4753 32.4604 63 31.4999 63C30.5394 63 29.6553 62.4753 29.1954 61.6321L22.7008 49.7251L15.2348 36.0373C13.0149 36.0124 10.9667 35.4598 9.36654 34.2888C7.22462 32.7217 6.19832 30.2568 6.58887 27.5244C6.9198 25.2092 8.27648 23.3396 10.1704 22.2835ZM15.3994 21.4911C16.4315 21.6869 17.3384 22.0423 18.0891 22.3651C18.4884 22.5369 18.8379 22.6939 19.1527 22.8354C20.0868 23.2551 20.7166 23.5381 21.4435 23.6627L21.4551 23.6648C22.7059 23.885 23.4645 23.7034 24.8652 23.3118C24.9011 23.3017 24.9372 23.2916 24.9736 23.2814C26.4796 22.8599 28.4352 22.3125 31.4999 22.3125C34.5667 22.3125 36.525 22.8588 38.0336 23.2798C38.0682 23.2894 38.1026 23.2991 38.1367 23.3086C39.5421 23.7002 40.3016 23.8819 41.5482 23.6642C42.274 23.5374 42.9019 23.2553 43.8285 22.8392C44.1482 22.6956 44.5037 22.5359 44.9111 22.3612C45.6626 22.0388 46.5693 21.6848 47.6006 21.49C47.6825 13.0129 40.8972 5.25 31.4999 5.25C22.1022 5.25 15.3169 13.0136 15.3994 21.4911ZM21.5907 36.7261L25.3039 43.5338L28.5143 39.0393C26.7426 38.6626 25.0901 38.0326 23.6638 37.4887C23.4924 37.4233 23.3243 37.3593 23.1597 37.2971C22.607 37.0881 22.086 36.8962 21.5907 36.7261ZM34.4864 39.0393C36.2583 38.6623 37.9112 38.0323 39.3379 37.4884C39.5091 37.4233 39.6771 37.3593 39.8414 37.2971C40.3934 37.0884 40.914 36.8967 41.4088 36.7269L37.6962 43.5333L34.4864 39.0393ZM34.9027 48.6546L31.5002 43.8913L28.0974 48.6552L31.4999 54.8932L34.9027 48.6546ZM46.3485 27.4688C45.3253 27.9339 43.8973 28.5834 42.4517 28.8359C39.9818 29.2672 38.259 28.7928 36.7274 28.3657C36.6972 28.3573 36.6672 28.3489 36.6371 28.3405C35.2524 27.9544 33.8472 27.5625 31.4999 27.5625C29.1571 27.5625 27.7564 27.9544 26.3741 28.3413C26.3423 28.35 26.3106 28.3589 26.2788 28.3678C24.7463 28.7962 23.024 29.2706 20.5502 28.8361C19.0948 28.5855 17.663 27.9337 16.639 27.4675C16.409 27.3627 16.1997 27.2675 16.0152 27.1882C14.8107 26.6703 14.0958 26.5093 13.424 26.6262C12.5042 26.7863 11.9082 27.4129 11.7861 28.2673C11.6614 29.1391 11.9375 29.6646 12.4668 30.052C13.1124 30.5243 14.4091 30.9516 16.4687 30.728C19.6624 30.381 22.6526 31.4924 25.0166 32.3862C25.095 32.4161 25.1729 32.4455 25.2502 32.4747C27.7212 33.41 29.6112 34.125 31.4999 34.125C33.3891 34.125 35.2805 33.4094 37.7527 32.4741C37.8296 32.445 37.9068 32.4159 37.9847 32.3865C40.3488 31.4926 43.3392 30.381 46.5312 30.728L46.5372 30.7285C48.5971 30.9572 49.8933 30.5295 50.538 30.0573C51.0664 29.6701 51.3415 29.1441 51.215 28.2744L51.2139 28.2678C51.0921 27.4163 50.4934 26.786 49.5759 26.6262C48.9018 26.5088 48.1839 26.6697 46.9809 27.1861C46.7942 27.2661 46.5819 27.3627 46.3485 27.4688Z" fill="#5AC7FF"/>
</g>
<defs>
<clipPath id="clip0_218_262">
<rect width="63" height="63" fill="white"/>
</clipPath>
</defs>
</svg>
