<svg width="" height="" viewBox="0 0 63 63" fill="none" xmlns="http://www.w3.org/2000/svg">
<path d="M11.4214 36.9153C11.0241 36.7664 10.5967 36.716 10.1757 36.7684C9.75465 36.8208 9.35262 36.9745 9.004 37.2163C8.65538 37.4581 8.37056 37.7808 8.17393 38.1567C7.97731 38.5327 7.87474 38.9507 7.875 39.3749V47.2499C7.87917 50.7296 9.26332 54.0656 11.7238 56.5261C14.1843 58.9866 17.5203 60.3708 21 60.3749H42C45.4797 60.3708 48.8157 58.9866 51.2762 56.5261C53.7367 54.0656 55.1208 50.7296 55.125 47.2499V39.3749C55.1254 38.9503 55.0229 38.532 54.8261 38.1558C54.6293 37.7795 54.3442 37.4566 53.9953 37.2148C53.6463 36.9729 53.2439 36.8194 52.8225 36.7672C52.4011 36.715 51.9734 36.7659 51.576 36.9153L34.125 43.462V36.5399C38.4932 35.9061 42.4878 33.7224 45.3793 30.3875C48.2709 27.0525 49.8666 22.7889 49.875 18.3749V5.24993C49.8749 4.73083 49.7209 4.22343 49.4324 3.79185C49.144 3.36027 48.7341 3.02391 48.2545 2.82527C47.7749 2.62664 47.2472 2.57466 46.738 2.6759C46.2289 2.77714 45.7612 3.02705 45.3941 3.39405L37.4692 11.3189L33.8625 4.07655C33.62 3.66974 33.2759 3.33288 32.8641 3.09895C32.4523 2.86501 31.9868 2.74203 31.5131 2.74203C31.0395 2.74203 30.574 2.86501 30.1622 3.09895C29.7503 3.33288 29.4063 3.66974 29.1637 4.07655L25.5308 11.3189L17.6059 3.39405C17.2388 3.02705 16.7711 2.77714 16.262 2.6759C15.7528 2.57466 15.2251 2.62664 14.7455 2.82527C14.2659 3.02391 13.856 3.36027 13.5676 3.79185C13.2791 4.22343 13.1251 4.73083 13.125 5.24993V18.3749C13.1302 22.7898 14.7247 27.0552 17.6168 30.3908C20.509 33.7264 24.5054 35.9092 28.875 36.5399V43.462L11.4214 36.9153ZM49.875 47.2499C49.875 49.3385 49.0453 51.3415 47.5685 52.8184C46.0916 54.2952 44.0886 55.1249 42 55.1249H21C18.9114 55.1249 16.9084 54.2952 15.4315 52.8184C13.9547 51.3415 13.125 49.3385 13.125 47.2499V43.1628C31.3057 49.9143 30.5314 49.8434 31.4422 49.8644C31.4632 49.8644 31.479 49.8644 31.5 49.8644C31.521 49.8644 31.5368 49.8644 31.5578 49.8644C32.4713 49.8434 31.5394 49.9721 49.875 43.1628V47.2499ZM18.375 18.3749V11.5867L24.3941 17.6058C24.6883 17.8991 25.0478 18.1184 25.4432 18.2456C25.8386 18.3729 26.2586 18.4045 26.6685 18.3379C27.0785 18.2713 27.4669 18.1083 27.8016 17.8624C28.1364 17.6165 28.408 17.2946 28.5941 16.9233L31.5 11.1194L34.4006 16.9233C34.5868 17.2946 34.8584 17.6165 35.1931 17.8624C35.5279 18.1083 35.9162 18.2713 36.3262 18.3379C36.7362 18.4045 37.1561 18.3729 37.5515 18.2456C37.9469 18.1184 38.3065 17.8991 38.6006 17.6058L44.625 11.5867V18.3749C44.625 21.8559 43.2422 25.1943 40.7808 27.6557C38.3194 30.1171 34.981 31.4999 31.5 31.4999C28.019 31.4999 24.6806 30.1171 22.2192 27.6557C19.7578 25.1943 18.375 21.8559 18.375 18.3749Z" fill="#5AC7FF"/>
</svg>
