<svg width="" height="" viewBox="0 0 63 63" fill="none" xmlns="http://www.w3.org/2000/svg">
<g clip-path="url(#clip0_235_400)">
<path d="M51.8925 45.3365C54.5091 41.714 53.0062 37.6527 49.3859 35.8584C49.8714 35.205 50.3109 34.4697 50.6818 33.6137C52.5667 29.2669 50.0636 25.4262 46.188 24.2C50.6795 18.8735 48.2953 10.9256 43.6216 5.93698C43.5145 5.82274 43.4009 5.72856 43.2924 5.61949C44.8077 5.18258 46.1304 4.5887 47.6415 3.87766C48.7134 3.37376 49.8484 2.94202 51.0339 2.81936C52.3077 2.68764 53.1651 3.55273 54.2709 3.98446C55.0852 4.30195 56.0535 3.3278 55.7393 2.51579C54.7596 -0.0199287 51.8786 -0.265895 49.5176 0.244809C46.5835 0.879142 44.3695 2.8336 42.0584 4.52073C36.6844 0.278143 29.7235 1.48694 24.4346 5.31721C23.7343 3.58315 21.9756 2.3873 20.3121 1.58209C18.8127 0.856164 15.842 -0.650378 14.2277 0.311478C13.5616 0.708584 13.3315 1.77239 13.9691 2.31869C15.0597 3.25336 16.8527 3.20385 18.2029 3.64626C20.0224 4.2424 21.6076 5.18225 22.6708 6.75967C17.1216 11.7861 14.2558 19.7732 18.98 26.4616C14.2717 25.9858 11.9136 30.9462 14.1526 35.4367C14.3092 35.751 14.4979 36.0338 14.6976 36.3057C11.1952 36.584 8.74132 41.2292 11.166 44.5986C11.5327 45.1084 11.9392 45.5576 12.3638 45.9786C7.90051 46.4049 4.09613 50.6391 6.87943 55.4389C10.9553 62.4684 21.382 62.0318 28.5076 62.5173C37.431 63.1254 48.8037 64.442 55.0995 56.7118C58.8407 52.1178 56.9623 47.0065 51.8925 45.3365ZM42.3037 8.71802C47.8127 14.6549 46.4042 22.442 39.1013 25.4835C33.4231 27.8484 26.5739 27.5671 20.8668 25.5359C20.7503 25.4945 20.6535 25.5039 20.5467 25.488C13.7729 13.148 32.0531 -2.3278 42.3037 8.71802ZM20.0927 28.4898C27.2923 31.5094 37.0035 30.8197 43.5643 26.4554C47.9952 27.6636 49.7575 30.8954 46.5369 34.8254C43.7585 38.2158 38.1738 37.4177 34.3218 37.1996C31.5929 37.0452 28.8918 36.998 26.1606 36.9811C24.4495 36.9708 22.7866 36.7973 21.0989 36.4976C20.66 36.3831 20.2211 36.2685 19.7823 36.1539C15.4659 34.9652 15.5785 32.4081 20.0927 28.4898ZM16.1294 37.6931C20.3312 40.7124 28.3833 39.6826 32.5991 39.9321C37.7064 40.234 43.3934 40.7211 47.3172 37.9051C52.8942 41.5402 48.0687 45.9735 43.5073 47.4266C39.9259 48.5674 35.5131 48.0402 31.8149 47.9072C29.2834 47.8163 26.8121 47.7023 24.2938 47.4289C20.7163 47.0405 8.05392 42.9821 16.1294 37.6931ZM46.4201 58.9925C42.1338 60.523 36.6407 59.7913 32.1754 59.6647C29.1297 59.5786 26.0997 59.3896 23.0595 59.1644C21.1438 59.0184 19.2399 58.777 17.3472 58.4401C16.6999 58.2977 16.0527 58.1546 15.4054 58.0119C11.1142 57.3646 10.5877 53.9822 13.8254 47.8645C14.0927 47.8493 14.2895 47.7483 14.4396 47.6127C18.3427 50.0154 23.5342 50.2824 28.0455 50.7539C35.0092 51.4815 44.1588 52.1446 49.8966 47.3975C50.0381 47.5451 50.2089 47.6755 50.4313 47.7667C59.3236 51.4138 50.0898 57.6824 46.4201 58.9925Z" fill="#F0AE28"/>
<path d="M37.6358 19.1851C37.2024 18.5789 36.2836 18.5119 35.7263 18.9054C32.8663 18.6449 29.962 18.7258 27.0971 18.6038C26.3074 18.5702 26.055 19.622 26.5647 20.0524C26.5278 20.1032 26.4712 20.1278 26.446 20.1913C23.5471 27.5026 37.4092 28.1169 38.0287 21.6108C38.1458 21.323 38.2582 21.0321 38.3394 20.7259C38.4879 20.1638 38.1973 19.4343 37.6358 19.1851Z" fill="#F0AE28"/>
<path d="M28.8402 10.8912C28.8842 9.23541 26.4381 9.28526 26.3025 10.8912C26.2287 11.8601 25.798 12.7498 25.7721 13.735C25.7517 14.5137 26.2669 14.913 26.8462 14.9833C27.0893 15.7979 28.2728 15.4632 28.3589 14.6829C28.3877 14.4217 28.3903 14.1454 28.3871 13.8635C28.3948 13.8175 28.4188 13.7838 28.4227 13.735C28.4958 12.7747 28.8146 11.8601 28.8402 10.8912Z" fill="#F0AE28"/>
<path d="M37.9536 12.8638C37.9488 12.2055 37.9452 11.5459 37.896 10.8909C37.9627 10.0012 37.2704 9.59341 36.5775 9.63807C35.8846 9.59341 35.1926 10.0012 35.259 10.8909C35.2101 11.5459 35.2066 12.2055 35.2014 12.8638C35.1914 13.0722 35.1907 13.289 35.1946 13.526C35.1849 14.0842 35.4616 14.4467 35.8302 14.6555C36.183 15.2196 36.9723 15.2196 37.3251 14.6555C37.6937 14.4467 37.9704 14.0842 37.9607 13.526C37.9643 13.2887 37.9633 13.0722 37.9536 12.8638Z" fill="#F0AE28"/>
</g>
<defs>
<clipPath id="clip0_235_400">
<rect width="63" height="63" fill="white"/>
</clipPath>
</defs>
</svg>
