<svg width="" height="" viewBox="0 0 63 63" fill="none" xmlns="http://www.w3.org/2000/svg">
<path d="M60.6176 39.8613V36.292C54.0243 33.6637 50.1419 31.2107 48.9469 27.2988C47.9665 24.0877 50.9235 19.8155 56.499 14.6673C50.6755 17.8586 46.3895 20.0262 44.6924 17.0002C43.1686 14.2833 44.8755 9.19216 47.5747 2.51613H45.6532C43.4994 5.92404 41.6665 8.509 40.9853 7.87113C40.3927 7.31397 40.3848 5.30979 40.6427 2.51613L36.6619 2.51416C34.0277 8.4145 31.2341 11.7574 27.1883 12.3303C23.7311 12.8206 19.2562 8.75904 14.2142 2.99454C17.0846 8.6921 18.1399 13.2616 16.2046 14.3897C13.9169 15.7245 9.33171 14.1514 2.54346 11.3007V12.604C7.21333 15.5689 11.5151 18.461 10.7118 19.5379C10.007 20.4829 6.79005 20.3195 2.54346 19.7447V23.1093C8.68793 26.212 12.0171 29.3955 12.0171 32.3762C12.0171 34.9395 6.89636 40.1744 2.54346 44.3206V46.311C6.47111 45.0234 11.2906 44.5233 12.9089 47.4095C14.5607 50.3528 13.4523 54.5187 11.33 60.5903H14.9682C18.823 55.383 22.4869 51.2073 24.4419 51.3923C25.8259 51.5223 25.1801 55.7728 24.2351 60.5903H25.3337C28.7652 51.0517 32.9961 45.2065 39.2685 45.4191C44.7731 45.6081 49.9962 51.1482 55.743 55.0975C52.7387 51.4218 47.2046 46.1869 48.3976 45.2124C49.6517 44.1867 55.0264 46.0629 60.6176 48.0947V46.309C56.9499 43.8067 53.5774 41.4029 54.4397 40.5425C55.2154 39.7688 57.5818 39.6448 60.6176 39.8554V39.8613ZM43.21 35.597C42.5504 36.2546 46.673 38.7018 49.0296 40.3968C45.4661 39.1526 40.9735 37.2823 40.1348 37.9674C39.5284 38.4635 42.3398 41.1233 43.8695 42.9936C40.9459 40.9835 38.2684 38.1741 35.4688 38.0796C31.3502 37.9398 28.9916 42.8873 26.9579 50.4473C27.4934 46.8583 29.1019 41.2355 27.9462 41.1292C26.3063 40.9757 22.3432 46.8228 19.3802 51.1817C21.4494 44.9112 23.3295 41.3379 22.0715 39.0955C20.9355 37.0697 16.6692 38.3021 14.8225 39.377C16.998 37.3236 21.6088 33.1932 21.6088 31.4528C21.6088 28.921 17.0413 26.0722 8.61705 23.6743C13.6807 24.4716 20.2091 25.9364 20.971 24.9166C21.5675 24.1192 16.6555 21.3472 13.6669 19.3824C18.9274 21.6386 22.2605 23.1624 23.7508 22.2942C24.7352 21.7193 24.1879 19.4001 22.7271 16.5021C25.2924 19.4336 27.5919 21.4988 29.35 21.2488C33.0591 20.7231 34.6616 15.815 37.5518 6.44772C36.8726 11.661 35.4964 18.1913 36.343 18.9867C36.9769 19.5832 39.5638 14.7657 41.5601 11.7003C39.3079 17.3822 37.1403 21.6543 38.233 23.6014C39.0972 25.141 41.2885 24.0543 44.2495 22.432C41.4145 25.0504 39.8906 27.222 40.3887 28.856C41.379 32.0986 46.0135 33.3684 54.298 36.2703C50.0435 35.7191 44.1884 34.6127 43.206 35.5931L43.21 35.597Z" fill="#F0AE28"/>
</svg>
