<svg width="" height="" viewBox="0 0 68 68" fill="none" xmlns="http://www.w3.org/2000/svg">
<path d="M59.2086 14.5269L54.8918 13.383C54.7796 13.3585 54.6873 13.2673 54.6628 13.1539L53.5244 8.83825C53.4945 8.71261 53.3832 8.62256 53.2532 8.62256C53.1231 8.62256 53.012 8.71261 52.982 8.83825L51.8435 13.1539C51.8179 13.2673 51.7266 13.3584 51.6133 13.383L47.2977 14.5269C47.171 14.5524 47.082 14.6637 47.082 14.7936C47.082 14.9237 47.171 15.0359 47.2977 15.0604L51.6133 16.2044C51.7268 16.2278 51.8179 16.3201 51.8435 16.4334L52.982 20.749C53.0118 20.8757 53.1231 20.9646 53.2532 20.9646C53.3833 20.9646 53.4945 20.8757 53.5244 20.749L54.6628 16.4334C54.6873 16.32 54.7796 16.2277 54.8918 16.2044L59.2086 15.0604C59.3342 15.0359 59.4243 14.9236 59.4243 14.7936C59.4243 14.6637 59.3342 14.5524 59.2086 14.5269Z" fill="#F0AE28"/>
<path d="M20.4122 61.7166L16.1982 60.6005C16.0888 60.576 15.9987 60.487 15.9748 60.376L14.8636 56.1637C14.8346 56.0413 14.7262 55.9536 14.599 55.9536C14.4716 55.9536 14.3633 56.0414 14.3343 56.1637L13.2232 60.376C13.1982 60.487 13.1092 60.576 12.9981 60.6005L8.78579 61.7166C8.66241 61.741 8.57568 61.8501 8.57568 61.9768C8.57568 62.1035 8.66241 62.2136 8.78579 62.238L12.9981 63.3542C13.1092 63.3764 13.1982 63.4664 13.2232 63.5777L14.3343 67.7899C14.3633 67.9132 14.4716 68 14.599 68C14.7262 68 14.8346 67.9132 14.8636 67.7899L15.9748 63.5777C15.9987 63.4664 16.0888 63.3764 16.1982 63.3542L20.4122 62.238C20.5345 62.2136 20.6223 62.1035 20.6223 61.9768C20.6223 61.8501 20.5345 61.741 20.4122 61.7166Z" fill="#F0AE28"/>
<path d="M58.8097 57.3596L55.2888 56.4269C55.1972 56.4068 55.122 56.3325 55.1021 56.2402L54.1737 52.7205C54.1493 52.6182 54.0587 52.5449 53.9525 52.5449C53.8462 52.5449 53.7556 52.6184 53.7313 52.7205L52.803 56.2402C52.7818 56.3325 52.7079 56.407 52.6152 56.4269L49.0955 57.3596C48.9922 57.3808 48.9199 57.472 48.9199 57.5775C48.9199 57.6832 48.9922 57.7755 49.0955 57.7954L52.6152 58.7281C52.708 58.747 52.782 58.8227 52.803 58.9149L53.7313 62.4345C53.7556 62.538 53.8463 62.6103 53.9525 62.6103C54.0587 62.6103 54.1491 62.538 54.1737 62.4345L55.1021 58.9149C55.122 58.8227 55.1972 58.7471 55.2888 58.7281L58.8097 57.7954C58.9119 57.7755 58.9854 57.6832 58.9854 57.5775C58.9854 57.472 58.9119 57.3808 58.8097 57.3596Z" fill="#F0AE28"/>
<path d="M18.939 27.1715L22.1435 28.0209C22.2279 28.0375 22.2958 28.1075 22.3147 28.1898L23.1602 31.3959C23.1823 31.4894 23.2647 31.555 23.3614 31.555C23.4581 31.555 23.5404 31.4894 23.5626 31.3959L24.4081 28.1898C24.4264 28.1075 24.4947 28.0375 24.5787 28.0209L27.7838 27.1715C27.8771 27.1537 27.9438 27.0691 27.9438 26.9714C27.9438 26.8757 27.8771 26.7935 27.7838 26.7745L24.5787 25.9253C24.4948 25.9065 24.4264 25.8398 24.4081 25.7541L23.5626 22.5502C23.5404 22.4568 23.4581 22.3901 23.3614 22.3901C23.2647 22.3901 23.1823 22.4568 23.1602 22.5502L22.3147 25.7541C22.2958 25.8398 22.2279 25.9065 22.1435 25.9253L18.939 26.7745C18.8451 26.7935 18.7788 26.8757 18.7788 26.9714C18.7788 27.0693 18.8449 27.1539 18.939 27.1715Z" fill="#F0AE28"/>
<path d="M20.6484 21.5997C22.7746 21.0415 25.2898 20.6057 28.0108 20.3401C28.2531 18.8849 28.5189 17.7398 28.7913 16.8838C25.828 17.6975 23.1221 19.135 20.8247 21.0448C20.7646 21.2249 20.7069 21.4106 20.6484 21.5997Z" fill="#F0AE28"/>
<path d="M30.1836 20.1652C32.9867 19.9872 35.924 19.9872 38.7272 20.1652C38.5437 18.5332 38.3413 17.3069 38.1347 16.4398C36.9396 16.232 35.7101 16.123 34.4554 16.123C33.2008 16.123 31.9712 16.232 30.775 16.4398C30.5694 17.3069 30.3665 18.5344 30.1836 20.1652Z" fill="#F0AE28"/>
<path d="M48.0863 21.0448C45.7889 19.135 43.084 17.6974 40.1196 16.8838C40.3908 17.7398 40.6578 18.8849 40.8995 20.3401C43.621 20.6059 46.1363 21.0416 48.2613 21.5997C48.2041 21.4106 48.1451 21.2249 48.0878 21.046L48.0863 21.0448Z" fill="#F0AE28"/>
<path d="M18.597 23.6519C18.4087 23.7074 18.2235 23.7663 18.0438 23.8253C16.1335 26.1232 14.6964 28.8292 13.8828 31.7941C14.7393 31.5218 15.8822 31.2538 17.3379 31.0137C17.6036 28.2922 18.04 25.7753 18.597 23.6519Z" fill="#F0AE28"/>
<path d="M29.5488 29.9808C32.7544 29.8808 36.1563 29.8808 39.3618 29.9808C39.2611 26.8601 39.0967 24.0566 38.8938 21.8175C35.9839 21.6429 32.9261 21.6429 30.0167 21.8175C29.8139 24.0565 29.6495 26.8613 29.5488 29.9808Z" fill="#F0AE28"/>
<path d="M41.145 21.9863C41.4446 24.2176 41.6858 26.9946 41.8343 30.0785C44.9182 30.2264 47.6941 30.4676 49.9254 30.7678C49.6664 27.9507 49.2422 25.3636 48.7047 23.2081C46.5486 22.6712 43.9622 22.2453 41.145 21.9863Z" fill="#F0AE28"/>
<path d="M50.314 23.6519C50.871 25.7753 51.3062 28.291 51.573 31.0137C53.0288 31.256 54.1711 31.5218 55.0271 31.7907C54.2133 28.8281 52.7764 26.1232 50.8661 23.8253C50.6865 23.7665 50.5024 23.7086 50.314 23.6519Z" fill="#F0AE28"/>
<path d="M17.1632 41.7279C16.9859 38.9241 16.9859 35.9894 17.1632 33.1855C15.5324 33.3678 14.3054 33.5724 13.4383 33.7782C13.231 34.9721 13.1221 36.2017 13.1221 37.4568C13.1221 38.7108 13.231 39.9404 13.4383 41.1366C14.3054 41.3421 15.5322 41.5445 17.1632 41.7279Z" fill="#F0AE28"/>
<path d="M26.9792 42.3638C26.8791 39.1565 26.8785 35.7569 26.9792 32.5508C23.8576 32.6519 21.0554 32.8164 18.8153 33.0188C18.6414 35.9293 18.6419 38.9842 18.8153 41.8947C21.0548 42.0969 23.8574 42.2614 26.9792 42.3638Z" fill="#F0AE28"/>
<path d="M29.4829 32.4852C29.4145 35.7314 29.4145 39.1821 29.4829 42.4294C32.7302 42.4973 36.1809 42.4961 39.4282 42.4294C39.4961 39.1821 39.4961 35.7314 39.4282 32.4852C36.1809 32.4151 32.7302 32.4151 29.4829 32.4852Z" fill="#F0AE28"/>
<path d="M50.0955 41.8947C50.2689 38.9842 50.2689 35.927 50.0955 33.0188C47.8553 32.8143 45.0527 32.6519 41.9316 32.5508C42.0311 35.7558 42.0318 39.1577 41.9316 42.3638C45.0527 42.2614 47.8553 42.0992 50.0955 41.8947Z" fill="#F0AE28"/>
<path d="M55.4725 41.1366V41.1354C55.6798 39.9404 55.7887 38.7108 55.7887 37.4568C55.7887 36.2017 55.6798 34.9721 55.4725 33.7782C54.6059 33.5724 53.3786 33.3679 51.7466 33.1855C51.9239 35.9894 51.9239 38.923 51.7466 41.7279C53.3786 41.5446 54.6059 41.3422 55.4725 41.1366Z" fill="#F0AE28"/>
<path d="M13.8828 43.1211C14.6966 46.0849 16.1345 48.7919 18.0462 51.0898C18.2258 51.1488 18.4091 51.2066 18.5971 51.2633C18.0401 49.1378 17.6038 46.6207 17.3381 43.9015C15.8822 43.6581 14.7395 43.3923 13.8828 43.1211Z" fill="#F0AE28"/>
<path d="M20.206 51.7067C22.3621 52.2425 24.948 52.6672 27.7656 52.9262C27.466 50.695 27.2242 47.9192 27.0763 44.8353C23.9924 44.6873 21.2163 44.4462 18.9854 44.146C19.2438 46.9641 19.6685 49.55 20.206 51.7067Z" fill="#F0AE28"/>
<path d="M29.5488 44.9331C29.6495 48.0537 29.8139 50.8573 30.0169 53.0975C32.9268 53.2709 35.984 53.2709 38.8939 53.0975C39.0967 50.8563 39.2613 48.0537 39.3619 44.9331C36.1563 45.0331 32.7544 45.0321 29.5488 44.9331Z" fill="#F0AE28"/>
<path d="M41.8343 44.8353C41.6858 47.9192 41.4446 50.6974 41.145 52.9262C43.9621 52.6683 46.5485 52.2448 48.7047 51.7067C49.2422 49.5501 49.6664 46.9631 49.9254 44.146C47.6941 44.445 44.9182 44.6885 41.8343 44.8353Z" fill="#F0AE28"/>
<path d="M50.8637 51.0898C52.7752 48.7919 54.2133 46.086 55.0271 43.1211C54.1711 43.3923 53.0288 43.6581 51.573 43.9015C51.3074 46.6218 50.871 49.1376 50.314 51.2633C50.5018 51.2066 50.6841 51.1488 50.8637 51.0898Z" fill="#F0AE28"/>
<path d="M20.6499 53.3154C20.7071 53.5032 20.7661 53.6878 20.8239 53.8669C23.1213 55.7779 25.8272 57.2164 28.7905 58.0291C28.5193 57.1731 28.2535 56.0292 28.0117 54.5728C25.2901 54.3082 22.7749 53.8724 20.6499 53.3154Z" fill="#F0AE28"/>
<path d="M30.1836 54.7485C30.3665 56.3783 30.5694 57.6067 30.775 58.4727C31.9712 58.6806 33.2008 58.7896 34.4554 58.7896C35.7099 58.7896 36.9395 58.6807 38.1357 58.4727C38.3413 57.6067 38.5437 56.3805 38.7272 54.7485C35.924 54.9262 32.9869 54.9274 30.1836 54.7485Z" fill="#F0AE28"/>
<path d="M40.1196 58.0291C43.084 57.2165 45.7899 55.7767 48.0878 53.8657C48.1463 53.6856 48.2041 53.5022 48.2613 53.3154C46.1363 53.8724 43.621 54.3082 40.8995 54.5728C40.6577 56.0291 40.3908 57.1719 40.1196 58.0291Z" fill="#F0AE28"/>
<path d="M36.2956 4.25098H32.6147V14.4976H36.2956V4.25098Z" fill="#F0AE28"/>
<path d="M39.7668 0H29.2983V2.84591H39.7668V0Z" fill="#F0AE28"/>
</svg>
