<svg width="" height="" viewBox="0 0 63 63" fill="none" xmlns="http://www.w3.org/2000/svg">
<path d="M24.1449 11.7029C22.4547 11.0851 20.8537 10.5 18.375 10.5C13.125 10.5 10.5 15.75 10.5 22.3125C10.5 26.5086 11.5732 29.095 12.6903 31.7869C13.3203 33.3052 13.9642 34.8568 14.4375 36.75C14.8286 38.3145 14.9867 40.5783 15.1547 42.9857C15.5505 48.657 16.002 55.125 19.6875 55.125C22.0473 55.125 23.0813 51.4125 24.2196 47.3251C25.6138 42.3187 27.1648 36.75 31.5 36.75C35.8352 36.75 37.386 42.3187 38.7804 47.3251C39.9186 51.4125 40.9526 55.125 43.3125 55.125C46.998 55.125 47.4495 48.657 47.8454 42.9857C48.0134 40.5783 48.1714 38.3145 48.5625 36.75C49.0358 34.8568 49.6797 33.3052 50.3097 31.7869C51.4269 29.095 52.5 26.5086 52.5 22.3125C52.5 15.75 49.875 10.5 44.625 10.5C42.1462 10.5 40.5452 11.0851 38.855 11.7029C36.9652 12.3936 34.9642 13.125 31.5 13.125C28.0358 13.125 26.0346 12.3936 24.1449 11.7029Z" stroke="#F0AE28" stroke-width="4" stroke-linecap="round" stroke-linejoin="round"/>
</svg>
