<svg width="" height="" viewBox="0 0 63 63" fill="none" xmlns="http://www.w3.org/2000/svg">
<path d="M54.8918 2.32471H41.3441C40.7231 2.32471 40.1462 2.83231 39.8168 3.35971L35.4473 10.4247H9.90797C8.46257 10.4247 7.15667 11.4543 6.59237 12.7854C6.02807 14.1165 6.31607 15.7383 7.32317 16.7778L25.9172 35.9919C26.1269 36.2079 26.6237 36.4095 26.6237 36.5661V56.3256H16.1918C15.1982 56.3256 14.3918 57.1311 14.3918 58.1256C14.3918 59.1192 15.1982 59.9256 16.1918 59.9256H41.3918C42.3854 59.9256 43.1918 59.1192 43.1918 58.1256C43.1918 57.1311 42.3854 56.3256 41.3918 56.3256H30.2246V36.6633C30.2246 36.4932 30.833 36.2889 31.0868 36.027L49.6745 16.857C50.6807 15.8193 50.9678 14.1156 50.4044 12.7845C49.841 11.4534 48.5342 10.4247 47.0879 10.4247H39.5603L42.3431 5.92471H54.8918C55.8854 5.92471 56.6918 5.11831 56.6918 4.12471C56.6918 3.13111 55.8863 2.32471 54.8918 2.32471ZM33.2207 14.0247L30.8618 17.9334C30.1589 17.7696 29.4398 17.6409 28.6946 17.4438C23.2361 16.002 18.1565 18.3249 15.5267 19.9467L9.90887 14.0247H33.2207ZM28.4039 33.4791L16.811 21.402C19.2689 19.9566 23.6699 18.0216 28.2347 19.2303C28.7909 19.377 29.3309 19.512 29.8628 19.6416L26.3411 25.335C25.8146 26.1792 26.072 27.2889 26.9153 27.8154C27.2114 27.9999 27.5408 28.0881 27.8666 28.0881C28.4669 28.0881 29.0546 27.6003 29.3957 27.0531L33.4997 20.4156C36.2834 20.9142 38.6333 21.0915 40.5467 20.9556L28.4039 33.4791ZM46.4165 14.0247L46.8998 14.3064L42.6842 18.7011C40.9175 19.2942 38.1257 19.2222 34.5239 18.6399L37.3346 14.0256L46.4165 14.0247Z" fill="#F0AE28"/>
<path d="M21.8069 21.8684C21.6359 22.0304 21.5459 22.2644 21.5459 22.5074C21.5459 22.7414 21.6359 22.9754 21.8069 23.1374C21.9779 23.3075 22.2119 23.4074 22.4459 23.4074C22.6799 23.4074 22.9139 23.3084 23.0759 23.1374C23.2469 22.9745 23.3459 22.7414 23.3459 22.5074C23.3459 22.2644 23.2469 22.0394 23.0759 21.8684C22.7438 21.5354 22.1489 21.5354 21.8069 21.8684Z" fill="#F0AE28"/>
<path d="M26.9459 21.6071C27.1799 21.6071 27.4139 21.5081 27.5759 21.3371C27.7469 21.1742 27.8459 20.9411 27.8459 20.7071C27.8459 20.4641 27.7469 20.2301 27.5759 20.0681C27.2519 19.7351 26.6309 19.7351 26.3069 20.0681C26.1359 20.2391 26.0459 20.4641 26.0459 20.7071C26.0459 20.9411 26.1359 21.1751 26.3069 21.3371C26.4698 21.5081 26.7029 21.6071 26.9459 21.6071Z" fill="#F0AE28"/>
<path d="M28.1067 29.968C27.9357 30.13 27.8457 30.364 27.8457 30.607C27.8457 30.841 27.9357 31.075 28.1067 31.237C28.2777 31.4071 28.5117 31.507 28.7457 31.507C28.9797 31.507 29.2137 31.408 29.3847 31.237C29.5467 31.0741 29.6457 30.841 29.6457 30.607C29.6457 30.364 29.5467 30.13 29.3757 29.968C29.0436 29.635 28.4406 29.635 28.1067 29.968Z" fill="#F0AE28"/>
<path d="M32.6068 23.6682C32.4367 23.8302 32.3467 24.0642 32.3467 24.3072C32.3467 24.5412 32.4367 24.7752 32.6068 24.9372C32.7778 25.1073 33.0028 25.2072 33.2467 25.2072C33.4807 25.2072 33.7147 25.1082 33.8848 24.9372C34.0477 24.7743 34.1467 24.5412 34.1467 24.3072C34.1467 24.0642 34.0477 23.8392 33.8848 23.6682C33.5527 23.3352 32.9497 23.3262 32.6068 23.6682Z" fill="#F0AE28"/>
</svg>
