<svg width="" height="" viewBox="0 0 63 63" fill="none" xmlns="http://www.w3.org/2000/svg">
<path d="M57.9657 13.9112L33.2972 4.22495C30.1098 2.91179 28.3734 3.09095 25.5463 4.16589L6.22891 11.1687C3.65181 12.1078 3.577 12.6217 3.48447 15.2559L2.57491 44.0075C2.42725 47.3878 2.49419 48.0848 5.43156 49.3585L28.2513 59.3598C30.6276 60.3776 32.1731 60.3008 33.8052 59.7555L56.1564 52.8078C58.8536 51.912 59.2316 51.6285 59.334 48.2836L60.279 17.5494C60.3597 15.4153 59.5801 14.5156 57.9696 13.9112H57.9657ZM31.2183 43.8933C30.2614 57.3832 30.1374 57.3891 15.4368 51.1757C6.45138 47.3799 4.77203 46.1574 4.97088 40.2472L5.64419 20.2309C5.79972 15.5984 6.03794 15.1948 15.1296 19.2445C32.4408 26.9581 32.3916 27.3361 31.2183 43.8933ZM27.578 22.1544L13.9385 16.1851C9.69194 14.3266 8.44966 12.8087 16.1317 10.0288C29.3873 5.23098 29.4523 5.23885 40.182 9.40867C51.9197 13.9683 56.3631 16.0178 48.7441 18.9827C39.6524 22.5205 32.996 24.5247 27.578 22.1544ZM57.4853 33.1872C56.9793 49.7877 56.3749 50.4079 42.698 54.5285C34.0473 57.1331 32.6869 57.6745 32.996 53.0499L34.3466 32.8821C34.7423 26.9817 35.2778 26.5585 45.9917 22.5776C57.7196 18.2228 57.9145 19.0772 57.4853 33.1872ZM18.8348 28.9505C18.2265 36.2723 10.005 30.5767 7.06759 37.1346C3.15175 45.8758 14.3224 49.1991 21.2446 52.0734C27.2493 54.5659 29.6747 51.4749 29.9149 43.9543C30.4288 27.7988 19.577 20.0124 18.8348 28.9505ZM40.2666 52.2939C50.9432 52.8609 57.0345 45.234 55.9005 29.4761C55.365 22.0421 47.3561 22.4989 47.9782 29.8167C48.2696 33.2325 45.3558 39.7825 41.2313 40.3456C33.1201 41.4501 32.7657 51.8943 40.2666 52.2939ZM43.6371 26.0426C34.4529 26.5584 34.8919 32.2029 37.6836 35.7446C44.1687 43.974 53.2584 25.5032 43.6371 26.0426ZM35.6598 21.5913C53.4947 18.1007 51.709 12.6551 37.2092 10.7317C23.8728 8.96176 23.1877 24.0306 35.6598 21.5913Z" fill="#F0AE28"/>
</svg>
