<svg width="" height="" viewBox="0 0 63 63" fill="none" xmlns="http://www.w3.org/2000/svg">
<path fill-rule="evenodd" clip-rule="evenodd" d="M36.4187 3.41024C31.5563 -0.48926 25.8484 -0.367731 21.7735 0.492273C19.2889 1.01663 16.7641 1.87374 14.5476 3.14119C13.5906 3.68942 13 4.70962 13 5.81456V48.921C13 50.6215 14.3751 52 16.0714 52C17.7677 52 19.1429 50.6215 19.1429 48.921V32.3847C23.3697 30.5986 28.738 29.7691 32.5813 32.8512C37.4437 36.7505 43.1516 36.6292 47.2265 35.7692C50.336 35.1127 52.7569 33.9941 53.8359 33.4479C55.0383 32.8395 56 31.9044 56 30.4468V5.81456C56 4.71695 55.417 3.70238 54.4701 3.15145C53.5238 2.60092 52.3585 2.59578 51.4082 3.13929L51.4055 3.14076C46.9887 5.56002 40.6468 6.80121 36.4187 3.41024ZM19.1429 7.75241V25.8252C24.9213 23.971 31.4931 24.0923 36.4187 28.0424C39.2349 30.3011 42.7413 30.4228 45.961 29.7432C47.5032 29.4175 48.8648 28.9282 49.8571 28.5088V10.4363C49.0555 10.6936 48.1712 10.9374 47.2265 11.1368C43.1516 11.9968 37.4437 12.1184 32.5813 8.21885C28.738 5.13671 23.3697 5.96639 19.1429 7.75241Z" fill="#5AC7FF"/>
</svg>
