<svg width="" height="" viewBox="0 0 63 63" fill="none" xmlns="http://www.w3.org/2000/svg">
<path d="M16.371 14.916C16.1663 14.916 15.9654 14.9575 15.7753 15.0386C13.3099 16.0975 11.331 18.0185 10.2005 20.4493C10.0306 20.8143 10.0133 21.2245 10.1513 21.6029C10.2894 21.9822 10.5675 22.2853 10.9352 22.4563C11.137 22.55 11.3503 22.5973 11.5714 22.5973C12.1573 22.5973 12.696 22.2535 12.9421 21.7217C13.7599 19.9659 15.1885 18.5786 16.9676 17.818C17.3384 17.6587 17.6249 17.3651 17.7757 16.9896C17.9253 16.615 17.9205 16.2038 17.7611 15.8332C17.5227 15.2761 16.9762 14.916 16.371 14.916Z" fill="#5AC7FF"/>
<path d="M40.0953 25.0208C40.0933 13.9686 31.0994 4.97463 20.047 4.97266C8.99497 4.97463 0.0018457 13.9686 0 25.0208C0.0018457 36.073 8.99497 45.0661 20.0472 45.0681C31.0994 45.0661 40.0933 36.073 40.0953 25.0208ZM20.0472 41.1402C15.7437 41.1392 11.6961 39.4623 8.64946 36.4186C5.60577 33.371 3.92889 29.3233 3.9279 25.0208C3.92889 20.7164 5.60565 16.6688 8.64946 13.623C11.6979 10.5784 15.7457 8.90154 20.0472 8.90056C24.3497 8.90154 28.3974 10.5784 31.445 13.623C34.4897 16.6706 36.1666 20.7183 36.1675 25.0208C36.1666 29.3224 34.4898 33.37 31.445 36.4186C28.3984 39.4623 24.3507 41.1392 20.0472 41.1402Z" fill="#5AC7FF"/>
<path d="M52.5973 8.59082C46.8634 8.5918 42.1959 13.2582 42.1938 18.9933C42.1958 24.7274 46.8632 29.3939 52.5973 29.3958C58.3314 29.3939 62.998 24.7274 63 18.9933C62.998 13.2582 58.3316 8.5918 52.5973 8.59082ZM57.1751 23.573C55.9491 24.7941 54.3234 25.4669 52.5973 25.4679C50.8704 25.4669 49.2447 24.7941 48.0178 23.572C46.7967 22.3461 46.1238 20.7204 46.1229 18.9934C46.1238 17.2665 46.7967 15.6409 48.0188 14.4138C49.2447 13.1926 50.8704 12.5198 52.5973 12.5188C54.3234 12.5198 55.9491 13.1928 57.176 14.4148C58.3972 15.6408 59.071 17.2675 59.0719 18.9934C59.0711 20.7193 58.3972 22.346 57.1751 23.573Z" fill="#5AC7FF"/>
<path d="M42.9526 30.9248C42.6225 32.2087 42.1822 33.4674 41.6417 34.6761C43.6284 35.0217 45.4267 35.9532 46.8623 37.3869C48.711 39.2383 49.7283 41.6971 49.7294 44.3092C49.7284 46.9215 48.711 49.3802 46.8623 51.2316C45.0107 53.0803 42.552 54.0987 39.9399 54.0997C37.3277 54.0987 34.8689 53.0804 33.0166 51.2316C31.6612 49.8744 30.7499 48.1773 30.3638 46.3046C29.1745 46.8818 27.9341 47.3596 26.6655 47.7285C28.2227 53.8052 33.6422 58.0258 39.9401 58.0276C47.5025 58.0258 53.6565 51.8717 53.6584 44.3092C53.6564 37.9032 49.1704 32.3197 42.9526 30.9248Z" fill="#5AC7FF"/>
</svg>
