<svg width="" height="" viewBox="0 0 63 63" fill="none" xmlns="http://www.w3.org/2000/svg">
<path d="M40.9238 32.1825C48.3609 32.1825 54.39 26.1535 54.39 18.7163C54.39 11.279 48.3609 5.25 40.9238 5.25C33.4864 5.25 27.4575 11.279 27.4575 18.7163C27.4575 26.1535 33.4864 32.1825 40.9238 32.1825Z" stroke="#5AC7FF" stroke-width="4" stroke-miterlimit="10"/>
<path d="M16.6948 51.0304C21.16 51.0304 24.7799 47.4107 24.7799 42.9454C24.7799 38.4802 21.16 34.8604 16.6948 34.8604C12.2296 34.8604 8.60986 38.4802 8.60986 42.9454C8.60986 47.4107 12.2296 51.0304 16.6948 51.0304Z" stroke="#5AC7FF" stroke-width="4" stroke-miterlimit="10"/>
<path d="M43.6277 57.7496C47.3389 57.7496 50.3477 54.7411 50.3477 51.0296C50.3477 47.3183 47.3389 44.3096 43.6277 44.3096C39.9162 44.3096 36.9077 47.3183 36.9077 51.0296C36.9077 54.7411 39.9162 57.7496 43.6277 57.7496Z" stroke="#5AC7FF" stroke-width="4" stroke-miterlimit="10"/>
</svg>
