<svg width="" height="" viewBox="0 0 63 63" fill="none" xmlns="http://www.w3.org/2000/svg">
<path d="M15.9607 32.0532C15.9646 32.0572 15.9686 32.0631 15.9725 32.069C15.9548 32.0454 15.9371 32.0217 15.9193 31.9981C15.9331 32.0158 15.9469 32.0355 15.9607 32.0532ZM15.9725 32.069C15.9823 32.0808 15.9922 32.0946 16.002 32.1064C15.9961 32.0985 15.9902 32.0906 15.9823 32.0808C15.9784 32.0769 15.9745 32.0729 15.9725 32.069ZM55.2372 20.5085C55.2333 20.6384 55.2372 20.7644 55.2176 20.9042C55.1093 21.6819 54.6899 22.4162 54.3828 23.1269C54.2391 23.4616 54.0914 23.8061 53.928 24.1251C53.7567 24.4519 53.5323 24.7511 53.3335 25.0583C53.0657 25.4737 52.7428 25.8477 52.4121 26.21C52.0853 26.5604 51.7585 26.9207 51.4218 27.2633C51.0674 27.6275 50.7347 28.0252 50.3528 28.3599C49.9295 28.73 49.518 29.1139 49.0829 29.4781C48.0375 30.3483 47.0079 31.2264 45.931 32.0552C46.0392 31.9745 46.1416 31.8918 46.2499 31.8111C45.297 32.5848 44.4505 33.4589 43.5645 34.3055C42.5821 35.2387 41.582 36.1522 40.5996 37.0873C40.009 37.6465 39.4144 38.1839 38.7765 38.6958C38.182 39.1703 37.5835 39.6408 37.0086 40.1409C35.7643 41.2178 34.4984 42.275 33.2936 43.3972C32.0119 44.5824 30.7676 45.799 29.5234 47.0157C28.4386 48.0789 27.2849 49.0613 26.3124 50.2366C25.8655 50.845 25.4382 51.4651 24.9716 52.0557C24.4873 52.672 23.9912 53.2803 23.501 53.8965C22.8218 54.7903 22.1524 55.696 21.4515 56.578C20.7723 57.4324 20.1187 58.3616 19.2642 59.0566C18.8095 59.4228 18.3389 59.8264 17.7956 60.0705C17.2561 60.3146 16.7108 60.5174 16.1438 60.6887C15.0708 61.0195 13.8325 61.1592 12.728 60.8875C12.1059 60.732 11.4916 60.4367 10.9286 60.1256C10.0899 59.6669 9.28858 58.9641 8.78262 58.147C8.3554 57.456 8.04433 56.6587 7.83761 55.8771C7.69783 55.3396 7.59743 54.7647 7.63483 54.2017C7.66633 53.7154 7.70177 53.2114 7.82974 52.7409C8.06599 51.8904 8.37705 51.0084 8.78655 50.2268C9.20983 49.4215 9.81621 48.7463 10.4186 48.073C10.962 47.4666 11.5566 46.9114 12.1511 46.3523C12.7851 45.7597 13.4328 45.2005 14.116 44.667C15.1436 43.8815 16.195 43.1353 17.2226 42.3577C17.1971 42.3774 17.1715 42.399 17.1459 42.4187C18.1184 41.6627 19.091 40.9087 20.0813 40.1783C20.1974 40.0897 20.3136 39.9991 20.4278 39.9085C20.3156 39.9971 20.2033 40.0798 20.0931 40.1684C20.414 39.9066 20.666 39.6093 20.92 39.2864C20.983 39.2037 21.0499 39.125 21.107 39.0384C21.2271 38.8612 21.3039 38.6643 21.4043 38.4792C20.603 37.5224 19.8076 36.5597 18.9866 35.6186C18.524 35.091 18.018 34.6126 17.5455 34.0909C16.9884 33.4668 16.508 32.7738 16.004 32.1084C16.0611 32.1832 16.1201 32.258 16.1772 32.3308C16.1142 32.2481 16.0493 32.1655 15.9863 32.0828C15.9784 32.0729 15.9725 32.0631 15.9646 32.0552C15.7677 31.7993 15.5689 31.5433 15.3878 31.2736C15.2421 31.059 15.1043 30.8385 14.9527 30.6239C14.7046 30.3227 14.4487 30.0254 14.2538 29.6888C13.927 29.1296 13.671 28.539 13.4348 27.9366C13.2281 27.4149 12.9682 26.8754 12.8402 26.3242C12.6847 25.6587 12.7083 24.9716 12.9406 24.316C13.1473 23.7294 13.4545 23.2037 13.9014 22.7647C14.3128 22.3611 14.8149 22.0697 15.3622 21.8945C15.8111 21.7488 16.3013 21.6504 16.7836 21.6504C17.1262 21.6504 17.4648 21.6996 17.7837 21.8177C18.7406 22.1721 19.5162 22.8946 20.2506 23.5896C20.8806 24.1841 21.4791 24.822 22.0815 25.45C22.6367 26.0249 23.1821 26.6077 23.7333 27.1825C24.2924 27.7653 24.8141 28.3756 25.3654 28.9584C25.9245 29.549 26.4699 30.1396 27.0014 30.7539C27.2337 31.0196 27.4582 31.2953 27.6905 31.565C27.9838 31.3031 28.2772 31.0413 28.5705 30.7795C28.6493 30.7086 28.7261 30.6338 28.8048 30.5609C28.3185 30.0392 27.8362 29.5155 27.344 28.9977C26.5585 28.1787 25.8202 27.3184 25.0287 26.4994C24.2156 25.6568 23.377 24.8397 22.5954 23.9617C21.674 22.9241 20.7723 21.8748 19.8746 20.8136C19.5556 20.4435 19.3509 20.0557 19.3509 19.5517C19.3509 19.0772 19.5379 18.6224 19.8746 18.2877C20.2053 17.953 20.664 17.764 21.1346 17.764C21.5696 17.764 22.113 17.9393 22.4005 18.2877C23.2864 19.3607 24.1448 20.4593 25.0189 21.5401C25.7611 22.4536 26.5703 23.3002 27.3853 24.1448C28.1669 24.9657 28.9131 25.8241 29.6966 26.647C30.2125 27.1924 30.7283 27.7397 31.25 28.2831C31.5689 27.9838 31.8859 27.6787 32.2147 27.3893C30.9192 25.8182 29.547 24.3101 28.228 22.7588C26.6471 20.9003 25.0189 19.0969 23.2313 17.4274C22.5442 16.7895 22.5855 15.6437 23.2313 14.998C23.564 14.6652 23.9971 14.5038 24.4302 14.5038C24.8732 14.5038 25.3162 14.6711 25.6568 14.998C27.5369 16.8131 29.173 18.8725 30.8641 20.8629C31.63 21.7645 32.4194 22.6505 33.1912 23.5482C33.6223 24.0542 34.0496 24.5621 34.4768 25.072C34.5181 25.1213 34.5634 25.1725 34.6047 25.2217C34.9611 24.8929 35.3233 24.57 35.6836 24.2452C34.4413 22.8159 33.142 21.4377 31.9213 19.9887C30.3168 18.0771 28.6926 16.1772 27.0605 14.2892C26.7494 13.927 26.5466 13.543 26.5466 13.0528C26.5466 12.5902 26.7337 12.1433 27.0605 11.8165C27.3873 11.4896 27.8342 11.3006 28.2969 11.3006C28.7241 11.3006 29.2458 11.4759 29.5332 11.8165C30.6416 13.1335 31.6831 14.5038 32.7305 15.8662C33.7109 17.1163 34.6835 18.3744 35.7742 19.532C36.5479 20.353 37.3 21.1897 38.0638 22.0185C38.3473 21.7488 38.6367 21.485 38.9202 21.2133C38.8159 21.0853 38.7155 20.9515 38.6072 20.8274C38.0323 20.1699 37.426 19.5379 36.859 18.8764C35.658 17.4746 34.5693 15.9882 33.4511 14.5255C33.4668 14.5451 33.4806 14.5648 33.4944 14.5845C32.5494 13.3915 31.5906 12.2141 30.5491 11.1057C29.9349 10.4482 29.8994 9.41852 30.5491 8.76686C30.8641 8.4558 31.311 8.28648 31.752 8.28648C32.1733 8.28648 32.5927 8.44005 32.886 8.76686C34.5437 10.6076 35.9179 12.6768 37.422 14.6436C38.2351 15.6614 39.0738 16.6537 39.9381 17.6341C40.3555 18.1086 40.7709 18.5909 41.1843 19.0693C41.2591 18.9945 41.3438 18.9276 41.4146 18.8488C41.5406 18.713 41.6647 18.5771 41.7867 18.4393C41.4461 18.022 41.1056 17.6065 40.7571 17.199C40.0916 16.4135 39.4203 15.626 38.7371 14.8562C38.0796 14.114 37.4968 13.3088 36.9653 12.474C36.4987 11.7397 36.0715 11.025 35.7643 10.208C35.5005 9.52089 35.3686 8.8397 35.2899 8.1093C35.2387 7.6427 35.1895 7.13673 35.2269 6.66423C35.2584 6.18583 35.3273 5.69955 35.4867 5.24477C35.7269 4.56948 36.038 3.81939 36.5715 3.32523C36.922 2.99842 37.2941 2.68342 37.737 2.48655C38.0166 2.36645 38.2961 2.25227 38.5875 2.16367C38.9734 2.05145 39.3947 1.9668 39.7983 1.9668C39.8239 1.9668 39.8515 1.9668 39.8771 1.9668C40.8988 1.99436 41.8084 2.24636 42.6983 2.74839C43.537 3.22286 44.2615 3.83711 44.9564 4.49664C45.5037 5.01442 46.0412 5.54598 46.5078 6.13267C47.0945 6.87095 47.6457 7.63089 48.2127 8.37902C48.7049 9.01689 49.1951 9.65477 49.6854 10.2946C49.6716 10.2789 49.6598 10.2631 49.646 10.2454C50.1854 10.9423 50.7288 11.6511 51.3411 12.2811C51.7683 12.7201 52.2113 13.1355 52.5893 13.6139C53.0913 14.2557 53.6032 14.8956 54.0087 15.6083C54.245 16.0197 54.4714 16.443 54.6761 16.8742C54.8277 17.1931 54.9636 17.5199 55.0916 17.8467C55.3357 18.4885 55.3987 19.1953 55.379 19.8785C55.3672 20.1029 55.318 20.3136 55.2372 20.5085ZM46.4428 11.6649C46.4802 11.7121 46.5176 11.7613 46.5551 11.8086C46.5334 11.781 46.5117 11.7535 46.4901 11.7259C46.4743 11.7042 46.4586 11.6845 46.4428 11.6649ZM20.0773 40.1783C20.1384 40.131 20.1994 40.0857 20.2604 40.0385C20.2053 40.0798 20.1482 40.1251 20.0931 40.1684C20.0891 40.1724 20.0832 40.1743 20.0773 40.1783ZM52.0321 20.0281C52.0361 19.9966 52.0538 19.9671 52.0636 19.9356C52.0636 19.9179 52.0538 19.9021 52.0518 19.8844C52.0518 19.7643 52.0479 19.6462 52.04 19.5261C51.9947 19.2977 51.9337 19.0752 51.853 18.8547C51.3982 17.8743 50.8095 16.9825 50.1657 16.1201C49.7366 15.5984 49.2385 15.1417 48.8014 14.6259C48.0592 13.7399 47.3426 12.8323 46.6377 11.9188C46.6476 11.9306 46.6574 11.9444 46.6673 11.9582C46.5688 11.8322 46.4724 11.7082 46.3759 11.5802C46.3188 11.5074 46.2637 11.4345 46.2066 11.3636C46.0294 11.1392 45.8542 10.9148 45.6809 10.6903C45.7735 10.8065 45.8601 10.9207 45.9526 11.0368C45.3679 10.2828 44.8088 9.51105 44.2339 8.75111C43.4681 7.79233 42.6136 6.88867 41.6627 6.10905C41.332 5.88067 40.9894 5.67395 40.6331 5.48889C40.4696 5.43377 40.3023 5.38652 40.133 5.35305C39.9932 5.3432 39.8554 5.33927 39.7156 5.34517C39.5463 5.38258 39.379 5.4318 39.2136 5.48889C39.1742 5.51055 39.1368 5.5322 39.0974 5.55583C39.0325 5.61489 38.9714 5.67592 38.9104 5.73892C38.9025 5.7527 38.8946 5.76452 38.8887 5.7783C38.7844 6.05392 38.6938 6.32955 38.6289 6.61502C38.5974 7.05602 38.619 7.50489 38.6643 7.94589C38.7155 8.25695 38.7864 8.56014 38.8907 8.85545C39.1171 9.33189 39.3927 9.77683 39.692 10.2159C40.0562 10.7533 40.4027 11.3046 40.7886 11.8302C41.4776 12.7004 42.1962 13.549 42.9188 14.3935C43.7004 15.307 44.5272 16.1772 45.3285 17.075C45.9861 17.8093 46.055 18.9099 45.3285 19.6363C45.2065 19.7604 45.049 19.8411 44.8915 19.9218C44.545 20.2703 44.2378 20.6502 43.9012 21.0085C43.5212 21.4141 43.1078 21.7882 42.7002 22.1681C42.6215 22.3512 42.5171 22.5225 42.3774 22.6623C42.2179 22.8218 42.023 22.934 41.8143 23.0127C41.3654 23.4301 40.9244 23.8534 40.4736 24.2727C39.879 24.824 39.2766 25.3654 38.6781 25.9088C38.0087 26.5151 37.361 27.1451 36.7034 27.7633C36.4593 27.9897 36.2073 28.2122 35.9612 28.4366C35.8076 28.6985 35.5694 28.8875 35.3056 29.0312C35.1501 29.171 34.9965 29.3167 34.839 29.4545C34.2169 30.0018 33.6302 30.5806 33.0396 31.1634C31.6989 32.4923 30.3778 33.833 28.9938 35.1127C28.287 35.7683 27.1983 35.8116 26.4994 35.1127C26.4876 35.1009 26.4836 35.0851 26.4738 35.0733C26.2946 34.9926 26.1214 34.8882 25.9816 34.7366C25.2866 33.9865 24.6724 33.1557 24.0109 32.3781C23.2805 31.5315 22.5225 30.7145 21.7921 29.8679C21.0302 28.9859 20.2407 28.1197 19.4336 27.279C18.7425 26.5506 18.0515 25.8103 17.2719 25.1744C17.1262 25.0701 16.9805 24.9697 16.8269 24.8811C16.8171 24.8791 16.8092 24.8752 16.7994 24.8732C16.7698 24.8732 16.7383 24.8752 16.7088 24.8752C16.5966 24.8968 16.4883 24.9244 16.38 24.9598C16.3564 24.9736 16.3308 24.9874 16.3072 25.0012C16.2461 25.0583 16.1891 25.1193 16.1339 25.1803C16.1221 25.2 16.1103 25.2177 16.0985 25.2374C16.0808 25.2925 16.065 25.3477 16.0512 25.4028C16.0493 25.45 16.0493 25.4973 16.0512 25.5465C16.1654 26.0899 16.3761 26.6136 16.5867 27.1274C16.7403 27.4759 16.9096 27.8165 17.1341 28.1256C17.2896 28.3402 17.453 28.5489 17.6085 28.7635C18.0357 29.3442 18.4531 29.9329 18.8941 30.5078C19.2938 31.0275 19.6974 31.5433 20.162 32.008C20.6404 32.4824 21.0991 32.9707 21.5303 33.4885C22.6072 34.774 23.7727 35.971 24.8988 37.2114C25.5406 37.9221 25.5977 38.9911 24.8988 39.69C24.7767 39.8121 24.6212 39.8948 24.4657 39.9755C24.3279 40.2354 24.2078 40.5051 24.0286 40.7492C23.8337 41.013 23.629 41.263 23.4183 41.5111C23.2037 41.771 22.9832 42.0584 22.7233 42.273C22.0658 42.8243 21.3472 43.2987 20.6601 43.8126C20.7723 43.724 20.8806 43.6413 20.9908 43.5527C20.0419 44.2969 19.0969 45.047 18.1184 45.7597C17.3546 46.3149 16.5808 46.8602 15.8189 47.4193C14.3995 48.5592 13.0883 49.8192 11.9051 51.2052C11.6531 51.5754 11.4562 51.9671 11.2731 52.3766C11.1195 52.7724 10.9955 53.176 10.9187 53.5933C10.8951 53.93 10.8872 54.2627 10.9089 54.5994C10.9699 54.8868 11.0585 55.1664 11.1609 55.442C11.2987 55.7235 11.4581 55.9952 11.6353 56.2551C11.7909 56.4303 11.9523 56.5957 12.1295 56.7512C12.3992 56.9284 12.6768 57.0839 12.9721 57.2178C13.234 57.3202 13.4997 57.4127 13.7754 57.4737C13.9998 57.4855 14.2242 57.4895 14.4506 57.4757C14.998 57.3694 15.5374 57.2001 16.0591 57.0091C16.3918 56.8477 16.7088 56.6626 17.014 56.4539C18.0613 55.5542 18.9276 54.4793 19.7978 53.4122C20.6758 52.3412 21.546 51.2702 22.4083 50.1894C22.995 49.4058 23.5345 48.5829 24.2038 47.8662C24.8378 47.1831 25.4816 46.498 26.1588 45.8581C27.3794 44.7162 28.6099 43.5803 29.8226 42.4305C31.0236 41.2886 32.2363 40.1605 33.4865 39.0738C34.7111 38.0166 35.9691 37.0027 37.2173 35.9809C37.8197 35.4867 38.3591 34.9158 38.9301 34.3842C39.4931 33.8605 40.0877 33.3743 40.6586 32.8604C41.1823 32.386 41.6962 31.9016 42.1982 31.4075C42.6687 30.9527 43.0999 30.4546 43.5822 30.0116C44.0528 29.5765 44.4879 29.106 44.9584 28.6709C45.4211 28.2437 45.8916 27.8303 46.3661 27.4188C47.8013 26.1844 49.142 24.8082 50.3469 23.3494C50.6638 22.9202 50.9513 22.4851 51.1934 22.0008C51.4336 21.5244 51.6777 21.0499 51.8982 20.5616C51.9593 20.3845 52.0026 20.2112 52.0321 20.0281ZM14.053 44.7123C14.0726 44.6965 14.0943 44.6808 14.114 44.665C14.1671 44.6237 14.2203 44.5824 14.2735 44.543C14.1986 44.6001 14.1258 44.6572 14.053 44.7123ZM14.5156 51.9534C13.6494 51.9534 12.9229 52.6798 12.9229 53.5461C12.9229 54.4123 13.6494 55.1388 14.5156 55.1388C15.3819 55.1388 16.1083 54.4123 16.1083 53.5461C16.1083 52.6798 15.3819 51.9534 14.5156 51.9534Z" fill="#5AC7FF"/>
</svg>
