<svg width="" height="" viewBox="0 0 48 52" fill="none" xmlns="http://www.w3.org/2000/svg">
<path d="M32.4806 8.51263C37.0083 10.5359 40.7047 14.0515 42.9523 18.4723C45.1999 22.893 45.8625 27.951 44.8295 32.8015C43.7964 37.652 41.1303 42.0011 37.2765 45.1224C33.4227 48.2437 28.6146 49.9481 23.6553 49.9509C19.4134 49.9507 15.2648 48.7047 11.7248 46.3676C8.18467 44.0305 5.40891 40.7052 3.74203 36.8044C2.07515 32.9037 1.59057 28.5993 2.34843 24.4256C3.1063 20.2518 5.07323 16.3926 8.00508 13.3269C10.0254 16.148 12.6914 18.445 15.7803 20.0259C15.8344 16.5573 16.6532 13.1433 18.1782 10.0275C19.7032 6.91165 21.897 4.17067 24.603 2C26.6682 4.76988 29.3691 7.00262 32.478 8.51L32.4806 8.51263Z" stroke="#5AC7FF" stroke-width="4" stroke-linecap="round" stroke-linejoin="round"/>
</svg>
