<svg width="" height="" viewBox="0 0 63 63" fill="none" xmlns="http://www.w3.org/2000/svg">
<g clip-path="url(#clip0_235_479)">
<path d="M36.3931 9.04884H36.3945C36.3955 9.04884 36.397 9.04785 36.3981 9.04785L36.3931 9.04884Z" fill="#5AC7FF"/>
<path d="M60.0347 33.6273C60.3058 32.8306 60.8537 31.1866 61.4096 29.2952C61.7978 27.9745 62.1875 26.5422 62.4855 25.1972C62.7816 23.845 62.9953 22.6105 62.9999 21.5391C62.9974 21.1215 62.9705 20.7242 62.8494 20.2903C62.7865 20.0734 62.6978 19.8424 62.5452 19.6031C62.3947 19.3658 62.1677 19.1145 61.8611 18.932C61.4319 18.6746 60.9751 18.5945 60.589 18.5955C59.9829 18.6015 59.4822 18.7586 58.9799 18.9603C58.1102 19.3212 57.2309 19.8726 56.3065 20.5354C54.928 21.5309 53.4816 22.7836 52.2024 24.0091C51.3748 24.8038 50.6393 25.569 50.0236 26.2685C45.4507 23.5946 41.3613 21.6019 39.4526 20.7058C39.524 20.3308 39.6042 19.893 39.6847 19.4023C39.9259 17.9264 40.1727 16.0432 40.1743 14.2916C40.1678 13.1635 40.0882 12.0992 39.7248 11.1049C39.5373 10.6102 39.2656 10.1074 38.7932 9.68366C38.3301 9.25595 37.6312 8.98328 36.9682 8.99447C36.7751 8.99447 36.5831 9.01367 36.3946 9.04911C35.3243 9.2477 34.2138 9.6887 33.0046 10.2806C29.4751 12.0271 25.1131 15.1773 21.2603 18.1878C16.8385 19.4163 12.0668 21.4891 8.13549 24.0303C6.12392 25.3329 4.33199 26.7559 2.92199 28.2895C1.51803 29.8231 0.465979 31.4783 0.0803496 33.312L0 33.6993L0.115049 34.0784C1.06276 37.2014 3.08995 39.8348 5.67406 42.0525C9.56037 45.3812 14.7414 47.8534 20.0304 49.7579C25.3195 51.6575 30.722 52.9701 35.0268 53.857C35.4956 53.9533 35.94 54.005 36.3688 54.005C36.9841 54.005 37.5777 53.8966 38.1123 53.6492C38.9237 53.2834 39.5101 52.5859 39.7974 51.8927C40.0954 51.1932 40.1739 50.4958 40.1767 49.8319C40.1726 48.6236 39.8999 47.4763 39.6445 46.5884C39.6322 46.5469 39.6211 46.5154 39.6095 46.4759C41.5759 45.5485 45.565 43.5933 50.0203 40.9883C50.407 41.427 50.8428 41.8924 51.3227 42.3799C52.6734 43.7473 54.3251 45.2383 55.9109 46.4283C56.7065 47.0233 57.4826 47.5432 58.2316 47.9405C58.6076 48.1391 58.977 48.3076 59.3582 48.4363C59.7404 48.5629 60.1341 48.6573 60.5893 48.6602C60.9749 48.6602 61.43 48.5812 61.8594 48.3248L61.8213 48.3481L61.8618 48.3238C62.1684 48.1402 62.395 47.89 62.5455 47.6517C62.7726 47.291 62.8638 46.9585 62.9241 46.6463C62.9813 46.3321 62.9996 46.0289 63.0001 45.7168C62.9956 44.6453 62.7817 43.4098 62.4858 42.0577C61.7639 38.809 60.4985 34.9897 60.0347 33.6273ZM58.014 44.1112C56.813 43.2344 55.4704 42.0708 54.3017 40.9457C53.1351 39.8246 52.1255 38.7188 51.6177 38.0376L50.7748 36.9145L49.5712 37.6373C46.2765 39.6138 43.1352 41.2671 40.8242 42.4225C39.6682 43.0013 38.7199 43.4544 38.0621 43.7625C37.7337 43.9176 37.4779 44.0351 37.305 44.1132C37.1322 44.1923 37.047 44.2297 37.047 44.2297L35.6594 44.847L36.2416 46.2497L36.2462 46.2621C36.2832 46.3522 36.4975 46.8955 36.6948 47.599C36.894 48.2984 37.0668 49.17 37.0627 49.832C37.0631 50.0884 37.0383 50.3104 36.9998 50.4685C36.9379 50.7149 36.8731 50.7757 36.8513 50.794C36.8265 50.808 36.7627 50.8842 36.3688 50.8912C36.1904 50.8912 35.9522 50.8688 35.6547 50.808C31.4219 49.9375 26.1126 48.6389 21.0059 46.7983C21.7216 46.1394 22.3419 45.4016 22.8523 44.5937C24.0742 42.6607 24.759 40.3974 25.1518 38.069C25.5429 35.7387 25.6398 33.3334 25.6403 31.0974C25.6403 30.5237 25.1755 30.0594 24.6024 30.0594C24.0291 30.0594 23.5645 30.5236 23.5645 31.0974C23.5659 33.9964 23.389 37.1172 22.6496 39.8194C22.2817 41.1706 21.7754 42.4154 21.0984 43.4837C20.4784 44.4608 19.7121 45.2848 18.7686 45.9477C17.869 45.5889 16.9795 45.2149 16.1124 44.8196C12.9048 43.36 9.97652 41.6439 7.70237 39.6896C5.55409 37.8459 4.0149 35.8116 3.23896 33.5847C3.52172 32.6237 4.17301 31.525 5.21497 30.3958C6.96138 28.4882 9.68847 26.5562 12.7613 24.9263C15.8335 23.2924 19.2535 21.9443 22.3855 21.102L22.6922 21.0198L22.9421 20.8232C25.4929 18.8203 28.3 16.7413 30.8456 15.1114C32.1172 14.2966 33.3234 13.5941 34.3818 13.0731C35.3492 12.5927 36.1899 12.2814 36.789 12.1507C36.8448 12.2866 36.9126 12.5075 36.9584 12.7944C37.0263 13.1989 37.0612 13.7198 37.0607 14.2915C37.0622 15.747 36.8402 17.5189 36.6122 18.8974C36.4987 19.5877 36.3851 20.1828 36.3001 20.6023C36.2575 20.8121 36.2225 20.9784 36.1982 21.0908L36.1702 21.2175L36.1616 21.2561L35.8763 22.5048L37.047 23.0248C37.0474 23.0258 37.1322 23.0633 37.305 23.1423C38.5131 23.6917 43.8042 26.1578 49.5705 29.6182L50.7748 30.341L51.6177 29.218C52.0093 28.6929 52.7063 27.9053 53.5384 27.063C54.7882 25.796 56.3624 24.3789 57.7784 23.3187C58.4843 22.7885 59.1533 22.3486 59.6875 22.0668C59.7507 22.0334 59.8046 22.009 59.8638 21.9807C59.8147 22.6294 59.6676 23.5346 59.4457 24.5229C59.0336 26.3859 58.3992 28.549 57.8694 30.2305C57.605 31.0719 57.3662 31.7957 57.1944 32.3063C57.1086 32.5618 57.0392 32.7645 56.9916 32.9024C56.9445 33.0402 56.9198 33.1102 56.9198 33.111L56.7384 33.627L56.9198 34.1429C56.9198 34.1439 56.9644 34.2706 57.0465 34.5108C57.3333 35.349 58.057 37.513 58.7017 39.81C59.024 40.9574 59.3267 42.1383 59.5435 43.1894C59.7117 43.9932 59.8243 44.727 59.8664 45.2745C59.3672 45.0305 58.7155 44.6261 58.014 44.1112Z" fill="#5AC7FF"/>
<path d="M12.1584 29.3984C10.8266 29.3984 9.74707 30.4779 9.74707 31.8088C9.74707 33.1416 10.8266 34.2213 12.1584 34.2213C13.4898 34.2213 14.5694 33.1416 14.5694 31.8088C14.5693 30.4779 13.4898 29.3984 12.1584 29.3984Z" fill="#5AC7FF"/>
</g>
<defs>
<clipPath id="clip0_235_479">
<rect width="63" height="63" fill="white"/>
</clipPath>
</defs>
</svg>
