<svg width="" height="" viewBox="0 0 63 63" fill="none" xmlns="http://www.w3.org/2000/svg">
<path d="M10.513 42.2492C8.51806 44.3351 7.22411 46.9918 6.81174 49.8486C6.56053 51.2777 6.46809 52.7303 6.53611 54.1798V56.4636H9.68611C10.8481 56.46 12.0075 56.3546 13.1511 56.1486C16.0126 55.7517 18.6739 54.4556 20.7505 52.4473C21.9688 51.0777 22.5948 49.2811 22.4914 47.451C22.3881 45.6208 21.5639 43.9062 20.1992 42.6823C18.962 41.3578 17.2551 40.5707 15.4445 40.4897C13.6338 40.4087 11.8635 41.0404 10.513 42.2492ZM17.3642 49.0611C16.0011 50.3522 14.2646 51.1792 12.403 51.4236H11.5367V50.5573C11.7811 48.6957 12.6081 46.9592 13.8992 45.5961C14.1658 45.3802 14.5015 45.2683 14.8442 45.2811C15.1948 45.2951 15.5391 45.379 15.8568 45.5277C16.1746 45.6765 16.4595 45.8871 16.6949 46.1473C17.1675 46.4471 17.5028 46.9212 17.6281 47.4667C17.7534 48.0122 17.6586 48.585 17.3642 49.0611ZM57.6842 8.81982C57.6642 7.8967 57.2885 7.01696 56.6356 6.36407C55.9827 5.71117 55.103 5.33552 54.1799 5.31544C49.5702 4.93907 44.932 5.49466 40.5416 6.94909C36.1513 8.40352 32.0987 10.727 28.6255 13.7811L22.2074 21.2623L12.7574 19.2936C12.1128 19.1531 11.4433 19.1769 10.8104 19.3627C10.1774 19.5484 9.60129 19.8902 9.13486 20.3567L6.45737 23.0342C6.04871 23.4509 5.7378 23.9532 5.54713 24.5048C5.35645 25.0564 5.29078 25.6435 5.35487 26.2236C5.41291 26.811 5.60229 27.3779 5.909 27.8822C6.2157 28.3866 6.63188 28.8155 7.12674 29.1373L15.238 34.3348L15.7499 34.6498L28.3499 47.4467L28.6649 47.7617L33.8624 55.8729C34.1842 56.3678 34.6131 56.784 35.1175 57.0907C35.6218 57.3974 36.1887 57.5868 36.7761 57.6448H37.2092C38.2422 57.6405 39.2321 57.2304 39.9655 56.5029L42.643 53.8254C43.1094 53.359 43.4513 52.7829 43.637 52.1499C43.8228 51.517 43.8465 50.8475 43.7061 50.2029L41.7374 40.7923L48.9824 34.5711C52.0956 31.0882 54.4716 27.0111 55.9671 22.5854C57.4626 18.1598 58.0467 13.4772 57.6842 8.81982ZM12.2455 24.2154L17.443 25.3179L14.923 28.2711L10.9855 25.6329L12.2455 24.2154ZM37.3667 52.1717L34.7286 48.2342L37.6817 45.7142L38.7842 50.9117L37.3667 52.1717ZM45.6749 30.9486L31.1849 43.3123L19.6874 31.8148L32.0511 17.3248C37.7797 12.3748 45.2021 9.83478 52.7624 10.2373C53.1485 17.7952 50.6105 25.2118 45.6749 30.9486Z" fill="#5AC7FF"/>
<path d="M43.8243 26.1058C44.2545 25.654 44.5902 25.1209 44.8116 24.5376C45.033 23.9544 45.1358 23.3328 45.1138 22.7093C45.0918 22.0858 44.9455 21.473 44.6835 20.9068C44.4215 20.3406 44.049 19.8324 43.588 19.4121C43.1811 18.9295 42.6785 18.5365 42.1121 18.2579C41.5456 17.9793 40.9276 17.8212 40.2969 17.7935C39.6663 17.7657 39.0367 17.869 38.448 18.0968C37.8593 18.3246 37.3242 18.672 36.8765 19.117C36.4288 19.562 36.0781 20.095 35.8467 20.6823C35.6153 21.2696 35.5082 21.8985 35.5321 22.5293C35.5559 23.1601 35.7103 23.7791 35.9854 24.3472C36.2605 24.9154 36.6504 25.4203 37.1305 25.8302C37.5511 26.2892 38.0582 26.6606 38.6227 26.9231C39.1872 27.1855 39.7981 27.3338 40.4201 27.3594C41.0421 27.385 41.6631 27.2875 42.2473 27.0723C42.8315 26.8572 43.3674 26.5287 43.8243 26.1058Z" fill="#5AC7FF"/>
</svg>
