<svg width="" height="" viewBox="0 0 63 63" fill="none" xmlns="http://www.w3.org/2000/svg">
<path d="M38.9655 52.5H17.0625C13.4426 52.5 10.5 49.5574 10.5 45.9375C10.5 42.3176 13.4426 39.375 17.0625 39.375H35.4375C40.5037 39.375 44.625 35.2537 44.625 30.1875C44.625 25.1212 40.5037 21 35.4375 21H22.6774C21.7133 22.8897 20.5196 24.653 19.1231 26.25H35.4375C37.6084 26.25 39.375 28.0166 39.375 30.1875C39.375 32.3584 37.6084 34.125 35.4375 34.125H17.0625C10.5499 34.125 5.25 39.4249 5.25 45.9375C5.25 52.4501 10.5499 57.75 17.0625 57.75H42.2441C40.956 56.1297 39.8561 54.3685 38.9655 52.5ZM13.125 5.25C8.78325 5.25 5.25 8.78325 5.25 13.125C5.25 21.4935 13.125 26.25 13.125 26.25C13.125 26.25 21 21.4909 21 13.125C21 8.78325 17.4667 5.25 13.125 5.25ZM13.125 17.0625C12.6077 17.0623 12.0956 16.9603 11.6178 16.7622C11.14 16.5641 10.7059 16.2738 10.3402 15.9079C9.97459 15.542 9.68461 15.1077 9.48682 14.6298C9.28904 14.1518 9.18733 13.6396 9.1875 13.1224C9.18767 12.6051 9.28972 12.093 9.48783 11.6152C9.68593 11.1373 9.9762 10.7032 10.3421 10.3376C10.708 9.97197 11.1423 9.68198 11.6202 9.4842C12.0982 9.28641 12.6104 9.1847 13.1276 9.18487C14.1723 9.18522 15.174 9.60054 15.9124 10.3395C16.6508 11.0784 17.0655 12.0804 17.0651 13.125C17.0648 14.1696 16.6495 15.1714 15.9105 15.9098C15.1716 16.6482 14.1696 17.0628 13.125 17.0625Z" fill="#5AC7FF"/>
<path d="M49.875 36.75C45.5332 36.75 42 40.2832 42 44.625C42 52.9935 49.875 57.75 49.875 57.75C49.875 57.75 57.75 52.9909 57.75 44.625C57.75 40.2832 54.2168 36.75 49.875 36.75ZM49.875 48.5625C49.3577 48.5623 48.8456 48.4603 48.3678 48.2622C47.89 48.0641 47.4559 47.7738 47.0902 47.4079C46.7246 47.042 46.4346 46.6077 46.2368 46.1298C46.039 45.6518 45.9373 45.1396 45.9375 44.6224C45.9377 44.1051 46.0397 43.593 46.2378 43.1152C46.4359 42.6373 46.7262 42.2032 47.0921 41.8376C47.458 41.472 47.8923 41.182 48.3702 40.9842C48.8482 40.7864 49.3604 40.6847 49.8776 40.6849C50.9223 40.6852 51.924 41.1005 52.6624 41.8395C53.4008 42.5784 53.8155 43.5804 53.8151 44.625C53.8148 45.6696 53.3995 46.6714 52.6605 47.4098C51.9216 48.1482 50.9196 48.5628 49.875 48.5625Z" fill="#5AC7FF"/>
</svg>
