<svg width="" height="" viewBox="0 0 63 63" fill="none" xmlns="http://www.w3.org/2000/svg">
<path fill-rule="evenodd" clip-rule="evenodd" d="M31.5 2.17285L33.8305 6.6671C37.0217 12.8219 40.7432 17.1067 44.1063 20.9793C44.5969 21.544 45.0799 22.1001 45.5524 22.6519C49.1744 26.8813 52.5 31.1836 52.5 37.1957C52.5 48.6081 43.0369 57.7505 31.5 57.7505C19.9631 57.7505 10.5 48.6081 10.5 37.1957C10.5 31.1836 13.8255 26.8813 17.4476 22.6519C17.9202 22.1001 18.4031 21.544 18.8936 20.9792C22.2569 17.1067 25.9783 12.8219 29.1695 6.6671L31.5 2.17285ZM21.4352 26.0668C17.7838 30.3305 15.75 33.3057 15.75 37.1957C15.75 45.588 22.7404 52.5005 31.5 52.5005C40.2596 52.5005 47.25 45.588 47.25 37.1957C47.25 33.3057 45.2161 30.3305 41.5648 26.0668C41.118 25.5452 40.6513 25.0086 40.1688 24.4537C37.5273 21.4169 34.4103 17.8332 31.5 13.1693C28.5897 17.8332 25.4727 21.4169 22.8313 24.4537C22.3486 25.0086 21.8819 25.5452 21.4352 26.0668Z" fill="#5AC7FF"/>
</svg>
