<svg width="" height="" viewBox="0 0 63 63" fill="none" xmlns="http://www.w3.org/2000/svg">
<g clip-path="url(#clip0_240_669)">
<path fill-rule="evenodd" clip-rule="evenodd" d="M57.7943 10.169L56.2472 14.3204L54.3233 18.7747C52.5433 22.5939 50.0939 27.0588 47.1644 30.14C44.3674 33.0816 40.1467 35.7916 36.7662 37.7165C37.6351 41.9018 36.4452 46.4289 33.197 49.6771C27.2375 55.6369 20.5807 55.6379 15.6276 54.1656C12.9785 53.3779 10.3368 52.1042 8.10796 50.4122L5.83856 48.5279C5.31854 48.0876 5.35143 47.2807 5.90893 46.8891L6.78077 46.2677C8.69137 44.875 10.6624 43.1646 11.1334 40.8096C11.4338 38.3798 11.6058 37.0555 11.6496 36.8366C12.0113 35.028 12.7768 32.9742 14.6355 31.1154C17.8836 27.8675 22.4105 26.6776 26.5954 27.5462C28.5206 24.1657 31.2306 19.9448 34.1725 17.1479C37.2534 14.2185 41.7183 11.7691 45.5374 9.98892L49.9918 8.06501L54.1432 6.51791C56.4099 5.74369 58.5684 7.90241 57.7943 10.169ZM18.3478 34.828C17.4223 35.7533 17.0199 36.755 16.7977 37.8662C16.4973 40.2962 16.3252 41.6206 16.2815 41.8394C15.8069 44.2121 14.42 46.1701 13.2639 47.4784C14.3252 48.0735 15.6461 48.6938 17.1237 49.1332C20.7554 50.2128 25.2356 50.2139 29.4847 45.9648C32.5602 42.8894 32.5602 37.9032 29.4847 34.828C26.4093 31.7525 21.4232 31.7525 18.3478 34.828ZM31.4456 29.6431C32.0609 30.0749 32.6473 30.5658 33.197 31.1154C33.7467 31.6651 34.2373 32.2515 34.6691 32.8666C35.6963 32.2712 36.756 31.6252 37.7923 30.9459L37.7123 30.7692C37.408 30.12 36.8754 29.2254 35.9811 28.3311C35.2147 27.5648 34.448 27.064 33.8358 26.7449L33.3663 26.5201C32.687 27.5562 32.041 28.6159 31.4456 29.6431ZM50.9816 13.3305C49.976 13.7471 48.8832 14.2217 47.7555 14.7474C44.0574 16.4711 40.2318 18.631 37.79 20.9527C37.3776 21.3447 36.9647 21.7791 36.5544 22.2462C37.5067 22.7731 38.6085 23.5338 39.6936 24.6189C40.7785 25.7039 41.5393 26.8057 42.0661 27.7578C42.5331 27.3475 42.9675 26.9346 43.3594 26.5225C45.6812 24.0805 47.8411 20.2548 49.5649 16.5567C50.0905 15.4289 50.5651 14.3363 50.9816 13.3305Z" fill="#F0AE28"/>
</g>
<defs>
<clipPath id="clip0_240_669">
<rect width="63" height="63" fill="white"/>
</clipPath>
</defs>
</svg>
