<svg width="" height="" viewBox="0 0 63 63" fill="none" xmlns="http://www.w3.org/2000/svg">
<g clip-path="url(#clip0_240_663)">
<path fill-rule="evenodd" clip-rule="evenodd" d="M42 15.75C43.4498 15.75 44.625 16.9253 44.625 18.375V23.625H47.25C51.5994 23.625 55.125 27.1506 55.125 31.5V52.5C56.5748 52.5 57.75 53.6752 57.75 55.125C57.75 56.5748 56.5748 57.75 55.125 57.75H7.875C6.42526 57.75 5.25 56.5748 5.25 55.125C5.25 53.6752 6.42526 52.5 7.875 52.5V31.5C7.875 27.1506 11.4008 23.625 15.75 23.625H18.375V18.375C18.375 16.9253 19.5503 15.75 21 15.75C22.4497 15.75 23.625 16.9253 23.625 18.375V23.625H28.875V18.375C28.875 16.9253 30.0502 15.75 31.5 15.75C32.9498 15.75 34.125 16.9253 34.125 18.375V23.625H39.375V18.375C39.375 16.9253 40.5502 15.75 42 15.75ZM46.4811 41.2311C44.0063 43.706 39.9937 43.706 37.5189 41.2311C37.0941 40.8064 36.4059 40.8064 35.9811 41.2311C33.5063 43.706 29.4937 43.706 27.0189 41.2311C26.5941 40.8064 25.9058 40.8064 25.4812 41.2311C23.0063 43.706 18.9937 43.706 16.5188 41.2311C16.0942 40.8064 15.4058 40.8064 14.9812 41.2311L13.125 43.0873V52.5H49.875V43.0873L48.0189 41.2311C47.5941 40.8064 46.9059 40.8064 46.4811 41.2311ZM47.25 28.875H15.75C14.4038 28.875 13.2943 29.8883 13.1427 31.1939L13.125 31.5V36.23C15.4611 35.1676 18.3096 35.5974 20.2312 37.5189C20.6558 37.9436 21.3442 37.9436 21.7688 37.5189C24.2437 35.044 28.2563 35.044 30.7311 37.5189C31.1559 37.9436 31.8441 37.9436 32.2689 37.5189C34.7437 35.044 38.7563 35.044 41.2311 37.5189C41.6559 37.9436 42.3441 37.9436 42.7689 37.5189C44.5703 35.7175 47.1866 35.2272 49.4313 36.0483L49.875 36.23V31.5C49.875 30.1538 48.8617 29.0443 47.5561 28.8927L47.25 28.875ZM32.8125 5.25C32.155 6.56507 32.4857 7.51628 32.9794 8.32044L33.26 8.74578L33.4031 8.94996C33.7803 9.48531 34.125 9.97463 34.125 10.5C34.125 11.9497 32.9498 13.125 31.5 13.125C30.0502 13.125 28.875 11.9497 28.875 10.5C28.875 9.05026 30.1875 6.5625 32.8125 5.25ZM22.3125 5.25C21.655 6.56507 21.9857 7.51628 22.4795 8.32044L22.76 8.74578L22.9031 8.94996C23.2803 9.48531 23.625 9.97463 23.625 10.5C23.625 11.9497 22.4497 13.125 21 13.125C19.5503 13.125 18.375 11.9497 18.375 10.5C18.375 9.05026 19.6875 6.5625 22.3125 5.25ZM43.3125 5.25C42.655 6.56507 42.9857 7.51628 43.4794 8.32044L43.76 8.74578L43.9031 8.94996C44.2803 9.48531 44.625 9.97463 44.625 10.5C44.625 11.9497 43.4498 13.125 42 13.125C40.5502 13.125 39.375 11.9497 39.375 10.5C39.375 9.05026 40.6875 6.5625 43.3125 5.25Z" fill="#F0AE28"/>
</g>
<defs>
<clipPath id="clip0_240_663">
<rect width="63" height="63" fill="white"/>
</clipPath>
</defs>
</svg>
