<svg width="" height="" viewBox="0 0 63 63" fill="none" xmlns="http://www.w3.org/2000/svg">
<g clip-path="url(#clip0_240_659)">
<path d="M54.83 25.6756C53.0181 23.5604 50.3817 22.3473 47.5968 22.3473H46.8151L48.5563 18.6735C49.3639 16.9696 49.7047 15.1104 49.5424 13.2975L49.5358 13.2248C49.3908 11.7149 48.8765 10.199 48.0479 8.84091L43.2545 0.982274C42.8447 0.310438 42.0865 -0.0669471 41.3034 0.00983416C40.5204 0.0872306 39.8506 0.605996 39.5802 1.34489L31.8918 22.3471H31.108L23.4197 1.34489C23.1491 0.605996 22.4795 0.0871076 21.6964 0.00983416C20.9135 -0.0669471 20.1551 0.310438 19.7454 0.982274L14.9518 8.84091C14.1232 10.1992 13.6088 11.7153 13.4638 13.2264L13.4587 13.2818C13.4585 13.2838 13.4574 13.2947 13.4573 13.2966C13.295 15.1105 13.6358 16.97 14.4434 18.6737L16.1846 22.3474H15.4029C12.618 22.3474 9.98148 23.5605 8.16974 25.6757C7.43342 26.5353 7.53334 27.8293 8.39307 28.5656C9.25279 29.3016 10.5466 29.2021 11.2829 28.3421C12.3149 27.1374 13.8166 26.4465 15.4028 26.4465H15.9276L14.7539 57.327C14.6969 58.8251 15.2383 60.245 16.278 61.3252C17.3179 62.4052 18.7162 63.0001 20.2154 63.0001H42.7839C44.2833 63.0001 45.6814 62.4052 46.7213 61.3252C47.7612 60.2452 48.3023 58.8252 48.2455 57.327L47.0717 26.4465H47.5965C49.1827 26.4465 50.6845 27.1375 51.7165 28.3421C52.122 28.8155 52.6961 29.0584 53.2739 29.0584C53.7457 29.0584 54.22 28.8963 54.6063 28.5656C55.4662 27.8291 55.5663 26.5352 54.83 25.6756ZM42.9697 26.4465L43.8478 49.5478H19.1519L20.03 26.4465H42.9697ZM17.5405 13.6587L17.5444 13.6162C17.6302 12.7205 17.9438 11.8073 18.4513 10.9754L21.0315 6.7453L26.7428 22.3473H20.721L18.1476 16.918C17.653 15.8743 17.4429 14.7485 17.5405 13.6587ZM43.7684 58.4822C43.5086 58.7522 43.1589 58.9008 42.784 58.9008H20.2158C19.841 58.9008 19.4913 58.7522 19.2314 58.4822C18.9715 58.2122 18.8361 57.8572 18.8503 57.4827L18.9961 53.6471H44.0037L44.1495 57.4827C44.1637 57.8572 44.0283 58.2122 43.7684 58.4822ZM44.8522 16.9178L42.2789 22.3471H36.2572L41.9684 6.74554L44.5485 10.9756C45.0559 11.8072 45.3695 12.7206 45.4553 13.615L45.4597 13.6623C45.5568 14.7483 45.3469 15.8743 44.8522 16.9178Z" fill="#F0AE28"/>
</g>
<defs>
<clipPath id="clip0_240_659">
<rect width="63" height="63" fill="white"/>
</clipPath>
</defs>
</svg>
