<svg width="" height="" viewBox="0 0 63 63" fill="none" xmlns="http://www.w3.org/2000/svg">
<path d="M31.5 15.75V47.25M23.625 39.8528L25.9324 41.5826C29.0062 43.89 33.9911 43.89 37.0676 41.5826C40.1441 39.2752 40.1441 35.5373 37.0676 33.2299C35.532 32.0749 33.516 31.5 31.5 31.5C29.5969 31.5 27.6937 30.9225 26.2421 29.7701C23.3389 27.4627 23.3389 23.7248 26.2421 21.4174C29.1454 19.11 33.8546 19.11 36.7579 21.4174L37.8473 22.2836M55.125 31.5C55.125 34.6025 54.5139 37.6746 53.3267 40.5409C52.1394 43.4072 50.3992 46.0116 48.2054 48.2054C46.0116 50.3992 43.4072 52.1394 40.5409 53.3267C37.6746 54.5139 34.6025 55.125 31.5 55.125C28.3975 55.125 25.3254 54.5139 22.4591 53.3267C19.5928 52.1394 16.9884 50.3992 14.7946 48.2054C12.6008 46.0116 10.8606 43.4072 9.67335 40.5409C8.48608 37.6746 7.875 34.6025 7.875 31.5C7.875 25.2343 10.3641 19.2251 14.7946 14.7946C19.2251 10.3641 25.2343 7.875 31.5 7.875C37.7657 7.875 43.7748 10.3641 48.2054 14.7946C52.6359 19.2251 55.125 25.2343 55.125 31.5Z" stroke="#F0AE28" stroke-width="5" stroke-linecap="round" stroke-linejoin="round"/>
</svg>
