<svg width="" height="" viewBox="0 0 63 63" fill="none" xmlns="http://www.w3.org/2000/svg">
<path d="M29.5312 29.5312L29.6389 29.4787C29.9755 29.3106 30.3532 29.2424 30.7274 29.2823C31.1015 29.3222 31.4564 29.4684 31.75 29.7037C32.0436 29.9391 32.2636 30.2536 32.384 30.6101C32.5044 30.9666 32.5201 31.3501 32.4293 31.7152L30.5707 39.1598C30.4793 39.5251 30.4945 39.909 30.6146 40.2659C30.7347 40.6228 30.9546 40.9379 31.2484 41.1736C31.5421 41.4093 31.8973 41.5558 32.2717 41.5957C32.6462 41.6356 33.0243 41.5673 33.3611 41.3989L33.4688 41.3438M55.125 31.5C55.125 34.6025 54.5139 37.6746 53.3267 40.5409C52.1394 43.4072 50.3992 46.0116 48.2054 48.2054C46.0116 50.3992 43.4072 52.1394 40.5409 53.3267C37.6746 54.5139 34.6025 55.125 31.5 55.125C28.3975 55.125 25.3254 54.5139 22.4591 53.3267C19.5928 52.1394 16.9884 50.3992 14.7946 48.2054C12.6008 46.0116 10.8606 43.4072 9.67335 40.5409C8.48608 37.6746 7.875 34.6025 7.875 31.5C7.875 25.2343 10.3641 19.2251 14.7946 14.7946C19.2251 10.3641 25.2343 7.875 31.5 7.875C37.7657 7.875 43.7748 10.3641 48.2054 14.7946C52.6359 19.2251 55.125 25.2343 55.125 31.5ZM31.5 21.6562H31.521V21.6773H31.5V21.6562Z" stroke="#5AC7FF" stroke-width="4" stroke-linecap="round" stroke-linejoin="round"/>
</svg>
