<svg width="" height="" viewBox="0 0 63 63" fill="none" xmlns="http://www.w3.org/2000/svg">
<g clip-path="url(#clip0_240_709)">
<path d="M62.9934 33.5966C63.1489 30.2546 60.5619 27.414 57.2166 27.2591C55.5823 27.1811 54.072 27.7639 52.9342 28.7631C51.7052 27.4625 49.9936 26.6109 48.0617 26.5223C45.6786 26.4128 43.5195 27.4856 42.1382 29.2163C45.043 31.9366 46.8295 35.8238 46.7256 40.1093C46.7224 40.2231 46.7061 40.3295 46.6998 40.4403C48.1227 42.9782 48.9206 45.9093 48.8457 49.0313C48.7942 51.2005 48.3208 53.2589 47.5267 55.1455C51.0374 55.3004 54.0165 52.5843 54.1788 49.0702C54.1852 48.9626 54.1788 48.8563 54.1788 48.7488C57.1354 47.815 59.3465 45.1251 59.4952 41.844C59.5441 40.8458 59.3882 39.8826 59.0804 38.9909C61.2722 38.1616 62.8769 36.0925 62.9934 33.5966Z" fill="#F0AE28"/>
<path d="M15.9359 39.3771C16.0376 35.1106 17.9865 31.3341 20.9866 28.7572C19.7192 27.0317 17.6993 25.8882 15.3926 25.8291C13.4607 25.7839 11.6921 26.51 10.3777 27.7263C9.31115 26.6459 7.84554 25.9619 6.21025 25.924C2.86116 25.8418 0.0812857 28.4936 0.00179738 31.8431C-0.0583725 34.3389 1.39776 36.5112 3.52734 37.4967C3.15623 38.3621 2.93597 39.3116 2.91124 40.3108C2.83372 43.595 4.84849 46.4346 7.73369 47.576C7.72582 47.6824 7.71265 47.7867 7.70958 47.8932C7.62677 51.4177 10.4114 54.3384 13.9323 54.4225C14.1025 54.4257 14.2727 54.4195 14.4397 54.41C13.7215 52.4706 13.339 50.3764 13.391 48.185C13.4668 45.0632 14.4022 42.172 15.9453 39.7047C15.9453 39.5943 15.9344 39.4877 15.9359 39.3771Z" fill="#F0AE28"/>
<path d="M26.0372 45.8405C25.9677 48.6841 28.2369 50.2493 31.0784 50.3178C33.9233 50.3863 36.2609 48.9297 36.329 46.0871C36.3969 43.2445 34.1309 41.6782 31.2861 41.6096C28.4445 41.5423 26.1036 43.0011 26.0372 45.8405Z" fill="#F0AE28"/>
<path d="M38.8707 49.8808C35.7293 51.0507 34.1209 53.1903 31.0121 53.1166C27.9034 53.045 26.3989 50.8273 23.3191 49.5109C20.2393 48.1914 17.8662 51.1541 19.4825 53.7775C21.4307 56.9352 23.9109 60.6505 30.5953 60.8086C37.2818 60.9709 40.4004 57.3853 42.498 54.3255C44.2393 51.7832 42.0085 48.7109 38.8707 49.8808ZM39.6227 54.0789C39.4962 54.2253 36.465 57.6804 31.0622 57.5539C25.6616 57.4243 22.7974 53.8259 22.6788 53.6731C22.4406 53.3694 22.4937 52.9279 22.8005 52.6907C23.1036 52.4547 23.5446 52.5063 23.7828 52.8151C23.8071 52.8435 26.3793 56.0403 31.0964 56.1541C35.8136 56.2637 38.5366 53.1936 38.5624 53.1651C38.8154 52.87 39.2596 52.8405 39.5479 53.0934C39.8399 53.3432 39.872 53.7837 39.6227 54.0789Z" fill="#F0AE28"/>
<path d="M22.7566 43.74C23.2493 43.7527 23.6968 42.158 23.8475 40.0216C25.987 39.9763 27.6012 39.6041 27.6129 39.1109C27.6245 38.6219 26.0309 38.1707 23.8959 38.0209C23.8475 35.8814 23.4744 34.2667 22.9817 34.254C22.4905 34.2414 22.0415 35.8392 21.8908 37.9725C19.7512 38.0177 18.1386 38.394 18.127 38.8831C18.1161 39.3763 19.709 39.8233 21.8423 39.9762C21.8924 42.1158 22.2638 43.7274 22.7566 43.74Z" fill="#F0AE28"/>
<path d="M40.8446 38.424C40.7961 36.2845 40.423 34.6697 39.9334 34.6602C39.4407 34.6466 38.9901 36.2423 38.841 38.3787C36.7014 38.424 35.0873 38.7992 35.0772 39.2893C35.0645 39.7815 36.6592 40.2293 38.7925 40.378C38.841 42.5176 39.2141 44.1324 39.7067 44.1459C40.1965 44.1554 40.6469 42.5639 40.7991 40.4274C42.9356 40.378 44.5497 40.0091 44.563 39.5158C44.5725 39.0237 42.9779 38.5726 40.8446 38.424Z" fill="#F0AE28"/>
<path d="M40.4528 26.6487L37.6418 11.9572C37.7098 11.9604 37.7683 11.9761 37.8362 11.9761C40.5403 11.9761 42.7315 9.78492 42.7315 7.08146C42.7315 4.37787 40.5403 2.18555 37.8362 2.18555C35.1329 2.18555 32.9394 4.37787 32.9394 7.08146C32.9394 8.51692 33.5703 9.7944 34.5558 10.6924L22.9756 25.6474L40.4528 26.6487Z" fill="#F0AE28"/>
</g>
<defs>
<clipPath id="clip0_240_709">
<rect width="63" height="63" fill="white"/>
</clipPath>
</defs>
</svg>
