<svg width="" height="" viewBox="0 0 1440 950" fill="none" xmlns="http://www.w3.org/2000/svg">
<g clip-path="url(#clip0_2_2475)">
<path d="M1444 628.299C1444 628.299 1300.96 716.149 1201.7 709.228C1102.44 702.572 679.945 508.236 631.114 498.12C582.282 488.27 455.957 451 419.068 451C382.179 451 158.191 451 65.5701 486.406C65.5701 486.406 16.7387 501.581 10.104 503.178L4.26538 503.977V571.595C4.26538 571.595 231.438 460.584 404.472 505.041C577.505 549.499 833.34 597.95 825.113 632.292C816.886 666.633 738.596 676.75 653.937 654.388C569.278 632.026 406.33 589.964 347.944 593.957C289.558 597.95 4.00005 660.511 4.00005 660.511V783.768C4.00005 783.768 313.709 692.989 386.16 690.859C458.611 688.729 738.596 707.098 788.755 719.078C839.179 731.324 1106.96 805.864 1189.49 804C1272.03 802.137 1444 739.31 1444 739.31V628.299Z" fill="#111A69"/>
<path fill-rule="evenodd" clip-rule="evenodd" d="M1209.16 708.833C1310.28 715.755 1456 627.904 1456 627.904V738.915C1456 738.915 1280.81 801.742 1196.73 803.605C1126.54 805.161 924.87 753.48 830.251 729.233C811.517 724.432 796.98 720.707 788.491 718.683C786.382 718.189 783.875 717.683 781 717.169C807.122 696.316 829.644 673.705 847.071 656.209C855.148 648.101 862.129 641.092 867.868 635.865C873.522 630.716 879.792 624.682 886.566 618.162C890.951 613.942 895.548 609.518 900.325 605C1026.47 655.537 1158.75 705.515 1209.16 708.833Z" fill="url(#paint0_linear_2_2475)"/>
</g>
<path d="M-201 371.209V950H1671V118.38C1654.04 112.808 1538.88 101.664 1480.85 100.271C1422.83 98.8784 1263.03 98.1819 1216.61 91.2169C1170.19 84.252 1059.5 51.5165 1006.83 60.571C954.159 69.6255 899.704 131.614 866.674 162.26C833.644 192.906 758.657 284.844 671.172 300.167C583.687 315.49 585.472 292.505 494.416 277.182C403.361 261.859 370.331 279.968 329.266 316.883C288.202 353.797 263.206 362.155 216.785 371.209C170.365 380.264 73.0601 331.509 26.6395 333.599C-19.7811 335.688 -109.051 389.318 -133.155 392.104C-152.437 394.333 -186.419 379.103 -201 371.209Z" fill="url(#paint1_linear_2_2475)"/>
<path d="M1076.36 602.221C1057.56 597.821 1038.86 616.721 1031.86 626.721C987.362 626.721 1002.86 695.721 1031.86 702.721C1055.06 708.321 1071.2 688.721 1076.36 678.221C1085.2 683.721 1107.56 694.921 1126.36 695.721C1149.86 696.721 1162.36 667.721 1179.86 667.721C1197.36 667.721 1206.36 683.721 1237.86 683.721C1269.36 683.721 1275.86 670.221 1289.36 667.721C1300.16 665.721 1315.2 677.554 1321.36 683.721C1332.53 691.054 1358.66 705.121 1373.86 702.721C1389.06 700.321 1401.53 689.054 1405.86 683.721C1417.53 685.887 1446.86 688.921 1470.86 683.721C1500.86 677.221 1494.36 653.721 1488.36 639.221C1482.36 624.721 1459.86 617.721 1440.86 617.721C1421.86 617.721 1410.36 626.721 1390.36 617.721C1370.36 608.721 1359.36 602.221 1338.36 602.221C1317.36 602.221 1316.86 617.721 1297.86 613.221C1278.86 608.721 1272.36 580.221 1244.36 583.221C1216.36 586.221 1209.86 602.221 1198.86 602.221C1187.86 602.221 1171.86 587.721 1156.36 594.221C1140.86 600.721 1132.86 619.221 1116.36 617.721C1099.86 616.221 1099.86 607.721 1076.36 602.221Z" fill="#FBFEFF" fill-opacity="0.02"/>
<path d="M264.362 710.221C245.562 705.821 226.862 724.721 219.862 734.721C175.362 734.721 190.862 803.721 219.862 810.721C243.062 816.321 259.196 796.721 264.362 786.221C273.196 791.721 295.562 802.921 314.362 803.721C337.862 804.721 350.362 775.721 367.862 775.721C385.362 775.721 394.362 791.721 425.862 791.721C457.362 791.721 463.862 778.221 477.362 775.721C488.162 773.721 503.196 785.554 509.362 791.721C520.529 799.054 546.662 813.121 561.862 810.721C577.062 808.321 589.529 797.054 593.862 791.721C605.529 793.887 634.862 796.921 658.862 791.721C688.862 785.221 682.362 761.721 676.362 747.221C670.362 732.721 647.862 725.721 628.862 725.721C609.862 725.721 598.362 734.721 578.362 725.721C558.362 716.721 547.362 710.221 526.362 710.221C505.362 710.221 504.862 725.721 485.862 721.221C466.862 716.721 460.362 688.221 432.362 691.221C404.362 694.221 397.862 710.221 386.862 710.221C375.862 710.221 359.862 695.721 344.362 702.221C328.862 708.721 320.862 727.221 304.362 725.721C287.862 724.221 287.862 715.721 264.362 710.221Z" fill="#FBFEFF" fill-opacity="0.02"/>
<path d="M613.978 825.911C587.744 819.75 561.649 846.212 551.881 860.212C489.783 860.212 511.413 956.818 551.881 966.619C584.255 974.459 606.769 947.017 613.978 932.317C626.305 940.017 657.517 955.698 683.751 956.818C716.544 958.218 733.988 917.616 758.408 917.616C782.828 917.616 795.388 940.017 839.344 940.017C883.301 940.017 892.372 921.116 911.21 917.616C926.281 914.816 947.259 931.383 955.865 940.017C971.447 950.284 1007.92 969.979 1029.13 966.619C1050.34 963.258 1067.73 947.484 1073.78 940.017C1090.06 943.051 1130.99 947.297 1164.49 940.017C1206.35 930.917 1197.28 898.015 1188.91 877.713C1180.53 857.412 1149.14 847.612 1122.62 847.612C1096.11 847.612 1080.06 860.212 1052.15 847.612C1024.24 835.011 1008.89 825.911 979.588 825.911C950.283 825.911 949.585 847.612 923.072 841.311C896.558 835.011 887.488 795.109 848.415 799.309C809.342 803.509 800.272 825.911 784.922 825.911C769.572 825.911 747.244 805.609 725.615 814.71C703.985 823.81 692.822 849.712 669.797 847.612C646.772 845.512 646.772 833.611 613.978 825.911Z" fill="#FBFEFF" fill-opacity="0.02"/>
<path d="M85.9785 495.911C59.7439 489.75 33.649 516.212 23.8808 530.212C-38.2169 530.212 -16.5874 626.818 23.8808 636.619C56.2553 644.459 78.7686 617.017 85.9785 602.317C98.305 610.017 129.517 625.698 155.751 626.818C188.544 628.218 205.988 587.616 230.408 587.616C254.828 587.616 267.388 610.017 311.344 610.017C355.301 610.017 364.372 591.116 383.21 587.616C398.281 584.816 419.259 601.383 427.865 610.017C443.447 620.284 479.915 639.979 501.126 636.619C522.337 633.258 539.734 617.484 545.781 610.017C562.061 613.051 602.994 617.297 636.485 610.017C678.349 600.917 669.278 568.015 660.906 547.713C652.533 527.412 621.135 517.612 594.622 517.612C568.108 517.612 552.06 530.212 524.151 517.612C496.242 505.011 480.892 495.911 451.588 495.911C422.283 495.911 421.585 517.612 395.072 511.311C368.558 505.011 359.488 465.109 320.415 469.309C281.342 473.509 272.272 495.911 256.922 495.911C241.572 495.911 219.244 475.609 197.615 484.71C175.985 493.81 164.822 519.712 141.797 517.612C118.772 515.512 118.772 503.611 85.9785 495.911Z" fill="#FBFEFF" fill-opacity="0.02"/>
<path d="M134 472L136 456L139 472L157 475L139 478V502L134 478L116 475L134 472Z" fill="white"/>
<path d="M1011.39 215.826L1013.88 196L1017.61 215.826L1040 219.543L1017.61 223.261V253L1011.39 223.261L989 219.543L1011.39 215.826Z" fill="white"/>
<path d="M129.024 682.957L129.805 676L130.976 682.957L138 684.261L130.976 685.565V696L129.024 685.565L122 684.261L129.024 682.957Z" fill="white"/>
<path d="M1005.78 477.348L1006.76 469L1008.22 477.348L1017 478.913L1008.22 480.478V493L1005.78 480.478L997 478.913L1005.78 477.348Z" fill="white"/>
<path d="M238.293 771.13L239.659 760L241.707 771.13L254 773.217L241.707 775.304V792L238.293 775.304L226 773.217L238.293 771.13Z" fill="white"/>
<path d="M741.488 730.217L743.098 717L745.512 730.217L760 732.696L745.512 735.174V755L741.488 735.174L727 732.696L741.488 730.217Z" fill="white"/>
<path d="M1140.93 586.565L1142.59 573L1145.07 586.565L1160 589.109L1145.07 591.652V612L1140.93 591.652L1126 589.109L1140.93 586.565Z" fill="white"/>
<path d="M418.293 901.13L419.659 890L421.707 901.13L434 903.217L421.707 905.304V922L418.293 905.304L406 903.217L418.293 901.13Z" fill="white"/>
<path d="M1363.93 747.565L1365.59 734L1368.07 747.565L1383 750.109L1368.07 752.652V773L1363.93 752.652L1349 750.109L1363.93 747.565Z" fill="white"/>
<path d="M331.268 928.957L331.854 922L332.732 928.957L338 930.261L332.732 931.565V942L331.268 931.565L326 930.261L331.268 928.957Z" fill="white"/>
<path d="M1256.15 781.696L1256.83 773L1257.85 781.696L1264 783.326L1257.85 784.957V798L1256.15 784.957L1250 783.326L1256.15 781.696Z" fill="white"/>
<path d="M52 606L54 590L57 606L75 609L57 612V636L52 612L34 609L52 606Z" fill="white"/>
<path d="M910.39 381.826L912.878 362L916.61 381.826L939 385.543L916.61 389.261V419L910.39 389.261L888 385.543L910.39 381.826Z" fill="white"/>
<path d="M404 688L406 672L409 688L427 691L409 694V718L404 694L386 691L404 688Z" fill="white"/>
<path d="M939.512 631.13L941.902 612L945.488 631.13L967 634.717L945.488 638.304V667L939.512 638.304L918 634.717L939.512 631.13Z" fill="white"/>
<path d="M1346.39 483.826L1348.88 464L1352.61 483.826L1375 487.543L1352.61 491.261V521L1346.39 491.261L1324 487.543L1346.39 483.826Z" fill="white"/>
<circle cx="384" cy="884" r="2" fill="#D9D9D9"/>
<circle cx="915.5" cy="864.5" r="2.5" fill="#D9D9D9"/>
<circle cx="1321.5" cy="726.5" r="2.5" fill="#D9D9D9"/>
<circle cx="464" cy="776" r="2" fill="#D9D9D9"/>
<ellipse cx="1010.5" cy="736" rx="2.5" ry="2" fill="#D9D9D9"/>
<circle cx="1420.5" cy="592.5" r="2.5" fill="#D9D9D9"/>
<g clip-path="url(#clip1_2_2475)">
<path opacity="0.85" d="M324.762 241.525C391.457 241.525 445.525 187.457 445.525 120.762C445.525 54.0671 391.457 0 324.762 0C258.067 0 204 54.0671 204 120.762C204 187.457 258.067 241.525 324.762 241.525Z" fill="url(#paint2_linear_2_2475)"/>
</g>
<g clip-path="url(#clip2_2_2475)">
<path opacity="0.85" d="M324.927 345.855C345.322 345.855 361.855 329.322 361.855 308.927C361.855 288.533 345.322 272 324.927 272C304.533 272 288 288.533 288 308.927C288 329.322 304.533 345.855 324.927 345.855Z" fill="url(#paint3_linear_2_2475)"/>
</g>
<g clip-path="url(#clip3_2_2475)">
<path opacity="0.85" d="M147.953 258.906C161.182 258.906 171.906 248.182 171.906 234.953C171.906 221.724 161.182 211 147.953 211C134.724 211 124 221.724 124 234.953C124 248.182 134.724 258.906 147.953 258.906Z" fill="url(#paint4_linear_2_2475)"/>
</g>
<path opacity="0.85" d="M512.5 272C540.943 272 564 249.614 564 222C564 194.386 540.943 172 512.5 172C484.057 172 461 194.386 461 222C461 249.614 484.057 272 512.5 272Z" fill="url(#paint5_linear_2_2475)"/>
<g clip-path="url(#clip4_2_2475)">
<path opacity="0.85" d="M1224.92 418.847C1246.42 418.847 1263.85 401.42 1263.85 379.923C1263.85 358.427 1246.42 341 1224.92 341C1203.43 341 1186 358.427 1186 379.923C1186 401.42 1203.43 418.847 1224.92 418.847Z" fill="url(#paint6_linear_2_2475)"/>
</g>
<g clip-path="url(#clip5_2_2475)">
<path opacity="0.85" d="M1123.46 905.923C1134.21 905.923 1142.92 897.21 1142.92 886.462C1142.92 875.713 1134.21 867 1123.46 867C1112.71 867 1104 875.713 1104 886.462C1104 897.21 1112.71 905.923 1123.46 905.923Z" fill="url(#paint7_linear_2_2475)"/>
</g>
<g clip-path="url(#clip6_2_2475)">
<path opacity="0.85" d="M875.967 501.933C885.337 501.933 892.933 494.337 892.933 484.967C892.933 475.596 885.337 468 875.967 468C866.596 468 859 475.596 859 484.967C859 494.337 866.596 501.933 875.967 501.933Z" fill="url(#paint8_linear_2_2475)"/>
</g>
<defs>
<linearGradient id="paint0_linear_2_2475" x1="733.73" y1="1423.6" x2="733.73" y2="-1830.93" gradientUnits="userSpaceOnUse">
<stop stop-color="#001E76"/>
<stop offset="0.220886" stop-color="#4C1A57" stop-opacity="0.962003"/>
<stop offset="0.5" stop-color="#091B6F" stop-opacity="0.879179"/>
<stop offset="1" stop-color="#3397CB" stop-opacity="0"/>
</linearGradient>
<linearGradient id="paint1_linear_2_2475" x1="735" y1="950" x2="735" y2="-2304.54" gradientUnits="userSpaceOnUse">
<stop stop-color="#001E76"/>
<stop offset="0.220886" stop-color="#4C1A57" stop-opacity="0.962003"/>
<stop offset="0.5" stop-color="#091B6F" stop-opacity="0.879179"/>
<stop offset="1" stop-color="#3397CB" stop-opacity="0"/>
</linearGradient>
<linearGradient id="paint2_linear_2_2475" x1="438.691" y1="162.366" x2="211.265" y2="79.5895" gradientUnits="userSpaceOnUse">
<stop stop-color="#E9DD00"/>
<stop offset="0.2201" stop-color="#FFB53F"/>
<stop offset="0.5421" stop-color="#D46400"/>
<stop offset="0.8467" stop-color="#4C1A57"/>
<stop offset="1" stop-color="#111A69"/>
</linearGradient>
<linearGradient id="paint3_linear_2_2475" x1="359.765" y1="321.649" x2="290.221" y2="296.337" gradientUnits="userSpaceOnUse">
<stop stop-color="#E9DD00"/>
<stop offset="0.2201" stop-color="#FFB53F"/>
<stop offset="0.5421" stop-color="#D46400"/>
<stop offset="0.8467" stop-color="#4C1A57"/>
<stop offset="1" stop-color="#111A69"/>
</linearGradient>
<linearGradient id="paint4_linear_2_2475" x1="170.55" y1="243.205" x2="125.441" y2="226.786" gradientUnits="userSpaceOnUse">
<stop stop-color="#E9DD00"/>
<stop offset="0.2201" stop-color="#FFB53F"/>
<stop offset="0.5421" stop-color="#D46400"/>
<stop offset="0.8467" stop-color="#4C1A57"/>
<stop offset="1" stop-color="#111A69"/>
</linearGradient>
<linearGradient id="paint5_linear_2_2475" x1="561.086" y1="239.225" x2="464.784" y2="203.123" gradientUnits="userSpaceOnUse">
<stop stop-color="#E9DD00"/>
<stop offset="0.2201" stop-color="#FFB53F"/>
<stop offset="0.5421" stop-color="#D46400"/>
<stop offset="0.8467" stop-color="#4C1A57"/>
<stop offset="1" stop-color="#111A69"/>
</linearGradient>
<linearGradient id="paint6_linear_2_2475" x1="1261.64" y1="393.333" x2="1188.34" y2="366.653" gradientUnits="userSpaceOnUse">
<stop stop-color="#E9DD00"/>
<stop offset="0.2201" stop-color="#FFB53F"/>
<stop offset="0.5421" stop-color="#D46400"/>
<stop offset="0.8467" stop-color="#4C1A57"/>
<stop offset="1" stop-color="#111A69"/>
</linearGradient>
<linearGradient id="paint7_linear_2_2475" x1="1141.82" y1="893.166" x2="1105.17" y2="879.826" gradientUnits="userSpaceOnUse">
<stop stop-color="#E9DD00"/>
<stop offset="0.2201" stop-color="#FFB53F"/>
<stop offset="0.5421" stop-color="#D46400"/>
<stop offset="0.8467" stop-color="#4C1A57"/>
<stop offset="1" stop-color="#111A69"/>
</linearGradient>
<linearGradient id="paint8_linear_2_2475" x1="891.973" y1="490.812" x2="860.021" y2="479.182" gradientUnits="userSpaceOnUse">
<stop stop-color="#E9DD00"/>
<stop offset="0.2201" stop-color="#FFB53F"/>
<stop offset="0.5421" stop-color="#D46400"/>
<stop offset="0.8467" stop-color="#4C1A57"/>
<stop offset="1" stop-color="#111A69"/>
</linearGradient>
<clipPath id="clip0_2_2475">
<rect width="1440" height="353" fill="white" transform="matrix(-1 0 0 1 1444 451)"/>
</clipPath>
<clipPath id="clip1_2_2475">
<rect width="242" height="242" fill="white" transform="translate(204)"/>
</clipPath>
<clipPath id="clip2_2_2475">
<rect width="74" height="74" fill="white" transform="translate(288 272)"/>
</clipPath>
<clipPath id="clip3_2_2475">
<rect width="48" height="48" fill="white" transform="translate(124 211)"/>
</clipPath>
<clipPath id="clip4_2_2475">
<rect width="78" height="78" fill="white" transform="translate(1186 341)"/>
</clipPath>
<clipPath id="clip5_2_2475">
<rect width="39" height="39" fill="white" transform="translate(1104 867)"/>
</clipPath>
<clipPath id="clip6_2_2475">
<rect width="34" height="34" fill="white" transform="translate(859 468)"/>
</clipPath>
</defs>
</svg>
