<svg width="616" height="445" viewBox="0 0 616 445" fill="none" xmlns="http://www.w3.org/2000/svg">
<g clip-path="url(#clip0_62_197)">
<path d="M-0.0660809 96.1696L-0.5 96.2274V96.6652V369.012V369.479L-0.0337512 369.51C14.2703 370.478 28.4783 375.441 41.6962 380.973C46.0336 382.788 50.2708 384.668 54.3695 386.486C62.7257 390.194 70.5063 393.646 77.3874 395.775C82.1686 397.254 87.6923 399.602 94.1051 402.327C114.941 411.184 145.162 424.029 189.795 424.029C218.955 424.029 246.564 421.654 270.471 419.281C274.649 418.866 278.713 418.452 282.651 418.05C301.265 416.151 317.08 414.537 328.93 414.537C336.073 414.537 345.114 415.898 355.632 417.936C361.926 419.155 368.727 420.613 375.953 422.161C380.804 423.201 385.846 424.281 391.053 425.358C416.954 430.714 446.848 435.956 477.111 435.468C525.468 434.689 589.898 427.514 616.066 424.025L616.5 423.967V423.529V70.3796V69.8128L615.938 69.8835C606.924 71.0162 583.805 72.6022 563.504 69.884C550.911 68.1979 539.58 61.3861 530.273 53.9858C525.624 50.2885 521.49 46.4525 517.964 43.0499C516.776 41.903 515.654 40.8022 514.603 39.772C512.548 37.7557 510.767 36.0093 509.304 34.7146C504.833 30.7569 493.761 24.6465 479.144 19.437C464.509 14.2214 446.26 9.88695 427.404 9.52058C408.526 9.15378 392.107 13.7395 377.98 19.2597C371.104 21.9467 364.766 24.8572 358.957 27.5248L358.488 27.74C352.544 30.4691 347.171 32.9226 342.322 34.617C332.63 38.0034 316.152 40.6156 299.741 42.3802C283.342 44.1435 267.069 45.0546 257.816 45.0546C249.579 45.0546 238.173 43.5591 225.978 41.9601C224.503 41.7666 223.016 41.5716 221.521 41.3776C207.704 39.5835 193.274 37.8736 181.692 38.2401C170.047 38.6087 156.351 43.6386 142.222 50.3047C132.802 54.749 123.148 59.9422 113.749 64.9977C109.048 67.5266 104.411 70.0211 99.8988 72.3701C89.1205 77.9817 70.2346 83.1222 50.9527 87.2685C31.689 91.4109 12.0925 94.5485 -0.0660809 96.1696Z" fill="black" stroke="black"/>
</g>
<defs>
<clipPath id="clip0_62_197">
<rect width="616" height="445" fill="white"/>
</clipPath>
</defs>
</svg>
