<svg width="" height="" viewBox="0 0 320 445" fill="none" xmlns="http://www.w3.org/2000/svg">
<g clip-path="url(#clip0_62_197)">
<path d="M-160.066 96.1696L-160.5 96.2274V96.6652V369.012V369.479L-160.034 369.51C-145.73 370.478 -131.522 375.441 -118.304 380.973C-113.966 382.788 -109.729 384.668 -105.63 386.486C-97.2743 390.194 -89.4937 393.646 -82.6126 395.775C-77.8314 397.254 -72.3077 399.602 -65.8949 402.327C-45.0589 411.184 -14.8376 424.029 29.7946 424.029C58.9553 424.029 86.5644 421.654 110.471 419.281C114.649 418.866 118.713 418.452 122.651 418.05C141.265 416.151 157.08 414.537 168.93 414.537C176.073 414.537 185.114 415.898 195.632 417.936C201.926 419.155 208.727 420.613 215.953 422.161C220.804 423.201 225.846 424.281 231.053 425.358C256.954 430.714 286.848 435.956 317.111 435.468C365.468 434.689 429.898 427.514 456.066 424.025L456.5 423.967V423.529V70.3796V69.8128L455.938 69.8835C446.924 71.0162 423.805 72.6022 403.504 69.884C390.911 68.1979 379.58 61.3861 370.273 53.9858C365.624 50.2885 361.49 46.4525 357.964 43.0499C356.776 41.903 355.654 40.8022 354.603 39.772C352.548 37.7557 350.767 36.0093 349.304 34.7146C344.833 30.7569 333.761 24.6465 319.144 19.437C304.509 14.2214 286.26 9.88695 267.404 9.52058C248.526 9.15378 232.107 13.7395 217.98 19.2597C211.104 21.9467 204.766 24.8572 198.957 27.5248L198.488 27.74C192.544 30.4691 187.171 32.9226 182.322 34.617C172.63 38.0034 156.152 40.6156 139.741 42.3802C123.342 44.1435 107.069 45.0546 97.8162 45.0546C89.5787 45.0546 78.1731 43.5591 65.9781 41.9601C64.5026 41.7666 63.0155 41.5716 61.5211 41.3776C47.7037 39.5835 33.2744 37.8736 21.6923 38.2401C10.047 38.6087 -3.64908 43.6386 -17.7782 50.3047C-27.198 54.749 -36.8523 59.9422 -46.2507 64.9977C-50.952 67.5266 -55.5893 70.0211 -60.1012 72.3701C-70.8795 77.9817 -89.7654 83.1222 -109.047 87.2685C-128.311 91.4109 -147.908 94.5485 -160.066 96.1696Z" stroke="black"/>
</g>
<defs>
<clipPath id="clip0_62_197">
<rect width="616" height="445" fill="white" transform="translate(-160)"/>
</clipPath>
</defs>
</svg>
