<svg width="" height="" viewBox="0 0 1440 983" preserveAspectRatio="none" fill="none" xmlns="http://www.w3.org/2000/svg">
<g clip-path="url(#clip0_72_2216)">
<path d="M232.395 149.919C181.618 175.614 54.9748 196.805 -2 204.189V823.857C65.3676 828.287 131.622 869.266 179.503 883.664C227.384 898.062 305.886 947.901 442.292 947.901C578.697 947.901 700.627 926.304 767.995 926.304C835.362 926.304 973.438 976.143 1114.85 973.928C1227.99 972.156 1378.76 955.839 1440 947.901V144.381C1418.84 146.966 1364.61 150.584 1316.96 144.381C1257.38 136.629 1210.06 81.8054 1189.46 64.0849C1168.86 46.3644 1086.46 8.70793 998.492 7.04662C910.524 5.38531 845.384 48.5793 799.73 64.0849C754.076 79.5904 644.951 87.8972 601.524 87.8972C558.097 87.8972 477.368 70.7303 423.362 72.3917C369.357 74.053 295.865 117.801 232.395 149.919Z" fill="url(#paint0_linear_72_2216)"/>
<path d="M14.3624 417.221C-4.43755 412.821 -23.1376 431.721 -30.1376 441.721C-74.6376 441.721 -59.1376 510.721 -30.1376 517.721C-6.93755 523.321 9.19579 503.721 14.3624 493.221C23.1958 498.721 45.5625 509.921 64.3624 510.721C87.8625 511.721 100.362 482.721 117.862 482.721C135.362 482.721 144.362 498.721 175.862 498.721C207.362 498.721 213.862 485.221 227.362 482.721C238.162 480.721 253.196 492.554 259.362 498.721C270.529 506.054 296.662 520.121 311.862 517.721C327.062 515.321 339.529 504.054 343.862 498.721C355.529 500.887 384.862 503.921 408.862 498.721C438.862 492.221 432.362 468.721 426.362 454.221C420.362 439.721 397.862 432.721 378.862 432.721C359.862 432.721 348.362 441.721 328.362 432.721C308.362 423.721 297.362 417.221 276.362 417.221C255.362 417.221 254.862 432.721 235.862 428.221C216.862 423.721 210.362 395.221 182.362 398.221C154.362 401.221 147.862 417.221 136.862 417.221C125.862 417.221 109.862 402.721 94.3624 409.221C78.8624 415.721 70.8625 434.221 54.3624 432.721C37.8624 431.221 37.8624 422.721 14.3624 417.221Z" fill="#FBFEFF" fill-opacity="0.1"/>
<path d="M907.761 75C907.761 75 857.777 146.803 843.697 140.115C829.617 133.78 907.761 75 907.761 75Z" fill="url(#paint1_linear_72_2216)"/>
<g clip-path="url(#clip1_72_2216)">
<path d="M541 171C541 171 420.855 320.868 406.151 327.064C391.254 333.26 375.196 322.223 383.322 307.895C391.447 293.566 541 171 541 171Z" fill="#322AB3" fill-opacity="0.5"/>
<g clip-path="url(#clip2_72_2216)">
<path d="M503 210C503 210 411.232 322.918 399.996 327.678C388.759 332.438 376.184 323.976 382.605 313.398C389.026 302.82 503 210 503 210Z" fill="url(#paint2_linear_72_2216)"/>
</g>
</g>
<circle cx="1353" cy="676" r="3" fill="#5AC7FF"/>
<circle cx="65" cy="360" r="3" fill="#F0AE28"/>
<circle cx="121" cy="723" r="3" fill="#F0AE28"/>
<circle cx="419" cy="199" r="3" fill="#F0AE28"/>
<circle cx="1053" cy="247" r="3" fill="#F0AE28"/>
<circle cx="1319" cy="899" r="3" fill="#F0AE28"/>
<circle cx="971" cy="720" r="3" fill="#F0AE28"/>
<g clip-path="url(#clip3_72_2216)">
<path d="M264 266L269.06 261.017L275 266L271.04 259.5L275 253L269.5 256.467L264 253L267.74 259.5L264 266Z" fill="#5AC7FF"/>
</g>
<g clip-path="url(#clip4_72_2216)">
<path d="M455 810L460.06 805.017L466 810L462.04 803.5L466 797L460.5 800.467L455 797L458.74 803.5L455 810Z" fill="#5AC7FF"/>
</g>
<g clip-path="url(#clip5_72_2216)">
<path d="M1285 698C1285 698 1134.07 885.809 1115.6 893.574C1096.88 901.338 1076.71 887.507 1086.92 869.551C1097.12 851.596 1285 698 1285 698Z" fill="#4C1A57" fill-opacity="0.5"/>
<g clip-path="url(#clip6_72_2216)">
<path d="M1237.26 746.874C1237.26 746.874 1121.98 888.378 1107.86 894.343C1093.75 900.308 1077.95 889.704 1086.02 876.448C1094.08 863.192 1237.26 746.874 1237.26 746.874Z" fill="url(#paint3_linear_72_2216)" fill-opacity="0.8"/>
</g>
<g clip-path="url(#clip7_72_2216)">
<path d="M1291 757C1291 757 1250.45 807.272 1245.49 809.35C1240.46 811.429 1235.04 807.727 1237.78 802.92C1240.53 798.114 1291 757 1291 757Z" fill="#4C1A57" fill-opacity="0.5"/>
<g clip-path="url(#clip8_72_2216)">
<path d="M1278.17 770.082C1278.17 770.082 1247.2 807.96 1243.41 809.556C1239.62 811.153 1235.37 808.315 1237.54 804.766C1239.71 801.218 1278.17 770.082 1278.17 770.082Z" fill="url(#paint4_linear_72_2216)" fill-opacity="0.8"/>
</g>
</g>
</g>
<path d="M885 497C1021.97 497 1133 385.743 1133 248.5C1133 111.257 1021.97 0 885 0C748.033 0 637 111.257 637 248.5C637 385.743 748.033 497 885 497Z" stroke="white" stroke-opacity="0.5" stroke-miterlimit="10"/>
<g clip-path="url(#clip9_72_2216)">
<path d="M935 736C935 736 883.187 800.5 876.846 803.167C870.422 805.833 863.497 801.083 867.001 794.917C870.505 788.75 935 736 935 736Z" fill="#322AB3" fill-opacity="0.5"/>
<g clip-path="url(#clip10_72_2216)">
<path d="M918.613 752.785C918.613 752.785 879.038 801.382 874.192 803.431C869.346 805.48 863.923 801.838 866.692 797.285C869.461 792.733 918.613 752.785 918.613 752.785Z" fill="url(#paint5_linear_72_2216)"/>
</g>
</g>
<g clip-path="url(#clip11_72_2216)">
<path d="M556 94C556 94 471.898 198.338 461.606 202.652C451.178 206.966 439.937 199.282 445.625 189.306C451.313 179.331 556 94 556 94Z" fill="#322AB3" fill-opacity="0.5"/>
<g clip-path="url(#clip12_72_2216)">
<path d="M529.4 121.152C529.4 121.152 465.163 199.765 457.297 203.079C449.431 206.393 440.629 200.502 445.124 193.138C449.618 185.773 529.4 121.152 529.4 121.152Z" fill="url(#paint6_linear_72_2216)"/>
</g>
</g>
<path d="M885 575C1066.7 575 1214 427.702 1214 246C1214 64.2983 1066.7 -83 885 -83C703.298 -83 556 64.2983 556 246C556 427.702 703.298 575 885 575Z" stroke="white" stroke-opacity="0.5" stroke-miterlimit="10"/>
<path d="M877 675C1113.93 675 1306 482.706 1306 245.5C1306 8.29367 1113.93 -184 877 -184C640.07 -184 448 8.29367 448 245.5C448 482.706 640.07 675 877 675Z" stroke="white" stroke-opacity="0.5" stroke-miterlimit="10"/>
<path d="M1203.5 194C1213.16 194 1221 186.165 1221 176.5C1221 166.835 1213.16 159 1203.5 159C1193.84 159 1186 166.835 1186 176.5C1186 186.165 1193.84 194 1203.5 194Z" fill="white" fill-opacity="0.5"/>
<path d="M877 810C1191.25 810 1446 555.25 1446 241C1446 -73.25 1191.25 -328 877 -328C562.75 -328 308 -73.25 308 241C308 555.25 562.75 810 877 810Z" stroke="white" stroke-opacity="0.5" stroke-miterlimit="10"/>
<path d="M884 940C1270.05 940 1583 627.047 1583 241C1583 -145.047 1270.05 -458 884 -458C497.953 -458 185 -145.047 185 241C185 627.047 497.953 940 884 940Z" stroke="white" stroke-opacity="0.5" stroke-miterlimit="10"/>
<path d="M884 1145C1366.14 1145 1757 754.145 1757 272C1757 -210.145 1366.14 -601 884 -601C401.855 -601 11 -210.145 11 272C11 754.145 401.855 1145 884 1145Z" stroke="white" stroke-opacity="0.5" stroke-miterlimit="10"/>
<path d="M1301.65 336.296C1314.71 336.296 1325.3 325.708 1325.3 312.648C1325.3 299.587 1314.71 289 1301.65 289C1288.59 289 1278 299.587 1278 312.648C1278 325.708 1288.59 336.296 1301.65 336.296Z" fill="white" fill-opacity="0.5"/>
<path d="M827.039 969.398C835.697 969.398 842.716 962.38 842.716 953.722C842.716 945.064 835.697 938.045 827.039 938.045C818.381 938.045 811.363 945.064 811.363 953.722C811.363 962.38 818.381 969.398 827.039 969.398Z" fill="white" fill-opacity="0.5"/>
<g clip-path="url(#clip13_72_2216)">
<path opacity="0.85" d="M1183.4 246.794C1212.33 246.794 1235.79 223.335 1235.79 194.397C1235.79 165.459 1212.33 142 1183.4 142C1154.46 142 1131 165.459 1131 194.397C1131 223.335 1154.46 246.794 1183.4 246.794Z" fill="url(#paint7_linear_72_2216)"/>
</g>
<path d="M3.14491 581.299C-25.4711 574.592 -53.9349 603.402 -64.5898 618.646C-132.324 618.646 -108.732 723.825 -64.5898 734.496C-29.2764 743.032 -4.71942 713.155 3.14491 697.149C16.5904 705.533 50.6353 722.606 79.2513 723.825C115.021 725.35 134.048 681.144 160.685 681.144C187.322 681.144 201.022 705.533 248.969 705.533C296.916 705.533 306.809 684.955 327.358 681.144C343.797 678.095 366.68 696.133 376.066 705.533C393.063 716.712 432.842 738.154 455.978 734.496C479.114 730.837 498.09 713.663 504.686 705.533C522.444 708.836 567.093 713.46 603.624 705.533C649.288 695.625 639.394 659.803 630.262 637.7C621.129 615.597 586.881 604.926 557.961 604.926C529.04 604.926 511.536 618.646 481.093 604.926C450.651 591.207 433.907 581.299 401.942 581.299C369.978 581.299 369.217 604.926 340.296 598.067C311.376 591.207 301.482 547.763 258.862 552.336C216.243 556.909 206.349 581.299 189.606 581.299C172.862 581.299 148.508 559.196 124.915 569.104C101.322 579.012 89.1451 607.213 64.03 604.926C38.9149 602.64 38.9149 589.683 3.14491 581.299Z" fill="#FBFEFF" fill-opacity="0.1"/>
<path d="M172.315 824.968C151.189 821.542 130.176 836.26 122.31 844.047C72.3041 844.047 89.7217 897.78 122.31 903.232C148.38 907.593 166.509 892.329 172.315 884.152C182.241 888.436 207.375 897.157 228.501 897.78C254.908 898.559 268.955 875.976 288.62 875.976C308.285 875.976 318.398 888.436 353.796 888.436C389.193 888.436 396.497 877.922 411.667 875.976C423.803 874.418 440.697 883.633 447.626 888.436C460.174 894.146 489.541 905.101 506.621 903.232C523.702 901.363 537.711 892.589 542.58 888.436C555.69 890.123 588.653 892.485 615.622 888.436C649.334 883.374 642.029 865.073 635.287 853.781C628.545 842.49 603.261 837.038 581.91 837.038C560.56 837.038 547.637 844.047 525.163 837.038C502.688 830.03 490.327 824.968 466.729 824.968C443.131 824.968 442.569 837.038 421.219 833.534C399.868 830.03 392.564 807.836 361.1 810.172C329.636 812.508 322.331 824.968 309.971 824.968C297.61 824.968 279.63 813.676 262.213 818.738C244.795 823.8 235.805 838.207 217.264 837.038C198.722 835.87 198.722 829.251 172.315 824.968Z" fill="#FBFEFF" fill-opacity="0.05"/>
<path d="M1230.16 829.579C1217.91 826.7 1205.72 839.069 1201.16 845.614C1172.16 845.614 1182.26 890.773 1201.16 895.354C1216.28 899.019 1226.8 886.192 1230.16 879.32C1235.92 882.919 1250.5 890.249 1262.75 890.773C1278.07 891.427 1286.21 872.448 1297.62 872.448C1309.03 872.448 1314.89 882.919 1335.42 882.919C1355.95 882.919 1360.19 874.084 1368.99 872.448C1376.03 871.139 1385.82 878.883 1389.84 882.919C1397.12 887.719 1414.15 896.925 1424.06 895.354C1433.97 893.783 1442.09 886.41 1444.92 882.919C1452.52 884.337 1471.64 886.322 1487.28 882.919C1506.83 878.665 1502.6 863.285 1498.69 853.795C1494.78 844.305 1480.11 839.724 1467.73 839.724C1455.34 839.724 1447.85 845.614 1434.81 839.724C1421.78 833.834 1414.61 829.579 1400.92 829.579C1387.24 829.579 1386.91 839.724 1374.53 836.779C1362.14 833.834 1357.91 815.181 1339.66 817.144C1321.41 819.108 1317.17 829.579 1310 829.579C1302.83 829.579 1292.41 820.09 1282.3 824.344C1272.2 828.598 1266.99 840.706 1256.23 839.724C1245.48 838.742 1245.48 833.179 1230.16 829.579Z" fill="#FBFEFF" fill-opacity="0.05"/>
<path d="M214.293 599.783L215.659 589L217.707 599.783L230 601.804L217.707 603.826V620L214.293 603.826L202 601.804L214.293 599.783Z" fill="white"/>
<path d="M210.829 740.87L211.366 736L212.171 740.87L217 741.783L212.171 742.696V750L210.829 742.696L206 741.783L210.829 740.87Z" fill="white"/>
<path d="M284.341 800.304L285.268 793L286.659 800.304L295 801.674L286.659 803.043V814L284.341 803.043L276 801.674L284.341 800.304Z" fill="white"/>
<path d="M405.341 887.652L406.268 880L407.659 887.652L416 889.087L407.659 890.522V902L405.341 890.522L397 889.087L405.341 887.652Z" fill="white"/>
<path d="M346.512 906.522L346.902 902L347.488 906.522L351 907.37L347.488 908.217V915L346.512 908.217L343 907.37L346.512 906.522Z" fill="white"/>
<path d="M159.293 689.783L160.659 679L162.707 689.783L175 691.804L162.707 693.826V710L159.293 693.826L147 691.804L159.293 689.783Z" fill="white"/>
<path d="M395.293 744.783L396.659 734L398.707 744.783L411 746.804L398.707 748.826V765L395.293 748.826L383 746.804L395.293 744.783Z" fill="white"/>
<circle cx="382" cy="876" r="1" fill="#D9D9D9"/>
<circle cx="435.5" cy="803.5" r="1.5" fill="#D9D9D9"/>
<path d="M1033.76 330.391L1035.95 313L1039.24 330.391L1059 333.652L1039.24 336.913V363L1033.76 336.913L1014 333.652L1033.76 330.391Z" fill="white"/>
<path d="M1028.46 560.304L1029.29 553L1030.54 560.304L1038 561.674L1030.54 563.043V574L1028.46 563.043L1021 561.674L1028.46 560.304Z" fill="white"/>
<path d="M1147.17 656.174L1148.63 644L1150.83 656.174L1164 658.457L1150.83 660.739V679L1147.17 660.739L1134 658.457L1147.17 656.174Z" fill="white"/>
<path d="M1343.17 797.174L1344.63 785L1346.83 797.174L1360 799.457L1346.83 801.739V820L1343.17 801.739L1330 799.457L1343.17 797.174Z" fill="white"/>
<path d="M1248.71 827.652L1249.34 820L1250.29 827.652L1256 829.087L1250.29 830.522V842L1248.71 830.522L1243 829.087L1248.71 827.652Z" fill="white"/>
<path d="M944.756 476.391L946.951 459L950.244 476.391L970 479.652L950.244 482.913V509L944.756 482.913L925 479.652L944.756 476.391Z" fill="white"/>
<path d="M1327.76 565.391L1329.95 548L1333.24 565.391L1353 568.652L1333.24 571.913V598L1327.76 571.913L1308 568.652L1327.76 565.391Z" fill="white"/>
<circle cx="1306" cy="779" r="2" fill="#D9D9D9"/>
<ellipse cx="1393" cy="661.5" rx="2" ry="2.5" fill="#D9D9D9"/>
<path d="M757 838L758 830L759.5 838L768.5 839.5L759.5 841V853L757 841L748 839.5L757 838Z" fill="white"/>
<path d="M754.512 943.478L754.902 940L755.488 943.478L759 944.13L755.488 944.783V950L754.512 944.783L751 944.13L754.512 943.478Z" fill="white"/>
<path d="M809.146 987.565L809.829 982L810.854 987.565L817 988.609L810.854 989.652V998L809.146 989.652L803 988.609L809.146 987.565Z" fill="white"/>
<path d="M716 905L717 897L718.5 905L727.5 906.5L718.5 908V920L716 908L707 906.5L716 905Z" fill="white"/>
<path d="M892 946L893 938L894.5 946L903.5 947.5L894.5 949V961L892 949L883 947.5L892 946Z" fill="white"/>
<path fill-rule="evenodd" clip-rule="evenodd" d="M1327.83 958.583C1281.13 935.925 1229.48 912.387 1201.21 912.387C1161.4 912.387 1014.34 934.18 949.502 955.403C994.479 963.65 1043.32 970.618 1093.06 971.818C1098.99 970.154 1103.6 968.943 1106.65 968.281C1120.32 965.305 1138.92 966.932 1159.35 970.702C1214.91 968.425 1275.24 963.633 1327.83 958.583ZM258 911.332C303.782 928.527 364.134 945.901 444.671 945.901C492.57 945.901 538.683 943.238 581.276 939.782C484.746 916.255 337.172 893.628 258 911.332Z" fill="#111A69"/>
<path d="M1075.37 36C1075.37 36 890.213 246.128 872.965 240.849C855.717 235.921 1075.37 36 1075.37 36Z" fill="url(#paint8_linear_72_2216)"/>
<path d="M1024.4 221C1024.4 221 961.388 306.178 948.364 301.25C934.988 296.322 1024.4 221 1024.4 221Z" fill="url(#paint9_linear_72_2216)"/>
<path d="M907 95C907 95 854.898 164.873 844.128 160.831C833.067 156.789 907 95 907 95Z" fill="url(#paint10_linear_72_2216)"/>
<path d="M1119.4 289C1119.4 289 1110.6 315.398 1098.63 312.582C1086.66 309.766 1119.4 289 1119.4 289Z" fill="url(#paint11_linear_72_2216)"/>
</g>
<defs>
<linearGradient id="paint0_linear_72_2216" x1="719" y1="7" x2="719" y2="2000.5" gradientUnits="userSpaceOnUse">
<stop stop-color="#4C1A57" stop-opacity="0.962003"/>
<stop offset="0.527398" stop-color="#0C1E72"/>
<stop offset="1" stop-color="#0C1E72" stop-opacity="0"/>
</linearGradient>
<linearGradient id="paint1_linear_72_2216" x1="893.596" y1="114.061" x2="855.228" y2="100.095" gradientUnits="userSpaceOnUse">
<stop stop-color="white"/>
<stop offset="0.5324" stop-color="#F2CB45"/>
<stop offset="0.9299" stop-color="#E29B45"/>
<stop offset="1" stop-color="#E26F45"/>
</linearGradient>
<linearGradient id="paint2_linear_72_2216" x1="441.931" y1="210" x2="441.931" y2="329.036" gradientUnits="userSpaceOnUse">
<stop stop-color="#F8E995"/>
<stop offset="0.458333" stop-color="#F0AE28"/>
<stop offset="0.998135" stop-color="#F08828"/>
</linearGradient>
<linearGradient id="paint3_linear_72_2216" x1="1160.55" y1="746.874" x2="1160.55" y2="896.046" gradientUnits="userSpaceOnUse">
<stop stop-color="#F8E995"/>
<stop offset="0.458333" stop-color="#F0AE28"/>
<stop offset="0.998135" stop-color="#F08828"/>
</linearGradient>
<linearGradient id="paint4_linear_72_2216" x1="1257.56" y1="770.082" x2="1257.56" y2="810.012" gradientUnits="userSpaceOnUse">
<stop stop-color="#F8E995"/>
<stop offset="0.458333" stop-color="#F0AE28"/>
<stop offset="0.998135" stop-color="#F08828"/>
</linearGradient>
<linearGradient id="paint5_linear_72_2216" x1="892.277" y1="752.785" x2="892.277" y2="804.016" gradientUnits="userSpaceOnUse">
<stop stop-color="#F8E995"/>
<stop offset="0.458333" stop-color="#F0AE28"/>
<stop offset="0.998135" stop-color="#F08828"/>
</linearGradient>
<linearGradient id="paint6_linear_72_2216" x1="486.652" y1="121.152" x2="486.652" y2="204.025" gradientUnits="userSpaceOnUse">
<stop stop-color="#F8E995"/>
<stop offset="0.458333" stop-color="#F0AE28"/>
<stop offset="0.998135" stop-color="#F08828"/>
</linearGradient>
<linearGradient id="paint7_linear_72_2216" x1="1232.83" y1="212.448" x2="1134.15" y2="176.533" gradientUnits="userSpaceOnUse">
<stop stop-color="#E9DD00"/>
<stop offset="0.2201" stop-color="#FFB53F"/>
<stop offset="0.5421" stop-color="#D46400"/>
<stop offset="0.8467" stop-color="#4C1A57"/>
<stop offset="1" stop-color="#111A69"/>
</linearGradient>
<linearGradient id="paint8_linear_72_2216" x1="1030.52" y1="159.123" x2="916.224" y2="117.519" gradientUnits="userSpaceOnUse">
<stop stop-color="white"/>
<stop offset="0.5324" stop-color="#F2CB45"/>
<stop offset="0.9299" stop-color="#E29B45"/>
<stop offset="1" stop-color="#E26F45"/>
</linearGradient>
<linearGradient id="paint9_linear_72_2216" x1="1006.89" y1="268.796" x2="963.404" y2="252.967" gradientUnits="userSpaceOnUse">
<stop stop-color="white"/>
<stop offset="0.5324" stop-color="#F2CB45"/>
<stop offset="0.9299" stop-color="#E29B45"/>
<stop offset="1" stop-color="#E26F45"/>
</linearGradient>
<linearGradient id="paint10_linear_72_2216" x1="892.523" y1="134.208" x2="856.632" y2="121.039" gradientUnits="userSpaceOnUse">
<stop stop-color="white"/>
<stop offset="0.5324" stop-color="#F2CB45"/>
<stop offset="0.9299" stop-color="#E29B45"/>
<stop offset="1" stop-color="#E26F45"/>
</linearGradient>
<linearGradient id="paint11_linear_72_2216" x1="1114.54" y1="302.754" x2="1100.54" y2="297.656" gradientUnits="userSpaceOnUse">
<stop stop-color="white"/>
<stop offset="0.5324" stop-color="#F2CB45"/>
<stop offset="0.9299" stop-color="#E29B45"/>
<stop offset="1" stop-color="#E26F45"/>
</linearGradient>
<clipPath id="clip0_72_2216">
<rect width="1440" height="983" fill="white"/>
</clipPath>
<clipPath id="clip1_72_2216">
<rect width="160" height="158" fill="white" transform="translate(381 171)"/>
</clipPath>
<clipPath id="clip2_72_2216">
<rect width="122" height="119" fill="white" transform="translate(381 210)"/>
</clipPath>
<clipPath id="clip3_72_2216">
<rect width="11" height="13" fill="white" transform="translate(264 253)"/>
</clipPath>
<clipPath id="clip4_72_2216">
<rect width="11" height="13" fill="white" transform="translate(455 797)"/>
</clipPath>
<clipPath id="clip5_72_2216">
<rect width="201" height="198" fill="white" transform="translate(1084 698)"/>
</clipPath>
<clipPath id="clip6_72_2216">
<rect width="153.262" height="149.127" fill="white" transform="translate(1084 746.874)"/>
</clipPath>
<clipPath id="clip7_72_2216">
<rect width="54" height="53" fill="white" transform="translate(1237 757)"/>
</clipPath>
<clipPath id="clip8_72_2216">
<rect width="41.175" height="39.9177" fill="white" transform="translate(1237 770.082)"/>
</clipPath>
<clipPath id="clip9_72_2216">
<rect width="69" height="68" fill="white" transform="translate(866 736)"/>
</clipPath>
<clipPath id="clip10_72_2216">
<rect width="52.6125" height="51.2152" fill="white" transform="translate(866 752.785)"/>
</clipPath>
<clipPath id="clip11_72_2216">
<rect width="112" height="110" fill="white" transform="translate(444 94)"/>
</clipPath>
<clipPath id="clip12_72_2216">
<rect width="85.4" height="82.8481" fill="white" transform="translate(444 121.152)"/>
</clipPath>
<clipPath id="clip13_72_2216">
<rect width="105" height="105" fill="white" transform="translate(1131 142)"/>
</clipPath>
</defs>
</svg>
