<svg width="" height="" viewBox="0 0 43 43" fill="none" xmlns="http://www.w3.org/2000/svg">
<path d="M38.9687 12.0937V30.9062C38.9687 31.9754 38.544 33.0008 37.788 33.7568C37.032 34.5128 36.0067 34.9375 34.9375 34.9375H8.0625C6.99335 34.9375 5.96798 34.5128 5.21198 33.7568C4.45597 33.0008 4.03125 31.9754 4.03125 30.9062V12.0937M38.9687 12.0937C38.9687 11.0246 38.544 9.99923 37.788 9.24323C37.032 8.48722 36.0067 8.0625 34.9375 8.0625H8.0625C6.99335 8.0625 5.96798 8.48722 5.21198 9.24323C4.45597 9.99923 4.03125 11.0246 4.03125 12.0937M38.9687 12.0937V12.5291C38.9688 13.2174 38.7927 13.8942 38.4571 14.4951C38.1215 15.096 37.6377 15.601 37.0517 15.962L23.6142 24.2305C22.9785 24.622 22.2466 24.8294 21.5 24.8294C20.7534 24.8294 20.0215 24.622 19.3858 24.2305L5.94833 15.9637C5.36232 15.6028 4.87847 15.0978 4.54289 14.4969C4.20731 13.896 4.03117 13.2192 4.03125 12.5309V12.0937" stroke="#F0AE28" stroke-width="3" stroke-linecap="round" stroke-linejoin="round"/>
</svg>
