<svg width="" height="" viewBox="0 0 43 43" fill="none" xmlns="http://www.w3.org/2000/svg">
<path d="M4.03125 12.0937C4.03125 26.9359 16.0641 38.9687 30.9062 38.9687H34.9375C36.0067 38.9687 37.032 38.544 37.788 37.788C38.544 37.032 38.9687 36.0067 38.9687 34.9375V32.4793C38.9687 31.5548 38.3399 30.7486 37.4423 30.5246L29.5177 28.543C28.7294 28.346 27.9016 28.6416 27.4161 29.2902L25.6782 31.6068C25.1729 32.2805 24.3004 32.5779 23.5102 32.2876C20.5771 31.2093 17.9134 29.5062 15.7036 27.2964C13.4938 25.0866 11.7907 22.4229 10.7124 19.4898C10.4221 18.6996 10.7195 17.8271 11.3932 17.3218L13.7098 15.5839C14.3602 15.0984 14.654 14.2688 14.457 13.4823L12.4754 5.55775C12.3663 5.12183 12.1147 4.73484 11.7606 4.45827C11.4064 4.1817 10.97 4.0314 10.5207 4.03125H8.0625C6.99335 4.03125 5.96798 4.45597 5.21198 5.21198C4.45597 5.96798 4.03125 6.99335 4.03125 8.0625V12.0937Z" stroke="#F0AE28" stroke-width="3" stroke-linecap="round" stroke-linejoin="round"/>
</svg>
