<svg width="" height="" viewBox="0 0 43 43" fill="none" xmlns="http://www.w3.org/2000/svg">
<path d="M35.0319 5.36974C34.5805 5.39074 34.1553 5.52197 33.7774 5.66894H33.7722C33.389 5.82116 31.5676 6.58752 28.8013 7.74755C26.0351 8.91283 22.4448 10.4246 18.8807 11.9258C11.763 14.923 4.76605 17.8729 4.76605 17.8729L4.85004 17.8414C4.85004 17.8414 4.36713 17.9989 3.86322 18.3453C3.60602 18.5133 3.32257 18.7443 3.07587 19.1064C2.82916 19.4686 2.6297 20.025 2.70319 20.5972C2.82391 21.5682 3.4538 22.1509 3.90521 22.4711C4.36188 22.7965 4.79755 22.9487 4.79755 22.9487H4.80804L11.3693 25.1586C11.6633 26.1034 13.3692 31.7093 13.7786 33.0006C14.0201 33.7722 14.2563 34.2551 14.5502 34.6226C14.692 34.8115 14.8599 34.969 15.0594 35.095C15.1381 35.1422 15.2221 35.1789 15.3061 35.2104C15.3323 35.2262 15.3586 35.2314 15.3901 35.2367L15.3218 35.2209C15.3428 35.2262 15.3586 35.2419 15.3743 35.2472C15.4268 35.2629 15.4636 35.2682 15.5318 35.2787C16.5711 35.5936 17.4057 34.948 17.4057 34.948L17.4529 34.9112L21.3267 31.3839L27.8198 36.3652L27.9667 36.4282C29.321 37.0214 30.691 36.6907 31.4153 36.108C32.145 35.5201 32.4284 34.7695 32.4284 34.7695L32.4756 34.6488L37.4937 8.94433C37.6354 8.3092 37.6722 7.71606 37.5147 7.13866C37.3572 6.56127 36.9531 6.02062 36.4649 5.73193C35.9715 5.43798 35.4833 5.34875 35.0319 5.36974ZM34.8954 8.12548C34.8902 8.20947 34.9059 8.19897 34.8692 8.36169V8.37743L29.8984 33.8142C29.8774 33.8509 29.8406 33.9297 29.7409 34.0084C29.6359 34.0924 29.5519 34.1449 29.1163 33.9717L21.1745 27.8828L16.3769 32.2552L17.3847 25.8199C17.3847 25.8199 29.8249 14.2248 30.3603 13.7262C30.8957 13.2275 30.7172 13.1226 30.7172 13.1226C30.754 12.5137 29.9089 12.9441 29.9089 12.9441L13.5477 23.0799L13.5424 23.0537L5.70038 20.4134V20.4082C5.69513 20.4082 5.68463 20.4029 5.67938 20.4029C5.68463 20.4029 5.72137 20.3872 5.72137 20.3872L5.76337 20.3662L5.80536 20.3505C5.80536 20.3505 12.8076 17.4005 19.9252 14.4033C23.4893 12.9021 27.0797 11.3904 29.8406 10.2251C32.6016 9.06506 34.6435 8.21471 34.759 8.16747C34.8692 8.12548 34.8167 8.12548 34.8954 8.12548Z" fill="#F0AE28"/>
</svg>
