<svg width="" height="" viewBox="0 0 43 43" fill="none" xmlns="http://www.w3.org/2000/svg">
<path fill-rule="evenodd" clip-rule="evenodd" d="M36.735 6.24896C32.6928 2.22139 27.317 0.00236206 21.5899 0C9.78876 0 0.184335 9.55821 0.179589 21.306C0.178006 25.0615 1.16377 28.7274 3.03745 31.9587L0 43L11.3499 40.0369C14.4773 41.7347 17.9982 42.6294 21.5812 42.6305H21.5902C33.39 42.6305 42.9955 33.0715 43 21.3231C43.0024 15.6295 40.7774 10.2763 36.735 6.24896ZM21.5899 39.032H21.5825C18.3895 39.0307 15.2579 38.1767 12.5253 36.5634L11.8758 36.1794L5.14056 37.9378L6.93829 31.4025L6.51503 30.7325C4.73365 27.9127 3.79298 24.6536 3.79457 21.3074C3.79826 11.5429 11.7814 3.59873 21.597 3.59873C26.3502 3.60031 30.8183 5.44481 34.178 8.79238C37.5377 12.1399 39.3869 16.5895 39.3853 21.3218C39.3811 31.0871 31.3985 39.032 21.5899 39.032ZM31.351 25.768C30.8162 25.5013 28.1859 24.2137 27.6954 24.0358C27.2054 23.8581 26.8484 23.7697 26.4921 24.3025C26.1353 24.8352 25.1102 26.0346 24.798 26.3897C24.4858 26.7451 24.174 26.7897 23.639 26.5231C23.1039 26.2567 21.3803 25.6942 19.3368 23.8804C17.7466 22.4687 16.673 20.7252 16.3608 20.1925C16.049 19.6592 16.3581 19.3988 16.5955 19.1059C17.1746 18.3902 17.7545 17.6399 17.9328 17.2848C18.1113 16.9294 18.0219 16.6184 17.8879 16.352C17.7545 16.0856 16.6846 13.4651 16.2389 12.3987C15.8043 11.361 15.3637 11.5011 15.0351 11.4849C14.7234 11.4694 14.3666 11.4662 14.0098 11.4662C13.6532 11.4662 13.0736 11.5993 12.5831 12.1326C12.0928 12.6656 10.711 13.9535 10.711 16.5741C10.711 19.1946 12.6279 21.7262 12.8953 22.0816C13.1627 22.437 16.6677 27.8146 22.034 30.1205C23.3104 30.6695 24.3067 30.9968 25.0839 31.2422C26.3655 31.6474 27.5314 31.5902 28.4533 31.4532C29.4813 31.3002 31.6181 30.1651 32.0643 28.9216C32.51 27.6778 32.51 26.612 32.3761 26.3897C32.2426 26.1677 31.8858 26.0346 31.351 25.768Z" fill="#F0AE28"/>
</svg>
