<svg width="573" height="530" viewBox="0 0 573 530" fill="none" xmlns="http://www.w3.org/2000/svg">
<path d="M65.3335 231.866C56.6109 203.963 100.466 141.277 123.484 113.422C166.37 50.7752 232.516 22.5911 240.511 22.5911C248.507 22.5911 255.049 26.951 255.049 32.7641C255.049 37.4147 258.441 37.6085 260.137 37.124C282.67 16.7779 305.203 10.9647 313.926 10.9647C322.648 10.9647 326.283 19.6845 325.556 25.4977C324.974 30.1482 329.19 29.8577 331.371 29.1311C347.12 13.1448 381.962 -13.4506 395.336 8.05822C412.055 34.9442 366.988 73.4567 371.349 80.7233C375.711 87.9899 388.068 74.91 400.424 80.7233C410.31 85.3739 409.874 99.1318 408.42 105.429L408.646 105.263C419.884 97.0239 460.82 67.0107 470.205 80.7233C479.654 94.5296 470.932 118.509 460.755 135.222C452.614 148.592 457.363 150.482 460.755 149.755C491.575 119.526 518.179 123.111 527.628 128.682C547.254 171.554 508.729 207.887 508.003 220.24C507.421 230.122 516.967 232.109 521.813 231.866C540.712 249.306 509.456 287.818 516.725 293.631C523.994 299.445 542.893 268.925 564.699 274.012C582.144 278.081 568.091 313.978 558.884 331.417C506.549 452.768 372.076 515.986 361.173 508.72C350.27 501.453 357.539 484.014 361.173 468.027C364.807 452.041 351.724 473.84 340.094 489.1C328.464 504.36 281.943 532.699 261.591 529.792C241.238 526.886 252.868 508.72 255.776 489.1C258.683 469.481 329.19 349.583 261.591 429.515C193.991 509.446 148.198 513.08 132.933 508.72C117.669 504.36 119.849 487.647 127.845 461.487C135.841 435.328 148.924 419.342 148.198 414.982C147.471 410.622 129.299 414.255 123.484 407.715C117.669 401.176 123.484 384.463 123.484 379.376C123.484 374.29 151.105 337.957 123.484 362.663C95.8624 387.369 65.3335 398.269 54.4303 384.463C43.5272 370.656 65.3335 340.864 54.4303 337.957C45.7078 335.632 46.4346 323.424 47.8884 317.611C45.7077 280.552 87.1398 255.846 74.7829 247.126C64.8973 240.15 64.3643 234.046 65.3335 231.866Z" fill="url(#paint0_linear_2_1241)"/>
<circle cx="424" cy="179" r="3" fill="#5AC7FF"/>
<circle cx="477" cy="390" r="3" fill="#F0AE28"/>
<circle cx="337" cy="243" r="3" fill="#5AC7FF"/>
<circle cx="337" cy="243" r="3" fill="#5AC7FF"/>
<circle cx="114" cy="280" r="3" fill="#5AC7FF"/>
<g clip-path="url(#clip0_2_1241)">
<path d="M276 96L281.06 91.0167L287 96L283.04 89.5L287 83L281.5 86.4667L276 83L279.74 89.5L276 96Z" fill="#F0AE28"/>
</g>
<g clip-path="url(#clip1_2_1241)">
<path d="M310 373L315.06 368.017L321 373L317.04 366.5L321 360L315.5 363.467L310 360L313.74 366.5L310 373Z" fill="#F0AE28"/>
</g>
<g clip-path="url(#clip2_2_1241)">
<path d="M379 469L384.06 464.017L390 469L386.04 462.5L390 456L384.5 459.467L379 456L382.74 462.5L379 469Z" fill="#F0AE28"/>
</g>
<g clip-path="url(#clip3_2_1241)">
<path d="M495 255C495 255 406.393 365.029 395.549 369.578C384.562 374.127 372.719 366.025 378.712 355.505C384.705 344.985 495 255 495 255Z" fill="#322AB3" fill-opacity="0.5"/>
<g clip-path="url(#clip4_2_1241)">
<path d="M466.975 283.633C466.975 283.633 399.297 366.534 391.009 370.029C382.722 373.524 373.448 367.311 378.184 359.545C382.92 351.779 466.975 283.633 466.975 283.633Z" fill="url(#paint1_linear_2_1241)"/>
<g clip-path="url(#clip5_2_1241)">
<path d="M473.855 308.836C473.855 308.836 442.842 362.458 439.047 364.675C435.201 366.892 431.056 362.943 433.154 357.816C435.251 352.69 473.855 308.836 473.855 308.836Z" fill="#322AB3" fill-opacity="0.5"/>
<g clip-path="url(#clip6_2_1241)">
<path d="M464.046 322.79C464.046 322.79 440.358 363.192 437.458 364.895C434.557 366.598 431.312 363.57 432.969 359.786C434.626 356.001 464.046 322.79 464.046 322.79Z" fill="url(#paint2_linear_2_1241)"/>
</g>
</g>
</g>
</g>
<g clip-path="url(#clip7_2_1241)">
<path opacity="0.85" d="M359.4 210.8C373.428 210.8 384.8 199.428 384.8 185.4C384.8 171.372 373.428 160 359.4 160C345.372 160 334 171.372 334 185.4C334 199.428 345.372 210.8 359.4 210.8Z" fill="url(#paint3_linear_2_1241)"/>
</g>
<g clip-path="url(#clip8_2_1241)">
<path opacity="0.85" d="M198.971 407.941C207.239 407.941 213.941 401.239 213.941 392.971C213.941 384.703 207.239 378 198.971 378C190.703 378 184 384.703 184 392.971C184 401.239 190.703 407.941 198.971 407.941Z" fill="url(#paint4_linear_2_1241)"/>
</g>
<g clip-path="url(#clip9_2_1241)">
<path d="M213.993 123.136C214.893 121.536 216.492 122.436 216.492 122.436C218.091 123.335 217.191 124.935 217.191 124.935C216.291 126.535 214.692 125.635 214.692 125.635L213.993 123.136Z" fill="white"/>
<path d="M132.233 148.748C133.133 147.149 134.732 148.048 134.732 148.048C136.331 148.947 135.431 150.547 135.431 150.547C135.431 150.547 134.531 152.147 132.933 151.247C131.334 150.348 132.233 148.748 132.233 148.748Z" fill="white"/>
<path d="M141.34 80.1667C143.139 76.9672 145.638 76.2668 148.836 78.0655C150.435 78.9649 151.833 83.9631 149.335 84.6634C147.535 87.8629 145.036 88.5633 141.838 86.7646C140.239 85.8653 139.54 83.3662 141.34 80.1667Z" fill="white"/>
<path d="M92.0527 164.053L117.241 152.951C117.241 152.951 116.341 154.55 115.441 156.15C114.541 157.75 116.14 158.649 115.241 160.249L115.94 162.748C116.639 165.247 118.238 166.146 117.338 167.746C118.037 170.245 120.336 173.644 121.035 176.143C127.029 187.938 134.824 196.533 138.222 194.233L113.733 207.835L92.0527 164.053Z" fill="#ABACAE"/>
<path d="M117.241 152.95L138.222 194.233C134.824 196.533 127.03 187.938 121.035 176.143C115.04 164.348 114.742 153.651 117.241 152.95Z" fill="#ABACAE"/>
<path d="M117.241 152.951C120.639 150.65 128.434 159.246 134.428 171.041C140.423 182.836 142.32 194.432 138.222 194.233C134.824 196.533 127.029 187.938 121.035 176.143C115.04 164.348 114.742 153.651 117.241 152.951Z" fill="#8C857E"/>
<path d="M93.6515 164.953C93.6515 164.953 96.1503 164.252 97.7493 165.152C99.3482 166.051 99.3482 166.051 100.947 166.95C102.546 167.85 102.546 167.85 103.245 170.349C104.844 171.248 105.544 173.747 105.544 173.747C106.243 176.246 108.541 179.645 110.839 183.043C115.235 193.939 117.132 205.535 114.633 206.235C112.134 206.936 103.44 199.94 97.4455 188.145C95.1474 184.746 94.4482 182.247 93.749 179.748C93.0498 177.249 93.0498 177.249 92.3506 174.75L91.6514 172.251C90.9522 169.752 90.9522 169.752 91.852 168.152C91.1528 165.653 92.0526 164.053 93.6515 164.953Z" fill="#ABACAE"/>
<path d="M118.84 153.85C119.74 152.25 121.338 153.149 123.637 156.548C126.835 158.347 129.133 161.745 130.531 166.743C132.13 167.643 133.729 168.542 134.428 171.041C139.724 180.337 141.621 191.933 139.122 192.633C136.623 193.334 129.528 187.237 125.132 176.342C124.433 173.843 122.834 172.943 122.135 170.444C120.737 165.446 118.439 162.047 118.639 157.949C117.94 155.45 118.84 153.85 118.84 153.85Z" fill="#E1E1E3"/>
<path d="M197.694 170.826L244.35 274.984L203.069 295.987L150.515 194.83L197.694 170.826Z" fill="url(#paint5_radial_2_1241)"/>
<path d="M238.356 263.189L239.955 264.088L198.674 285.091L197.075 284.192L238.356 263.189Z" fill="#E1E1E3"/>
<path d="M211.466 292.286L162.31 188.829L211.466 292.286Z" fill="#E1E1E3"/>
<path d="M224.16 284.686L221.661 285.386L169.508 176.031L172.907 173.731L224.16 284.686Z" fill="#E1E1E3"/>
<path d="M235.055 280.284L185.899 176.827L235.055 280.284Z" fill="#E1E1E3"/>
<path d="M233.96 252.293L191.779 274.896L191.08 272.397L233.96 252.293Z" fill="#E1E1E3"/>
<path d="M227.965 240.498L229.564 241.397L185.784 263.101L227.965 240.498Z" fill="#E1E1E3"/>
<path d="M224.469 228.002L223.57 229.602L179.79 251.306L224.469 228.002Z" fill="#E1E1E3"/>
<path d="M218.474 216.208L217.575 217.807L175.394 240.411L173.795 239.511L218.474 216.208Z" fill="#E1E1E3"/>
<path d="M214.079 205.312L169.399 228.615L167.8 227.716L214.079 205.312Z" fill="#E1E1E3"/>
<path d="M208.084 193.517L163.405 216.82L208.084 193.517Z" fill="#E1E1E3"/>
<path d="M202.089 181.722L203.688 182.621L156.51 206.625L157.41 205.025L202.089 181.722Z" fill="#E1E1E3"/>
<path d="M237.055 272.986L192.994 182.924L194.794 179.724L237.055 272.986Z" fill="#ABACAE"/>
<path d="M138.218 192.023L205.727 158.807L187.114 120.934L119.605 154.15L138.218 192.023Z" fill="#E1E1E3"/>
<path d="M118.639 157.949L188.507 123.542L194.501 135.337L122.135 170.444C120.737 165.446 118.439 162.048 118.639 157.949Z" fill="#C4B8AE"/>
<path d="M91.852 168.152L115.441 156.15C116.14 158.649 115.94 162.748 117.338 167.746L93.749 179.748C92.3506 174.75 90.9522 169.752 91.852 168.152Z" fill="#8C857E"/>
<path d="M188.008 116.944C190.507 116.244 198.301 124.84 204.296 136.635C210.291 148.43 212.188 160.026 209.689 160.726C204.691 162.127 199.396 152.831 193.401 141.036C187.406 129.241 184.61 119.245 188.008 116.944Z" fill="#ABACAE"/>
<path d="M189.108 111.246C193.206 111.445 201 120.04 207.694 134.335C214.388 148.629 217.884 161.124 214.486 163.424C211.087 165.724 202.594 154.63 195.9 140.336C188.306 127.641 185.71 113.546 189.108 111.246Z" fill="#8C857E"/>
<path d="M91.6514 172.251L115.24 160.249L115.94 162.748L92.3506 174.75L91.6514 172.251Z" fill="#706A65"/>
<path d="M200.599 128.238L208.995 124.537C208.995 124.537 208.995 124.537 208.096 126.137C208.096 126.137 208.096 126.137 207.196 127.737C207.196 127.737 207.196 127.737 207.895 130.236L208.594 132.735C212.491 137.033 214.789 140.431 215.689 138.831L207.293 142.532L200.599 128.238Z" fill="#ABACAE"/>
<path d="M200.599 128.238C202.198 129.137 202.198 129.137 200.599 128.238C202.198 129.137 202.198 129.137 202.198 129.137C202.198 129.137 202.198 129.137 203.797 130.037C203.797 130.037 203.797 130.037 205.396 130.936L206.095 133.435C207.494 138.433 209.792 141.832 207.293 142.532C207.293 142.532 204.095 140.733 201.797 137.335L201.098 134.836C201.098 134.836 201.098 134.836 200.399 132.337C201.298 130.737 201.298 130.737 200.599 128.238C199.7 129.838 199.7 129.838 200.599 128.238Z" fill="#ABACAE"/>
<path d="M199.7 129.838L208.096 126.137C208.096 126.137 208.795 128.636 207.895 130.236L199.499 133.936C200.399 132.337 200.399 132.337 199.7 129.838Z" fill="#939294"/>
<path d="M210.193 133.634C219.884 153.826 246.568 162.517 266.759 152.815L230.292 75.4466C207.603 85.849 198.903 112.543 210.193 133.634Z" fill="#E1E1E3"/>
<path d="M230.991 77.9458L233.988 83.8433C213.798 93.5452 203.7 115.241 211.792 134.533C210.193 133.634 211.093 132.034 209.494 131.135C200.502 113.442 209.901 89.2474 230.991 77.9458Z" fill="#C4B8AE"/>
<path d="M228.693 74.5474C232.092 72.2473 243.582 89.2395 253.274 109.431L253.973 111.93C265.263 133.021 271.756 151.414 266.759 152.815C263.36 155.115 253.469 139.022 242.877 120.43L242.178 117.931C231.788 95.2405 225.294 76.8475 228.693 74.5474Z" fill="#939294"/>
<path d="M230.292 75.4468C233.69 73.1467 245.181 90.1388 254.873 110.33L255.572 112.83C266.862 133.921 271.756 151.414 269.258 152.115C265.859 154.415 255.967 138.322 245.376 119.73L244.677 117.231C231.788 95.2405 227.793 76.1472 230.292 75.4468Z" fill="#8C857E"/>
<path d="M241.479 115.432L255.772 108.731L258.07 112.129L243.777 118.83C243.777 118.83 242.178 117.931 241.479 115.432C243.078 116.331 243.078 116.331 241.479 115.432Z" fill="#706A65"/>
<path d="M255.073 106.232C257.572 105.531 259.171 106.431 260.77 107.33C261.469 109.829 260.569 111.429 259.669 113.029C257.87 116.228 254.672 114.429 253.073 113.53C252.374 111.031 252.574 106.932 255.073 106.232Z" fill="#E1E1E3"/>
<path d="M165.26 182.429L180.079 175.138L179.27 173.492L164.451 180.783L165.26 182.429Z" fill="#E1E1E3"/>
<path d="M171.417 120.247L128.858 16.2886L76.4812 45.7923L126.737 143.551L171.417 120.247Z" fill="url(#paint6_radial_2_1241)"/>
<path d="M134.852 28.0837L81.7766 55.0883L134.852 28.0837Z" fill="#E1E1E3"/>
<path d="M91.6743 37.4912L90.0754 36.5919L136.033 138.25L136.933 136.651L91.6743 37.4912Z" fill="#E1E1E3"/>
<path d="M103.469 31.4902L100.97 32.1905L151.524 140.646L152.424 139.046L103.469 31.4902Z" fill="#E1E1E3"/>
<path d="M113.664 24.59L112.765 26.1897L159.622 126.249L113.664 24.59Z" fill="#E1E1E3"/>
<path d="M138.348 40.5792L139.248 38.9795L86.1724 65.9841L87.7713 66.8834L138.348 40.5792Z" fill="#E1E1E3"/>
<path d="M144.343 52.3741L142.744 51.4748L92.1672 77.779L144.343 52.3741Z" fill="#E1E1E3"/>
<path d="M148.739 63.2699L147.14 62.3705L99.0617 87.9744L98.162 89.5741L148.739 63.2699Z" fill="#E1E1E3"/>
<path d="M153.134 74.1655L103.457 98.87L105.056 99.7694L153.134 74.1655Z" fill="#E1E1E3"/>
<path d="M157.53 85.0613L109.452 110.665L157.53 85.0613Z" fill="#E1E1E3"/>
<path d="M162.625 98.4559L161.926 95.9569L113.848 121.561L115.447 122.46L162.625 98.4559Z" fill="#E1E1E3"/>
<path d="M167.021 109.352L120.742 131.756L119.842 133.356L167.021 109.352Z" fill="#E1E1E3"/>
<path d="M120.96 26.5874L159.324 115.552L163.422 115.751L120.96 26.5874Z" fill="#ABACAE"/>
<path d="M145.848 141.426L160.667 134.133L159.857 132.486L145.039 139.779L145.848 141.426Z" fill="#E1E1E3"/>
</g>
<defs>
<linearGradient id="paint0_linear_2_1241" x1="310" y1="0" x2="310" y2="692" gradientUnits="userSpaceOnUse">
<stop stop-color="#111A69"/>
<stop offset="1" stop-color="#4C1A57" stop-opacity="0.962003"/>
</linearGradient>
<linearGradient id="paint1_linear_2_1241" x1="421.937" y1="283.633" x2="421.937" y2="371.027" gradientUnits="userSpaceOnUse">
<stop stop-color="#F8E995"/>
<stop offset="0.458333" stop-color="#F0AE28"/>
<stop offset="0.998135" stop-color="#F08828"/>
</linearGradient>
<linearGradient id="paint2_linear_2_1241" x1="448.283" y1="322.79" x2="448.283" y2="365.381" gradientUnits="userSpaceOnUse">
<stop stop-color="#F8E995"/>
<stop offset="0.458333" stop-color="#F0AE28"/>
<stop offset="0.998135" stop-color="#F08828"/>
</linearGradient>
<linearGradient id="paint3_linear_2_1241" x1="383.363" y1="194.15" x2="335.528" y2="176.74" gradientUnits="userSpaceOnUse">
<stop stop-color="#E9DD00"/>
<stop offset="0.2201" stop-color="#FFB53F"/>
<stop offset="0.5421" stop-color="#D46400"/>
<stop offset="0.8467" stop-color="#4C1A57"/>
<stop offset="1" stop-color="#111A69"/>
</linearGradient>
<linearGradient id="paint4_linear_2_1241" x1="213.094" y1="398.128" x2="184.901" y2="387.866" gradientUnits="userSpaceOnUse">
<stop stop-color="#E9DD00"/>
<stop offset="0.2201" stop-color="#FFB53F"/>
<stop offset="0.5421" stop-color="#D46400"/>
<stop offset="0.8467" stop-color="#4C1A57"/>
<stop offset="1" stop-color="#111A69"/>
</linearGradient>
<radialGradient id="paint5_radial_2_1241" cx="0" cy="0" r="1" gradientUnits="userSpaceOnUse" gradientTransform="translate(199.077 232.702) rotate(-150.644) scale(56.79 56.8172)">
<stop offset="0.046875" stop-color="#F0DC9B"/>
<stop offset="0.458333" stop-color="#D8A857"/>
<stop offset="0.645833" stop-color="#F0AE28"/>
<stop offset="1" stop-color="#F0AE28"/>
</radialGradient>
<radialGradient id="paint6_radial_2_1241" cx="0" cy="0" r="1" gradientUnits="userSpaceOnUse" gradientTransform="translate(126.028 78.7583) rotate(-150.644) scale(58.0889 58.1167)">
<stop stop-color="#FDF7C0"/>
<stop offset="0.0417176" stop-color="#F0DC9B"/>
<stop offset="0.0916553" stop-color="#E3C177"/>
<stop offset="0.1478" stop-color="#D8A857"/>
<stop offset="0.2099" stop-color="#CE943B"/>
<stop offset="0.2801" stop-color="#C68425"/>
<stop offset="0.3621" stop-color="#C07714"/>
<stop offset="0.4634" stop-color="#BC6E09"/>
<stop offset="0.6055" stop-color="#BA6902"/>
<stop offset="1" stop-color="#B96800"/>
</radialGradient>
<clipPath id="clip0_2_1241">
<rect width="11" height="13" fill="white" transform="translate(276 83)"/>
</clipPath>
<clipPath id="clip1_2_1241">
<rect width="11" height="13" fill="white" transform="translate(310 360)"/>
</clipPath>
<clipPath id="clip2_2_1241">
<rect width="11" height="13" fill="white" transform="translate(379 456)"/>
</clipPath>
<clipPath id="clip3_2_1241">
<rect width="118" height="116" fill="white" transform="translate(377 255)"/>
</clipPath>
<clipPath id="clip4_2_1241">
<rect width="89.975" height="87.3671" fill="white" transform="translate(377 283.633)"/>
</clipPath>
<clipPath id="clip5_2_1241">
<rect width="41.3" height="56.5316" fill="white" transform="translate(432.555 308.836)"/>
</clipPath>
<clipPath id="clip6_2_1241">
<rect width="31.4913" height="42.5776" fill="white" transform="translate(432.555 322.79)"/>
</clipPath>
<clipPath id="clip7_2_1241">
<rect width="50.9" height="50.9" fill="white" transform="translate(334 160)"/>
</clipPath>
<clipPath id="clip8_2_1241">
<rect width="30" height="30" fill="white" transform="translate(184 378)"/>
</clipPath>
<clipPath id="clip9_2_1241">
<rect width="258.67" height="207.402" fill="white" transform="translate(225.455 308.578) rotate(-150.644)"/>
</clipPath>
</defs>
</svg>
