<svg width="560" height="568" viewBox="0 0 560 568" fill="none" xmlns="http://www.w3.org/2000/svg">
<path d="M324.45 567.432C295.2 575.529 157.714 495.031 92.6277 453.77C-5.391 380.59 0.0544539 321.423 0.0544539 312.08C0.0544539 302.738 1.61031 292.618 17.1688 291.839C32.7274 291.061 68.512 322.98 73.1796 315.973C77.8471 308.966 64.6224 301.96 51.3976 274.712C38.1729 247.464 59.9548 237.343 64.6224 235.008C69.2899 232.672 64.6224 229.558 54.5093 212.431C44.3963 195.304 27.2819 143.922 51.3976 133.801C75.5134 123.681 126.079 165.72 127.634 161.049C129.19 156.378 90.294 92.5404 109.742 80.8627C129.19 69.185 158.752 101.882 165.753 108.111C172.754 114.339 180.533 112.782 180.533 108.111C180.533 103.44 174.31 84.7552 185.201 80.8627C196.092 76.9701 204.649 89.4263 207.761 84.7552C210.25 81.0184 206.724 75.9321 204.649 73.8561C197.648 62.1784 176.644 12.3538 195.314 2.23315C213.984 -7.88753 240.434 19.3604 247.435 24.81C254.436 30.2597 264.55 38.0447 264.55 24.81C264.55 14.2223 271.292 12.0943 274.663 12.3538C299.556 5.34724 336.897 51.2794 336.897 38.0447C336.897 27.4569 343.12 24.81 346.232 24.81C368.792 14.6894 410.8 44.2728 483.147 128.352C555.494 212.431 542.269 252.914 538.38 257.585C534.49 262.256 527.489 259.142 525.933 264.591C524.377 270.041 532.934 277.826 547.715 303.517C562.495 329.208 560.162 352.563 559.384 357.234C558.606 361.905 554.716 362.684 547.715 361.905C540.713 361.127 542.269 362.684 542.269 367.355C542.269 372.026 568.719 408.616 547.715 419.515C526.711 430.414 476.146 386.818 472.256 382.147C468.366 377.476 454.364 375.919 468.366 389.932C482.369 403.945 482.369 431.971 476.146 440.535C471.167 447.386 459.55 445.465 454.364 443.649C482.369 496.588 477.961 527.988 472.256 537.07C438.65 570.079 359.716 495.29 324.45 453.77L304.224 467.004C323.153 497.107 353.7 559.336 324.45 567.432Z" fill="url(#paint0_linear_2_1240)"/>
<circle cx="36" cy="358" r="3" fill="#5AC7FF"/>
<circle cx="272" cy="69" r="3" fill="#5AC7FF"/>
<circle cx="226" cy="105" r="3" fill="#5AC7FF"/>
<circle cx="126" cy="322" r="3" fill="#F0AE28"/>
<circle cx="224" cy="319" r="3" fill="#5AC7FF"/>
<g clip-path="url(#clip0_2_1240)">
<path d="M449 206L454.06 201.017L460 206L456.04 199.5L460 193L454.5 196.467L449 193L452.74 199.5L449 206Z" fill="#5AC7FF"/>
</g>
<g clip-path="url(#clip1_2_1240)">
<path d="M274 199L279.06 194.017L285 199L281.04 192.5L285 186L279.5 189.467L274 186L277.74 192.5L274 199Z" fill="#5AC7FF"/>
</g>
<g clip-path="url(#clip2_2_1240)">
<path d="M176 426L181.06 421.017L187 426L183.04 419.5L187 413L181.5 416.467L176 413L179.74 419.5L176 426Z" fill="#F0AE28"/>
</g>
<g clip-path="url(#clip3_2_1240)">
<path d="M129 186L134.06 181.017L140 186L136.04 179.5L140 173L134.5 176.467L129 173L132.74 179.5L129 186Z" fill="#F0AE28"/>
</g>
<g clip-path="url(#clip4_2_1240)">
<path d="M397 105L402.06 100.017L408 105L404.04 98.5L408 92L402.5 95.4667L397 92L400.74 98.5L397 105Z" fill="#F0AE28"/>
</g>
<g clip-path="url(#clip5_2_1240)">
<path d="M367 49C367 49 314.437 114.449 308.004 117.154C301.486 119.86 294.461 115.04 298.016 108.783C301.571 102.526 367 49 367 49Z" fill="#322AB3" fill-opacity="0.5"/>
<g clip-path="url(#clip6_2_1240)">
<path d="M350.375 66.0317C350.375 66.0317 310.227 115.344 305.311 117.423C300.394 119.501 294.893 115.806 297.702 111.186C300.511 106.567 350.375 66.0317 350.375 66.0317Z" fill="url(#paint1_linear_2_1240)"/>
</g>
</g>
<g clip-path="url(#clip7_2_1240)">
<path d="M356 142L361.06 137.017L367 142L363.04 135.5L367 129L361.5 132.467L356 129L359.74 135.5L356 142Z" fill="#F0AE28"/>
</g>
<g clip-path="url(#clip8_2_1240)">
<path d="M360 109C360 109 334.469 140.301 331.345 141.596C328.179 142.89 324.767 140.585 326.493 137.592C328.22 134.599 360 109 360 109Z" fill="#322AB3" fill-opacity="0.5"/>
<g clip-path="url(#clip9_2_1240)">
<path d="M351.925 117.146C351.925 117.146 332.424 140.73 330.037 141.724C327.649 142.718 324.977 140.951 326.341 138.741C327.706 136.532 351.925 117.146 351.925 117.146Z" fill="url(#paint2_linear_2_1240)"/>
</g>
</g>
<g clip-path="url(#clip10_2_1240)">
<path opacity="0.85" d="M90.5639 419.872C72.6499 419.872 58.1277 405.35 58.1277 387.436C58.1277 369.522 72.6499 355 90.5639 355C108.478 355 123 369.522 123 387.436C123 405.35 108.478 419.872 90.5639 419.872Z" fill="url(#paint3_linear_2_1240)"/>
</g>
<g clip-path="url(#clip11_2_1240)">
<path d="M262.31 217.157C262.31 217.157 245.784 232.198 254.865 249.676C263.945 267.154 284.698 264.641 284.698 264.641C284.698 264.641 276.716 277.794 259.754 277.794C242.805 277.982 235.525 262.079 233.149 257.528C230.96 252.964 221.905 224.559 262.31 217.157Z" fill="url(#paint4_linear_2_1240)"/>
<path d="M178.746 281.12C180.134 287.809 200.548 291.535 212.97 285.621C225.392 279.707 264.647 255.052 264.647 255.052C264.647 255.052 265.247 249.926 261.883 244.687C258.518 239.449 252.989 238.499 252.989 238.499C252.989 238.499 208.657 252.002 200.788 255.54C192.92 259.078 175.807 268.13 178.746 281.12Z" fill="url(#paint5_linear_2_1240)"/>
<path d="M205.265 268.993C208.067 274.269 216.385 280.307 216.022 283.345C215.847 286.371 205.351 292.91 187.176 288.847C169.001 284.784 178.946 269.993 181.961 267.155C184.976 264.317 197.423 253.127 202.364 253.74C207.305 254.352 205.265 268.993 205.265 268.993Z" fill="url(#paint6_linear_2_1240)"/>
<path d="M256.667 239.949C256.667 239.949 294.032 218.057 353.826 215.956C413.619 213.855 460.501 235.784 497.764 251.949C535.028 268.114 539.193 276.878 539.193 276.878C539.193 276.878 532.813 277.303 511.586 269.865C490.359 262.426 427.653 226.482 353.75 231.784C279.846 237.086 264.647 255.052 264.647 255.052C264.647 255.052 266.211 247.413 256.667 239.949Z" fill="url(#paint7_linear_2_1240)"/>
<path d="M209.168 279.47C214.246 279.131 218.088 274.743 217.749 269.668C217.411 264.593 213.021 260.753 207.943 261.091C202.865 261.43 199.023 265.818 199.361 270.893C199.699 275.968 204.09 279.808 209.168 279.47Z" fill="url(#paint8_radial_2_1240)"/>
</g>
<g clip-path="url(#clip12_2_1240)">
<circle cx="382" cy="328" r="3" fill="#5AC7FF"/>
<circle cx="352" cy="413" r="3" fill="#5AC7FF"/>
<path opacity="0.85" d="M379.273 539.454C302.656 539.454 240.546 477.344 240.546 400.727C240.546 324.11 302.656 262 379.273 262C455.89 262 518 324.11 518 400.727C518 477.344 455.89 539.454 379.273 539.454Z" fill="url(#paint9_linear_2_1240)"/>
<g clip-path="url(#clip13_2_1240)">
<path d="M297 368L302.06 363.017L308 368L304.04 361.5L308 355L302.5 358.467L297 355L300.74 361.5L297 368Z" fill="#F0AE28"/>
</g>
</g>
<defs>
<linearGradient id="paint0_linear_2_1240" x1="280" y1="0" x2="280" y2="764.5" gradientUnits="userSpaceOnUse">
<stop stop-color="#111A69"/>
<stop offset="1" stop-color="#4C1A57"/>
</linearGradient>
<linearGradient id="paint1_linear_2_1240" x1="323.657" y1="66.0317" x2="323.657" y2="118.016" gradientUnits="userSpaceOnUse">
<stop stop-color="#F8E995"/>
<stop offset="0.458333" stop-color="#F0AE28"/>
<stop offset="0.998135" stop-color="#F08828"/>
</linearGradient>
<linearGradient id="paint2_linear_2_1240" x1="338.948" y1="117.146" x2="338.948" y2="142.008" gradientUnits="userSpaceOnUse">
<stop stop-color="#F8E995"/>
<stop offset="0.458333" stop-color="#F0AE28"/>
<stop offset="0.998135" stop-color="#F08828"/>
</linearGradient>
<linearGradient id="paint3_linear_2_1240" x1="59.9633" y1="398.611" x2="121.049" y2="376.377" gradientUnits="userSpaceOnUse">
<stop stop-color="#E9DD00"/>
<stop offset="0.2201" stop-color="#FFB53F"/>
<stop offset="0.5421" stop-color="#D46400"/>
<stop offset="0.8467" stop-color="#4C1A57"/>
<stop offset="1" stop-color="#111A69"/>
</linearGradient>
<linearGradient id="paint4_linear_2_1240" x1="230.943" y1="249.529" x2="283.509" y2="246.025" gradientUnits="userSpaceOnUse">
<stop stop-color="white"/>
<stop offset="0.3432" stop-color="#EAEFF1"/>
<stop offset="0.7036" stop-color="#DBE4E7"/>
<stop offset="1" stop-color="#D6E0E4"/>
</linearGradient>
<linearGradient id="paint5_linear_2_1240" x1="177.606" y1="266.827" x2="265.284" y2="260.984" gradientUnits="userSpaceOnUse">
<stop stop-color="white"/>
<stop offset="1" stop-color="#D6E0E4"/>
</linearGradient>
<linearGradient id="paint6_linear_2_1240" x1="176.175" y1="273.664" x2="215.335" y2="271.054" gradientUnits="userSpaceOnUse">
<stop stop-color="#4C1A57"/>
<stop offset="1" stop-color="#FFB077"/>
</linearGradient>
<linearGradient id="paint7_linear_2_1240" x1="257.971" y1="258.959" x2="536.784" y2="240.378" gradientUnits="userSpaceOnUse">
<stop stop-color="#FF7D15"/>
<stop offset="0.0147885" stop-color="#F89A0F"/>
<stop offset="0.0336674" stop-color="#F2B708"/>
<stop offset="0.0523592" stop-color="#EDCC04"/>
<stop offset="0.0705864" stop-color="#EAD901"/>
<stop offset="0.0878188" stop-color="#E9DD00"/>
<stop offset="0.2954" stop-color="#FFB53F"/>
<stop offset="0.5421" stop-color="#D46400"/>
<stop offset="1" stop-color="#111A69" stop-opacity="0.2"/>
</linearGradient>
<radialGradient id="paint8_radial_2_1240" cx="0" cy="0" r="1" gradientUnits="userSpaceOnUse" gradientTransform="translate(208.544 270.333) rotate(-3.8127) scale(9.16697 9.16209)">
<stop stop-color="white"/>
<stop offset="1" stop-color="#D6E0E4"/>
</radialGradient>
<linearGradient id="paint9_linear_2_1240" x1="248.397" y1="448.519" x2="509.655" y2="353.429" gradientUnits="userSpaceOnUse">
<stop offset="0.1203" stop-color="#F6A931"/>
<stop offset="0.4722" stop-color="#D46400"/>
<stop offset="0.7824" stop-color="#4C1A57"/>
<stop offset="1" stop-color="#111A69"/>
</linearGradient>
<clipPath id="clip0_2_1240">
<rect width="11" height="13" fill="white" transform="translate(449 193)"/>
</clipPath>
<clipPath id="clip1_2_1240">
<rect width="11" height="13" fill="white" transform="translate(274 186)"/>
</clipPath>
<clipPath id="clip2_2_1240">
<rect width="11" height="13" fill="white" transform="translate(176 413)"/>
</clipPath>
<clipPath id="clip3_2_1240">
<rect width="11" height="13" fill="white" transform="translate(129 173)"/>
</clipPath>
<clipPath id="clip4_2_1240">
<rect width="11" height="13" fill="white" transform="translate(397 92)"/>
</clipPath>
<clipPath id="clip5_2_1240">
<rect width="70" height="69" fill="white" transform="translate(297 49)"/>
</clipPath>
<clipPath id="clip6_2_1240">
<rect width="53.375" height="51.9684" fill="white" transform="translate(297 66.0317)"/>
</clipPath>
<clipPath id="clip7_2_1240">
<rect width="11" height="13" fill="white" transform="translate(356 129)"/>
</clipPath>
<clipPath id="clip8_2_1240">
<rect width="34" height="33" fill="white" transform="translate(326 109)"/>
</clipPath>
<clipPath id="clip9_2_1240">
<rect width="25.925" height="24.8544" fill="white" transform="translate(326 117.146)"/>
</clipPath>
<clipPath id="clip10_2_1240">
<rect width="65" height="65" fill="white" transform="matrix(-1 0 0 1 123 355)"/>
</clipPath>
<clipPath id="clip11_2_1240">
<rect width="362" height="78" fill="white" transform="translate(172.807 223.122) rotate(-3.8127)"/>
</clipPath>
<clipPath id="clip12_2_1240">
<rect width="278" height="278" fill="white" transform="matrix(-1 0 0 1 518 262)"/>
</clipPath>
<clipPath id="clip13_2_1240">
<rect width="11" height="13" fill="white" transform="translate(297 355)"/>
</clipPath>
</defs>
</svg>
