<svg width="702" height="602" viewBox="0 0 702 602" fill="none" xmlns="http://www.w3.org/2000/svg">
<path fill-rule="evenodd" clip-rule="evenodd" d="M447.842 503.101C444.249 501.996 440.693 500.902 437.182 499.822C388.857 484.955 348.881 472.657 336.192 469.894C311.154 464.442 269.63 474.439 230.523 484.75C206.29 466.128 188.726 448.465 176 432.361C201.986 421.62 225.622 414 241.692 414C289.692 414 493.692 445.723 521.192 469.894C531.409 478.874 563.299 484.518 601.399 486.825C615.873 516.666 619.654 538.989 619.14 553.634C584.592 544.518 538.76 530.874 493.878 517.204C483.62 507.006 474.445 496.981 467.142 488.383L446.916 501.617C447.221 502.103 447.53 502.598 447.842 503.101Z" fill="#111A69"/>
<path d="M466.45 601.432C437.2 609.529 299.714 529.031 234.628 487.77C136.609 414.59 142.054 355.423 142.054 346.08C142.054 336.738 143.61 326.618 159.169 325.839C174.727 325.061 210.512 356.98 215.18 349.973C219.847 342.966 206.622 335.96 193.398 308.712C180.173 281.464 201.955 271.343 206.622 269.008C211.29 266.672 206.622 263.558 196.509 246.431C186.396 229.304 169.282 177.922 193.398 167.801C217.513 157.681 268.079 199.72 269.634 195.049C271.19 190.378 232.294 126.54 251.742 114.863C271.19 103.185 300.752 135.882 307.753 142.111C314.754 148.339 322.533 146.782 322.533 142.111C322.533 137.44 316.31 118.755 327.201 114.863C338.092 110.97 346.649 123.426 349.761 118.755C352.25 115.018 348.724 109.932 346.649 107.856C339.648 96.1784 318.644 46.3538 337.314 36.2332C355.984 26.1125 382.434 53.3604 389.435 58.81C396.436 64.2597 406.55 72.0447 406.55 58.81C406.55 48.2223 413.292 46.0943 416.663 46.3538C441.556 39.3472 478.897 85.2794 478.897 72.0447C478.897 61.4569 485.12 58.81 488.232 58.81C510.792 48.6894 552.8 78.2728 625.147 162.352C697.494 246.431 684.269 286.914 680.38 291.585C676.49 296.256 669.489 293.142 667.933 298.591C666.377 304.041 674.934 311.826 689.715 337.517C704.495 363.208 702.162 386.563 701.384 391.234C700.606 395.905 696.716 396.684 689.715 395.905C682.713 395.127 684.269 396.684 684.269 401.355C684.269 406.026 710.719 442.616 689.715 453.515C668.711 464.414 618.146 420.818 614.256 416.147C610.366 411.476 596.364 409.919 610.366 423.932C624.369 437.945 624.369 465.971 618.146 474.535C613.167 481.386 601.55 479.465 596.364 477.649C624.369 530.588 619.961 561.988 614.256 571.07C580.65 604.079 501.716 529.29 466.45 487.77L446.224 501.004C465.153 531.107 495.7 593.336 466.45 601.432Z" fill="#4C1A57" fill-opacity="0.962003"/>
<path d="M493.53 435.778C502.188 435.778 509.207 428.759 509.207 420.101C509.207 411.443 502.188 404.425 493.53 404.425C484.872 404.425 477.854 411.443 477.854 420.101C477.854 428.759 484.872 435.778 493.53 435.778Z" fill="white" fill-opacity="0.5"/>
<path d="M42.361 431.261C51.019 431.261 58.0377 424.242 58.0377 415.584C58.0377 406.926 51.019 399.907 42.361 399.907C33.703 399.907 26.6843 406.926 26.6843 415.584C26.6843 424.242 33.703 431.261 42.361 431.261Z" fill="white" fill-opacity="0.5"/>
<path d="M6.22477 31.6385C14.8828 31.6385 21.9014 24.6198 21.9014 15.9618C21.9014 7.30382 14.8828 0.285156 6.22477 0.285156C-2.43322 0.285156 -9.4519 7.30382 -9.4519 15.9618C-9.4519 24.6198 -2.43322 31.6385 6.22477 31.6385Z" fill="white" fill-opacity="0.5"/>
<g clip-path="url(#clip0_2_1238)">
<path d="M590.498 143C590.498 143 421.921 352.765 401.29 361.437C380.387 370.109 357.856 354.662 369.257 334.607C380.659 314.552 590.498 143 590.498 143Z" fill="#4C1A57" fill-opacity="0.5"/>
<g clip-path="url(#clip1_2_1238)">
<path d="M537.18 197.587C537.18 197.587 408.42 355.634 392.653 362.296C376.887 368.959 359.243 357.115 368.252 342.309C377.262 327.504 537.18 197.587 537.18 197.587Z" fill="url(#paint0_linear_2_1238)" fill-opacity="0.8"/>
<g clip-path="url(#clip2_2_1238)">
<path d="M391 211L396.06 206.017L402 211L398.04 204.5L402 198L396.5 201.467L391 198L394.74 204.5L391 211Z" fill="#F0AE28"/>
</g>
</g>
<g clip-path="url(#clip3_2_1238)">
<path d="M597.199 208.897C597.199 208.897 551.91 265.047 546.367 267.368C540.752 269.689 534.698 265.554 537.762 260.186C540.825 254.818 597.199 208.897 597.199 208.897Z" fill="#4C1A57" fill-opacity="0.5"/>
<g clip-path="url(#clip4_2_1238)">
<path d="M582.875 223.509C582.875 223.509 548.283 265.815 544.047 267.598C539.811 269.382 535.071 266.211 537.492 262.248C539.912 258.285 582.875 223.509 582.875 223.509Z" fill="url(#paint1_linear_2_1238)" fill-opacity="0.8"/>
</g>
</g>
<g clip-path="url(#clip5_2_1238)">
<path d="M577 364L582.06 359.017L588 364L584.04 357.5L588 351L582.5 354.467L577 351L580.74 357.5L577 364Z" fill="#5AC7FF"/>
</g>
</g>
<circle cx="387" cy="439" r="3" fill="#F0AE28"/>
<g clip-path="url(#clip6_2_1238)">
<path d="M289 377L294.06 372.017L300 377L296.04 370.5L300 364L294.5 367.467L289 364L292.74 370.5L289 377Z" fill="#5AC7FF"/>
</g>
<circle cx="411" cy="549" r="3" fill="#F0AE28"/>
<circle cx="494" cy="140" r="3" fill="#F0AE28"/>
<circle cx="211" cy="423" r="3" fill="#F0AE28"/>
<g clip-path="url(#clip7_2_1238)">
<path opacity="0.85" d="M241.762 336.525C308.457 336.525 362.525 282.457 362.525 215.762C362.525 149.067 308.457 95 241.762 95C175.067 95 121 149.067 121 215.762C121 282.457 175.067 336.525 241.762 336.525Z" fill="url(#paint2_linear_2_1238)"/>
</g>
<defs>
<linearGradient id="paint0_linear_2_1238" x1="451.494" y1="197.587" x2="451.494" y2="364.198" gradientUnits="userSpaceOnUse">
<stop stop-color="#F8E995"/>
<stop offset="0.458333" stop-color="#F0AE28"/>
<stop offset="0.998135" stop-color="#F08828"/>
</linearGradient>
<linearGradient id="paint1_linear_2_1238" x1="559.855" y1="223.509" x2="559.855" y2="268.107" gradientUnits="userSpaceOnUse">
<stop stop-color="#F8E995"/>
<stop offset="0.458333" stop-color="#F0AE28"/>
<stop offset="0.998135" stop-color="#F08828"/>
</linearGradient>
<linearGradient id="paint2_linear_2_1238" x1="355.691" y1="257.366" x2="128.265" y2="174.589" gradientUnits="userSpaceOnUse">
<stop stop-color="#E9DD00"/>
<stop offset="0.2201" stop-color="#FFB53F"/>
<stop offset="0.5421" stop-color="#D46400"/>
<stop offset="0.8467" stop-color="#4C1A57"/>
<stop offset="1" stop-color="#111A69"/>
</linearGradient>
<clipPath id="clip0_2_1238">
<rect width="224.498" height="221.147" fill="white" transform="translate(366 143)"/>
</clipPath>
<clipPath id="clip1_2_1238">
<rect width="171.18" height="166.56" fill="white" transform="translate(366 197.587)"/>
</clipPath>
<clipPath id="clip2_2_1238">
<rect width="11" height="13" fill="white" transform="translate(391 198)"/>
</clipPath>
<clipPath id="clip3_2_1238">
<rect width="60.3129" height="59.196" fill="white" transform="translate(536.886 208.897)"/>
</clipPath>
<clipPath id="clip4_2_1238">
<rect width="45.9886" height="44.5843" fill="white" transform="translate(536.886 223.509)"/>
</clipPath>
<clipPath id="clip5_2_1238">
<rect width="11" height="13" fill="white" transform="translate(577 351)"/>
</clipPath>
<clipPath id="clip6_2_1238">
<rect width="11" height="13" fill="white" transform="translate(289 364)"/>
</clipPath>
<clipPath id="clip7_2_1238">
<rect width="242" height="242" fill="white" transform="translate(121 95)"/>
</clipPath>
</defs>
</svg>
