<svg width="643" height="544" viewBox="0 0 643 544" fill="none" xmlns="http://www.w3.org/2000/svg">
<path fill-rule="evenodd" clip-rule="evenodd" d="M22.8087 199C17.8645 211.869 15.6968 223.482 18.3335 231.917C17.3643 234.097 17.8973 240.2 27.7829 247.176C30.961 249.419 30.5811 252.719 28.3001 257.015C28.2807 257.46 28.2186 257.902 28.1132 258.342C26.4577 265.253 21.9653 271.182 15.1549 276.063C7.48614 287.305 -0.075786 301.276 0.888379 317.661C-0.565353 323.474 -1.29219 335.682 7.43033 338.007C11.3628 339.056 11.0403 343.602 9.53202 349.633C16.212 351.361 24.0153 353.398 32.7475 355.678C44.5154 358.75 57.9702 362.262 72.6357 366.051C73.9231 364.969 75.2066 363.856 76.4838 362.714C95.1731 345.997 88.5711 357.225 82.3468 367.81C82.2199 368.026 82.0932 368.242 81.9669 368.457C127.743 380.232 183.666 394.217 236.598 405.886C243.064 400.334 244.666 401.804 243.403 407.377C304.96 420.778 361.655 430.747 392.492 430.05C408.836 429.681 428.688 426.922 450.016 422.733C474.235 397.492 496.574 366.967 511.884 331.468C514.323 326.848 517.102 320.934 519.545 314.659C481.365 328.091 440.227 337.756 404.7 335.278C344.492 331.241 165.345 258.146 22.8087 199Z" fill="url(#paint0_linear_2_1243)"/>
<path d="M18.3335 231.866C9.61093 203.963 53.4659 141.277 76.4838 113.422C119.37 50.7752 185.516 22.5911 193.511 22.5911C201.507 22.5911 208.049 26.951 208.049 32.7641C208.049 37.4147 211.441 37.6085 213.137 37.124C235.67 16.7779 258.203 10.9647 266.926 10.9647C275.648 10.9647 279.283 19.6845 278.556 25.4977C277.974 30.1482 282.19 29.8577 284.371 29.1311C300.12 13.1448 334.962 -13.4506 348.336 8.05822C365.055 34.9442 319.988 73.4567 324.349 80.7233C328.711 87.9899 341.068 74.91 353.424 80.7233C363.31 85.3739 362.874 99.1318 361.42 105.429L361.646 105.263C372.884 97.0239 413.82 67.0107 423.205 80.7233C432.654 94.5296 423.932 118.509 413.755 135.222C405.614 148.592 410.363 150.482 413.755 149.755C444.575 119.526 471.179 123.111 480.628 128.682C500.254 171.554 461.729 207.887 461.003 220.24C460.421 230.122 469.967 232.109 474.813 231.866C493.712 249.306 462.456 287.818 469.725 293.631C476.994 299.445 495.893 268.925 517.699 274.012C535.144 278.081 521.091 313.978 511.884 331.417C459.549 452.768 325.076 515.986 314.173 508.72C303.27 501.453 310.539 484.014 314.173 468.027C317.807 452.041 304.724 473.84 293.094 489.1C281.464 504.36 234.943 532.699 214.591 529.792C194.238 526.886 205.868 508.72 208.776 489.1C211.683 469.481 282.19 349.583 214.591 429.515C146.991 509.446 101.198 513.08 85.9332 508.72C70.6687 504.36 72.8493 487.647 80.845 461.487C88.8407 435.328 101.924 419.342 101.198 414.982C100.471 410.622 82.2988 414.255 76.4838 407.715C70.6688 401.176 76.4838 384.463 76.4838 379.376C76.4838 374.29 104.105 337.957 76.4838 362.663C48.8624 387.369 18.3335 398.269 7.43033 384.463C-3.47282 370.656 18.3335 340.864 7.43033 337.957C-1.29219 335.632 -0.565353 323.424 0.888379 317.611C-1.29226 280.552 40.1398 255.846 27.7829 247.126C17.8973 240.15 17.3643 234.046 18.3335 231.866Z" fill="url(#paint1_linear_2_1243)"/>
<g clip-path="url(#clip0_2_1243)">
<path opacity="0.85" d="M349.47 355.939C358.013 355.939 364.939 349.013 364.939 340.47C364.939 331.926 358.013 325 349.47 325C340.926 325 334 331.926 334 340.47C334 349.013 340.926 355.939 349.47 355.939Z" fill="url(#paint2_linear_2_1243)"/>
</g>
<path d="M306.163 304.579C293.91 301.7 281.722 314.069 277.16 320.614C248.156 320.614 258.259 365.773 277.16 370.354C292.28 374.019 302.795 361.192 306.163 354.32C311.92 357.919 326.498 365.249 338.751 365.773C354.067 366.427 362.214 347.448 373.62 347.448C385.025 347.448 390.891 357.919 411.421 357.919C431.952 357.919 436.188 349.084 444.987 347.448C452.026 346.139 461.824 353.883 465.843 357.919C473.121 362.719 490.154 371.925 500.06 370.354C509.967 368.783 518.092 361.41 520.917 357.919C528.52 359.337 547.639 361.322 563.281 357.919C582.833 353.665 578.597 338.285 574.687 328.795C570.776 319.305 556.111 314.724 543.728 314.724C531.345 314.724 523.849 320.614 510.814 314.724C497.779 308.834 490.61 304.579 476.923 304.579C463.236 304.579 462.91 314.724 450.527 311.779C438.143 308.834 433.907 290.181 415.658 292.144C397.409 294.108 393.172 304.579 386.003 304.579C378.834 304.579 368.405 295.09 358.303 299.344C348.201 303.598 342.987 315.706 332.233 314.724C321.479 313.742 321.479 308.179 306.163 304.579Z" fill="#FBFEFF" fill-opacity="0.05"/>
<path d="M121.691 43.7959C96.5703 37.8907 71.5833 63.2562 62.2299 76.677C2.76884 76.677 23.48 169.281 62.2299 178.676C93.2298 186.191 114.787 159.887 121.691 145.795C133.494 153.176 163.381 168.207 188.501 169.281C219.902 170.623 236.604 131.703 259.988 131.703C283.372 131.703 295.397 153.176 337.488 153.176C379.578 153.176 388.264 135.058 406.302 131.703C420.733 129.018 440.821 144.9 449.061 153.176C463.982 163.018 498.901 181.897 519.212 178.676C539.522 175.455 556.18 160.334 561.97 153.176C577.559 156.084 616.754 160.155 648.823 153.176C688.909 144.453 680.224 112.913 672.207 93.4531C664.19 73.9929 634.125 64.5982 608.737 64.5982C583.349 64.5982 567.983 76.677 541.259 64.5982C514.535 52.5194 499.837 43.7959 471.776 43.7959C443.716 43.7959 443.048 64.5982 417.66 58.5588C392.272 52.5195 383.587 14.2699 346.173 18.2962C308.759 22.3225 300.074 43.7959 285.376 43.7959C270.678 43.7959 249.298 24.3356 228.587 33.0591C207.876 41.7827 197.186 66.6113 175.139 64.5982C153.092 62.5851 153.092 51.1774 121.691 43.7959Z" fill="#FBFEFF" fill-opacity="0.05"/>
<path d="M252 122.901C252 122.901 267.857 143.661 285.362 128.396C302.867 113.132 280.214 94 280.214 94C280.214 94 284.127 110.282 277.536 116.388C270.946 122.494 252 122.901 252 122.901Z" fill="url(#paint3_linear_2_1243)"/>
<path d="M237.456 161.444C240.566 161.444 243.088 158.923 243.088 155.813C243.088 152.702 240.566 150.181 237.456 150.181C234.346 150.181 231.824 152.702 231.824 155.813C231.824 158.923 234.346 161.444 237.456 161.444Z" fill="white"/>
<path d="M190.64 126.247C192.779 126.247 194.512 124.513 194.512 122.375C194.512 120.237 192.779 118.503 190.64 118.503C188.502 118.503 186.768 120.237 186.768 122.375C186.768 124.513 188.502 126.247 190.64 126.247Z" fill="white"/>
<path d="M179.728 114.632C181.283 114.632 182.544 113.371 182.544 111.816C182.544 110.261 181.283 109 179.728 109C178.173 109 176.912 110.261 176.912 111.816C176.912 113.371 178.173 114.632 179.728 114.632Z" fill="white"/>
<path d="M125.52 162.852C127.464 162.852 129.04 161.276 129.04 159.332C129.04 157.388 127.464 155.812 125.52 155.812C123.576 155.812 122 157.388 122 159.332C122 161.276 123.576 162.852 125.52 162.852Z" fill="white"/>
<path d="M156.144 185.378C157.505 185.378 158.608 184.275 158.608 182.915C158.608 181.554 157.505 180.451 156.144 180.451C154.783 180.451 153.68 181.554 153.68 182.915C153.68 184.275 154.783 185.378 156.144 185.378Z" fill="white"/>
<path d="M389.872 239.934C393.177 239.934 395.856 237.255 395.856 233.951C395.856 230.646 393.177 227.967 389.872 227.967C386.567 227.967 383.888 230.646 383.888 233.951C383.888 237.255 386.567 239.934 389.872 239.934Z" fill="white"/>
<path d="M336.72 282.875C338.275 282.875 339.536 281.615 339.536 280.059C339.536 278.504 338.275 277.244 336.72 277.244C335.165 277.244 333.904 278.504 333.904 280.059C333.904 281.615 335.165 282.875 336.72 282.875Z" fill="white"/>
<path d="M220.12 453.895C221.87 453.895 223.288 452.476 223.288 450.727C223.288 448.977 221.87 447.559 220.12 447.559C218.371 447.559 216.952 448.977 216.952 450.727C216.952 452.476 218.371 453.895 220.12 453.895Z" fill="white"/>
<path d="M415.128 470.438C417.266 470.438 419 468.704 419 466.566C419 464.428 417.266 462.694 415.128 462.694C412.989 462.694 411.256 464.428 411.256 466.566C411.256 468.704 412.989 470.438 415.128 470.438Z" fill="white"/>
<path d="M386.968 544C388.718 544 390.136 542.582 390.136 540.832C390.136 539.083 388.718 537.665 386.968 537.665C385.218 537.665 383.8 539.083 383.8 540.832C383.8 542.582 385.218 544 386.968 544Z" fill="white"/>
<path d="M372.184 527.457C375.1 527.457 377.464 525.093 377.464 522.178C377.464 519.262 375.1 516.898 372.184 516.898C369.268 516.898 366.904 519.262 366.904 522.178C366.904 525.093 369.268 527.457 372.184 527.457Z" fill="white"/>
<path d="M334.608 128.711C336.358 128.711 337.776 127.292 337.776 125.543C337.776 123.793 336.358 122.375 334.608 122.375C332.858 122.375 331.44 123.793 331.44 125.543C331.44 127.292 332.858 128.711 334.608 128.711Z" fill="white"/>
<path d="M236.576 99L235.52 102.872H232L235.168 105.336L236.576 109.207L239.04 105.336L242.56 104.28L238.688 103.224L236.576 99Z" fill="white"/>
<defs>
<linearGradient id="paint0_linear_2_1243" x1="263" y1="0.051114" x2="263" y2="889.05" gradientUnits="userSpaceOnUse">
<stop stop-color="#001E76"/>
<stop offset="0.45493" stop-color="#4C1A57" stop-opacity="0.962003"/>
<stop offset="1" stop-color="#4C1A57" stop-opacity="0.9"/>
</linearGradient>
<linearGradient id="paint1_linear_2_1243" x1="263" y1="0" x2="263" y2="889" gradientUnits="userSpaceOnUse">
<stop stop-color="#001E76"/>
<stop offset="0.45493" stop-color="#4C1A57" stop-opacity="0.962003"/>
<stop offset="1" stop-color="#4C1A57" stop-opacity="0.9"/>
</linearGradient>
<linearGradient id="paint2_linear_2_1243" x1="364.064" y1="345.799" x2="334.931" y2="335.195" gradientUnits="userSpaceOnUse">
<stop stop-color="#E9DD00"/>
<stop offset="0.2201" stop-color="#FFB53F"/>
<stop offset="0.5421" stop-color="#D46400"/>
<stop offset="0.8467" stop-color="#4C1A57"/>
<stop offset="1" stop-color="#111A69"/>
</linearGradient>
<linearGradient id="paint3_linear_2_1243" x1="291.256" y1="120.043" x2="257.644" y2="107.664" gradientUnits="userSpaceOnUse">
<stop stop-color="white"/>
<stop offset="0.5324" stop-color="#F2CB45"/>
<stop offset="0.9299" stop-color="#E29B45"/>
<stop offset="1" stop-color="#E26F45"/>
</linearGradient>
<clipPath id="clip0_2_1243">
<rect width="31" height="31" fill="white" transform="translate(334 325)"/>
</clipPath>
</defs>
</svg>
