<svg width="585" height="530" viewBox="0 0 585 530" fill="none" xmlns="http://www.w3.org/2000/svg">
<path d="M18.3335 231.866C9.61093 203.963 53.4659 141.277 76.4838 113.422C119.37 50.7752 185.516 22.5911 193.511 22.5911C201.507 22.5911 208.049 26.951 208.049 32.7641C208.049 37.4147 211.441 37.6085 213.137 37.124C235.67 16.7779 258.203 10.9647 266.926 10.9647C275.648 10.9647 279.283 19.6845 278.556 25.4977C277.974 30.1482 282.19 29.8577 284.371 29.1311C300.12 13.1448 334.962 -13.4506 348.336 8.05822C365.055 34.9442 319.988 73.4567 324.349 80.7233C328.711 87.9899 341.068 74.91 353.424 80.7233C363.31 85.3739 362.874 99.1318 361.42 105.429L361.646 105.263C372.884 97.0239 413.82 67.0107 423.205 80.7233C432.654 94.5296 423.932 118.509 413.755 135.222C405.614 148.592 410.363 150.482 413.755 149.755C444.575 119.526 471.179 123.111 480.628 128.682C500.254 171.554 461.729 207.887 461.003 220.24C460.421 230.122 469.967 232.109 474.813 231.866C493.712 249.306 462.456 287.818 469.725 293.631C476.994 299.445 495.893 268.925 517.699 274.012C535.144 278.081 521.091 313.978 511.884 331.417C459.549 452.768 325.076 515.986 314.173 508.72C303.27 501.453 310.539 484.014 314.173 468.027C317.807 452.041 304.724 473.84 293.094 489.1C281.464 504.36 234.943 532.699 214.591 529.792C194.238 526.886 205.868 508.72 208.776 489.1C211.683 469.481 282.19 349.583 214.591 429.515C146.991 509.446 101.198 513.08 85.9332 508.72C70.6687 504.36 72.8493 487.647 80.845 461.487C88.8407 435.328 101.924 419.342 101.198 414.982C100.471 410.622 82.2988 414.255 76.4838 407.715C70.6688 401.176 76.4838 384.463 76.4838 379.376C76.4838 374.29 104.105 337.957 76.4838 362.663C48.8624 387.369 18.3335 398.269 7.43033 384.463C-3.47282 370.656 18.3335 340.864 7.43033 337.957C-1.29219 335.632 -0.565353 323.424 0.888379 317.611C-1.29226 280.552 40.1398 255.846 27.7829 247.126C17.8973 240.15 17.3643 234.046 18.3335 231.866Z" fill="url(#paint0_linear_2_1239)"/>
<circle cx="359" cy="183" r="3" fill="#F0AE28"/>
<circle cx="120" cy="291" r="3" fill="#F0AE28"/>
<circle cx="162" cy="443" r="3" fill="#F0AE28"/>
<g clip-path="url(#clip0_2_1239)">
<path d="M277 160L282.06 155.017L288 160L284.04 153.5L288 147L282.5 150.467L277 147L280.74 153.5L277 160Z" fill="#5AC7FF"/>
</g>
<g clip-path="url(#clip1_2_1239)">
<path d="M192 147C192 147 107.898 251.338 97.6057 255.652C87.1777 259.966 75.9371 252.282 81.6251 242.306C87.3131 232.331 192 147 192 147Z" fill="#322AB3" fill-opacity="0.5"/>
<g clip-path="url(#clip2_2_1239)">
<path d="M165.4 174.152C165.4 174.152 101.163 252.765 93.297 256.079C85.4312 259.393 76.629 253.502 81.1238 246.138C85.6185 238.773 165.4 174.152 165.4 174.152Z" fill="url(#paint1_linear_2_1239)"/>
</g>
</g>
<g clip-path="url(#clip3_2_1239)">
<path d="M355 0C355 0 303.938 63.5515 297.689 66.1789C291.358 68.8064 284.533 64.1262 287.987 58.0502C291.44 51.9743 355 0 355 0Z" fill="#322AB3" fill-opacity="0.5"/>
<g clip-path="url(#clip4_2_1239)">
<path d="M338.85 16.5381C338.85 16.5381 299.849 64.4209 295.073 66.4394C290.297 68.4579 284.953 64.8695 287.682 60.384C290.411 55.8985 338.85 16.5381 338.85 16.5381Z" fill="url(#paint2_linear_2_1239)"/>
</g>
</g>
<g clip-path="url(#clip5_2_1239)">
<path d="M206 275C206 275 154.938 338.551 148.689 341.179C142.358 343.806 135.533 339.126 138.987 333.05C142.44 326.974 206 275 206 275Z" fill="#322AB3" fill-opacity="0.5"/>
<g clip-path="url(#clip6_2_1239)">
<path d="M189.85 291.538C189.85 291.538 150.849 339.421 146.073 341.439C141.297 343.458 135.953 339.869 138.682 335.384C141.411 330.898 189.85 291.538 189.85 291.538Z" fill="url(#paint3_linear_2_1239)"/>
</g>
</g>
<circle cx="168" cy="105" r="3" fill="#F0AE28"/>
<circle cx="85" cy="105" r="3" fill="#F0AE28"/>
<g clip-path="url(#clip7_2_1239)">
<path d="M378.74 294.284L341.736 298.781L302.243 302.778L303.903 382.061C303.903 382.061 253.956 363.24 248.646 350.081C243.336 336.923 239.353 314.77 239.353 314.77L255.615 265.136L304.235 239.818C304.235 239.818 339.413 241.317 341.736 242.15C344.059 242.983 373.928 284.457 378.74 294.284Z" fill="url(#paint4_linear_2_1239)"/>
<path d="M341.736 298.947C341.736 298.947 337.754 266.801 310.374 244.482C282.995 222.163 230.725 209.171 207.161 220.164C207.161 220.164 198.699 260.138 229.397 302.778C260.095 345.417 303.737 345.417 303.737 345.417L341.736 298.947Z" fill="url(#paint5_linear_2_1239)" stroke="#1B255E" stroke-width="0.25" stroke-miterlimit="10"/>
<path d="M290.794 231.99C290.794 231.99 251.135 292.784 229.397 302.778C229.397 302.778 211.808 280.792 207.161 248.313L227.074 276.128C227.074 276.128 233.711 277.461 239.353 272.964C244.995 268.466 265.405 243.316 265.073 239.818C264.742 236.32 263.912 234.155 260.593 231.99C257.274 229.824 234.541 216.333 234.541 216.333C234.541 216.333 271.213 219.664 290.794 231.99Z" fill="url(#paint6_linear_2_1239)" stroke="#1B255E" stroke-width="0.1" stroke-miterlimit="10"/>
<path d="M235.703 260.138C227.272 260.138 220.437 253.278 220.437 244.815C220.437 236.352 227.272 229.491 235.703 229.491C244.134 229.491 250.969 236.352 250.969 244.815C250.969 253.278 244.134 260.138 235.703 260.138Z" fill="#43B2E8"/>
<path d="M230.725 240.485C228.983 240.485 227.572 239.068 227.572 237.32C227.572 235.572 228.983 234.155 230.725 234.155C232.466 234.155 233.877 235.572 233.877 237.32C233.877 239.068 232.466 240.485 230.725 240.485Z" fill="white"/>
<path d="M508.835 336.256C508.835 336.256 602.423 437.692 557.786 460.677C513.149 483.662 336.426 305.609 336.426 305.609L308.881 339.588C308.881 339.588 482.949 499.819 560.275 474.335C637.602 448.851 508.835 336.256 508.835 336.256Z" fill="url(#paint7_linear_2_1239)"/>
<path d="M346.549 332.925L335.929 343.252C335.929 343.252 297.431 312.938 287.309 302.278C277.187 291.618 269.72 280.459 271.379 276.795C273.039 273.13 299.588 290.286 299.588 290.286L346.549 332.925Z" fill="url(#paint8_linear_2_1239)" stroke="#1B255E" stroke-width="0.1" stroke-miterlimit="10"/>
<g clip-path="url(#clip8_2_1239)">
<path d="M331 449L336.06 444.017L342 449L338.04 442.5L342 436L336.5 439.467L331 436L334.74 442.5L331 449Z" fill="#F0AE28"/>
</g>
<circle cx="432" cy="379" r="3" fill="#F0AE28"/>
<g clip-path="url(#clip9_2_1239)">
<path d="M441 294L446.06 289.017L452 294L448.04 287.5L452 281L446.5 284.467L441 281L444.74 287.5L441 294Z" fill="#5AC7FF"/>
</g>
</g>
<defs>
<linearGradient id="paint0_linear_2_1239" x1="263" y1="0" x2="263" y2="924" gradientUnits="userSpaceOnUse">
<stop stop-color="#4C1A57" stop-opacity="0.962003"/>
<stop offset="0.944254" stop-color="#0E1F72"/>
<stop offset="1" stop-color="#0E1F72" stop-opacity="0"/>
</linearGradient>
<linearGradient id="paint1_linear_2_1239" x1="122.652" y1="174.152" x2="122.652" y2="257.025" gradientUnits="userSpaceOnUse">
<stop stop-color="#F8E995"/>
<stop offset="0.458333" stop-color="#F0AE28"/>
<stop offset="0.998135" stop-color="#F08828"/>
</linearGradient>
<linearGradient id="paint2_linear_2_1239" x1="312.896" y1="16.5381" x2="312.896" y2="67.0156" gradientUnits="userSpaceOnUse">
<stop stop-color="#F8E995"/>
<stop offset="0.458333" stop-color="#F0AE28"/>
<stop offset="0.998135" stop-color="#F08828"/>
</linearGradient>
<linearGradient id="paint3_linear_2_1239" x1="163.896" y1="291.538" x2="163.896" y2="342.016" gradientUnits="userSpaceOnUse">
<stop stop-color="#F8E995"/>
<stop offset="0.458333" stop-color="#F0AE28"/>
<stop offset="0.998135" stop-color="#F08828"/>
</linearGradient>
<linearGradient id="paint4_linear_2_1239" x1="378.799" y1="311.038" x2="239.454" y2="311.038" gradientUnits="userSpaceOnUse">
<stop stop-color="#4FC9FB"/>
<stop offset="1" stop-color="white"/>
</linearGradient>
<linearGradient id="paint5_linear_2_1239" x1="341.779" y1="280.825" x2="206.235" y2="280.825" gradientUnits="userSpaceOnUse">
<stop stop-color="#4FC9FB"/>
<stop offset="0.0576132" stop-color="#5ECEFB"/>
<stop offset="0.2995" stop-color="#97DFFD"/>
<stop offset="0.5232" stop-color="#C4EDFE"/>
<stop offset="0.7216" stop-color="#E4F7FE"/>
<stop offset="0.8873" stop-color="#F8FDFF"/>
<stop offset="1" stop-color="white"/>
</linearGradient>
<linearGradient id="paint6_linear_2_1239" x1="290.84" y1="259.581" x2="207.252" y2="259.581" gradientUnits="userSpaceOnUse">
<stop stop-color="#4FC9FB"/>
<stop offset="1" stop-color="#43B2E8"/>
</linearGradient>
<linearGradient id="paint7_linear_2_1239" x1="585" y1="391.306" x2="308.768" y2="391.306" gradientUnits="userSpaceOnUse">
<stop stop-color="white"/>
<stop offset="0.5324" stop-color="#F2CB45"/>
<stop offset="0.9299" stop-color="#E29B45"/>
<stop offset="1" stop-color="#E26F45"/>
</linearGradient>
<linearGradient id="paint8_linear_2_1239" x1="346.498" y1="309.668" x2="271.038" y2="309.668" gradientUnits="userSpaceOnUse">
<stop stop-color="#4FC9FB"/>
<stop offset="0.1073" stop-color="#74D4FC"/>
<stop offset="0.2502" stop-color="#9EE1FD"/>
<stop offset="0.396" stop-color="#C1ECFE"/>
<stop offset="0.5428" stop-color="#DCF4FE"/>
<stop offset="0.6913" stop-color="#F0FAFF"/>
<stop offset="0.8424" stop-color="#FBFEFF"/>
<stop offset="1" stop-color="white"/>
</linearGradient>
<clipPath id="clip0_2_1239">
<rect width="11" height="13" fill="white" transform="translate(277 147)"/>
</clipPath>
<clipPath id="clip1_2_1239">
<rect width="112" height="110" fill="white" transform="translate(80 147)"/>
</clipPath>
<clipPath id="clip2_2_1239">
<rect width="85.4" height="82.8481" fill="white" transform="translate(80 174.152)"/>
</clipPath>
<clipPath id="clip3_2_1239">
<rect width="68" height="67" fill="white" transform="translate(287)"/>
</clipPath>
<clipPath id="clip4_2_1239">
<rect width="51.85" height="50.462" fill="white" transform="translate(287 16.5381)"/>
</clipPath>
<clipPath id="clip5_2_1239">
<rect width="68" height="67" fill="white" transform="translate(138 275)"/>
</clipPath>
<clipPath id="clip6_2_1239">
<rect width="51.85" height="50.462" fill="white" transform="translate(138 291.538)"/>
</clipPath>
<clipPath id="clip7_2_1239">
<rect width="379" height="261" fill="white" transform="matrix(-1 0 0 1 585 216)"/>
</clipPath>
<clipPath id="clip8_2_1239">
<rect width="11" height="13" fill="white" transform="translate(331 436)"/>
</clipPath>
<clipPath id="clip9_2_1239">
<rect width="11" height="13" fill="white" transform="translate(441 281)"/>
</clipPath>
</defs>
</svg>
