<svg width="1440" height="1402" viewBox="0 0 1440 1402" fill="none" xmlns="http://www.w3.org/2000/svg">
<path d="M232.395 478.919C181.618 504.614 54.9748 525.805 -2 533.189V1152.86C65.3676 1157.29 131.622 1198.27 179.503 1212.66C227.384 1227.06 305.886 1276.9 442.292 1276.9C578.697 1276.9 700.627 1255.3 767.995 1255.3C835.362 1255.3 973.438 1305.14 1114.85 1302.93C1227.99 1301.16 1378.76 1284.84 1440 1276.9V473.381C1418.84 475.966 1364.61 479.584 1316.96 473.381C1257.38 465.629 1210.06 410.805 1189.46 393.085C1168.86 375.364 1086.46 337.708 998.492 336.047C910.524 334.385 845.384 377.579 799.73 393.085C754.076 408.59 644.951 416.897 601.524 416.897C558.097 416.897 477.368 399.73 423.362 401.392C369.357 403.053 295.865 446.801 232.395 478.919Z" fill="url(#paint0_linear_2_1244)"/>
<path d="M14.3624 746.221C-4.43755 741.821 -23.1376 760.721 -30.1376 770.721C-74.6376 770.721 -59.1376 839.721 -30.1376 846.721C-6.93755 852.321 9.19579 832.721 14.3624 822.221C23.1958 827.721 45.5625 838.921 64.3624 839.721C87.8625 840.721 100.362 811.721 117.862 811.721C135.362 811.721 144.362 827.721 175.862 827.721C207.362 827.721 213.862 814.221 227.362 811.721C238.162 809.721 253.196 821.554 259.362 827.721C270.529 835.054 296.662 849.121 311.862 846.721C327.062 844.321 339.529 833.054 343.862 827.721C355.529 829.887 384.862 832.921 408.862 827.721C438.862 821.221 432.362 797.721 426.362 783.221C420.362 768.721 397.862 761.721 378.862 761.721C359.862 761.721 348.362 770.721 328.362 761.721C308.362 752.721 297.362 746.221 276.362 746.221C255.362 746.221 254.862 761.721 235.862 757.221C216.862 752.721 210.362 724.221 182.362 727.221C154.362 730.221 147.862 746.221 136.862 746.221C125.862 746.221 109.862 731.721 94.3624 738.221C78.8624 744.721 70.8625 763.221 54.3624 761.721C37.8624 760.221 37.8624 751.721 14.3624 746.221Z" fill="#FBFEFF" fill-opacity="0.1"/>
<path d="M907.761 404C907.761 404 857.777 475.803 843.697 469.115C829.617 462.78 907.761 404 907.761 404Z" fill="url(#paint1_linear_2_1244)"/>
<g clip-path="url(#clip0_2_1244)">
<path d="M541 500C541 500 420.855 649.868 406.151 656.064C391.254 662.26 375.196 651.223 383.322 636.895C391.447 622.566 541 500 541 500Z" fill="#322AB3" fill-opacity="0.5"/>
<g clip-path="url(#clip1_2_1244)">
<path d="M503 539C503 539 411.232 651.918 399.996 656.678C388.759 661.438 376.184 652.976 382.605 642.398C389.026 631.82 503 539 503 539Z" fill="url(#paint2_linear_2_1244)"/>
</g>
</g>
<circle cx="1353" cy="1005" r="3" fill="#5AC7FF"/>
<circle cx="65" cy="689" r="3" fill="#F0AE28"/>
<circle cx="121" cy="1052" r="3" fill="#F0AE28"/>
<circle cx="419" cy="528" r="3" fill="#F0AE28"/>
<circle cx="1053" cy="576" r="3" fill="#F0AE28"/>
<circle cx="1319" cy="1228" r="3" fill="#F0AE28"/>
<circle cx="971" cy="1049" r="3" fill="#F0AE28"/>
<g clip-path="url(#clip2_2_1244)">
<path d="M264 595L269.06 590.017L275 595L271.04 588.5L275 582L269.5 585.467L264 582L267.74 588.5L264 595Z" fill="#5AC7FF"/>
</g>
<g clip-path="url(#clip3_2_1244)">
<path d="M455 1139L460.06 1134.02L466 1139L462.04 1132.5L466 1126L460.5 1129.47L455 1126L458.74 1132.5L455 1139Z" fill="#5AC7FF"/>
</g>
<g clip-path="url(#clip4_2_1244)">
<path d="M1285 1027C1285 1027 1134.07 1214.81 1115.6 1222.57C1096.88 1230.34 1076.71 1216.51 1086.92 1198.55C1097.12 1180.6 1285 1027 1285 1027Z" fill="#4C1A57" fill-opacity="0.5"/>
<g clip-path="url(#clip5_2_1244)">
<path d="M1237.26 1075.87C1237.26 1075.87 1121.98 1217.38 1107.86 1223.34C1093.75 1229.31 1077.95 1218.7 1086.02 1205.45C1094.08 1192.19 1237.26 1075.87 1237.26 1075.87Z" fill="url(#paint3_linear_2_1244)" fill-opacity="0.8"/>
</g>
<g clip-path="url(#clip6_2_1244)">
<path d="M1291 1086C1291 1086 1250.45 1136.27 1245.49 1138.35C1240.46 1140.43 1235.04 1136.73 1237.78 1131.92C1240.53 1127.11 1291 1086 1291 1086Z" fill="#4C1A57" fill-opacity="0.5"/>
<g clip-path="url(#clip7_2_1244)">
<path d="M1278.17 1099.08C1278.17 1099.08 1247.2 1136.96 1243.41 1138.56C1239.62 1140.15 1235.37 1137.31 1237.54 1133.77C1239.71 1130.22 1278.17 1099.08 1278.17 1099.08Z" fill="url(#paint4_linear_2_1244)" fill-opacity="0.8"/>
</g>
</g>
</g>
<path d="M885 826C1021.97 826 1133 714.743 1133 577.5C1133 440.257 1021.97 329 885 329C748.033 329 637 440.257 637 577.5C637 714.743 748.033 826 885 826Z" stroke="white" stroke-opacity="0.5" stroke-miterlimit="10"/>
<g clip-path="url(#clip8_2_1244)">
<path d="M935 1065C935 1065 883.187 1129.5 876.846 1132.17C870.422 1134.83 863.497 1130.08 867.001 1123.92C870.505 1117.75 935 1065 935 1065Z" fill="#322AB3" fill-opacity="0.5"/>
<g clip-path="url(#clip9_2_1244)">
<path d="M918.613 1081.78C918.613 1081.78 879.038 1130.38 874.192 1132.43C869.346 1134.48 863.923 1130.84 866.692 1126.29C869.461 1121.73 918.613 1081.78 918.613 1081.78Z" fill="url(#paint5_linear_2_1244)"/>
</g>
</g>
<g clip-path="url(#clip10_2_1244)">
<path d="M556 423C556 423 471.898 527.338 461.606 531.652C451.178 535.966 439.937 528.282 445.625 518.306C451.313 508.331 556 423 556 423Z" fill="#322AB3" fill-opacity="0.5"/>
<g clip-path="url(#clip11_2_1244)">
<path d="M529.4 450.152C529.4 450.152 465.163 528.766 457.297 532.079C449.431 535.393 440.629 529.502 445.124 522.138C449.618 514.773 529.4 450.152 529.4 450.152Z" fill="url(#paint6_linear_2_1244)"/>
</g>
</g>
<path d="M885 904C1066.7 904 1214 756.702 1214 575C1214 393.298 1066.7 246 885 246C703.298 246 556 393.298 556 575C556 756.702 703.298 904 885 904Z" stroke="white" stroke-opacity="0.5" stroke-miterlimit="10"/>
<path d="M877 1004C1113.93 1004 1306 811.706 1306 574.5C1306 337.294 1113.93 145 877 145C640.07 145 448 337.294 448 574.5C448 811.706 640.07 1004 877 1004Z" stroke="white" stroke-opacity="0.5" stroke-miterlimit="10"/>
<path d="M1203.5 523C1213.16 523 1221 515.165 1221 505.5C1221 495.835 1213.16 488 1203.5 488C1193.84 488 1186 495.835 1186 505.5C1186 515.165 1193.84 523 1203.5 523Z" fill="white" fill-opacity="0.5"/>
<path d="M877 1139C1191.25 1139 1446 884.25 1446 570C1446 255.75 1191.25 1 877 1C562.75 1 308 255.75 308 570C308 884.25 562.75 1139 877 1139Z" stroke="white" stroke-opacity="0.5" stroke-miterlimit="10"/>
<path d="M1301.65 665.296C1314.71 665.296 1325.3 654.708 1325.3 641.648C1325.3 628.587 1314.71 618 1301.65 618C1288.59 618 1278 628.587 1278 641.648C1278 654.708 1288.59 665.296 1301.65 665.296Z" fill="white" fill-opacity="0.5"/>
<path d="M827.039 1298.4C835.697 1298.4 842.716 1291.38 842.716 1282.72C842.716 1274.06 835.697 1267.04 827.039 1267.04C818.381 1267.04 811.363 1274.06 811.363 1282.72C811.363 1291.38 818.381 1298.4 827.039 1298.4Z" fill="white" fill-opacity="0.5"/>
<g clip-path="url(#clip12_2_1244)">
<path opacity="0.85" d="M1183.4 575.794C1212.33 575.794 1235.79 552.335 1235.79 523.397C1235.79 494.459 1212.33 471 1183.4 471C1154.46 471 1131 494.459 1131 523.397C1131 552.335 1154.46 575.794 1183.4 575.794Z" fill="url(#paint7_linear_2_1244)"/>
</g>
<path d="M3.14491 910.299C-25.4711 903.592 -53.9349 932.402 -64.5898 947.646C-132.324 947.646 -108.732 1052.83 -64.5898 1063.5C-29.2764 1072.03 -4.71942 1042.16 3.14491 1026.15C16.5904 1034.53 50.6353 1051.61 79.2513 1052.83C115.021 1054.35 134.048 1010.14 160.685 1010.14C187.322 1010.14 201.022 1034.53 248.969 1034.53C296.916 1034.53 306.809 1013.95 327.358 1010.14C343.797 1007.1 366.68 1025.13 376.066 1034.53C393.063 1045.71 432.842 1067.15 455.978 1063.5C479.114 1059.84 498.09 1042.66 504.686 1034.53C522.444 1037.84 567.093 1042.46 603.624 1034.53C649.288 1024.63 639.394 988.803 630.262 966.7C621.129 944.597 586.881 933.926 557.961 933.926C529.04 933.926 511.536 947.646 481.093 933.926C450.651 920.207 433.907 910.299 401.942 910.299C369.978 910.299 369.217 933.926 340.296 927.067C311.376 920.207 301.482 876.763 258.862 881.336C216.243 885.909 206.349 910.299 189.606 910.299C172.862 910.299 148.508 888.196 124.915 898.104C101.322 908.012 89.1451 936.213 64.03 933.926C38.9149 931.64 38.9149 918.683 3.14491 910.299Z" fill="#FBFEFF" fill-opacity="0.1"/>
<path d="M172.315 1153.97C151.189 1150.54 130.176 1165.26 122.31 1173.05C72.3041 1173.05 89.7217 1226.78 122.31 1232.23C148.38 1236.59 166.509 1221.33 172.315 1213.15C182.241 1217.44 207.375 1226.16 228.501 1226.78C254.908 1227.56 268.955 1204.98 288.62 1204.98C308.285 1204.98 318.398 1217.44 353.796 1217.44C389.193 1217.44 396.497 1206.92 411.667 1204.98C423.803 1203.42 440.697 1212.63 447.626 1217.44C460.174 1223.15 489.541 1234.1 506.621 1232.23C523.702 1230.36 537.711 1221.59 542.58 1217.44C555.69 1219.12 588.653 1221.48 615.622 1217.44C649.334 1212.37 642.029 1194.07 635.287 1182.78C628.545 1171.49 603.261 1166.04 581.91 1166.04C560.56 1166.04 547.637 1173.05 525.163 1166.04C502.688 1159.03 490.327 1153.97 466.729 1153.97C443.131 1153.97 442.569 1166.04 421.219 1162.53C399.868 1159.03 392.564 1136.84 361.1 1139.17C329.636 1141.51 322.331 1153.97 309.971 1153.97C297.61 1153.97 279.63 1142.68 262.213 1147.74C244.795 1152.8 235.805 1167.21 217.264 1166.04C198.722 1164.87 198.722 1158.25 172.315 1153.97Z" fill="#FBFEFF" fill-opacity="0.05"/>
<path d="M1230.16 1158.58C1217.91 1155.7 1205.72 1168.07 1201.16 1174.61C1172.16 1174.61 1182.26 1219.77 1201.16 1224.35C1216.28 1228.02 1226.8 1215.19 1230.16 1208.32C1235.92 1211.92 1250.5 1219.25 1262.75 1219.77C1278.07 1220.43 1286.21 1201.45 1297.62 1201.45C1309.03 1201.45 1314.89 1211.92 1335.42 1211.92C1355.95 1211.92 1360.19 1203.08 1368.99 1201.45C1376.03 1200.14 1385.82 1207.88 1389.84 1211.92C1397.12 1216.72 1414.15 1225.92 1424.06 1224.35C1433.97 1222.78 1442.09 1215.41 1444.92 1211.92C1452.52 1213.34 1471.64 1215.32 1487.28 1211.92C1506.83 1207.67 1502.6 1192.28 1498.69 1182.8C1494.78 1173.31 1480.11 1168.72 1467.73 1168.72C1455.34 1168.72 1447.85 1174.61 1434.81 1168.72C1421.78 1162.83 1414.61 1158.58 1400.92 1158.58C1387.24 1158.58 1386.91 1168.72 1374.53 1165.78C1362.14 1162.83 1357.91 1144.18 1339.66 1146.14C1321.41 1148.11 1317.17 1158.58 1310 1158.58C1302.83 1158.58 1292.41 1149.09 1282.3 1153.34C1272.2 1157.6 1266.99 1169.71 1256.23 1168.72C1245.48 1167.74 1245.48 1162.18 1230.16 1158.58Z" fill="#FBFEFF" fill-opacity="0.05"/>
<path d="M214.293 928.783L215.659 918L217.707 928.783L230 930.804L217.707 932.826V949L214.293 932.826L202 930.804L214.293 928.783Z" fill="white"/>
<path d="M210.829 1069.87L211.366 1065L212.171 1069.87L217 1070.78L212.171 1071.7V1079L210.829 1071.7L206 1070.78L210.829 1069.87Z" fill="white"/>
<path d="M284.341 1129.3L285.268 1122L286.659 1129.3L295 1130.67L286.659 1132.04V1143L284.341 1132.04L276 1130.67L284.341 1129.3Z" fill="white"/>
<path d="M405.341 1216.65L406.268 1209L407.659 1216.65L416 1218.09L407.659 1219.52V1231L405.341 1219.52L397 1218.09L405.341 1216.65Z" fill="white"/>
<path d="M346.512 1235.52L346.902 1231L347.488 1235.52L351 1236.37L347.488 1237.22V1244L346.512 1237.22L343 1236.37L346.512 1235.52Z" fill="white"/>
<path d="M159.293 1018.78L160.659 1008L162.707 1018.78L175 1020.8L162.707 1022.83V1039L159.293 1022.83L147 1020.8L159.293 1018.78Z" fill="white"/>
<path d="M395.293 1073.78L396.659 1063L398.707 1073.78L411 1075.8L398.707 1077.83V1094L395.293 1077.83L383 1075.8L395.293 1073.78Z" fill="white"/>
<circle cx="382" cy="1205" r="1" fill="#D9D9D9"/>
<circle cx="435.5" cy="1132.5" r="1.5" fill="#D9D9D9"/>
<path d="M1033.76 659.391L1035.95 642L1039.24 659.391L1059 662.652L1039.24 665.913V692L1033.76 665.913L1014 662.652L1033.76 659.391Z" fill="white"/>
<path d="M1028.46 889.304L1029.29 882L1030.54 889.304L1038 890.674L1030.54 892.043V903L1028.46 892.043L1021 890.674L1028.46 889.304Z" fill="white"/>
<path d="M1147.17 985.174L1148.63 973L1150.83 985.174L1164 987.457L1150.83 989.739V1008L1147.17 989.739L1134 987.457L1147.17 985.174Z" fill="white"/>
<path d="M1343.17 1126.17L1344.63 1114L1346.83 1126.17L1360 1128.46L1346.83 1130.74V1149L1343.17 1130.74L1330 1128.46L1343.17 1126.17Z" fill="white"/>
<path d="M1248.71 1156.65L1249.34 1149L1250.29 1156.65L1256 1158.09L1250.29 1159.52V1171L1248.71 1159.52L1243 1158.09L1248.71 1156.65Z" fill="white"/>
<path d="M944.756 805.391L946.951 788L950.244 805.391L970 808.652L950.244 811.913V838L944.756 811.913L925 808.652L944.756 805.391Z" fill="white"/>
<path d="M1327.76 894.391L1329.95 877L1333.24 894.391L1353 897.652L1333.24 900.913V927L1327.76 900.913L1308 897.652L1327.76 894.391Z" fill="white"/>
<circle cx="1306" cy="1108" r="2" fill="#D9D9D9"/>
<ellipse cx="1393" cy="990.5" rx="2" ry="2.5" fill="#D9D9D9"/>
<path d="M757 1167L758 1159L759.5 1167L768.5 1168.5L759.5 1170V1182L757 1170L748 1168.5L757 1167Z" fill="white"/>
<path d="M754.512 1272.48L754.902 1269L755.488 1272.48L759 1273.13L755.488 1273.78V1279L754.512 1273.78L751 1273.13L754.512 1272.48Z" fill="white"/>
<path d="M809.146 1316.57L809.829 1311L810.854 1316.57L817 1317.61L810.854 1318.65V1327L809.146 1318.65L803 1317.61L809.146 1316.57Z" fill="white"/>
<path d="M899.146 1381.57L899.829 1376L900.854 1381.57L907 1382.61L900.854 1383.65V1392L899.146 1383.65L893 1382.61L899.146 1381.57Z" fill="white"/>
<path d="M855.634 1395.48L855.927 1392L856.366 1395.48L859 1396.13L856.366 1396.78V1402L855.634 1396.78L853 1396.13L855.634 1395.48Z" fill="white"/>
<path d="M716 1234L717 1226L718.5 1234L727.5 1235.5L718.5 1237V1249L716 1237L707 1235.5L716 1234Z" fill="white"/>
<path d="M892 1275L893 1267L894.5 1275L903.5 1276.5L894.5 1278V1290L892 1278L883 1276.5L892 1275Z" fill="white"/>
<circle cx="882" cy="1373" r="1" fill="#D9D9D9"/>
<circle cx="922" cy="1319" r="1" fill="#D9D9D9"/>
<path fill-rule="evenodd" clip-rule="evenodd" d="M1327.83 1287.58C1281.13 1264.93 1229.48 1241.39 1201.21 1241.39C1161.4 1241.39 1014.34 1263.18 949.502 1284.4C994.479 1292.65 1043.32 1299.62 1093.06 1300.82C1098.99 1299.15 1103.6 1297.94 1106.65 1297.28C1120.32 1294.3 1138.92 1295.93 1159.35 1299.7C1214.91 1297.43 1275.24 1292.63 1327.83 1287.58ZM258 1240.33C303.782 1257.53 364.134 1274.9 444.671 1274.9C492.57 1274.9 538.683 1272.24 581.276 1268.78C484.746 1245.25 337.172 1222.63 258 1240.33Z" fill="#111A69"/>
<path d="M1075.37 365C1075.37 365 890.213 575.128 872.965 569.849C855.717 564.921 1075.37 365 1075.37 365Z" fill="url(#paint8_linear_2_1244)"/>
<path d="M1024.4 550C1024.4 550 961.388 635.178 948.364 630.25C934.988 625.322 1024.4 550 1024.4 550Z" fill="url(#paint9_linear_2_1244)"/>
<path d="M907 424C907 424 854.898 493.873 844.128 489.831C833.067 485.789 907 424 907 424Z" fill="url(#paint10_linear_2_1244)"/>
<path d="M1119.4 618C1119.4 618 1110.6 644.398 1098.63 641.582C1086.66 638.766 1119.4 618 1119.4 618Z" fill="url(#paint11_linear_2_1244)"/>
<defs>
<linearGradient id="paint0_linear_2_1244" x1="719" y1="336" x2="719" y2="2329.5" gradientUnits="userSpaceOnUse">
<stop stop-color="#4C1A57" stop-opacity="0.962003"/>
<stop offset="0.527398" stop-color="#0C1E72"/>
<stop offset="1" stop-color="#0C1E72" stop-opacity="0"/>
</linearGradient>
<linearGradient id="paint1_linear_2_1244" x1="893.596" y1="443.061" x2="855.228" y2="429.095" gradientUnits="userSpaceOnUse">
<stop stop-color="white"/>
<stop offset="0.5324" stop-color="#F2CB45"/>
<stop offset="0.9299" stop-color="#E29B45"/>
<stop offset="1" stop-color="#E26F45"/>
</linearGradient>
<linearGradient id="paint2_linear_2_1244" x1="441.931" y1="539" x2="441.931" y2="658.036" gradientUnits="userSpaceOnUse">
<stop stop-color="#F8E995"/>
<stop offset="0.458333" stop-color="#F0AE28"/>
<stop offset="0.998135" stop-color="#F08828"/>
</linearGradient>
<linearGradient id="paint3_linear_2_1244" x1="1160.55" y1="1075.87" x2="1160.55" y2="1225.05" gradientUnits="userSpaceOnUse">
<stop stop-color="#F8E995"/>
<stop offset="0.458333" stop-color="#F0AE28"/>
<stop offset="0.998135" stop-color="#F08828"/>
</linearGradient>
<linearGradient id="paint4_linear_2_1244" x1="1257.56" y1="1099.08" x2="1257.56" y2="1139.01" gradientUnits="userSpaceOnUse">
<stop stop-color="#F8E995"/>
<stop offset="0.458333" stop-color="#F0AE28"/>
<stop offset="0.998135" stop-color="#F08828"/>
</linearGradient>
<linearGradient id="paint5_linear_2_1244" x1="892.277" y1="1081.78" x2="892.277" y2="1133.02" gradientUnits="userSpaceOnUse">
<stop stop-color="#F8E995"/>
<stop offset="0.458333" stop-color="#F0AE28"/>
<stop offset="0.998135" stop-color="#F08828"/>
</linearGradient>
<linearGradient id="paint6_linear_2_1244" x1="486.652" y1="450.152" x2="486.652" y2="533.025" gradientUnits="userSpaceOnUse">
<stop stop-color="#F8E995"/>
<stop offset="0.458333" stop-color="#F0AE28"/>
<stop offset="0.998135" stop-color="#F08828"/>
</linearGradient>
<linearGradient id="paint7_linear_2_1244" x1="1232.83" y1="541.448" x2="1134.15" y2="505.533" gradientUnits="userSpaceOnUse">
<stop stop-color="#E9DD00"/>
<stop offset="0.2201" stop-color="#FFB53F"/>
<stop offset="0.5421" stop-color="#D46400"/>
<stop offset="0.8467" stop-color="#4C1A57"/>
<stop offset="1" stop-color="#111A69"/>
</linearGradient>
<linearGradient id="paint8_linear_2_1244" x1="1030.52" y1="488.123" x2="916.224" y2="446.519" gradientUnits="userSpaceOnUse">
<stop stop-color="white"/>
<stop offset="0.5324" stop-color="#F2CB45"/>
<stop offset="0.9299" stop-color="#E29B45"/>
<stop offset="1" stop-color="#E26F45"/>
</linearGradient>
<linearGradient id="paint9_linear_2_1244" x1="1006.89" y1="597.796" x2="963.404" y2="581.967" gradientUnits="userSpaceOnUse">
<stop stop-color="white"/>
<stop offset="0.5324" stop-color="#F2CB45"/>
<stop offset="0.9299" stop-color="#E29B45"/>
<stop offset="1" stop-color="#E26F45"/>
</linearGradient>
<linearGradient id="paint10_linear_2_1244" x1="892.523" y1="463.208" x2="856.632" y2="450.039" gradientUnits="userSpaceOnUse">
<stop stop-color="white"/>
<stop offset="0.5324" stop-color="#F2CB45"/>
<stop offset="0.9299" stop-color="#E29B45"/>
<stop offset="1" stop-color="#E26F45"/>
</linearGradient>
<linearGradient id="paint11_linear_2_1244" x1="1114.54" y1="631.754" x2="1100.54" y2="626.656" gradientUnits="userSpaceOnUse">
<stop stop-color="white"/>
<stop offset="0.5324" stop-color="#F2CB45"/>
<stop offset="0.9299" stop-color="#E29B45"/>
<stop offset="1" stop-color="#E26F45"/>
</linearGradient>
<clipPath id="clip0_2_1244">
<rect width="160" height="158" fill="white" transform="translate(381 500)"/>
</clipPath>
<clipPath id="clip1_2_1244">
<rect width="122" height="119" fill="white" transform="translate(381 539)"/>
</clipPath>
<clipPath id="clip2_2_1244">
<rect width="11" height="13" fill="white" transform="translate(264 582)"/>
</clipPath>
<clipPath id="clip3_2_1244">
<rect width="11" height="13" fill="white" transform="translate(455 1126)"/>
</clipPath>
<clipPath id="clip4_2_1244">
<rect width="201" height="198" fill="white" transform="translate(1084 1027)"/>
</clipPath>
<clipPath id="clip5_2_1244">
<rect width="153.262" height="149.127" fill="white" transform="translate(1084 1075.87)"/>
</clipPath>
<clipPath id="clip6_2_1244">
<rect width="54" height="53" fill="white" transform="translate(1237 1086)"/>
</clipPath>
<clipPath id="clip7_2_1244">
<rect width="41.175" height="39.9177" fill="white" transform="translate(1237 1099.08)"/>
</clipPath>
<clipPath id="clip8_2_1244">
<rect width="69" height="68" fill="white" transform="translate(866 1065)"/>
</clipPath>
<clipPath id="clip9_2_1244">
<rect width="52.6125" height="51.2152" fill="white" transform="translate(866 1081.78)"/>
</clipPath>
<clipPath id="clip10_2_1244">
<rect width="112" height="110" fill="white" transform="translate(444 423)"/>
</clipPath>
<clipPath id="clip11_2_1244">
<rect width="85.4" height="82.8481" fill="white" transform="translate(444 450.152)"/>
</clipPath>
<clipPath id="clip12_2_1244">
<rect width="105" height="105" fill="white" transform="translate(1131 471)"/>
</clipPath>
</defs>
</svg>
