<svg width="680" height="568" viewBox="0 0 680 568" fill="none" xmlns="http://www.w3.org/2000/svg">
<path d="M444.45 567.432C415.2 575.529 277.714 495.031 212.628 453.77C114.609 380.59 120.054 321.423 120.054 312.08C120.054 302.738 121.61 292.618 137.169 291.839C152.727 291.061 188.512 322.98 193.18 315.973C197.847 308.966 184.622 301.96 171.398 274.712C158.173 247.464 179.955 237.343 184.622 235.008C189.29 232.672 184.622 229.558 174.509 212.431C164.396 195.304 147.282 143.922 171.398 133.801C195.513 123.681 246.079 165.72 247.634 161.049C249.19 156.378 210.294 92.5404 229.742 80.8627C249.19 69.185 278.752 101.882 285.753 108.111C292.754 114.339 300.533 112.782 300.533 108.111C300.533 103.44 294.31 84.7552 305.201 80.8627C316.092 76.9701 324.649 89.4263 327.761 84.7552C330.25 81.0184 326.724 75.9321 324.649 73.8561C317.648 62.1784 296.644 12.3538 315.314 2.23315C333.984 -7.88753 360.434 19.3604 367.435 24.81C374.436 30.2597 384.55 38.0447 384.55 24.81C384.55 14.2223 391.292 12.0943 394.663 12.3538C419.556 5.34724 456.897 51.2794 456.897 38.0447C456.897 27.4569 463.12 24.81 466.232 24.81C488.792 14.6894 530.8 44.2728 603.147 128.352C675.494 212.431 662.269 252.914 658.38 257.585C654.49 262.256 647.489 259.142 645.933 264.591C644.377 270.041 652.934 277.826 667.715 303.517C682.495 329.208 680.162 352.563 679.384 357.234C678.606 361.905 674.716 362.684 667.715 361.905C660.713 361.127 662.269 362.684 662.269 367.355C662.269 372.026 688.719 408.616 667.715 419.515C646.711 430.414 596.146 386.818 592.256 382.147C588.366 377.476 574.364 375.919 588.366 389.932C602.369 403.945 602.369 431.971 596.146 440.535C591.167 447.386 579.55 445.465 574.364 443.649C602.369 496.588 597.961 527.988 592.256 537.07C558.65 570.079 479.716 495.29 444.45 453.77L424.224 467.004C443.153 497.107 473.7 559.336 444.45 567.432Z" fill="url(#paint0_linear_2_1242)"/>
<circle cx="361" cy="244" r="3" fill="#F0AE28"/>
<circle cx="619" cy="309" r="3" fill="#F0AE28"/>
<circle cx="247" cy="202" r="3" fill="#F0AE28"/>
<circle cx="540" cy="145" r="3" fill="#5AC7FF"/>
<circle cx="599" cy="202" r="3" fill="#5AC7FF"/>
<circle cx="520" cy="367" r="3" fill="#5AC7FF"/>
<circle cx="632" cy="330" r="3" fill="#5AC7FF"/>
<circle cx="382" cy="347" r="3" fill="#F0AE28"/>
<g clip-path="url(#clip0_2_1242)">
<path d="M523 333L528.06 328.017L534 333L530.04 326.5L534 320L528.5 323.467L523 320L526.74 326.5L523 333Z" fill="#F0AE28"/>
</g>
<g clip-path="url(#clip1_2_1242)">
<path d="M534 205L539.06 200.017L545 205L541.04 198.5L545 192L539.5 195.467L534 192L537.74 198.5L534 205Z" fill="#F0AE28"/>
</g>
<g clip-path="url(#clip2_2_1242)">
<path d="M449 82L454.06 77.0167L460 82L456.04 75.5L460 69L454.5 72.4667L449 69L452.74 75.5L449 82Z" fill="#5AC7FF"/>
</g>
<g clip-path="url(#clip3_2_1242)">
<path d="M305 185L310.06 180.017L316 185L312.04 178.5L316 172L310.5 175.467L305 172L308.74 178.5L305 185Z" fill="#F0AE28"/>
</g>
<g clip-path="url(#clip4_2_1242)">
<path opacity="0.85" d="M449.4 343.8C463.428 343.8 474.8 332.428 474.8 318.4C474.8 304.372 463.428 293 449.4 293C435.372 293 424 304.372 424 318.4C424 332.428 435.372 343.8 449.4 343.8Z" fill="url(#paint1_linear_2_1242)"/>
</g>
<path opacity="0.85" d="M399.5 212C427.943 212 451 189.614 451 162C451 134.386 427.943 112 399.5 112C371.057 112 348 134.386 348 162C348 189.614 371.057 212 399.5 212Z" fill="url(#paint2_linear_2_1242)"/>
<path d="M211.5 386C192.7 381.6 174 400.5 167 410.5C122.5 410.5 138 479.5 167 486.5C190.2 492.1 206.333 472.5 211.5 462C220.333 467.5 242.7 478.7 261.5 479.5C285 480.5 297.5 451.5 315 451.5C332.5 451.5 341.5 467.5 373 467.5C404.5 467.5 411 454 424.5 451.5C435.3 449.5 450.333 461.333 456.5 467.5C467.667 474.833 493.8 488.9 509 486.5C524.2 484.1 536.667 472.833 541 467.5C552.667 469.667 582 472.7 606 467.5C636 461 629.5 437.5 623.5 423C617.5 408.5 595 401.5 576 401.5C557 401.5 545.5 410.5 525.5 401.5C505.5 392.5 494.5 386 473.5 386C452.5 386 452 401.5 433 397C414 392.5 407.5 364 379.5 367C351.5 370 345 386 334 386C323 386 307 371.5 291.5 378C276 384.5 268 403 251.5 401.5C235 400 235 391.5 211.5 386Z" fill="#FBFEFF" fill-opacity="0.1"/>
<path d="M47.1627 305.579C34.9097 302.7 22.7218 315.069 18.1595 321.614C-10.8436 321.614 -0.741407 366.773 18.1595 371.354C33.2803 375.019 43.7953 362.192 47.1627 355.32C52.9199 358.919 67.4975 366.249 79.7506 366.773C95.0668 367.427 103.214 348.448 114.62 348.448C126.025 348.448 131.891 358.919 152.421 358.919C172.952 358.919 177.188 350.084 185.987 348.448C193.026 347.139 202.824 354.883 206.843 358.919C214.121 363.719 231.154 372.925 241.06 371.354C250.967 369.783 259.092 362.41 261.917 358.919C269.52 360.337 288.639 362.322 304.281 358.919C323.833 354.665 319.597 339.285 315.687 329.795C311.776 320.305 297.111 315.724 284.728 315.724C272.345 315.724 264.85 321.614 251.814 315.724C238.779 309.834 231.61 305.579 217.923 305.579C204.236 305.579 203.91 315.724 191.527 312.779C179.143 309.834 174.907 291.181 156.658 293.144C138.409 295.108 134.172 305.579 127.003 305.579C119.834 305.579 109.405 296.09 99.3033 300.344C89.201 304.598 83.987 316.706 73.233 315.724C62.479 314.742 62.479 309.179 47.1627 305.579Z" fill="#FBFEFF" fill-opacity="0.1"/>
<path d="M256 278L257 270L258.5 278L267.5 279.5L258.5 281V293L256 281L247 279.5L256 278Z" fill="white"/>
<path d="M453 424L454 416L455.5 424L464.5 425.5L455.5 427V439L453 427L444 425.5L453 424Z" fill="white"/>
<path d="M253.512 383.478L253.902 380L254.488 383.478L258 384.13L254.488 384.783V390L253.512 384.783L250 384.13L253.512 383.478Z" fill="white"/>
<path d="M308.146 427.565L308.829 422L309.854 427.565L316 428.609L309.854 429.652V438L308.146 429.652L302 428.609L308.146 427.565Z" fill="white"/>
<path d="M426.146 375.565L426.829 370L427.854 375.565L434 376.609L427.854 377.652V386L426.146 377.652L420 376.609L426.146 375.565Z" fill="white"/>
<path d="M398.146 492.565L398.829 487L399.854 492.565L406 493.609L399.854 494.652V503L398.146 494.652L392 493.609L398.146 492.565Z" fill="white"/>
<path d="M354.634 506.478L354.927 503L355.366 506.478L358 507.13L355.366 507.783V513L354.634 507.783L352 507.13L354.634 506.478Z" fill="white"/>
<path d="M280.634 302.478L280.927 299L281.366 302.478L284 303.13L281.366 303.783V309L280.634 303.783L278 303.13L280.634 302.478Z" fill="white"/>
<path d="M215 345L216 337L217.5 345L226.5 346.5L217.5 348V360L215 348L206 346.5L215 345Z" fill="white"/>
<path d="M391 386L392 378L393.5 386L402.5 387.5L393.5 389V401L391 389L382 387.5L391 386Z" fill="white"/>
<circle cx="381" cy="484" r="1" fill="#D9D9D9"/>
<circle cx="421" cy="533" r="1" fill="#D9D9D9"/>
<circle cx="237" cy="429" r="1" fill="#D9D9D9"/>
<circle cx="410" cy="422" r="1" fill="#D9D9D9"/>
<circle cx="421" cy="430" r="1" fill="#D9D9D9"/>
<circle cx="414" cy="441" r="1" fill="#D9D9D9"/>
<circle cx="401" cy="538" r="1" fill="#D9D9D9"/>
<circle cx="285" cy="439" r="1" fill="#D9D9D9"/>
<circle cx="412" cy="523" r="1" fill="#D9D9D9"/>
<circle cx="266" cy="458" r="1" fill="#D9D9D9"/>
<defs>
<linearGradient id="paint0_linear_2_1242" x1="400" y1="4.40739e-07" x2="415" y2="945.5" gradientUnits="userSpaceOnUse">
<stop stop-color="#4C1A57"/>
<stop offset="1" stop-color="#001E76"/>
</linearGradient>
<linearGradient id="paint1_linear_2_1242" x1="473.363" y1="327.15" x2="425.528" y2="309.74" gradientUnits="userSpaceOnUse">
<stop stop-color="#E9DD00"/>
<stop offset="0.2201" stop-color="#FFB53F"/>
<stop offset="0.5421" stop-color="#D46400"/>
<stop offset="0.8467" stop-color="#4C1A57"/>
<stop offset="1" stop-color="#111A69"/>
</linearGradient>
<linearGradient id="paint2_linear_2_1242" x1="448.086" y1="179.225" x2="351.784" y2="143.123" gradientUnits="userSpaceOnUse">
<stop stop-color="#E9DD00"/>
<stop offset="0.2201" stop-color="#FFB53F"/>
<stop offset="0.5421" stop-color="#D46400"/>
<stop offset="0.8467" stop-color="#4C1A57"/>
<stop offset="1" stop-color="#111A69"/>
</linearGradient>
<clipPath id="clip0_2_1242">
<rect width="11" height="13" fill="white" transform="translate(523 320)"/>
</clipPath>
<clipPath id="clip1_2_1242">
<rect width="11" height="13" fill="white" transform="translate(534 192)"/>
</clipPath>
<clipPath id="clip2_2_1242">
<rect width="11" height="13" fill="white" transform="translate(449 69)"/>
</clipPath>
<clipPath id="clip3_2_1242">
<rect width="11" height="13" fill="white" transform="translate(305 172)"/>
</clipPath>
<clipPath id="clip4_2_1242">
<rect width="50.9" height="50.9" fill="white" transform="translate(424 293)"/>
</clipPath>
</defs>
</svg>
