<svg width="" height="" viewBox="0 0 43 41" fill="none" xmlns="http://www.w3.org/2000/svg">
<path d="M42.9955 21.9309C43.1016 19.6498 41.3358 17.711 39.0526 17.6053C37.9371 17.552 36.9063 17.9498 36.1297 18.6318C35.2908 17.7441 34.1226 17.1629 32.804 17.1024C31.1774 17.0277 29.7038 17.7599 28.7609 18.9412C30.7436 20.7979 31.9629 23.451 31.8921 26.376C31.8899 26.4537 31.8787 26.5264 31.8744 26.602C32.8456 28.3342 33.3903 30.3348 33.3391 32.4657C33.3039 33.9462 32.9808 35.3512 32.4388 36.6388C34.835 36.7446 36.8684 34.8907 36.9792 32.4922C36.9835 32.4188 36.9792 32.3462 36.9792 32.2728C38.9971 31.6355 40.5063 29.7996 40.6078 27.56C40.6412 26.8788 40.5348 26.2213 40.3247 25.6127C41.8207 25.0466 42.9159 23.6344 42.9955 21.9309Z" fill="#F0AE28"/>
<path d="M10.8769 25.8763C10.9464 22.9642 12.2765 20.3867 14.3242 18.6278C13.4592 17.4501 12.0805 16.6696 10.5061 16.6293C9.18747 16.5984 7.98036 17.094 7.08324 17.9242C6.35527 17.1868 5.35493 16.7199 4.23878 16.694C1.95289 16.6379 0.0555136 18.4479 0.00125969 20.734C-0.0398087 22.4376 0.954062 23.9202 2.40758 24.5929C2.15428 25.1835 2.00395 25.8316 1.98707 26.5136C1.93416 28.7552 3.30932 30.6933 5.27859 31.4724C5.27321 31.545 5.26422 31.6162 5.26212 31.6889C5.2056 34.0945 7.10625 36.088 9.50938 36.1454C9.62553 36.1476 9.74168 36.1433 9.85573 36.1368C9.36552 34.8132 9.10441 33.3838 9.13994 31.8881C9.19167 29.7573 9.83012 27.7839 10.8834 26.0999C10.8834 26.0245 10.8759 25.9518 10.8769 25.8763Z" fill="#F0AE28"/>
<path d="M17.7715 30.2882C17.7241 32.229 19.2729 33.2973 21.2124 33.3441C23.1541 33.3909 24.7496 32.3967 24.7961 30.4565C24.8424 28.5163 23.2958 27.4472 21.3541 27.4004C19.4146 27.3545 17.8169 28.3501 17.7715 30.2882Z" fill="#F0AE28"/>
<path d="M26.5307 33.0457C24.3866 33.8442 23.2889 35.3045 21.167 35.2542C19.0451 35.2053 18.0183 33.6917 15.9162 32.7932C13.8141 31.8925 12.1944 33.9147 13.2976 35.7053C14.6273 37.8606 16.3201 40.3964 20.8825 40.5043C25.4463 40.6151 27.5748 38.1678 29.0065 36.0793C30.1951 34.3441 28.6724 32.2471 26.5307 33.0457ZM27.0441 35.911C26.9577 36.011 24.8888 38.3692 21.2012 38.2828C17.515 38.1944 15.5601 35.7384 15.4792 35.6341C15.3166 35.4268 15.3528 35.1254 15.5622 34.9635C15.7691 34.8024 16.0701 34.8376 16.2327 35.0484C16.2493 35.0678 18.0049 37.2497 21.2245 37.3274C24.4442 37.4023 26.3027 35.3068 26.3204 35.2873C26.493 35.0859 26.7962 35.0657 26.993 35.2384C27.1923 35.4089 27.2142 35.7096 27.0441 35.911Z" fill="#F0AE28"/>
<path d="M15.5325 28.8545C15.8688 28.8632 16.1742 27.7748 16.277 26.3165C17.7373 26.2856 18.8391 26.0316 18.8471 25.695C18.855 25.3612 17.7673 25.0532 16.3101 24.951C16.277 23.4907 16.0224 22.3886 15.6861 22.3799C15.3508 22.3714 15.0444 23.4619 14.9415 24.9179C13.4812 24.9488 12.3805 25.2057 12.3726 25.5395C12.3651 25.8761 13.4524 26.1812 14.9084 26.2855C14.9426 27.7459 15.1961 28.8459 15.5325 28.8545Z" fill="#F0AE28"/>
<path d="M27.8782 25.2257C27.8451 23.7654 27.5905 22.6633 27.2563 22.6568C26.92 22.6475 26.6125 23.7366 26.5107 25.1948C25.0504 25.2257 23.9486 25.4818 23.9418 25.8163C23.9331 26.1522 25.0215 26.4579 26.4776 26.5594C26.5107 28.0198 26.7653 29.1219 27.1016 29.1312C27.4358 29.1376 27.7433 28.0514 27.8472 26.5931C29.3054 26.5594 30.4071 26.3076 30.4162 25.9709C30.4227 25.6351 29.3343 25.3272 27.8782 25.2257Z" fill="#F0AE28"/>
<path d="M27.6106 17.1888L25.692 7.16123C25.7384 7.16342 25.7783 7.17417 25.8247 7.17417C27.6703 7.17417 29.1659 5.67857 29.1659 3.83335C29.1659 1.98805 27.6703 0.491699 25.8247 0.491699C23.9796 0.491699 22.4825 1.98805 22.4825 3.83335C22.4825 4.81312 22.913 5.68504 23.5857 6.29796L15.6817 16.5053L27.6106 17.1888Z" fill="#F0AE28"/>
</svg>
