<svg width="1735" height="7498" viewBox="0 0 1735 7498" fill="none" xmlns="http://www.w3.org/2000/svg">
<path d="M1073.98 1128.88C1082.64 1128.88 1089.66 1121.86 1089.66 1113.2C1089.66 1104.54 1082.64 1097.52 1073.98 1097.52C1065.33 1097.52 1058.31 1104.54 1058.31 1113.2C1058.31 1121.86 1065.33 1128.88 1073.98 1128.88Z" fill="white" fill-opacity="0.5"/>
<g clip-path="url(#clip0_2_2477)">
<path d="M111 901.299C111 901.299 254.541 989.149 354.141 982.228C453.741 975.572 877.707 781.236 926.709 771.12C975.71 761.27 1102.47 724 1139.49 724C1176.51 724 1401.27 724 1494.22 759.406C1494.22 759.406 1543.22 774.581 1549.87 776.178L1555.73 776.977V844.595C1555.73 844.595 1327.77 733.584 1154.14 778.041C980.503 822.499 723.78 870.95 732.036 905.292C740.291 939.633 818.853 949.75 903.806 927.388C988.759 905.026 1152.27 862.964 1210.86 866.957C1269.45 870.95 1556 933.511 1556 933.511V1056.77C1556 1056.77 1245.22 965.989 1172.51 963.859C1099.81 961.729 818.853 980.098 768.52 992.078C717.921 1004.32 449.214 1078.86 366.392 1077C283.569 1075.14 111 1012.31 111 1012.31V901.299Z" fill="#001E76" fill-opacity="0.03"/>
</g>
<g clip-path="url(#clip1_2_2477)">
<path d="M111 2338.3C111 2338.3 254.541 2426.15 354.141 2419.23C453.741 2412.57 877.707 2218.24 926.709 2208.12C975.71 2198.27 1102.47 2161 1139.49 2161C1176.51 2161 1401.27 2161 1494.22 2196.41C1494.22 2196.41 1543.22 2211.58 1549.87 2213.18L1555.73 2213.98V2281.6C1555.73 2281.6 1327.77 2170.58 1154.14 2215.04C980.503 2259.5 723.78 2307.95 732.036 2342.29C740.291 2376.63 818.853 2386.75 903.806 2364.39C988.759 2342.03 1152.27 2299.96 1210.86 2303.96C1269.45 2307.95 1556 2370.51 1556 2370.51V2493.77C1556 2493.77 1245.22 2402.99 1172.51 2400.86C1099.81 2398.73 818.853 2417.1 768.52 2429.08C717.921 2441.32 449.214 2515.86 366.392 2514C283.569 2512.14 111 2449.31 111 2449.31V2338.3Z" fill="#001E76" fill-opacity="0.03"/>
</g>
<g clip-path="url(#clip2_2_2477)">
<path d="M111 4399.3C111 4399.3 254.541 4487.15 354.141 4480.23C453.741 4473.57 877.707 4279.24 926.709 4269.12C975.71 4259.27 1102.47 4222 1139.49 4222C1176.51 4222 1401.27 4222 1494.22 4257.41C1494.22 4257.41 1543.22 4272.58 1549.87 4274.18L1555.73 4274.98V4342.6C1555.73 4342.6 1327.77 4231.58 1154.14 4276.04C980.503 4320.5 723.78 4368.95 732.036 4403.29C740.291 4437.63 818.853 4447.75 903.806 4425.39C988.759 4403.03 1152.27 4360.96 1210.86 4364.96C1269.45 4368.95 1556 4431.51 1556 4431.51V4554.77C1556 4554.77 1245.22 4463.99 1172.51 4461.86C1099.81 4459.73 818.853 4478.1 768.52 4490.08C717.921 4502.32 449.214 4576.86 366.392 4575C283.569 4573.14 111 4510.31 111 4510.31V4399.3Z" fill="#001E76" fill-opacity="0.03"/>
</g>
<g clip-path="url(#clip3_2_2477)">
<path d="M1556 1871.3C1556 1871.3 1412.96 1959.15 1313.7 1952.23C1214.44 1945.57 791.945 1751.24 743.114 1741.12C694.282 1731.27 567.957 1694 531.068 1694C494.179 1694 270.191 1694 177.57 1729.41C177.57 1729.41 128.739 1744.58 122.104 1746.18L116.265 1746.98V1814.6C116.265 1814.6 343.438 1703.58 516.472 1748.04C689.505 1792.5 945.34 1840.95 937.113 1875.29C928.886 1909.63 850.596 1919.75 765.937 1897.39C681.278 1875.03 518.33 1832.96 459.944 1836.96C401.558 1840.95 116 1903.51 116 1903.51V2026.77C116 2026.77 425.709 1935.99 498.16 1933.86C570.611 1931.73 850.596 1950.1 900.755 1962.08C951.179 1974.32 1218.96 2048.86 1301.49 2047C1384.03 2045.14 1556 1982.31 1556 1982.31V1871.3Z" fill="#001E76" fill-opacity="0.03"/>
</g>
<path d="M1556 3308.3C1556 3308.3 1412.96 3396.15 1313.7 3389.23C1214.44 3382.57 791.945 3188.24 743.114 3178.12C694.282 3168.27 567.957 3131 531.068 3131C494.179 3131 270.191 3131 177.57 3166.41C177.57 3166.41 128.739 3181.58 122.104 3183.18L116.265 3183.98V3251.6C116.265 3251.6 343.438 3140.58 516.472 3185.04C689.505 3229.5 945.34 3277.95 937.113 3312.29C928.886 3346.63 850.596 3356.75 765.937 3334.39C681.278 3312.03 518.33 3269.96 459.944 3273.96C401.558 3277.95 116 3340.51 116 3340.51V3463.77C116 3463.77 425.709 3372.99 498.16 3370.86C570.611 3368.73 850.596 3387.1 900.755 3399.08C951.179 3411.32 1218.96 3485.86 1301.49 3484C1384.03 3482.14 1556 3419.31 1556 3419.31V3308.3Z" fill="#001E76" fill-opacity="0.03"/>
<g clip-path="url(#clip4_2_2477)">
<path d="M1560 7322.3C1560 7322.3 1416.96 7410.15 1317.7 7403.23C1218.44 7396.57 795.945 7202.24 747.114 7192.12C698.282 7182.27 571.957 7145 535.068 7145C498.179 7145 274.191 7145 181.57 7180.41C181.57 7180.41 132.739 7195.58 126.104 7197.18L120.265 7197.98V7265.6C120.265 7265.6 347.438 7154.58 520.472 7199.04C693.505 7243.5 949.34 7291.95 941.113 7326.29C932.886 7360.63 854.596 7370.75 769.937 7348.39C685.278 7326.03 522.33 7283.96 463.944 7287.96C405.558 7291.95 120 7354.51 120 7354.51V7477.77C120 7477.77 429.709 7386.99 502.16 7384.86C574.611 7382.73 854.596 7401.1 904.755 7413.08C955.179 7425.32 1222.96 7499.86 1305.49 7498C1388.03 7496.14 1560 7433.31 1560 7433.31V7322.3Z" fill="#4C1A57" fill-opacity="0.06"/>
</g>
<path d="M1560 5334.3C1560 5334.3 1416.96 5422.15 1317.7 5415.23C1218.44 5408.57 795.945 5214.24 747.114 5204.12C698.282 5194.27 571.957 5157 535.068 5157C498.179 5157 274.191 5157 181.57 5192.41C181.57 5192.41 132.739 5207.58 126.104 5209.18L120.265 5209.98V5277.6C120.265 5277.6 347.438 5166.58 520.472 5211.04C693.505 5255.5 949.34 5303.95 941.113 5338.29C932.886 5372.63 854.596 5382.75 769.937 5360.39C685.278 5338.03 522.33 5295.96 463.944 5299.96C405.558 5303.95 120 5366.51 120 5366.51V5489.77C120 5489.77 429.709 5398.99 502.16 5396.86C574.611 5394.73 854.596 5413.1 904.755 5425.08C955.179 5437.32 1222.96 5511.86 1305.49 5510C1388.03 5508.14 1560 5445.31 1560 5445.31V5334.3Z" fill="#4C1A57" fill-opacity="0.04"/>
<path d="M1560 4878.3C1560 4878.3 1416.96 4966.15 1317.7 4959.23C1218.44 4952.57 795.945 4758.24 747.114 4748.12C698.282 4738.27 571.957 4701 535.068 4701C498.179 4701 274.191 4701 181.57 4736.41C181.57 4736.41 132.739 4751.58 126.104 4753.18L120.265 4753.98V4821.6C120.265 4821.6 347.438 4710.58 520.472 4755.04C693.505 4799.5 949.34 4847.95 941.113 4882.29C932.886 4916.63 854.596 4926.75 769.937 4904.39C685.278 4882.03 522.33 4839.96 463.944 4843.96C405.558 4847.95 120 4910.51 120 4910.51V5033.77C120 5033.77 429.709 4942.99 502.16 4940.86C574.611 4938.73 854.596 4957.1 904.755 4969.08C955.179 4981.32 1222.96 5055.86 1305.49 5054C1388.03 5052.14 1560 4989.31 1560 4989.31V4878.3Z" fill="#4C1A57" fill-opacity="0.04"/>
<g clip-path="url(#clip5_2_2477)">
<path d="M1556 645.299C1556 645.299 1412.86 733.149 1313.53 726.228C1214.21 719.572 791.415 525.236 742.549 515.12C693.684 505.27 567.271 468 530.356 468C493.442 468 269.298 468 176.613 503.406C176.613 503.406 127.748 518.581 121.108 520.178L115.266 520.977V588.595C115.266 588.595 342.596 477.584 515.75 522.041C688.904 566.499 944.916 614.95 936.683 649.292C928.451 683.633 850.106 693.75 765.389 671.388C680.671 649.026 517.609 606.964 459.183 610.957C400.757 614.95 115 677.511 115 677.511V800.768C115 800.768 424.924 709.989 497.425 707.859C569.927 705.729 850.107 724.098 900.3 736.078C950.759 748.324 1218.72 822.864 1301.32 821C1383.91 819.137 1556 756.31 1556 756.31V645.299Z" fill="#001E76" fill-opacity="0.03"/>
</g>
<path d="M116.901 334.056C116.901 334.056 201.995 403.146 364.715 391.115C527.167 379.265 874.48 257.492 910.758 247.648C947.037 238.169 1278.34 205.72 1363.44 217.569C1448.53 229.418 1556.03 239.08 1556.03 239.08V286.477C1556.03 286.477 1276.74 240.174 1152.17 256.216C1027.6 272.258 745.104 317.832 741.903 330.775C738.702 343.718 735.501 365.229 789.119 363.041C842.736 360.854 1192.98 309.082 1254.6 313.457C1316.22 317.832 1421.86 349.004 1459.74 349.004C1497.61 349.004 1556.03 350.098 1556.03 350.098V431.037C1556.03 431.037 1352.5 401.87 1294.08 386.739C1235.66 371.609 1021.19 377.26 957.973 383.64C894.753 390.021 552.509 449.449 448.208 456.923C343.908 464.397 140.642 425.751 124.904 413.902C109.165 402.052 116.901 334.056 116.901 334.056Z" fill="#151049"/>
<g clip-path="url(#clip6_2_2477)">
<path d="M116 82.3814C116 82.3814 317.436 120.558 383.432 122.065C449.429 123.572 604.216 102.223 604.216 102.223C604.216 102.223 469.043 79.3674 401.19 41.1907C333.338 3.01395 233.681 0 233.681 0H531.594C531.594 0 716.861 71.8326 855.481 61.0326C994.1 50.2326 1143.59 21.3488 1200.04 25.8698C1256.5 30.6419 1373.91 0 1373.91 0H1556V47.2186C1556 47.2186 1448.13 36.4186 1433.55 38.1767C1418.97 39.6837 1556 61.0326 1556 61.0326L1547.78 86.9023C1547.78 86.9023 1332.04 58.0186 1243.51 73.0884C1154.98 88.1581 1029.35 149.442 847.264 149.442C665.177 149.442 636.287 135.628 541.135 149.442C445.983 163.256 186.768 177.07 116 123.572V82.3814Z" fill="#220029"/>
</g>
<path d="M836 571C764.4 563.8 598.5 594 525 610C530 620 554 640 578.5 649.5C603 659 648.5 648 666 644C683.5 640 714 624 743 621C766.2 618.6 795 627.333 806.5 632C810.333 630 828.4 626 870 626C922 626 1060 716.5 1256.5 678C1413.7 647.2 1521.67 650.167 1556 655.5V595C1505.5 592.167 1386.5 591.9 1314.5 613.5C1224.5 640.5 925.5 580 836 571Z" fill="#001E76"/>
<g clip-path="url(#clip7_2_2477)">
<path d="M115 201.134C115 201.134 345.475 196.641 414.03 211.135C482.586 225.63 714.127 260.127 838.168 242.878C962.208 225.63 1254.57 182.581 1292.98 179.102C1331.66 175.624 1556 172 1556 172V209.831C1556 209.831 1204.69 225.05 1116.12 247.661C1027.56 270.273 865.376 291.145 796.821 291.145C728.265 291.145 490.855 246.502 397.225 239.255C303.594 232.007 115 236.501 115 236.501V201.134Z" fill="#4C1A57" fill-opacity="0.962003"/>
</g>
<path d="M116 557.354V0H1556V800.819C1542.95 806.184 1454.37 816.916 1409.73 818.257C1365.1 819.599 1242.18 820.269 1206.47 826.976C1170.76 833.683 1085.61 865.206 1045.1 856.487C1004.58 847.768 962.695 788.076 937.288 758.565C911.88 729.054 854.197 640.521 786.901 625.765C719.605 611.01 720.979 633.143 650.936 647.899C580.893 662.654 555.485 645.216 523.897 609.669C492.309 574.121 473.082 566.073 437.373 557.354C401.665 548.635 326.815 595.584 291.107 593.572C255.399 591.56 186.73 539.916 168.189 537.233C153.356 535.086 127.216 549.753 116 557.354Z" fill="url(#paint0_linear_2_2477)"/>
<circle cx="710" cy="247" r="3" fill="#5AC7FF"/>
<circle cx="278" cy="515" r="3" fill="#5AC7FF"/>
<circle cx="1269" cy="733" r="3" fill="#5AC7FF"/>
<circle cx="1469" cy="543" r="3" fill="#5AC7FF"/>
<circle cx="1075" cy="98" r="3" fill="#5AC7FF"/>
<circle cx="1039" cy="640" r="3" fill="#5AC7FF"/>
<circle cx="181" cy="227" r="3" fill="#F0AE28"/>
<circle cx="576" cy="521" r="3" fill="#F0AE28"/>
<circle cx="535" cy="66" r="3" fill="#F0AE28"/>
<circle cx="895" cy="599" r="3" fill="#F0AE28"/>
<circle cx="1475" cy="247" r="3" fill="#F0AE28"/>
<circle cx="1328" cy="72" r="3" fill="#F0AE28"/>
<circle cx="1435" cy="766" r="3" fill="#F0AE28"/>
<g clip-path="url(#clip8_2_2477)">
<path d="M786 343L791.06 338.017L797 343L793.04 336.5L797 330L791.5 333.467L786 330L789.74 336.5L786 343Z" fill="#F0AE28"/>
</g>
<g clip-path="url(#clip9_2_2477)">
<path d="M1512 64L1517.06 59.0167L1523 64L1519.04 57.5L1523 51L1517.5 54.4667L1512 51L1515.74 57.5L1512 64Z" fill="#F0AE28"/>
</g>
<g clip-path="url(#clip10_2_2477)">
<path d="M696 568L701.06 563.017L707 568L703.04 561.5L707 555L701.5 558.467L696 555L699.74 561.5L696 568Z" fill="#5AC7FF"/>
</g>
<g clip-path="url(#clip11_2_2477)">
<path d="M1469 370L1474.06 365.017L1480 370L1476.04 363.5L1480 357L1474.5 360.467L1469 357L1472.74 363.5L1469 370Z" fill="#5AC7FF"/>
</g>
<g clip-path="url(#clip12_2_2477)">
<path d="M1073 782L1078.06 777.017L1084 782L1080.04 775.5L1084 769L1078.5 772.467L1073 769L1076.74 775.5L1073 782Z" fill="#5AC7FF"/>
</g>
<g clip-path="url(#clip13_2_2477)">
<path d="M874 127L879.06 122.017L885 127L881.04 120.5L885 114L879.5 117.467L874 114L877.74 120.5L874 127Z" fill="#5AC7FF"/>
</g>
<g clip-path="url(#clip14_2_2477)">
<path d="M133 428L138.06 423.017L144 428L140.04 421.5L144 415L138.5 418.467L133 415L136.74 421.5L133 428Z" fill="#5AC7FF"/>
</g>
<g clip-path="url(#clip15_2_2477)">
<path d="M359 312L364.06 307.017L370 312L366.04 305.5L370 299L364.5 302.467L359 299L362.74 305.5L359 312Z" fill="#5AC7FF"/>
</g>
<g clip-path="url(#clip16_2_2477)">
<path d="M380 133L385.06 128.017L391 133L387.04 126.5L391 120L385.5 123.467L380 120L383.74 126.5L380 133Z" fill="#5AC7FF"/>
</g>
<g clip-path="url(#clip17_2_2477)">
<path d="M986 111C986 111 865.855 260.868 851.151 267.064C836.254 273.26 820.196 262.223 828.322 247.895C836.447 233.566 986 111 986 111Z" fill="#322AB3" fill-opacity="0.5"/>
<g clip-path="url(#clip18_2_2477)">
<path d="M948 150C948 150 856.232 262.918 844.996 267.678C833.759 272.438 821.184 263.976 827.605 253.398C834.026 242.82 948 150 948 150Z" fill="url(#paint1_linear_2_2477)"/>
</g>
</g>
<g clip-path="url(#clip19_2_2477)">
<path d="M1401 565C1401 565 1250.07 752.809 1231.6 760.574C1212.88 768.338 1192.71 754.507 1202.92 736.551C1213.12 718.596 1401 565 1401 565Z" fill="#4C1A57" fill-opacity="0.5"/>
<g clip-path="url(#clip20_2_2477)">
<path d="M1353.26 613.874C1353.26 613.874 1237.98 755.378 1223.86 761.343C1209.75 767.308 1193.95 756.704 1202.02 743.448C1210.08 730.192 1353.26 613.874 1353.26 613.874Z" fill="url(#paint2_linear_2_2477)" fill-opacity="0.8"/>
</g>
<g clip-path="url(#clip21_2_2477)">
<path d="M1407 624C1407 624 1366.45 674.272 1361.49 676.35C1356.46 678.429 1351.04 674.727 1353.78 669.92C1356.53 665.114 1407 624 1407 624Z" fill="#4C1A57" fill-opacity="0.5"/>
<g clip-path="url(#clip22_2_2477)">
<path d="M1394.17 637.082C1394.17 637.082 1363.2 674.96 1359.41 676.556C1355.62 678.153 1351.37 675.315 1353.54 671.766C1355.71 668.218 1394.17 637.082 1394.17 637.082Z" fill="url(#paint3_linear_2_2477)" fill-opacity="0.8"/>
</g>
</g>
</g>
<g clip-path="url(#clip23_2_2477)">
<path d="M1483 62C1483 62 1398.9 166.338 1388.61 170.652C1378.18 174.966 1366.94 167.282 1372.63 157.306C1378.31 147.331 1483 62 1483 62Z" fill="#322AB3" fill-opacity="0.5"/>
<g clip-path="url(#clip24_2_2477)">
<path d="M1456.4 89.1519C1456.4 89.1519 1392.16 167.765 1384.3 171.079C1376.43 174.393 1367.63 168.502 1372.12 161.138C1376.62 153.773 1456.4 89.1519 1456.4 89.1519Z" fill="url(#paint4_linear_2_2477)"/>
</g>
</g>
<path d="M661.077 1097.26C845.683 1097.26 995.336 947.606 995.336 763C995.336 578.394 845.683 428.741 661.077 428.741C476.471 428.741 326.819 578.394 326.819 763C326.819 947.606 476.471 1097.26 661.077 1097.26Z" stroke="white" stroke-opacity="0.5" stroke-miterlimit="10"/>
<path d="M661.077 1202.21C905.555 1202.21 1103.74 1004.02 1103.74 759.546C1103.74 515.068 905.555 316.879 661.077 316.879C416.599 316.879 218.411 515.068 218.411 759.546C218.411 1004.02 416.599 1202.21 661.077 1202.21Z" stroke="white" stroke-opacity="0.5" stroke-miterlimit="10"/>
<path d="M1068.75 4235.93C1253.35 4235.93 1403.01 4086.28 1403.01 3901.67C1403.01 3717.07 1253.35 3567.41 1068.75 3567.41C884.143 3567.41 734.49 3717.07 734.49 3901.67C734.49 4086.28 884.143 4235.93 1068.75 4235.93Z" stroke="white" stroke-opacity="0.5" stroke-miterlimit="10"/>
<path d="M666.657 1303.71C967.192 1303.71 1210.82 1060.08 1210.82 759.546C1210.82 459.011 967.192 215.379 666.657 215.379C366.122 215.379 122.491 459.011 122.491 759.546C122.491 1060.08 366.122 1303.71 666.657 1303.71Z" stroke="white" stroke-opacity="0.5" stroke-miterlimit="10"/>
<path d="M1089.66 689.931C1102.72 689.931 1113.31 679.343 1113.31 666.283C1113.31 653.223 1102.72 642.635 1089.66 642.635C1076.6 642.635 1066.01 653.223 1066.01 666.283C1066.01 679.343 1076.6 689.931 1089.66 689.931Z" fill="white" fill-opacity="0.5"/>
<path d="M664 1425.67C1029.98 1425.67 1326.67 1128.98 1326.67 763C1326.67 397.017 1029.98 100.329 664 100.329C298.017 100.329 1.32849 397.017 1.32849 763C1.32849 1128.98 298.017 1425.67 664 1425.67Z" stroke="white" stroke-opacity="0.5" stroke-miterlimit="10"/>
<path d="M1068.75 4340.88C1313.23 4340.88 1511.42 4142.7 1511.42 3898.22C1511.42 3653.74 1313.23 3455.55 1068.75 3455.55C824.271 3455.55 626.082 3653.74 626.082 3898.22C626.082 4142.7 824.271 4340.88 1068.75 4340.88Z" stroke="white" stroke-opacity="0.5" stroke-miterlimit="10"/>
<path d="M1074.33 4442.38C1374.86 4442.38 1618.49 4198.75 1618.49 3898.22C1618.49 3597.68 1374.86 3354.05 1074.33 3354.05C773.794 3354.05 530.162 3597.68 530.162 3898.22C530.162 4198.75 773.794 4442.38 1074.33 4442.38Z" stroke="white" stroke-opacity="0.5" stroke-miterlimit="10"/>
<path d="M609.53 1211.78C618.188 1211.78 625.207 1204.76 625.207 1196.1C625.207 1187.44 618.188 1180.42 609.53 1180.42C600.872 1180.42 593.854 1187.44 593.854 1196.1C593.854 1204.76 600.872 1211.78 609.53 1211.78Z" fill="white" fill-opacity="0.5"/>
<path d="M1071.67 4564.34C1437.65 4564.34 1734.34 4267.65 1734.34 3901.67C1734.34 3535.69 1437.65 3239 1071.67 3239C705.688 3239 409 3535.69 409 3901.67C409 4267.65 705.688 4564.34 1071.67 4564.34Z" stroke="white" stroke-opacity="0.5" stroke-miterlimit="10"/>
<path d="M1497.33 3828.6C1510.39 3828.6 1520.98 3818.01 1520.98 3804.95C1520.98 3791.89 1510.39 3781.31 1497.33 3781.31C1484.27 3781.31 1473.69 3791.89 1473.69 3804.95C1473.69 3818.01 1484.27 3828.6 1497.33 3828.6Z" fill="white" fill-opacity="0.5"/>
<path d="M236.744 695.776C249.805 695.776 260.392 685.189 260.392 672.128C260.392 659.068 249.805 648.48 236.744 648.48C223.684 648.48 213.096 659.068 213.096 672.128C213.096 685.189 223.684 695.776 236.744 695.776Z" fill="white" fill-opacity="0.5"/>
<path d="M158.361 1207.26C167.019 1207.26 174.038 1200.24 174.038 1191.58C174.038 1182.93 167.019 1175.91 158.361 1175.91C149.703 1175.91 142.684 1182.93 142.684 1191.58C142.684 1200.24 149.703 1207.26 158.361 1207.26Z" fill="white" fill-opacity="0.5"/>
<path d="M122.225 807.639C130.883 807.639 137.902 800.62 137.902 791.962C137.902 783.304 130.883 776.285 122.225 776.285C113.567 776.285 106.548 783.304 106.548 791.962C106.548 800.62 113.567 807.639 122.225 807.639Z" fill="white" fill-opacity="0.5"/>
<path d="M1017.2 4350.45C1025.86 4350.45 1032.88 4343.43 1032.88 4334.77C1032.88 4326.11 1025.86 4319.1 1017.2 4319.1C1008.54 4319.1 1001.53 4326.11 1001.53 4334.77C1001.53 4343.43 1008.54 4350.45 1017.2 4350.45Z" fill="white" fill-opacity="0.5"/>
<path d="M943.04 6338.4C951.698 6338.4 958.716 6331.38 958.716 6322.72C958.716 6314.06 951.698 6307.04 943.04 6307.04C934.382 6307.04 927.363 6314.06 927.363 6322.72C927.363 6331.38 934.382 6338.4 943.04 6338.4Z" fill="white" fill-opacity="0.5"/>
<g clip-path="url(#clip25_2_2477)">
<path opacity="0.85" d="M613.4 240.8C627.428 240.8 638.8 229.428 638.8 215.4C638.8 201.372 627.428 190 613.4 190C599.372 190 588 201.372 588 215.4C588 229.428 599.372 240.8 613.4 240.8Z" fill="url(#paint5_linear_2_2477)"/>
</g>
<path d="M1169.37 578.866C1178.03 578.866 1185.05 571.847 1185.05 563.189C1185.05 554.531 1178.03 547.512 1169.37 547.512C1160.72 547.512 1153.7 554.531 1153.7 563.189C1153.7 571.847 1160.72 578.866 1169.37 578.866Z" fill="white" fill-opacity="0.5"/>
<path opacity="0.85" d="M181.5 330C190.06 330 197 323.284 197 315C197 306.716 190.06 300 181.5 300C172.94 300 166 306.716 166 315C166 323.284 172.94 330 181.5 330Z" fill="url(#paint6_linear_2_2477)"/>
<g clip-path="url(#clip26_2_2477)">
<path opacity="0.85" d="M772.033 539.933C762.663 539.933 755.067 532.337 755.067 522.967C755.067 513.596 762.663 506 772.033 506C781.404 506 789 513.596 789 522.967C789 532.337 781.404 539.933 772.033 539.933Z" fill="url(#paint7_linear_2_2477)"/>
</g>
<g clip-path="url(#clip27_2_2477)">
<path opacity="0.85" d="M1499.04 702.917C1487.47 702.917 1478.08 693.534 1478.08 681.959C1478.08 670.384 1487.47 661 1499.04 661C1510.62 661 1520 670.384 1520 681.959C1520 693.534 1510.62 702.917 1499.04 702.917Z" fill="url(#paint8_linear_2_2477)"/>
</g>
<path d="M1304 1189.39C1393.6 1211.95 1509.33 1198.79 1556 1189.39V1257.87C1496.83 1265.09 1363.6 1275.19 1304 1257.87C1229.5 1236.22 1118.5 1273.48 1090 1279.52C1061.5 1285.56 820.5 1337.43 789 1339.95C757.5 1342.47 488.5 1253.34 451.5 1245.28C414.5 1237.22 341.5 1262.9 293.5 1273.48C255.1 1281.94 159.167 1307.55 116 1319.3V1282.04C118.8 1282.44 139.5 1276.5 149.5 1273.48C193.5 1257.37 309 1189.39 357 1189.39C405 1189.39 609 1221.11 636.5 1245.28C664 1269.45 848.5 1269.45 888.5 1245.28C928.5 1221.11 1192 1161.19 1304 1189.39Z" fill="#4C1A57" fill-opacity="0.03"/>
<path d="M1304 2626.39C1393.6 2648.95 1509.33 2635.79 1556 2626.39V2694.87C1496.83 2702.09 1363.6 2712.19 1304 2694.87C1229.5 2673.22 1118.5 2710.48 1090 2716.52C1061.5 2722.56 820.5 2774.43 789 2776.95C757.5 2779.47 488.5 2690.34 451.5 2682.28C414.5 2674.22 341.5 2699.9 293.5 2710.48C255.1 2718.94 159.167 2744.55 116 2756.3V2719.04C118.8 2719.44 139.5 2713.5 149.5 2710.48C193.5 2694.37 309 2626.39 357 2626.39C405 2626.39 609 2658.11 636.5 2682.28C664 2706.45 848.5 2706.45 888.5 2682.28C928.5 2658.11 1192 2598.19 1304 2626.39Z" fill="#4C1A57" fill-opacity="0.03"/>
<path d="M1304 3631.39C1393.6 3653.95 1509.33 3640.79 1556 3631.39V3699.87C1496.83 3707.09 1363.6 3717.19 1304 3699.87C1229.5 3678.22 1118.5 3715.48 1090 3721.52C1061.5 3727.56 820.5 3779.43 789 3781.95C757.5 3784.47 488.5 3695.34 451.5 3687.28C414.5 3679.22 341.5 3704.9 293.5 3715.48C255.1 3723.94 159.167 3749.55 116 3761.3V3724.04C118.8 3724.44 139.5 3718.5 149.5 3715.48C193.5 3699.37 309 3631.39 357 3631.39C405 3631.39 609 3663.11 636.5 3687.28C664 3711.45 848.5 3711.45 888.5 3687.28C928.5 3663.11 1192 3603.19 1304 3631.39Z" fill="#4C1A57" fill-opacity="0.03"/>
<path d="M1304 6723.39C1393.6 6745.95 1509.33 6732.79 1556 6723.39V6791.87C1496.83 6799.09 1363.6 6809.19 1304 6791.87C1229.5 6770.22 1118.5 6807.48 1090 6813.52C1061.5 6819.56 820.5 6871.43 789 6873.95C757.5 6876.47 488.5 6787.34 451.5 6779.28C414.5 6771.22 341.5 6796.9 293.5 6807.48C255.1 6815.94 159.167 6841.55 116 6853.3V6816.04C118.8 6816.44 139.5 6810.5 149.5 6807.48C193.5 6791.37 309 6723.39 357 6723.39C405 6723.39 609 6755.11 636.5 6779.28C664 6803.45 848.5 6803.45 888.5 6779.28C928.5 6755.11 1192 6695.19 1304 6723.39Z" fill="#4C1A57" fill-opacity="0.03"/>
<path d="M367.175 1439.39C277.513 1461.95 161.699 1448.79 115 1439.39V1507.87C174.208 1515.09 307.534 1525.19 367.175 1507.87C441.727 1486.22 552.804 1523.48 581.324 1529.52C609.843 1535.56 851.011 1587.43 882.533 1589.95C914.054 1592.47 1183.24 1503.34 1220.27 1495.28C1257.29 1487.22 1330.34 1512.9 1378.38 1523.48C1416.8 1531.94 1512.8 1557.55 1556 1569.3V1532.04C1553.2 1532.44 1532.48 1526.5 1522.48 1523.48C1478.45 1507.37 1362.87 1439.39 1314.83 1439.39C1266.8 1439.39 1062.66 1471.11 1035.14 1495.28C1007.62 1519.45 822.991 1519.45 782.964 1495.28C742.936 1471.11 479.253 1411.19 367.175 1439.39Z" fill="#4C1A57" fill-opacity="0.03"/>
<path d="M367.175 2876.39C277.513 2898.95 161.699 2885.79 115 2876.39V2944.87C174.208 2952.09 307.534 2962.19 367.175 2944.87C441.727 2923.22 552.804 2960.48 581.324 2966.52C609.843 2972.56 851.011 3024.43 882.533 3026.95C914.054 3029.47 1183.24 2940.34 1220.27 2932.28C1257.29 2924.22 1330.34 2949.9 1378.38 2960.48C1416.8 2968.94 1512.8 2994.55 1556 3006.3V2969.04C1553.2 2969.44 1532.48 2963.5 1522.48 2960.48C1478.45 2944.37 1362.87 2876.39 1314.83 2876.39C1266.8 2876.39 1062.66 2908.11 1035.14 2932.28C1007.62 2956.45 822.991 2956.45 782.964 2932.28C742.936 2908.11 479.253 2848.19 367.175 2876.39Z" fill="#4C1A57" fill-opacity="0.03"/>
<path d="M367.175 3881.39C277.513 3903.95 161.699 3890.79 115 3881.39V3949.87C174.208 3957.09 307.534 3967.19 367.175 3949.87C441.727 3928.22 552.804 3965.48 581.324 3971.52C609.843 3977.56 851.011 4029.43 882.533 4031.95C914.054 4034.47 1183.24 3945.34 1220.27 3937.28C1257.29 3929.22 1330.34 3954.9 1378.38 3965.48C1416.8 3973.94 1512.8 3999.55 1556 4011.3V3974.04C1553.2 3974.44 1532.48 3968.5 1522.48 3965.48C1478.45 3949.37 1362.87 3881.39 1314.83 3881.39C1266.8 3881.39 1062.66 3913.11 1035.14 3937.28C1007.62 3961.45 822.991 3961.45 782.964 3937.28C742.936 3913.11 479.253 3853.19 367.175 3881.39Z" fill="#4C1A57" fill-opacity="0.03"/>
<path d="M367.175 6973.39C277.513 6995.95 161.699 6982.79 115 6973.39V7041.87C174.208 7049.09 307.534 7059.19 367.175 7041.87C441.727 7020.22 552.804 7057.48 581.324 7063.52C609.843 7069.56 851.011 7121.43 882.533 7123.95C914.054 7126.47 1183.24 7037.34 1220.27 7029.28C1257.29 7021.22 1330.34 7046.9 1378.38 7057.48C1416.8 7065.94 1512.8 7091.55 1556 7103.3V7066.04C1553.2 7066.44 1532.48 7060.5 1522.48 7057.48C1478.45 7041.37 1362.87 6973.39 1314.83 6973.39C1266.8 6973.39 1062.66 7005.11 1035.14 7029.28C1007.62 7053.45 822.991 7053.45 782.964 7029.28C742.936 7005.11 479.253 6945.19 367.175 6973.39Z" fill="#4C1A57" fill-opacity="0.03"/>
<path d="M367.175 6283.39C277.513 6305.95 161.699 6292.79 115 6283.39V6351.87C174.208 6359.09 307.534 6369.19 367.175 6351.87C441.727 6330.22 552.804 6367.48 581.324 6373.52C609.843 6379.56 851.011 6431.43 882.533 6433.95C914.054 6436.47 1183.24 6347.34 1220.27 6339.28C1257.29 6331.22 1330.34 6356.9 1378.38 6367.48C1416.8 6375.94 1512.8 6401.55 1556 6413.3V6376.04C1553.2 6376.44 1532.48 6370.5 1522.48 6367.48C1478.45 6351.37 1362.87 6283.39 1314.83 6283.39C1266.8 6283.39 1062.66 6315.11 1035.14 6339.28C1007.62 6363.45 822.991 6363.45 782.964 6339.28C742.936 6315.11 479.253 6255.19 367.175 6283.39Z" fill="#4C1A57" fill-opacity="0.03"/>
<path d="M462.512 6275.52L462.902 6271L463.488 6275.52L467 6276.37L463.488 6277.22V6284L462.512 6277.22L459 6276.37L462.512 6275.52Z" fill="white"/>
<path d="M870.512 6312.48L870.902 6309L871.488 6312.48L875 6313.13L871.488 6313.78V6319L870.512 6313.78L867 6313.13L870.512 6312.48Z" fill="white"/>
<path d="M925.146 6356.57L925.829 6351L926.854 6356.57L933 6357.61L926.854 6358.65V6367L925.146 6358.65L919 6357.61L925.146 6356.57Z" fill="white"/>
<path d="M1015.15 6421.57L1015.83 6416L1016.85 6421.57L1023 6422.61L1016.85 6423.65V6432L1015.15 6423.65L1009 6422.61L1015.15 6421.57Z" fill="white"/>
<path d="M971.634 6435.48L971.927 6432L972.366 6435.48L975 6436.13L972.366 6436.78V6442L971.634 6436.78L969 6436.13L971.634 6435.48Z" fill="white"/>
<circle cx="998" cy="6413" r="1" fill="#D9D9D9"/>
<circle cx="1038" cy="6359" r="1" fill="#D9D9D9"/>
<path d="M1299.97 5168C1301.72 5168 1303.14 5166.58 1303.14 5164.83C1303.14 5163.08 1301.72 5161.66 1299.97 5161.66C1298.22 5161.66 1296.8 5163.08 1296.8 5164.83C1296.8 5166.58 1298.22 5168 1299.97 5168Z" fill="white"/>
<defs>
<linearGradient id="paint0_linear_2_2477" x1="836" y1="0" x2="836" y2="3134" gradientUnits="userSpaceOnUse">
<stop stop-color="#001E76"/>
<stop offset="0.220886" stop-color="#4C1A57" stop-opacity="0.962003"/>
<stop offset="0.5" stop-color="#091B6F" stop-opacity="0.879179"/>
<stop offset="1" stop-color="#3397CB" stop-opacity="0"/>
</linearGradient>
<linearGradient id="paint1_linear_2_2477" x1="886.931" y1="150" x2="886.931" y2="269.036" gradientUnits="userSpaceOnUse">
<stop stop-color="#F8E995"/>
<stop offset="0.458333" stop-color="#F0AE28"/>
<stop offset="0.998135" stop-color="#F08828"/>
</linearGradient>
<linearGradient id="paint2_linear_2_2477" x1="1276.55" y1="613.874" x2="1276.55" y2="763.046" gradientUnits="userSpaceOnUse">
<stop stop-color="#F8E995"/>
<stop offset="0.458333" stop-color="#F0AE28"/>
<stop offset="0.998135" stop-color="#F08828"/>
</linearGradient>
<linearGradient id="paint3_linear_2_2477" x1="1373.56" y1="637.082" x2="1373.56" y2="677.012" gradientUnits="userSpaceOnUse">
<stop stop-color="#F8E995"/>
<stop offset="0.458333" stop-color="#F0AE28"/>
<stop offset="0.998135" stop-color="#F08828"/>
</linearGradient>
<linearGradient id="paint4_linear_2_2477" x1="1413.65" y1="89.1519" x2="1413.65" y2="172.025" gradientUnits="userSpaceOnUse">
<stop stop-color="#F8E995"/>
<stop offset="0.458333" stop-color="#F0AE28"/>
<stop offset="0.998135" stop-color="#F08828"/>
</linearGradient>
<linearGradient id="paint5_linear_2_2477" x1="637.363" y1="224.15" x2="589.528" y2="206.74" gradientUnits="userSpaceOnUse">
<stop stop-color="#E9DD00"/>
<stop offset="0.2201" stop-color="#FFB53F"/>
<stop offset="0.5421" stop-color="#D46400"/>
<stop offset="0.8467" stop-color="#4C1A57"/>
<stop offset="1" stop-color="#111A69"/>
</linearGradient>
<linearGradient id="paint6_linear_2_2477" x1="196.123" y1="320.168" x2="167.162" y2="309.275" gradientUnits="userSpaceOnUse">
<stop stop-color="#E9DD00"/>
<stop offset="0.2201" stop-color="#FFB53F"/>
<stop offset="0.5421" stop-color="#D46400"/>
<stop offset="0.8467" stop-color="#4C1A57"/>
<stop offset="1" stop-color="#111A69"/>
</linearGradient>
<linearGradient id="paint7_linear_2_2477" x1="756.027" y1="528.812" x2="787.979" y2="517.182" gradientUnits="userSpaceOnUse">
<stop stop-color="#E9DD00"/>
<stop offset="0.2201" stop-color="#FFB53F"/>
<stop offset="0.5421" stop-color="#D46400"/>
<stop offset="0.8467" stop-color="#4C1A57"/>
<stop offset="1" stop-color="#111A69"/>
</linearGradient>
<linearGradient id="paint8_linear_2_2477" x1="1479.27" y1="689.179" x2="1518.74" y2="674.813" gradientUnits="userSpaceOnUse">
<stop stop-color="#E9DD00"/>
<stop offset="0.2201" stop-color="#FFB53F"/>
<stop offset="0.5421" stop-color="#D46400"/>
<stop offset="0.8467" stop-color="#4C1A57"/>
<stop offset="1" stop-color="#111A69"/>
</linearGradient>
<clipPath id="clip0_2_2477">
<rect width="1445" height="353" fill="white" transform="translate(111 724)"/>
</clipPath>
<clipPath id="clip1_2_2477">
<rect width="1445" height="353" fill="white" transform="translate(111 2161)"/>
</clipPath>
<clipPath id="clip2_2_2477">
<rect width="1445" height="353" fill="white" transform="translate(111 4222)"/>
</clipPath>
<clipPath id="clip3_2_2477">
<rect width="1440" height="353" fill="white" transform="matrix(-1 0 0 1 1556 1694)"/>
</clipPath>
<clipPath id="clip4_2_2477">
<rect width="1440" height="353" fill="white" transform="matrix(-1 0 0 1 1560 7145)"/>
</clipPath>
<clipPath id="clip5_2_2477">
<rect width="1441" height="353" fill="white" transform="matrix(-1 0 0 1 1556 468)"/>
</clipPath>
<clipPath id="clip6_2_2477">
<rect width="1440" height="162" fill="white" transform="translate(116)"/>
</clipPath>
<clipPath id="clip7_2_2477">
<rect width="1441" height="119" fill="white" transform="translate(115 172)"/>
</clipPath>
<clipPath id="clip8_2_2477">
<rect width="11" height="13" fill="white" transform="translate(786 330)"/>
</clipPath>
<clipPath id="clip9_2_2477">
<rect width="11" height="13" fill="white" transform="translate(1512 51)"/>
</clipPath>
<clipPath id="clip10_2_2477">
<rect width="11" height="13" fill="white" transform="translate(696 555)"/>
</clipPath>
<clipPath id="clip11_2_2477">
<rect width="11" height="13" fill="white" transform="translate(1469 357)"/>
</clipPath>
<clipPath id="clip12_2_2477">
<rect width="11" height="13" fill="white" transform="translate(1073 769)"/>
</clipPath>
<clipPath id="clip13_2_2477">
<rect width="11" height="13" fill="white" transform="translate(874 114)"/>
</clipPath>
<clipPath id="clip14_2_2477">
<rect width="11" height="13" fill="white" transform="translate(133 415)"/>
</clipPath>
<clipPath id="clip15_2_2477">
<rect width="11" height="13" fill="white" transform="translate(359 299)"/>
</clipPath>
<clipPath id="clip16_2_2477">
<rect width="11" height="13" fill="white" transform="translate(380 120)"/>
</clipPath>
<clipPath id="clip17_2_2477">
<rect width="160" height="158" fill="white" transform="translate(826 111)"/>
</clipPath>
<clipPath id="clip18_2_2477">
<rect width="122" height="119" fill="white" transform="translate(826 150)"/>
</clipPath>
<clipPath id="clip19_2_2477">
<rect width="201" height="198" fill="white" transform="translate(1200 565)"/>
</clipPath>
<clipPath id="clip20_2_2477">
<rect width="153.262" height="149.127" fill="white" transform="translate(1200 613.874)"/>
</clipPath>
<clipPath id="clip21_2_2477">
<rect width="54" height="53" fill="white" transform="translate(1353 624)"/>
</clipPath>
<clipPath id="clip22_2_2477">
<rect width="41.175" height="39.9177" fill="white" transform="translate(1353 637.082)"/>
</clipPath>
<clipPath id="clip23_2_2477">
<rect width="112" height="110" fill="white" transform="translate(1371 62)"/>
</clipPath>
<clipPath id="clip24_2_2477">
<rect width="85.4" height="82.8481" fill="white" transform="translate(1371 89.1519)"/>
</clipPath>
<clipPath id="clip25_2_2477">
<rect width="50.9" height="50.9" fill="white" transform="translate(588 190)"/>
</clipPath>
<clipPath id="clip26_2_2477">
<rect width="34" height="34" fill="white" transform="matrix(-1 0 0 1 789 506)"/>
</clipPath>
<clipPath id="clip27_2_2477">
<rect width="42" height="42" fill="white" transform="matrix(-1 0 0 1 1520 661)"/>
</clipPath>
</defs>
</svg>
