<svg width="1440" height="8118" viewBox="0 0 1440 8118" fill="none" xmlns="http://www.w3.org/2000/svg">
<g clip-path="url(#clip0_4_2600)">
<rect width="1440" height="8118" fill="white"/>
<path d="M957.656 1128.88C966.314 1128.88 973.333 1121.86 973.333 1113.2C973.333 1104.54 966.314 1097.52 957.656 1097.52C948.998 1097.52 941.979 1104.54 941.979 1113.2C941.979 1121.86 948.998 1128.88 957.656 1128.88Z" fill="white" fill-opacity="0.5"/>
<g clip-path="url(#clip1_4_2600)">
<path d="M-5.32861 901.299C-5.32861 901.299 138.213 989.149 237.813 982.228C337.413 975.572 761.379 781.236 810.38 771.12C859.381 761.27 986.145 724 1023.16 724C1060.18 724 1284.95 724 1377.89 759.406C1377.89 759.406 1426.89 774.581 1433.55 776.178L1439.41 776.977V844.595C1439.41 844.595 1211.44 733.584 1037.81 778.041C864.175 822.499 607.452 870.95 615.707 905.292C623.963 939.633 702.524 949.75 787.477 927.388C872.43 905.026 1035.94 862.964 1094.53 866.957C1153.12 870.95 1439.67 933.511 1439.67 933.511V1056.77C1439.67 1056.77 1128.89 965.989 1056.18 963.859C983.482 961.729 702.524 980.098 652.192 992.078C601.593 1004.32 332.886 1078.86 250.063 1077C167.241 1075.14 -5.32861 1012.31 -5.32861 1012.31V901.299Z" fill="#001E76" fill-opacity="0.03"/>
</g>
<g clip-path="url(#clip2_4_2600)">
<path d="M-5.32861 2338.3C-5.32861 2338.3 138.213 2426.15 237.813 2419.23C337.413 2412.57 761.379 2218.24 810.38 2208.12C859.381 2198.27 986.145 2161 1023.16 2161C1060.18 2161 1284.95 2161 1377.89 2196.41C1377.89 2196.41 1426.89 2211.58 1433.55 2213.18L1439.41 2213.98V2281.6C1439.41 2281.6 1211.44 2170.58 1037.81 2215.04C864.175 2259.5 607.452 2307.95 615.707 2342.29C623.963 2376.63 702.524 2386.75 787.477 2364.39C872.43 2342.03 1035.94 2299.96 1094.53 2303.96C1153.12 2307.95 1439.67 2370.51 1439.67 2370.51V2493.77C1439.67 2493.77 1128.89 2402.99 1056.18 2400.86C983.482 2398.73 702.524 2417.1 652.192 2429.08C601.593 2441.32 332.886 2515.86 250.063 2514C167.241 2512.14 -5.32861 2449.31 -5.32861 2449.31V2338.3Z" fill="#001E76" fill-opacity="0.03"/>
</g>
<g clip-path="url(#clip3_4_2600)">
<path d="M-5.32861 4399.3C-5.32861 4399.3 138.213 4487.15 237.813 4480.23C337.413 4473.57 761.379 4279.24 810.38 4269.12C859.381 4259.27 986.145 4222 1023.16 4222C1060.18 4222 1284.95 4222 1377.89 4257.41C1377.89 4257.41 1426.89 4272.58 1433.55 4274.18L1439.41 4274.98V4342.6C1439.41 4342.6 1211.44 4231.58 1037.81 4276.04C864.175 4320.5 607.452 4368.95 615.707 4403.29C623.963 4437.63 702.524 4447.75 787.477 4425.39C872.43 4403.03 1035.94 4360.96 1094.53 4364.96C1153.12 4368.95 1439.67 4431.51 1439.67 4431.51V4554.77C1439.67 4554.77 1128.89 4463.99 1056.18 4461.86C983.482 4459.73 702.524 4478.1 652.192 4490.08C601.593 4502.32 332.886 4576.86 250.063 4575C167.241 4573.14 -5.32861 4510.31 -5.32861 4510.31V4399.3Z" fill="#001E76" fill-opacity="0.03"/>
</g>
<g clip-path="url(#clip4_4_2600)">
<path d="M1439.67 1871.3C1439.67 1871.3 1296.63 1959.15 1197.37 1952.23C1098.12 1945.57 675.617 1751.24 626.785 1741.12C577.954 1731.27 451.629 1694 414.74 1694C377.85 1694 153.862 1694 61.2415 1729.41C61.2415 1729.41 12.4101 1744.58 5.77535 1746.18L-0.0632343 1746.98V1814.6C-0.0632343 1814.6 227.11 1703.58 400.143 1748.04C573.177 1792.5 829.012 1840.95 820.785 1875.29C812.557 1909.63 734.268 1919.75 649.609 1897.39C564.95 1875.03 402.001 1832.96 343.615 1836.96C285.23 1840.95 -0.328558 1903.51 -0.328558 1903.51V2026.77C-0.328558 2026.77 309.38 1935.99 381.831 1933.86C454.282 1931.73 734.268 1950.1 784.426 1962.08C834.85 1974.32 1102.63 2048.86 1185.16 2047C1267.7 2045.14 1439.67 1982.31 1439.67 1982.31V1871.3Z" fill="#001E76" fill-opacity="0.03"/>
</g>
<path d="M1439.67 3308.3C1439.67 3308.3 1296.63 3396.15 1197.37 3389.23C1098.12 3382.57 675.617 3188.24 626.785 3178.12C577.954 3168.27 451.629 3131 414.74 3131C377.85 3131 153.862 3131 61.2415 3166.41C61.2415 3166.41 12.4101 3181.58 5.77535 3183.18L-0.0632343 3183.98V3251.6C-0.0632343 3251.6 227.11 3140.58 400.143 3185.04C573.177 3229.5 829.012 3277.95 820.785 3312.29C812.557 3346.63 734.268 3356.75 649.609 3334.39C564.95 3312.03 402.001 3269.96 343.615 3273.96C285.23 3277.95 -0.328558 3340.51 -0.328558 3340.51V3463.77C-0.328558 3463.77 309.38 3372.99 381.831 3370.86C454.282 3368.73 734.268 3387.1 784.426 3399.08C834.85 3411.32 1102.63 3485.86 1185.16 3484C1267.7 3482.14 1439.67 3419.31 1439.67 3419.31V3308.3Z" fill="#001E76" fill-opacity="0.03"/>
<g clip-path="url(#clip5_4_2600)">
<path d="M1443.67 7322.3C1443.67 7322.3 1300.63 7410.15 1201.37 7403.23C1102.12 7396.57 679.617 7202.24 630.785 7192.12C581.954 7182.27 455.629 7145 418.74 7145C381.85 7145 157.862 7145 65.2415 7180.41C65.2415 7180.41 16.4101 7195.58 9.77535 7197.18L3.93677 7197.98V7265.6C3.93677 7265.6 231.11 7154.58 404.143 7199.04C577.177 7243.5 833.012 7291.95 824.785 7326.29C816.557 7360.63 738.268 7370.75 653.609 7348.39C568.95 7326.03 406.001 7283.96 347.615 7287.96C289.23 7291.95 3.67144 7354.51 3.67144 7354.51V7477.77C3.67144 7477.77 313.38 7386.99 385.831 7384.86C458.282 7382.73 738.268 7401.1 788.426 7413.08C838.85 7425.32 1106.63 7499.86 1189.16 7498C1271.7 7496.14 1443.67 7433.31 1443.67 7433.31V7322.3Z" fill="#4C1A57" fill-opacity="0.06"/>
</g>
<path d="M1443.67 5334.3C1443.67 5334.3 1300.63 5422.15 1201.37 5415.23C1102.12 5408.57 679.617 5214.24 630.785 5204.12C581.954 5194.27 455.629 5157 418.74 5157C381.85 5157 157.862 5157 65.2415 5192.41C65.2415 5192.41 16.4101 5207.58 9.77535 5209.18L3.93677 5209.98V5277.6C3.93677 5277.6 231.11 5166.58 404.143 5211.04C577.177 5255.5 833.012 5303.95 824.785 5338.29C816.557 5372.63 738.268 5382.75 653.609 5360.39C568.95 5338.03 406.001 5295.96 347.615 5299.96C289.23 5303.95 3.67144 5366.51 3.67144 5366.51V5489.77C3.67144 5489.77 313.38 5398.99 385.831 5396.86C458.282 5394.73 738.268 5413.1 788.426 5425.08C838.85 5437.32 1106.63 5511.86 1189.16 5510C1271.7 5508.14 1443.67 5445.31 1443.67 5445.31V5334.3Z" fill="#4C1A57" fill-opacity="0.04"/>
<path d="M1443.67 4878.3C1443.67 4878.3 1300.63 4966.15 1201.37 4959.23C1102.12 4952.57 679.617 4758.24 630.785 4748.12C581.954 4738.27 455.629 4701 418.74 4701C381.85 4701 157.862 4701 65.2415 4736.41C65.2415 4736.41 16.4101 4751.58 9.77535 4753.18L3.93677 4753.98V4821.6C3.93677 4821.6 231.11 4710.58 404.143 4755.04C577.177 4799.5 833.012 4847.95 824.785 4882.29C816.557 4916.63 738.268 4926.75 653.609 4904.39C568.95 4882.03 406.001 4839.96 347.615 4843.96C289.23 4847.95 3.67144 4910.51 3.67144 4910.51V5033.77C3.67144 5033.77 313.38 4942.99 385.831 4940.86C458.282 4938.73 738.268 4957.1 788.426 4969.08C838.85 4981.32 1106.63 5055.86 1189.16 5054C1271.7 5052.14 1443.67 4989.31 1443.67 4989.31V4878.3Z" fill="#4C1A57" fill-opacity="0.04"/>
<g clip-path="url(#clip6_4_2600)">
<path d="M1439.67 645.299C1439.67 645.299 1296.53 733.149 1197.2 726.228C1097.88 719.572 675.086 525.236 626.221 515.12C577.355 505.27 450.942 468 414.028 468C377.113 468 152.969 468 60.2843 503.406C60.2843 503.406 11.4189 518.581 4.77959 520.178L-1.06305 520.977V588.595C-1.06305 588.595 226.268 477.584 399.421 522.041C572.575 566.499 828.588 614.95 820.355 649.292C812.122 683.633 733.778 693.75 649.06 671.388C564.342 649.026 401.28 606.964 342.854 610.957C284.428 614.95 -1.32856 677.511 -1.32856 677.511V800.768C-1.32856 800.768 308.595 709.989 381.097 707.859C453.598 705.729 733.778 724.098 783.971 736.078C834.43 748.324 1102.39 822.864 1184.99 821C1267.58 819.137 1439.67 756.31 1439.67 756.31V645.299Z" fill="#001E76" fill-opacity="0.03"/>
</g>
<path d="M0.572428 334.056C0.572428 334.056 85.6666 403.146 248.386 391.115C410.839 379.265 758.151 257.492 794.429 247.648C830.708 238.169 1162.02 205.72 1247.11 217.569C1332.2 229.418 1439.71 239.08 1439.71 239.08V286.477C1439.71 286.477 1160.41 240.174 1035.84 256.216C911.267 272.258 628.776 317.832 625.575 330.775C622.374 343.718 619.173 365.229 672.79 363.041C726.407 360.854 1076.65 309.082 1138.27 313.457C1199.89 317.832 1305.53 349.004 1343.41 349.004C1381.29 349.004 1439.71 350.098 1439.71 350.098V431.037C1439.71 431.037 1236.17 401.87 1177.75 386.739C1119.33 371.609 904.865 377.26 841.645 383.64C778.424 390.021 436.18 449.449 331.88 456.923C227.579 464.397 24.3135 425.751 8.57502 413.902C-7.16341 402.052 0.572428 334.056 0.572428 334.056Z" fill="#151049"/>
<g clip-path="url(#clip7_4_2600)">
<path d="M-0.328613 82.3814C-0.328613 82.3814 201.107 120.558 267.104 122.065C333.1 123.572 487.888 102.223 487.888 102.223C487.888 102.223 352.714 79.3674 284.862 41.1907C217.01 3.01395 117.352 0 117.352 0H415.265C415.265 0 600.533 71.8326 739.152 61.0326C877.772 50.2326 1027.26 21.3488 1083.71 25.8698C1140.17 30.6419 1257.58 0 1257.58 0H1439.67V47.2186C1439.67 47.2186 1331.8 36.4186 1317.22 38.1767C1302.64 39.6837 1439.67 61.0326 1439.67 61.0326L1431.45 86.9023C1431.45 86.9023 1215.71 58.0186 1127.18 73.0884C1038.66 88.1581 913.023 149.442 730.936 149.442C548.849 149.442 519.958 135.628 424.807 149.442C329.655 163.256 70.4389 177.07 -0.328613 123.572V82.3814Z" fill="#220029"/>
</g>
<path d="M719.671 571C648.071 563.8 482.171 594 408.671 610C413.671 620 437.671 640 462.171 649.5C486.671 659 532.171 648 549.671 644C567.171 640 597.671 624 626.671 621C649.871 618.6 678.671 627.333 690.171 632C694.005 630 712.071 626 753.671 626C805.671 626 943.671 716.5 1140.17 678C1297.37 647.2 1405.34 650.167 1439.67 655.5V595C1389.17 592.167 1270.17 591.9 1198.17 613.5C1108.17 640.5 809.171 580 719.671 571Z" fill="#001E76"/>
<g clip-path="url(#clip8_4_2600)">
<path d="M-1.32861 201.134C-1.32861 201.134 229.146 196.641 297.702 211.135C366.257 225.63 597.799 260.127 721.839 242.878C845.879 225.63 1138.24 182.581 1176.65 179.102C1215.33 175.624 1439.67 172 1439.67 172V209.831C1439.67 209.831 1088.36 225.05 999.796 247.661C911.234 270.273 749.048 291.145 680.492 291.145C611.937 291.145 374.526 246.502 280.896 239.255C187.266 232.007 -1.32861 236.501 -1.32861 236.501V201.134Z" fill="#4C1A57" fill-opacity="0.962003"/>
</g>
<path d="M-0.328613 557.354V0H1439.67V800.819C1426.62 806.184 1338.04 816.916 1293.41 818.257C1248.77 819.599 1125.85 820.269 1090.14 826.976C1054.44 833.683 969.285 865.206 928.77 856.487C888.255 847.768 846.367 788.076 820.959 758.565C795.551 729.054 737.869 640.521 670.573 625.765C603.277 611.01 604.65 633.143 534.607 647.899C464.564 662.654 439.156 645.216 407.568 609.669C375.98 574.121 356.753 566.073 321.045 557.354C285.337 548.635 210.487 595.584 174.779 593.572C139.071 591.56 70.401 539.916 51.8602 537.233C37.0276 535.086 10.8874 549.753 -0.328613 557.354Z" fill="url(#paint0_linear_4_2600)"/>
<circle cx="593.671" cy="247" r="3" fill="#5AC7FF"/>
<circle cx="161.671" cy="515" r="3" fill="#5AC7FF"/>
<circle cx="1152.67" cy="733" r="3" fill="#5AC7FF"/>
<circle cx="1352.67" cy="543" r="3" fill="#5AC7FF"/>
<circle cx="958.671" cy="98" r="3" fill="#5AC7FF"/>
<circle cx="922.671" cy="640" r="3" fill="#5AC7FF"/>
<circle cx="64.6714" cy="227" r="3" fill="#F0AE28"/>
<circle cx="459.671" cy="521" r="3" fill="#F0AE28"/>
<circle cx="418.671" cy="66" r="3" fill="#F0AE28"/>
<circle cx="778.671" cy="599" r="3" fill="#F0AE28"/>
<circle cx="1358.67" cy="247" r="3" fill="#F0AE28"/>
<circle cx="1211.67" cy="72" r="3" fill="#F0AE28"/>
<circle cx="1318.67" cy="766" r="3" fill="#F0AE28"/>
<g clip-path="url(#clip9_4_2600)">
<path d="M669.671 343L674.731 338.017L680.671 343L676.711 336.5L680.671 330L675.171 333.467L669.671 330L673.411 336.5L669.671 343Z" fill="#F0AE28"/>
</g>
<g clip-path="url(#clip10_4_2600)">
<path d="M1395.67 64L1400.73 59.0167L1406.67 64L1402.71 57.5L1406.67 51L1401.17 54.4667L1395.67 51L1399.41 57.5L1395.67 64Z" fill="#F0AE28"/>
</g>
<g clip-path="url(#clip11_4_2600)">
<path d="M579.671 568L584.731 563.017L590.671 568L586.711 561.5L590.671 555L585.171 558.467L579.671 555L583.411 561.5L579.671 568Z" fill="#5AC7FF"/>
</g>
<g clip-path="url(#clip12_4_2600)">
<path d="M1352.67 370L1357.73 365.017L1363.67 370L1359.71 363.5L1363.67 357L1358.17 360.467L1352.67 357L1356.41 363.5L1352.67 370Z" fill="#5AC7FF"/>
</g>
<g clip-path="url(#clip13_4_2600)">
<path d="M956.671 782L961.731 777.017L967.671 782L963.711 775.5L967.671 769L962.171 772.467L956.671 769L960.411 775.5L956.671 782Z" fill="#5AC7FF"/>
</g>
<g clip-path="url(#clip14_4_2600)">
<path d="M757.671 127L762.731 122.017L768.671 127L764.711 120.5L768.671 114L763.171 117.467L757.671 114L761.411 120.5L757.671 127Z" fill="#5AC7FF"/>
</g>
<g clip-path="url(#clip15_4_2600)">
<path d="M16.6714 428L21.7314 423.017L27.6714 428L23.7114 421.5L27.6714 415L22.1714 418.467L16.6714 415L20.4114 421.5L16.6714 428Z" fill="#5AC7FF"/>
</g>
<g clip-path="url(#clip16_4_2600)">
<path d="M242.671 312L247.731 307.017L253.671 312L249.711 305.5L253.671 299L248.171 302.467L242.671 299L246.411 305.5L242.671 312Z" fill="#5AC7FF"/>
</g>
<g clip-path="url(#clip17_4_2600)">
<path d="M263.671 133L268.731 128.017L274.671 133L270.711 126.5L274.671 120L269.171 123.467L263.671 120L267.411 126.5L263.671 133Z" fill="#5AC7FF"/>
</g>
<g clip-path="url(#clip18_4_2600)">
<path d="M869.671 111C869.671 111 749.526 260.868 734.822 267.064C719.925 273.26 703.867 262.223 711.993 247.895C720.119 233.566 869.671 111 869.671 111Z" fill="#322AB3" fill-opacity="0.5"/>
<g clip-path="url(#clip19_4_2600)">
<path d="M831.671 150C831.671 150 739.904 262.918 728.667 267.678C717.43 272.438 704.856 263.976 711.277 253.398C717.698 242.82 831.671 150 831.671 150Z" fill="url(#paint1_linear_4_2600)"/>
</g>
</g>
<g clip-path="url(#clip20_4_2600)">
<path d="M1284.67 565C1284.67 565 1133.74 752.809 1115.27 760.574C1096.55 768.338 1076.38 754.507 1086.59 736.551C1096.8 718.596 1284.67 565 1284.67 565Z" fill="#4C1A57" fill-opacity="0.5"/>
<g clip-path="url(#clip21_4_2600)">
<path d="M1236.93 613.874C1236.93 613.874 1121.65 755.378 1107.53 761.343C1093.42 767.308 1077.62 756.704 1085.69 743.448C1093.75 730.192 1236.93 613.874 1236.93 613.874Z" fill="url(#paint2_linear_4_2600)" fill-opacity="0.8"/>
</g>
<g clip-path="url(#clip22_4_2600)">
<path d="M1290.67 624C1290.67 624 1250.12 674.272 1245.16 676.35C1240.13 678.429 1234.71 674.727 1237.46 669.92C1240.2 665.114 1290.67 624 1290.67 624Z" fill="#4C1A57" fill-opacity="0.5"/>
<g clip-path="url(#clip23_4_2600)">
<path d="M1277.85 637.082C1277.85 637.082 1246.87 674.96 1243.08 676.556C1239.29 678.153 1235.05 675.315 1237.21 671.766C1239.38 668.218 1277.85 637.082 1277.85 637.082Z" fill="url(#paint3_linear_4_2600)" fill-opacity="0.8"/>
</g>
</g>
</g>
<g clip-path="url(#clip24_4_2600)">
<path d="M1366.67 62C1366.67 62 1282.57 166.338 1272.28 170.652C1261.85 174.966 1250.61 167.282 1256.3 157.306C1261.98 147.331 1366.67 62 1366.67 62Z" fill="#322AB3" fill-opacity="0.5"/>
<g clip-path="url(#clip25_4_2600)">
<path d="M1340.07 89.1519C1340.07 89.1519 1275.83 167.765 1267.97 171.079C1260.1 174.393 1251.3 168.502 1255.79 161.138C1260.29 153.773 1340.07 89.1519 1340.07 89.1519Z" fill="url(#paint4_linear_4_2600)"/>
</g>
</g>
<path d="M544.749 1097.26C729.355 1097.26 879.007 947.606 879.007 763C879.007 578.394 729.355 428.741 544.749 428.741C360.143 428.741 210.49 578.394 210.49 763C210.49 947.606 360.143 1097.26 544.749 1097.26Z" stroke="white" stroke-opacity="0.5" stroke-miterlimit="10"/>
<path d="M544.749 1202.21C789.227 1202.21 987.416 1004.02 987.416 759.546C987.416 515.068 789.227 316.879 544.749 316.879C300.271 316.879 102.082 515.068 102.082 759.546C102.082 1004.02 300.271 1202.21 544.749 1202.21Z" stroke="white" stroke-opacity="0.5" stroke-miterlimit="10"/>
<path d="M952.42 4235.93C1137.03 4235.93 1286.68 4086.28 1286.68 3901.67C1286.68 3717.07 1137.03 3567.41 952.42 3567.41C767.814 3567.41 618.162 3717.07 618.162 3901.67C618.162 4086.28 767.814 4235.93 952.42 4235.93Z" stroke="white" stroke-opacity="0.5" stroke-miterlimit="10"/>
<path d="M550.329 1303.71C850.863 1303.71 1094.49 1060.08 1094.49 759.546C1094.49 459.011 850.863 215.379 550.329 215.379C249.794 215.379 6.16211 459.011 6.16211 759.546C6.16211 1060.08 249.794 1303.71 550.329 1303.71Z" stroke="white" stroke-opacity="0.5" stroke-miterlimit="10"/>
<path d="M973.333 689.931C986.393 689.931 996.981 679.343 996.981 666.283C996.981 653.223 986.393 642.635 973.333 642.635C960.273 642.635 949.685 653.223 949.685 666.283C949.685 679.343 960.273 689.931 973.333 689.931Z" fill="white" fill-opacity="0.5"/>
<path d="M547.672 1425.67C913.655 1425.67 1210.34 1128.98 1210.34 763C1210.34 397.017 913.655 100.329 547.672 100.329C181.688 100.329 -115 397.017 -115 763C-115 1128.98 181.688 1425.67 547.672 1425.67Z" stroke="white" stroke-opacity="0.5" stroke-miterlimit="10"/>
<path d="M952.42 4340.88C1196.9 4340.88 1395.09 4142.7 1395.09 3898.22C1395.09 3653.74 1196.9 3455.55 952.42 3455.55C707.942 3455.55 509.753 3653.74 509.753 3898.22C509.753 4142.7 707.942 4340.88 952.42 4340.88Z" stroke="white" stroke-opacity="0.5" stroke-miterlimit="10"/>
<path d="M958 4442.38C1258.53 4442.38 1502.17 4198.75 1502.17 3898.22C1502.17 3597.68 1258.53 3354.05 958 3354.05C657.465 3354.05 413.833 3597.68 413.833 3898.22C413.833 4198.75 657.465 4442.38 958 4442.38Z" stroke="white" stroke-opacity="0.5" stroke-miterlimit="10"/>
<path d="M493.202 1211.78C501.86 1211.78 508.878 1204.76 508.878 1196.1C508.878 1187.44 501.86 1180.42 493.202 1180.42C484.544 1180.42 477.525 1187.44 477.525 1196.1C477.525 1204.76 484.544 1211.78 493.202 1211.78Z" fill="white" fill-opacity="0.5"/>
<path d="M955.343 4564.34C1321.33 4564.34 1618.01 4267.65 1618.01 3901.67C1618.01 3535.69 1321.33 3239 955.343 3239C589.359 3239 292.671 3535.69 292.671 3901.67C292.671 4267.65 589.359 4564.34 955.343 4564.34Z" stroke="white" stroke-opacity="0.5" stroke-miterlimit="10"/>
<path d="M1381 3828.6C1394.06 3828.6 1404.65 3818.01 1404.65 3804.95C1404.65 3791.89 1394.06 3781.31 1381 3781.31C1367.94 3781.31 1357.36 3791.89 1357.36 3804.95C1357.36 3818.01 1367.94 3828.6 1381 3828.6Z" fill="white" fill-opacity="0.5"/>
<path d="M120.416 695.776C133.476 695.776 144.064 685.189 144.064 672.128C144.064 659.068 133.476 648.48 120.416 648.48C107.356 648.48 96.7681 659.068 96.7681 672.128C96.7681 685.189 107.356 695.776 120.416 695.776Z" fill="white" fill-opacity="0.5"/>
<path d="M42.0326 1207.26C50.6906 1207.26 57.7093 1200.24 57.7093 1191.58C57.7093 1182.93 50.6906 1175.91 42.0326 1175.91C33.3746 1175.91 26.356 1182.93 26.356 1191.58C26.356 1200.24 33.3746 1207.26 42.0326 1207.26Z" fill="white" fill-opacity="0.5"/>
<path d="M5.8964 807.639C14.5544 807.639 21.5731 800.62 21.5731 791.962C21.5731 783.304 14.5544 776.285 5.8964 776.285C-2.76159 776.285 -9.78027 783.304 -9.78027 791.962C-9.78027 800.62 -2.76159 807.639 5.8964 807.639Z" fill="white" fill-opacity="0.5"/>
<path d="M900.873 4350.45C909.531 4350.45 916.55 4343.43 916.55 4334.77C916.55 4326.11 909.531 4319.1 900.873 4319.1C892.215 4319.1 885.196 4326.11 885.196 4334.77C885.196 4343.43 892.215 4350.45 900.873 4350.45Z" fill="white" fill-opacity="0.5"/>
<path d="M826.711 6338.4C835.369 6338.4 842.388 6331.38 842.388 6322.72C842.388 6314.06 835.369 6307.04 826.711 6307.04C818.053 6307.04 811.034 6314.06 811.034 6322.72C811.034 6331.38 818.053 6338.4 826.711 6338.4Z" fill="white" fill-opacity="0.5"/>
<g clip-path="url(#clip26_4_2600)">
<path opacity="0.85" d="M497.071 240.8C511.099 240.8 522.471 229.428 522.471 215.4C522.471 201.372 511.099 190 497.071 190C483.043 190 471.671 201.372 471.671 215.4C471.671 229.428 483.043 240.8 497.071 240.8Z" fill="url(#paint5_linear_4_2600)"/>
</g>
<path d="M1053.04 578.866C1061.7 578.866 1068.72 571.847 1068.72 563.189C1068.72 554.531 1061.7 547.512 1053.04 547.512C1044.39 547.512 1037.37 554.531 1037.37 563.189C1037.37 571.847 1044.39 578.866 1053.04 578.866Z" fill="white" fill-opacity="0.5"/>
<path opacity="0.85" d="M65.1714 330C73.7318 330 80.6714 323.284 80.6714 315C80.6714 306.716 73.7318 300 65.1714 300C56.611 300 49.6714 306.716 49.6714 315C49.6714 323.284 56.611 330 65.1714 330Z" fill="url(#paint6_linear_4_2600)"/>
<g clip-path="url(#clip27_4_2600)">
<path opacity="0.85" d="M655.705 539.933C646.334 539.933 638.738 532.337 638.738 522.967C638.738 513.596 646.334 506 655.705 506C665.075 506 672.671 513.596 672.671 522.967C672.671 532.337 665.075 539.933 655.705 539.933Z" fill="url(#paint7_linear_4_2600)"/>
</g>
<g clip-path="url(#clip28_4_2600)">
<path opacity="0.85" d="M1382.71 702.917C1371.14 702.917 1361.75 693.534 1361.75 681.959C1361.75 670.384 1371.14 661 1382.71 661C1394.29 661 1403.67 670.384 1403.67 681.959C1403.67 693.534 1394.29 702.917 1382.71 702.917Z" fill="url(#paint8_linear_4_2600)"/>
</g>
<path d="M1187.67 1189.39C1277.27 1211.95 1393 1198.79 1439.67 1189.39V1257.87C1380.5 1265.09 1247.27 1275.19 1187.67 1257.87C1113.17 1236.22 1002.17 1273.48 973.671 1279.52C945.171 1285.56 704.171 1337.43 672.671 1339.95C641.171 1342.47 372.171 1253.34 335.171 1245.28C298.171 1237.22 225.171 1262.9 177.171 1273.48C138.771 1281.94 42.838 1307.55 -0.328613 1319.3V1282.04C2.47144 1282.44 23.1714 1276.5 33.1714 1273.48C77.1714 1257.37 192.671 1189.39 240.671 1189.39C288.671 1189.39 492.671 1221.11 520.171 1245.28C547.671 1269.45 732.171 1269.45 772.171 1245.28C812.171 1221.11 1075.67 1161.19 1187.67 1189.39Z" fill="#4C1A57" fill-opacity="0.03"/>
<path d="M1187.67 2626.39C1277.27 2648.95 1393 2635.79 1439.67 2626.39V2694.87C1380.5 2702.09 1247.27 2712.19 1187.67 2694.87C1113.17 2673.22 1002.17 2710.48 973.671 2716.52C945.171 2722.56 704.171 2774.43 672.671 2776.95C641.171 2779.47 372.171 2690.34 335.171 2682.28C298.171 2674.22 225.171 2699.9 177.171 2710.48C138.771 2718.94 42.838 2744.55 -0.328613 2756.3V2719.04C2.47144 2719.44 23.1714 2713.5 33.1714 2710.48C77.1714 2694.37 192.671 2626.39 240.671 2626.39C288.671 2626.39 492.671 2658.11 520.171 2682.28C547.671 2706.45 732.171 2706.45 772.171 2682.28C812.171 2658.11 1075.67 2598.19 1187.67 2626.39Z" fill="#4C1A57" fill-opacity="0.03"/>
<path d="M1187.67 3631.39C1277.27 3653.95 1393 3640.79 1439.67 3631.39V3699.87C1380.5 3707.09 1247.27 3717.19 1187.67 3699.87C1113.17 3678.22 1002.17 3715.48 973.671 3721.52C945.171 3727.56 704.171 3779.43 672.671 3781.95C641.171 3784.47 372.171 3695.34 335.171 3687.28C298.171 3679.22 225.171 3704.9 177.171 3715.48C138.771 3723.94 42.838 3749.55 -0.328613 3761.3V3724.04C2.47144 3724.44 23.1714 3718.5 33.1714 3715.48C77.1714 3699.37 192.671 3631.39 240.671 3631.39C288.671 3631.39 492.671 3663.11 520.171 3687.28C547.671 3711.45 732.171 3711.45 772.171 3687.28C812.171 3663.11 1075.67 3603.19 1187.67 3631.39Z" fill="#4C1A57" fill-opacity="0.03"/>
<path d="M1187.67 6723.39C1277.27 6745.95 1393 6732.79 1439.67 6723.39V6791.87C1380.5 6799.09 1247.27 6809.19 1187.67 6791.87C1113.17 6770.22 1002.17 6807.48 973.671 6813.52C945.171 6819.56 704.171 6871.43 672.671 6873.95C641.171 6876.47 372.171 6787.34 335.171 6779.28C298.171 6771.22 225.171 6796.9 177.171 6807.48C138.771 6815.94 42.838 6841.55 -0.328613 6853.3V6816.04C2.47144 6816.44 23.1714 6810.5 33.1714 6807.48C77.1714 6791.37 192.671 6723.39 240.671 6723.39C288.671 6723.39 492.671 6755.11 520.171 6779.28C547.671 6803.45 732.171 6803.45 772.171 6779.28C812.171 6755.11 1075.67 6695.19 1187.67 6723.39Z" fill="#4C1A57" fill-opacity="0.03"/>
<path d="M250.846 1439.39C161.184 1461.95 45.3705 1448.79 -1.32861 1439.39V1507.87C57.8791 1515.09 191.205 1525.19 250.846 1507.87C325.398 1486.22 436.475 1523.48 464.995 1529.52C493.515 1535.56 734.682 1587.43 766.204 1589.95C797.726 1592.47 1066.91 1503.34 1103.94 1495.28C1140.96 1487.22 1214.01 1512.9 1262.05 1523.48C1300.47 1531.94 1396.47 1557.55 1439.67 1569.3V1532.04C1436.87 1532.44 1416.16 1526.5 1406.15 1523.48C1362.12 1507.37 1246.54 1439.39 1198.5 1439.39C1150.47 1439.39 946.329 1471.11 918.81 1495.28C891.291 1519.45 706.663 1519.45 666.635 1495.28C626.607 1471.11 362.924 1411.19 250.846 1439.39Z" fill="#4C1A57" fill-opacity="0.03"/>
<path d="M250.846 2876.39C161.184 2898.95 45.3705 2885.79 -1.32861 2876.39V2944.87C57.8791 2952.09 191.205 2962.19 250.846 2944.87C325.398 2923.22 436.475 2960.48 464.995 2966.52C493.515 2972.56 734.682 3024.43 766.204 3026.95C797.726 3029.47 1066.91 2940.34 1103.94 2932.28C1140.96 2924.22 1214.01 2949.9 1262.05 2960.48C1300.47 2968.94 1396.47 2994.55 1439.67 3006.3V2969.04C1436.87 2969.44 1416.16 2963.5 1406.15 2960.48C1362.12 2944.37 1246.54 2876.39 1198.5 2876.39C1150.47 2876.39 946.329 2908.11 918.81 2932.28C891.291 2956.45 706.663 2956.45 666.635 2932.28C626.607 2908.11 362.924 2848.19 250.846 2876.39Z" fill="#4C1A57" fill-opacity="0.03"/>
<path d="M250.846 3881.39C161.184 3903.95 45.3705 3890.79 -1.32861 3881.39V3949.87C57.8791 3957.09 191.205 3967.19 250.846 3949.87C325.398 3928.22 436.475 3965.48 464.995 3971.52C493.515 3977.56 734.682 4029.43 766.204 4031.95C797.726 4034.47 1066.91 3945.34 1103.94 3937.28C1140.96 3929.22 1214.01 3954.9 1262.05 3965.48C1300.47 3973.94 1396.47 3999.55 1439.67 4011.3V3974.04C1436.87 3974.44 1416.16 3968.5 1406.15 3965.48C1362.12 3949.37 1246.54 3881.39 1198.5 3881.39C1150.47 3881.39 946.329 3913.11 918.81 3937.28C891.291 3961.45 706.663 3961.45 666.635 3937.28C626.607 3913.11 362.924 3853.19 250.846 3881.39Z" fill="#4C1A57" fill-opacity="0.03"/>
<path d="M250.846 6973.39C161.184 6995.95 45.3705 6982.79 -1.32861 6973.39V7041.87C57.8791 7049.09 191.205 7059.19 250.846 7041.87C325.398 7020.22 436.475 7057.48 464.995 7063.52C493.515 7069.56 734.682 7121.43 766.204 7123.95C797.726 7126.47 1066.91 7037.34 1103.94 7029.28C1140.96 7021.22 1214.01 7046.9 1262.05 7057.48C1300.47 7065.94 1396.47 7091.55 1439.67 7103.3V7066.04C1436.87 7066.44 1416.16 7060.5 1406.15 7057.48C1362.12 7041.37 1246.54 6973.39 1198.5 6973.39C1150.47 6973.39 946.329 7005.11 918.81 7029.28C891.291 7053.45 706.663 7053.45 666.635 7029.28C626.607 7005.11 362.924 6945.19 250.846 6973.39Z" fill="#4C1A57" fill-opacity="0.03"/>
<path d="M250.846 6283.39C161.184 6305.95 45.3705 6292.79 -1.32861 6283.39V6351.87C57.8791 6359.09 191.205 6369.19 250.846 6351.87C325.398 6330.22 436.475 6367.48 464.995 6373.52C493.515 6379.56 734.682 6431.43 766.204 6433.95C797.726 6436.47 1066.91 6347.34 1103.94 6339.28C1140.96 6331.22 1214.01 6356.9 1262.05 6367.48C1300.47 6375.94 1396.47 6401.55 1439.67 6413.3V6376.04C1436.87 6376.44 1416.16 6370.5 1406.15 6367.48C1362.12 6351.37 1246.54 6283.39 1198.5 6283.39C1150.47 6283.39 946.329 6315.11 918.81 6339.28C891.291 6363.45 706.663 6363.45 666.635 6339.28C626.607 6315.11 362.924 6255.19 250.846 6283.39Z" fill="#4C1A57" fill-opacity="0.03"/>
<path d="M346.184 6275.52L346.574 6271L347.159 6275.52L350.671 6276.37L347.159 6277.22V6284L346.184 6277.22L342.671 6276.37L346.184 6275.52Z" fill="white"/>
<path d="M754.184 6312.48L754.574 6309L755.159 6312.48L758.671 6313.13L755.159 6313.78V6319L754.184 6313.78L750.671 6313.13L754.184 6312.48Z" fill="white"/>
<path d="M808.818 6356.57L809.501 6351L810.525 6356.57L816.671 6357.61L810.525 6358.65V6367L808.818 6358.65L802.671 6357.61L808.818 6356.57Z" fill="white"/>
<path d="M898.818 6421.57L899.501 6416L900.525 6421.57L906.671 6422.61L900.525 6423.65V6432L898.818 6423.65L892.671 6422.61L898.818 6421.57Z" fill="white"/>
<path d="M855.306 6435.48L855.598 6432L856.037 6435.48L858.671 6436.13L856.037 6436.78V6442L855.306 6436.78L852.671 6436.13L855.306 6435.48Z" fill="white"/>
<circle cx="881.671" cy="6413" r="1" fill="#D9D9D9"/>
<circle cx="921.671" cy="6359" r="1" fill="#D9D9D9"/>
<path d="M1183.64 5168C1185.39 5168 1186.81 5166.58 1186.81 5164.83C1186.81 5163.08 1185.39 5161.66 1183.64 5161.66C1181.89 5161.66 1180.47 5163.08 1180.47 5164.83C1180.47 5166.58 1181.89 5168 1183.64 5168Z" fill="white"/>
</g>
<defs>
<linearGradient id="paint0_linear_4_2600" x1="719.671" y1="0" x2="719.671" y2="3134" gradientUnits="userSpaceOnUse">
<stop stop-color="#001E76"/>
<stop offset="0.220886" stop-color="#4C1A57" stop-opacity="0.962003"/>
<stop offset="0.5" stop-color="#091B6F" stop-opacity="0.879179"/>
<stop offset="1" stop-color="#3397CB" stop-opacity="0"/>
</linearGradient>
<linearGradient id="paint1_linear_4_2600" x1="770.603" y1="150" x2="770.603" y2="269.036" gradientUnits="userSpaceOnUse">
<stop stop-color="#F8E995"/>
<stop offset="0.458333" stop-color="#F0AE28"/>
<stop offset="0.998135" stop-color="#F08828"/>
</linearGradient>
<linearGradient id="paint2_linear_4_2600" x1="1160.22" y1="613.874" x2="1160.22" y2="763.046" gradientUnits="userSpaceOnUse">
<stop stop-color="#F8E995"/>
<stop offset="0.458333" stop-color="#F0AE28"/>
<stop offset="0.998135" stop-color="#F08828"/>
</linearGradient>
<linearGradient id="paint3_linear_4_2600" x1="1257.24" y1="637.082" x2="1257.24" y2="677.012" gradientUnits="userSpaceOnUse">
<stop stop-color="#F8E995"/>
<stop offset="0.458333" stop-color="#F0AE28"/>
<stop offset="0.998135" stop-color="#F08828"/>
</linearGradient>
<linearGradient id="paint4_linear_4_2600" x1="1297.32" y1="89.1519" x2="1297.32" y2="172.025" gradientUnits="userSpaceOnUse">
<stop stop-color="#F8E995"/>
<stop offset="0.458333" stop-color="#F0AE28"/>
<stop offset="0.998135" stop-color="#F08828"/>
</linearGradient>
<linearGradient id="paint5_linear_4_2600" x1="521.034" y1="224.15" x2="473.199" y2="206.74" gradientUnits="userSpaceOnUse">
<stop stop-color="#E9DD00"/>
<stop offset="0.2201" stop-color="#FFB53F"/>
<stop offset="0.5421" stop-color="#D46400"/>
<stop offset="0.8467" stop-color="#4C1A57"/>
<stop offset="1" stop-color="#111A69"/>
</linearGradient>
<linearGradient id="paint6_linear_4_2600" x1="79.7942" y1="320.168" x2="50.8334" y2="309.275" gradientUnits="userSpaceOnUse">
<stop stop-color="#E9DD00"/>
<stop offset="0.2201" stop-color="#FFB53F"/>
<stop offset="0.5421" stop-color="#D46400"/>
<stop offset="0.8467" stop-color="#4C1A57"/>
<stop offset="1" stop-color="#111A69"/>
</linearGradient>
<linearGradient id="paint7_linear_4_2600" x1="639.698" y1="528.812" x2="671.651" y2="517.182" gradientUnits="userSpaceOnUse">
<stop stop-color="#E9DD00"/>
<stop offset="0.2201" stop-color="#FFB53F"/>
<stop offset="0.5421" stop-color="#D46400"/>
<stop offset="0.8467" stop-color="#4C1A57"/>
<stop offset="1" stop-color="#111A69"/>
</linearGradient>
<linearGradient id="paint8_linear_4_2600" x1="1362.94" y1="689.179" x2="1402.41" y2="674.813" gradientUnits="userSpaceOnUse">
<stop stop-color="#E9DD00"/>
<stop offset="0.2201" stop-color="#FFB53F"/>
<stop offset="0.5421" stop-color="#D46400"/>
<stop offset="0.8467" stop-color="#4C1A57"/>
<stop offset="1" stop-color="#111A69"/>
</linearGradient>
<clipPath id="clip0_4_2600">
<rect width="1440" height="8118" fill="white"/>
</clipPath>
<clipPath id="clip1_4_2600">
<rect width="1445" height="353" fill="white" transform="translate(-5.32861 724)"/>
</clipPath>
<clipPath id="clip2_4_2600">
<rect width="1445" height="353" fill="white" transform="translate(-5.32861 2161)"/>
</clipPath>
<clipPath id="clip3_4_2600">
<rect width="1445" height="353" fill="white" transform="translate(-5.32861 4222)"/>
</clipPath>
<clipPath id="clip4_4_2600">
<rect width="1440" height="353" fill="white" transform="matrix(-1 0 0 1 1439.67 1694)"/>
</clipPath>
<clipPath id="clip5_4_2600">
<rect width="1440" height="353" fill="white" transform="matrix(-1 0 0 1 1443.67 7145)"/>
</clipPath>
<clipPath id="clip6_4_2600">
<rect width="1441" height="353" fill="white" transform="matrix(-1 0 0 1 1439.67 468)"/>
</clipPath>
<clipPath id="clip7_4_2600">
<rect width="1440" height="162" fill="white" transform="translate(-0.328613)"/>
</clipPath>
<clipPath id="clip8_4_2600">
<rect width="1441" height="119" fill="white" transform="translate(-1.32861 172)"/>
</clipPath>
<clipPath id="clip9_4_2600">
<rect width="11" height="13" fill="white" transform="translate(669.671 330)"/>
</clipPath>
<clipPath id="clip10_4_2600">
<rect width="11" height="13" fill="white" transform="translate(1395.67 51)"/>
</clipPath>
<clipPath id="clip11_4_2600">
<rect width="11" height="13" fill="white" transform="translate(579.671 555)"/>
</clipPath>
<clipPath id="clip12_4_2600">
<rect width="11" height="13" fill="white" transform="translate(1352.67 357)"/>
</clipPath>
<clipPath id="clip13_4_2600">
<rect width="11" height="13" fill="white" transform="translate(956.671 769)"/>
</clipPath>
<clipPath id="clip14_4_2600">
<rect width="11" height="13" fill="white" transform="translate(757.671 114)"/>
</clipPath>
<clipPath id="clip15_4_2600">
<rect width="11" height="13" fill="white" transform="translate(16.6714 415)"/>
</clipPath>
<clipPath id="clip16_4_2600">
<rect width="11" height="13" fill="white" transform="translate(242.671 299)"/>
</clipPath>
<clipPath id="clip17_4_2600">
<rect width="11" height="13" fill="white" transform="translate(263.671 120)"/>
</clipPath>
<clipPath id="clip18_4_2600">
<rect width="160" height="158" fill="white" transform="translate(709.671 111)"/>
</clipPath>
<clipPath id="clip19_4_2600">
<rect width="122" height="119" fill="white" transform="translate(709.671 150)"/>
</clipPath>
<clipPath id="clip20_4_2600">
<rect width="201" height="198" fill="white" transform="translate(1083.67 565)"/>
</clipPath>
<clipPath id="clip21_4_2600">
<rect width="153.262" height="149.127" fill="white" transform="translate(1083.67 613.874)"/>
</clipPath>
<clipPath id="clip22_4_2600">
<rect width="54" height="53" fill="white" transform="translate(1236.67 624)"/>
</clipPath>
<clipPath id="clip23_4_2600">
<rect width="41.175" height="39.9177" fill="white" transform="translate(1236.67 637.082)"/>
</clipPath>
<clipPath id="clip24_4_2600">
<rect width="112" height="110" fill="white" transform="translate(1254.67 62)"/>
</clipPath>
<clipPath id="clip25_4_2600">
<rect width="85.4" height="82.8481" fill="white" transform="translate(1254.67 89.1519)"/>
</clipPath>
<clipPath id="clip26_4_2600">
<rect width="50.9" height="50.9" fill="white" transform="translate(471.671 190)"/>
</clipPath>
<clipPath id="clip27_4_2600">
<rect width="34" height="34" fill="white" transform="matrix(-1 0 0 1 672.671 506)"/>
</clipPath>
<clipPath id="clip28_4_2600">
<rect width="42" height="42" fill="white" transform="matrix(-1 0 0 1 1403.67 661)"/>
</clipPath>
</defs>
</svg>
