<svg width="1440" height="8118" viewBox="0 0 1440 8118" fill="none" xmlns="http://www.w3.org/2000/svg">
<path d="M957.985 1128.88C966.643 1128.88 973.661 1121.86 973.661 1113.2C973.661 1104.54 966.643 1097.52 957.985 1097.52C949.327 1097.52 942.308 1104.54 942.308 1113.2C942.308 1121.86 949.327 1128.88 957.985 1128.88Z" fill="white" fill-opacity="0.5"/>
<g clip-path="url(#clip0_2_1235)">
<path d="M-5 901.299C-5 901.299 138.541 989.149 238.141 982.228C337.741 975.572 761.707 781.236 810.709 771.12C859.71 761.27 986.473 724 1023.49 724C1060.51 724 1285.27 724 1378.22 759.406C1378.22 759.406 1427.22 774.581 1433.87 776.178L1439.73 776.977V844.595C1439.73 844.595 1211.77 733.584 1038.14 778.041C864.503 822.499 607.78 870.95 616.036 905.292C624.291 939.633 702.853 949.75 787.806 927.388C872.759 905.026 1036.27 862.964 1094.86 866.957C1153.45 870.95 1440 933.511 1440 933.511V1056.77C1440 1056.77 1129.22 965.989 1056.51 963.859C983.81 961.729 702.853 980.098 652.52 992.078C601.921 1004.32 333.214 1078.86 250.392 1077C167.569 1075.14 -5 1012.31 -5 1012.31V901.299Z" fill="#001E76" fill-opacity="0.03"/>
</g>
<g clip-path="url(#clip1_2_1235)">
<path d="M-5 2338.3C-5 2338.3 138.541 2426.15 238.141 2419.23C337.741 2412.57 761.707 2218.24 810.709 2208.12C859.71 2198.27 986.473 2161 1023.49 2161C1060.51 2161 1285.27 2161 1378.22 2196.41C1378.22 2196.41 1427.22 2211.58 1433.87 2213.18L1439.73 2213.98V2281.6C1439.73 2281.6 1211.77 2170.58 1038.14 2215.04C864.503 2259.5 607.78 2307.95 616.036 2342.29C624.291 2376.63 702.853 2386.75 787.806 2364.39C872.759 2342.03 1036.27 2299.96 1094.86 2303.96C1153.45 2307.95 1440 2370.51 1440 2370.51V2493.77C1440 2493.77 1129.22 2402.99 1056.51 2400.86C983.81 2398.73 702.853 2417.1 652.52 2429.08C601.921 2441.32 333.214 2515.86 250.392 2514C167.569 2512.14 -5 2449.31 -5 2449.31V2338.3Z" fill="#001E76" fill-opacity="0.03"/>
</g>
<g clip-path="url(#clip2_2_1235)">
<path d="M-5 4399.3C-5 4399.3 138.541 4487.15 238.141 4480.23C337.741 4473.57 761.707 4279.24 810.709 4269.12C859.71 4259.27 986.473 4222 1023.49 4222C1060.51 4222 1285.27 4222 1378.22 4257.41C1378.22 4257.41 1427.22 4272.58 1433.87 4274.18L1439.73 4274.98V4342.6C1439.73 4342.6 1211.77 4231.58 1038.14 4276.04C864.503 4320.5 607.78 4368.95 616.036 4403.29C624.291 4437.63 702.853 4447.75 787.806 4425.39C872.759 4403.03 1036.27 4360.96 1094.86 4364.96C1153.45 4368.95 1440 4431.51 1440 4431.51V4554.77C1440 4554.77 1129.22 4463.99 1056.51 4461.86C983.81 4459.73 702.853 4478.1 652.52 4490.08C601.921 4502.32 333.214 4576.86 250.392 4575C167.569 4573.14 -5 4510.31 -5 4510.31V4399.3Z" fill="#001E76" fill-opacity="0.03"/>
</g>
<g clip-path="url(#clip3_2_1235)">
<path d="M1440 1871.3C1440 1871.3 1296.96 1959.15 1197.7 1952.23C1098.44 1945.57 675.945 1751.24 627.114 1741.12C578.282 1731.27 451.957 1694 415.068 1694C378.179 1694 154.191 1694 61.5701 1729.41C61.5701 1729.41 12.7387 1744.58 6.10397 1746.18L0.265379 1746.98V1814.6C0.265379 1814.6 227.438 1703.58 400.472 1748.04C573.505 1792.5 829.34 1840.95 821.113 1875.29C812.886 1909.63 734.596 1919.75 649.937 1897.39C565.278 1875.03 402.33 1832.96 343.944 1836.96C285.558 1840.95 5.4874e-05 1903.51 5.4874e-05 1903.51V2026.77C5.4874e-05 2026.77 309.709 1935.99 382.16 1933.86C454.611 1931.73 734.596 1950.1 784.755 1962.08C835.179 1974.32 1102.96 2048.86 1185.49 2047C1268.03 2045.14 1440 1982.31 1440 1982.31V1871.3Z" fill="#001E76" fill-opacity="0.03"/>
</g>
<path d="M1440 3308.3C1440 3308.3 1296.96 3396.15 1197.7 3389.23C1098.44 3382.57 675.945 3188.24 627.114 3178.12C578.282 3168.27 451.957 3131 415.068 3131C378.179 3131 154.191 3131 61.5701 3166.41C61.5701 3166.41 12.7387 3181.58 6.10397 3183.18L0.265379 3183.98V3251.6C0.265379 3251.6 227.438 3140.58 400.472 3185.04C573.505 3229.5 829.34 3277.95 821.113 3312.29C812.886 3346.63 734.596 3356.75 649.937 3334.39C565.278 3312.03 402.33 3269.96 343.944 3273.96C285.558 3277.95 5.4874e-05 3340.51 5.4874e-05 3340.51V3463.77C5.4874e-05 3463.77 309.709 3372.99 382.16 3370.86C454.611 3368.73 734.596 3387.1 784.755 3399.08C835.179 3411.32 1102.96 3485.86 1185.49 3484C1268.03 3482.14 1440 3419.31 1440 3419.31V3308.3Z" fill="#001E76" fill-opacity="0.03"/>
<g clip-path="url(#clip4_2_1235)">
<path d="M1444 7322.3C1444 7322.3 1300.96 7410.15 1201.7 7403.23C1102.44 7396.57 679.945 7202.24 631.114 7192.12C582.282 7182.27 455.957 7145 419.068 7145C382.179 7145 158.191 7145 65.5701 7180.41C65.5701 7180.41 16.7387 7195.58 10.104 7197.18L4.26538 7197.98V7265.6C4.26538 7265.6 231.438 7154.58 404.472 7199.04C577.505 7243.5 833.34 7291.95 825.113 7326.29C816.886 7360.63 738.596 7370.75 653.937 7348.39C569.278 7326.03 406.33 7283.96 347.944 7287.96C289.558 7291.95 4.00005 7354.51 4.00005 7354.51V7477.77C4.00005 7477.77 313.709 7386.99 386.16 7384.86C458.611 7382.73 738.596 7401.1 788.755 7413.08C839.179 7425.32 1106.96 7499.86 1189.49 7498C1272.03 7496.14 1444 7433.31 1444 7433.31V7322.3Z" fill="#4C1A57" fill-opacity="0.06"/>
<path fill-rule="evenodd" clip-rule="evenodd" d="M1209.16 7402.83C1310.28 7409.75 1456 7321.9 1456 7321.9V7432.92C1456 7432.92 1280.81 7495.74 1196.73 7497.61C1126.54 7499.16 924.87 7447.48 830.251 7423.23C811.517 7418.43 796.98 7414.71 788.491 7412.68C786.382 7412.19 783.875 7411.68 781 7411.17C807.122 7390.32 829.644 7367.7 847.071 7350.21C855.148 7342.1 862.129 7335.09 867.868 7329.87C873.522 7324.72 879.792 7318.68 886.566 7312.16C890.951 7307.94 895.548 7303.52 900.325 7299C1026.47 7349.54 1158.75 7399.51 1209.16 7402.83Z" fill="url(#paint0_linear_2_1235)"/>
</g>
<g clip-path="url(#clip5_2_1235)">
<path d="M1444 7796.3C1444 7796.3 1300.96 7884.15 1201.7 7877.23C1102.44 7870.57 679.945 7676.24 631.114 7666.12C582.282 7656.27 455.957 7619 419.068 7619C382.179 7619 158.191 7619 65.5701 7654.41C65.5701 7654.41 16.7387 7669.58 10.104 7671.18L4.26538 7671.98V7739.6C4.26538 7739.6 231.438 7628.58 404.472 7673.04C577.505 7717.5 833.34 7765.95 825.113 7800.29C816.886 7834.63 738.596 7844.75 653.937 7822.39C569.278 7800.03 406.33 7757.96 347.944 7761.96C289.558 7765.95 4.00005 7828.51 4.00005 7828.51V7951.77C4.00005 7951.77 313.709 7860.99 386.16 7858.86C458.611 7856.73 738.596 7875.1 788.755 7887.08C839.179 7899.32 1106.96 7973.86 1189.49 7972C1272.03 7970.14 1444 7907.31 1444 7907.31V7796.3Z" fill="#111A69"/>
<path fill-rule="evenodd" clip-rule="evenodd" d="M1209.16 7876.83C1310.28 7883.75 1456 7795.9 1456 7795.9V7906.92C1456 7906.92 1280.81 7969.74 1196.73 7971.61C1126.54 7973.16 924.87 7921.48 830.251 7897.23C811.517 7892.43 796.98 7888.71 788.491 7886.68C786.382 7886.19 783.875 7885.68 781 7885.17C807.122 7864.32 829.644 7841.7 847.071 7824.21C855.148 7816.1 862.129 7809.09 867.868 7803.87C873.522 7798.72 879.792 7792.68 886.566 7786.16C890.951 7781.94 895.548 7777.52 900.325 7773C1026.47 7823.54 1158.75 7873.51 1209.16 7876.83Z" fill="url(#paint1_linear_2_1235)"/>
</g>
<path d="M1444 5334.3C1444 5334.3 1300.96 5422.15 1201.7 5415.23C1102.44 5408.57 679.945 5214.24 631.114 5204.12C582.282 5194.27 455.957 5157 419.068 5157C382.179 5157 158.191 5157 65.5701 5192.41C65.5701 5192.41 16.7387 5207.58 10.104 5209.18L4.26538 5209.98V5277.6C4.26538 5277.6 231.438 5166.58 404.472 5211.04C577.505 5255.5 833.34 5303.95 825.113 5338.29C816.886 5372.63 738.596 5382.75 653.937 5360.39C569.278 5338.03 406.33 5295.96 347.944 5299.96C289.558 5303.95 4.00005 5366.51 4.00005 5366.51V5489.77C4.00005 5489.77 313.709 5398.99 386.16 5396.86C458.611 5394.73 738.596 5413.1 788.755 5425.08C839.179 5437.32 1106.96 5511.86 1189.49 5510C1272.03 5508.14 1444 5445.31 1444 5445.31V5334.3Z" fill="#4C1A57" fill-opacity="0.04"/>
<path d="M1444 4878.3C1444 4878.3 1300.96 4966.15 1201.7 4959.23C1102.44 4952.57 679.945 4758.24 631.114 4748.12C582.282 4738.27 455.957 4701 419.068 4701C382.179 4701 158.191 4701 65.5701 4736.41C65.5701 4736.41 16.7387 4751.58 10.104 4753.18L4.26538 4753.98V4821.6C4.26538 4821.6 231.438 4710.58 404.472 4755.04C577.505 4799.5 833.34 4847.95 825.113 4882.29C816.886 4916.63 738.596 4926.75 653.937 4904.39C569.278 4882.03 406.33 4839.96 347.944 4843.96C289.558 4847.95 4.00005 4910.51 4.00005 4910.51V5033.77C4.00005 5033.77 313.709 4942.99 386.16 4940.86C458.611 4938.73 738.596 4957.1 788.755 4969.08C839.179 4981.32 1106.96 5055.86 1189.49 5054C1272.03 5052.14 1444 4989.31 1444 4989.31V4878.3Z" fill="#4C1A57" fill-opacity="0.04"/>
<g clip-path="url(#clip6_2_1235)">
<path d="M1440 645.299C1440 645.299 1296.86 733.149 1197.53 726.228C1098.21 719.572 675.415 525.236 626.549 515.12C577.684 505.27 451.271 468 414.356 468C377.442 468 153.298 468 60.6129 503.406C60.6129 503.406 11.7475 518.581 5.10821 520.178L-0.734435 520.977V588.595C-0.734435 588.595 226.596 477.584 399.75 522.041C572.904 566.499 828.916 614.95 820.683 649.292C812.451 683.633 734.106 693.75 649.389 671.388C564.671 649.026 401.609 606.964 343.183 610.957C284.757 614.95 -0.999944 677.511 -0.999944 677.511V800.768C-0.999944 800.768 308.924 709.989 381.425 707.859C453.927 705.729 734.107 724.098 784.3 736.078C834.759 748.324 1102.72 822.864 1185.32 821C1267.91 819.137 1440 756.31 1440 756.31V645.299Z" fill="#001E76" fill-opacity="0.03"/>
</g>
<path d="M0.901042 334.056C0.901042 334.056 85.9953 403.146 248.715 391.115C411.167 379.265 758.48 257.492 794.758 247.648C831.037 238.169 1162.34 205.72 1247.44 217.569C1332.53 229.418 1440.03 239.08 1440.03 239.08V286.477C1440.03 286.477 1160.74 240.174 1036.17 256.216C911.596 272.258 629.104 317.832 625.903 330.775C622.702 343.718 619.501 365.229 673.119 363.041C726.736 360.854 1076.98 309.082 1138.6 313.457C1200.22 317.832 1305.86 349.004 1343.74 349.004C1381.61 349.004 1440.03 350.098 1440.03 350.098V431.037C1440.03 431.037 1236.5 401.87 1178.08 386.739C1119.66 371.609 905.194 377.26 841.973 383.64C778.753 390.021 436.509 449.449 332.208 456.923C227.908 464.397 24.6421 425.751 8.90363 413.902C-6.8348 402.052 0.901042 334.056 0.901042 334.056Z" fill="#151049"/>
<g clip-path="url(#clip7_2_1235)">
<path d="M0 82.3814C0 82.3814 201.436 120.558 267.432 122.065C333.429 123.572 488.216 102.223 488.216 102.223C488.216 102.223 353.043 79.3674 285.19 41.1907C217.338 3.01395 117.681 0 117.681 0H415.594C415.594 0 600.861 71.8326 739.481 61.0326C878.1 50.2326 1027.59 21.3488 1084.04 25.8698C1140.5 30.6419 1257.91 0 1257.91 0H1440V47.2186C1440 47.2186 1332.13 36.4186 1317.55 38.1767C1302.97 39.6837 1440 61.0326 1440 61.0326L1431.78 86.9023C1431.78 86.9023 1216.04 58.0186 1127.51 73.0884C1038.98 88.1581 913.352 149.442 731.264 149.442C549.177 149.442 520.287 135.628 425.135 149.442C329.983 163.256 70.7675 177.07 0 123.572V82.3814Z" fill="#220029"/>
</g>
<path d="M720 571C648.4 563.8 482.5 594 409 610C414 620 438 640 462.5 649.5C487 659 532.5 648 550 644C567.5 640 598 624 627 621C650.2 618.6 679 627.333 690.5 632C694.333 630 712.4 626 754 626C806 626 944 716.5 1140.5 678C1297.7 647.2 1405.67 650.167 1440 655.5V595C1389.5 592.167 1270.5 591.9 1198.5 613.5C1108.5 640.5 809.5 580 720 571Z" fill="#001E76"/>
<g clip-path="url(#clip8_2_1235)">
<path d="M-1 201.134C-1 201.134 229.475 196.641 298.03 211.135C366.586 225.63 598.127 260.127 722.168 242.878C846.208 225.63 1138.57 182.581 1176.98 179.102C1215.66 175.624 1440 172 1440 172V209.831C1440 209.831 1088.69 225.05 1000.12 247.661C911.562 270.273 749.376 291.145 680.821 291.145C612.265 291.145 374.855 246.502 281.225 239.255C187.594 232.007 -1 236.501 -1 236.501V201.134Z" fill="#4C1A57" fill-opacity="0.962003"/>
</g>
<path d="M0 557.354V0H1440V800.819C1426.95 806.184 1338.37 816.916 1293.73 818.257C1249.1 819.599 1126.18 820.269 1090.47 826.976C1054.76 833.683 969.614 865.206 929.099 856.487C888.584 847.768 846.695 788.076 821.288 758.565C795.88 729.054 738.197 640.521 670.901 625.765C603.605 611.01 604.979 633.143 534.936 647.899C464.893 662.654 439.485 645.216 407.897 609.669C376.309 574.121 357.082 566.073 321.373 557.354C285.665 548.635 210.815 595.584 175.107 593.572C139.399 591.56 70.7296 539.916 52.1888 537.233C37.3562 535.086 11.216 549.753 0 557.354Z" fill="url(#paint2_linear_2_1235)"/>
<circle cx="594" cy="247" r="3" fill="#5AC7FF"/>
<circle cx="162" cy="515" r="3" fill="#5AC7FF"/>
<circle cx="1153" cy="733" r="3" fill="#5AC7FF"/>
<circle cx="1353" cy="543" r="3" fill="#5AC7FF"/>
<circle cx="959" cy="98" r="3" fill="#5AC7FF"/>
<circle cx="923" cy="640" r="3" fill="#5AC7FF"/>
<circle cx="65" cy="227" r="3" fill="#F0AE28"/>
<circle cx="460" cy="521" r="3" fill="#F0AE28"/>
<circle cx="419" cy="66" r="3" fill="#F0AE28"/>
<circle cx="779" cy="599" r="3" fill="#F0AE28"/>
<circle cx="1359" cy="247" r="3" fill="#F0AE28"/>
<circle cx="1212" cy="72" r="3" fill="#F0AE28"/>
<circle cx="1319" cy="766" r="3" fill="#F0AE28"/>
<g clip-path="url(#clip9_2_1235)">
<path d="M670 343L675.06 338.017L681 343L677.04 336.5L681 330L675.5 333.467L670 330L673.74 336.5L670 343Z" fill="#F0AE28"/>
</g>
<g clip-path="url(#clip10_2_1235)">
<path d="M1396 64L1401.06 59.0167L1407 64L1403.04 57.5L1407 51L1401.5 54.4667L1396 51L1399.74 57.5L1396 64Z" fill="#F0AE28"/>
</g>
<g clip-path="url(#clip11_2_1235)">
<path d="M580 568L585.06 563.017L591 568L587.04 561.5L591 555L585.5 558.467L580 555L583.74 561.5L580 568Z" fill="#5AC7FF"/>
</g>
<g clip-path="url(#clip12_2_1235)">
<path d="M1353 370L1358.06 365.017L1364 370L1360.04 363.5L1364 357L1358.5 360.467L1353 357L1356.74 363.5L1353 370Z" fill="#5AC7FF"/>
</g>
<g clip-path="url(#clip13_2_1235)">
<path d="M957 782L962.06 777.017L968 782L964.04 775.5L968 769L962.5 772.467L957 769L960.74 775.5L957 782Z" fill="#5AC7FF"/>
</g>
<g clip-path="url(#clip14_2_1235)">
<path d="M758 127L763.06 122.017L769 127L765.04 120.5L769 114L763.5 117.467L758 114L761.74 120.5L758 127Z" fill="#5AC7FF"/>
</g>
<g clip-path="url(#clip15_2_1235)">
<path d="M17 428L22.06 423.017L28 428L24.04 421.5L28 415L22.5 418.467L17 415L20.74 421.5L17 428Z" fill="#5AC7FF"/>
</g>
<g clip-path="url(#clip16_2_1235)">
<path d="M243 312L248.06 307.017L254 312L250.04 305.5L254 299L248.5 302.467L243 299L246.74 305.5L243 312Z" fill="#5AC7FF"/>
</g>
<g clip-path="url(#clip17_2_1235)">
<path d="M264 133L269.06 128.017L275 133L271.04 126.5L275 120L269.5 123.467L264 120L267.74 126.5L264 133Z" fill="#5AC7FF"/>
</g>
<g clip-path="url(#clip18_2_1235)">
<path d="M870 111C870 111 749.855 260.868 735.151 267.064C720.254 273.26 704.196 262.223 712.322 247.895C720.447 233.566 870 111 870 111Z" fill="#322AB3" fill-opacity="0.5"/>
<g clip-path="url(#clip19_2_1235)">
<path d="M832 150C832 150 740.232 262.918 728.996 267.678C717.759 272.438 705.184 263.976 711.605 253.398C718.026 242.82 832 150 832 150Z" fill="url(#paint3_linear_2_1235)"/>
</g>
</g>
<g clip-path="url(#clip20_2_1235)">
<path d="M1285 565C1285 565 1134.07 752.809 1115.6 760.574C1096.88 768.338 1076.71 754.507 1086.92 736.551C1097.12 718.596 1285 565 1285 565Z" fill="#4C1A57" fill-opacity="0.5"/>
<g clip-path="url(#clip21_2_1235)">
<path d="M1237.26 613.874C1237.26 613.874 1121.98 755.378 1107.86 761.343C1093.75 767.308 1077.95 756.704 1086.02 743.448C1094.08 730.192 1237.26 613.874 1237.26 613.874Z" fill="url(#paint4_linear_2_1235)" fill-opacity="0.8"/>
</g>
<g clip-path="url(#clip22_2_1235)">
<path d="M1291 624C1291 624 1250.45 674.272 1245.49 676.35C1240.46 678.429 1235.04 674.727 1237.78 669.92C1240.53 665.114 1291 624 1291 624Z" fill="#4C1A57" fill-opacity="0.5"/>
<g clip-path="url(#clip23_2_1235)">
<path d="M1278.17 637.082C1278.17 637.082 1247.2 674.96 1243.41 676.556C1239.62 678.153 1235.37 675.315 1237.54 671.766C1239.71 668.218 1278.17 637.082 1278.17 637.082Z" fill="url(#paint5_linear_2_1235)" fill-opacity="0.8"/>
</g>
</g>
</g>
<g clip-path="url(#clip24_2_1235)">
<path d="M1367 62C1367 62 1282.9 166.338 1272.61 170.652C1262.18 174.966 1250.94 167.282 1256.63 157.306C1262.31 147.331 1367 62 1367 62Z" fill="#322AB3" fill-opacity="0.5"/>
<g clip-path="url(#clip25_2_1235)">
<path d="M1340.4 89.1519C1340.4 89.1519 1276.16 167.765 1268.3 171.079C1260.43 174.393 1251.63 168.502 1256.12 161.138C1260.62 153.773 1340.4 89.1519 1340.4 89.1519Z" fill="url(#paint6_linear_2_1235)"/>
</g>
</g>
<path d="M545.077 1097.26C729.683 1097.26 879.336 947.606 879.336 763C879.336 578.394 729.683 428.741 545.077 428.741C360.471 428.741 210.819 578.394 210.819 763C210.819 947.606 360.471 1097.26 545.077 1097.26Z" stroke="white" stroke-opacity="0.5" stroke-miterlimit="10"/>
<path d="M885 5866C1021.97 5866 1133 5754.74 1133 5617.5C1133 5480.26 1021.97 5369 885 5369C748.033 5369 637 5480.26 637 5617.5C637 5754.74 748.033 5866 885 5866Z" stroke="white" stroke-opacity="0.5" stroke-miterlimit="10"/>
<path d="M545.077 1202.21C789.555 1202.21 987.744 1004.02 987.744 759.546C987.744 515.068 789.555 316.879 545.077 316.879C300.599 316.879 102.411 515.068 102.411 759.546C102.411 1004.02 300.599 1202.21 545.077 1202.21Z" stroke="white" stroke-opacity="0.5" stroke-miterlimit="10"/>
<path d="M885 5944C1066.7 5944 1214 5796.7 1214 5615C1214 5433.3 1066.7 5286 885 5286C703.298 5286 556 5433.3 556 5615C556 5796.7 703.298 5944 885 5944Z" stroke="white" stroke-opacity="0.5" stroke-miterlimit="10"/>
<path d="M952.749 4235.93C1137.35 4235.93 1287.01 4086.28 1287.01 3901.67C1287.01 3717.07 1137.35 3567.41 952.749 3567.41C768.143 3567.41 618.49 3717.07 618.49 3901.67C618.49 4086.28 768.143 4235.93 952.749 4235.93Z" stroke="white" stroke-opacity="0.5" stroke-miterlimit="10"/>
<path d="M550.657 1303.71C851.192 1303.71 1094.82 1060.08 1094.82 759.546C1094.82 459.011 851.192 215.379 550.657 215.379C250.122 215.379 6.4906 459.011 6.4906 759.546C6.4906 1060.08 250.122 1303.71 550.657 1303.71Z" stroke="white" stroke-opacity="0.5" stroke-miterlimit="10"/>
<path d="M973.662 689.931C986.722 689.931 997.309 679.343 997.309 666.283C997.309 653.223 986.722 642.635 973.662 642.635C960.601 642.635 950.014 653.223 950.014 666.283C950.014 679.343 960.601 689.931 973.662 689.931Z" fill="white" fill-opacity="0.5"/>
<path d="M877 6044C1113.93 6044 1306 5851.71 1306 5614.5C1306 5377.29 1113.93 5185 877 5185C640.07 5185 448 5377.29 448 5614.5C448 5851.71 640.07 6044 877 6044Z" stroke="white" stroke-opacity="0.5" stroke-miterlimit="10"/>
<path d="M548 1425.67C913.983 1425.67 1210.67 1128.98 1210.67 763C1210.67 397.017 913.983 100.329 548 100.329C182.017 100.329 -114.672 397.017 -114.672 763C-114.672 1128.98 182.017 1425.67 548 1425.67Z" stroke="white" stroke-opacity="0.5" stroke-miterlimit="10"/>
<path d="M952.749 4340.88C1197.23 4340.88 1395.42 4142.7 1395.42 3898.22C1395.42 3653.74 1197.23 3455.55 952.749 3455.55C708.271 3455.55 510.082 3653.74 510.082 3898.22C510.082 4142.7 708.271 4340.88 952.749 4340.88Z" stroke="white" stroke-opacity="0.5" stroke-miterlimit="10"/>
<path d="M877 6179C1191.25 6179 1446 5924.25 1446 5610C1446 5295.75 1191.25 5041 877 5041C562.75 5041 308 5295.75 308 5610C308 5924.25 562.75 6179 877 6179Z" stroke="white" stroke-opacity="0.5" stroke-miterlimit="10"/>
<path d="M958.329 4442.38C1258.86 4442.38 1502.49 4198.75 1502.49 3898.22C1502.49 3597.68 1258.86 3354.05 958.329 3354.05C657.794 3354.05 414.162 3597.68 414.162 3898.22C414.162 4198.75 657.794 4442.38 958.329 4442.38Z" stroke="white" stroke-opacity="0.5" stroke-miterlimit="10"/>
<path d="M884 6309C1270.05 6309 1583 5996.05 1583 5610C1583 5223.95 1270.05 4911 884 4911C497.953 4911 185 5223.95 185 5610C185 5996.05 497.953 6309 884 6309Z" stroke="white" stroke-opacity="0.5" stroke-miterlimit="10"/>
<path d="M884 6514C1366.14 6514 1757 6123.14 1757 5641C1757 5158.86 1366.14 4768 884 4768C401.855 4768 11 5158.86 11 5641C11 6123.14 401.855 6514 884 6514Z" stroke="white" stroke-opacity="0.5" stroke-miterlimit="10"/>
<path d="M493.53 1211.78C502.188 1211.78 509.207 1204.76 509.207 1196.1C509.207 1187.44 502.188 1180.42 493.53 1180.42C484.872 1180.42 477.854 1187.44 477.854 1196.1C477.854 1204.76 484.872 1211.78 493.53 1211.78Z" fill="white" fill-opacity="0.5"/>
<path d="M955.672 4564.34C1321.65 4564.34 1618.34 4267.65 1618.34 3901.67C1618.34 3535.69 1321.65 3239 955.672 3239C589.688 3239 293 3535.69 293 3901.67C293 4267.65 589.688 4564.34 955.672 4564.34Z" stroke="white" stroke-opacity="0.5" stroke-miterlimit="10"/>
<path d="M1381.33 3828.6C1394.39 3828.6 1404.98 3818.01 1404.98 3804.95C1404.98 3791.89 1394.39 3781.31 1381.33 3781.31C1368.27 3781.31 1357.69 3791.89 1357.69 3804.95C1357.69 3818.01 1368.27 3828.6 1381.33 3828.6Z" fill="white" fill-opacity="0.5"/>
<path d="M120.744 695.776C133.805 695.776 144.392 685.189 144.392 672.128C144.392 659.068 133.805 648.48 120.744 648.48C107.684 648.48 97.0964 659.068 97.0964 672.128C97.0964 685.189 107.684 695.776 120.744 695.776Z" fill="white" fill-opacity="0.5"/>
<path d="M42.3609 1207.26C51.0189 1207.26 58.0376 1200.24 58.0376 1191.58C58.0376 1182.93 51.0189 1175.91 42.3609 1175.91C33.7029 1175.91 26.6843 1182.93 26.6843 1191.58C26.6843 1200.24 33.7029 1207.26 42.3609 1207.26Z" fill="white" fill-opacity="0.5"/>
<path d="M6.22489 807.639C14.8829 807.639 21.9016 800.62 21.9016 791.962C21.9016 783.304 14.8829 776.285 6.22489 776.285C-2.43309 776.285 -9.45178 783.304 -9.45178 791.962C-9.45178 800.62 -2.43309 807.639 6.22489 807.639Z" fill="white" fill-opacity="0.5"/>
<path d="M901.202 4350.45C909.86 4350.45 916.878 4343.43 916.878 4334.77C916.878 4326.11 909.86 4319.1 901.202 4319.1C892.544 4319.1 885.525 4326.11 885.525 4334.77C885.525 4343.43 892.544 4350.45 901.202 4350.45Z" fill="white" fill-opacity="0.5"/>
<path d="M827.04 6338.4C835.698 6338.4 842.716 6331.38 842.716 6322.72C842.716 6314.06 835.698 6307.04 827.04 6307.04C818.382 6307.04 811.363 6314.06 811.363 6322.72C811.363 6331.38 818.382 6338.4 827.04 6338.4Z" fill="white" fill-opacity="0.5"/>
<g clip-path="url(#clip26_2_1235)">
<path opacity="0.85" d="M497.4 240.8C511.428 240.8 522.8 229.428 522.8 215.4C522.8 201.372 511.428 190 497.4 190C483.372 190 472 201.372 472 215.4C472 229.428 483.372 240.8 497.4 240.8Z" fill="url(#paint7_linear_2_1235)"/>
</g>
<path d="M1053.37 578.866C1062.03 578.866 1069.05 571.847 1069.05 563.189C1069.05 554.531 1062.03 547.512 1053.37 547.512C1044.72 547.512 1037.7 554.531 1037.7 563.189C1037.7 571.847 1044.72 578.866 1053.37 578.866Z" fill="white" fill-opacity="0.5"/>
<path opacity="0.85" d="M65.5 330C74.0604 330 81 323.284 81 315C81 306.716 74.0604 300 65.5 300C56.9396 300 50 306.716 50 315C50 323.284 56.9396 330 65.5 330Z" fill="url(#paint8_linear_2_1235)"/>
<g clip-path="url(#clip27_2_1235)">
<path opacity="0.85" d="M656.033 539.933C646.663 539.933 639.067 532.337 639.067 522.967C639.067 513.596 646.663 506 656.033 506C665.404 506 673 513.596 673 522.967C673 532.337 665.404 539.933 656.033 539.933Z" fill="url(#paint9_linear_2_1235)"/>
</g>
<g clip-path="url(#clip28_2_1235)">
<path opacity="0.85" d="M1383.04 702.917C1371.47 702.917 1362.08 693.534 1362.08 681.959C1362.08 670.384 1371.47 661 1383.04 661C1394.62 661 1404 670.384 1404 681.959C1404 693.534 1394.62 702.917 1383.04 702.917Z" fill="url(#paint10_linear_2_1235)"/>
</g>
<path d="M1188 1189.39C1277.6 1211.95 1393.33 1198.79 1440 1189.39V1257.87C1380.83 1265.09 1247.6 1275.19 1188 1257.87C1113.5 1236.22 1002.5 1273.48 974 1279.52C945.5 1285.56 704.5 1337.43 673 1339.95C641.5 1342.47 372.5 1253.34 335.5 1245.28C298.5 1237.22 225.5 1262.9 177.5 1273.48C139.1 1281.94 43.1666 1307.55 0 1319.3V1282.04C2.80005 1282.44 23.5 1276.5 33.5 1273.48C77.5 1257.37 193 1189.39 241 1189.39C289 1189.39 493 1221.11 520.5 1245.28C548 1269.45 732.5 1269.45 772.5 1245.28C812.5 1221.11 1076 1161.19 1188 1189.39Z" fill="#4C1A57" fill-opacity="0.03"/>
<path d="M1188 2626.39C1277.6 2648.95 1393.33 2635.79 1440 2626.39V2694.87C1380.83 2702.09 1247.6 2712.19 1188 2694.87C1113.5 2673.22 1002.5 2710.48 974 2716.52C945.5 2722.56 704.5 2774.43 673 2776.95C641.5 2779.47 372.5 2690.34 335.5 2682.28C298.5 2674.22 225.5 2699.9 177.5 2710.48C139.1 2718.94 43.1666 2744.55 0 2756.3V2719.04C2.80005 2719.44 23.5 2713.5 33.5 2710.48C77.5 2694.37 193 2626.39 241 2626.39C289 2626.39 493 2658.11 520.5 2682.28C548 2706.45 732.5 2706.45 772.5 2682.28C812.5 2658.11 1076 2598.19 1188 2626.39Z" fill="#4C1A57" fill-opacity="0.03"/>
<path d="M1188 3631.39C1277.6 3653.95 1393.33 3640.79 1440 3631.39V3699.87C1380.83 3707.09 1247.6 3717.19 1188 3699.87C1113.5 3678.22 1002.5 3715.48 974 3721.52C945.5 3727.56 704.5 3779.43 673 3781.95C641.5 3784.47 372.5 3695.34 335.5 3687.28C298.5 3679.22 225.5 3704.9 177.5 3715.48C139.1 3723.94 43.1666 3749.55 0 3761.3V3724.04C2.80005 3724.44 23.5 3718.5 33.5 3715.48C77.5 3699.37 193 3631.39 241 3631.39C289 3631.39 493 3663.11 520.5 3687.28C548 3711.45 732.5 3711.45 772.5 3687.28C812.5 3663.11 1076 3603.19 1188 3631.39Z" fill="#4C1A57" fill-opacity="0.03"/>
<path d="M1188 6723.39C1277.6 6745.95 1393.33 6732.79 1440 6723.39V6791.87C1380.83 6799.09 1247.6 6809.19 1188 6791.87C1113.5 6770.22 1002.5 6807.48 974 6813.52C945.5 6819.56 704.5 6871.43 673 6873.95C641.5 6876.47 372.5 6787.34 335.5 6779.28C298.5 6771.22 225.5 6796.9 177.5 6807.48C139.1 6815.94 43.1666 6841.55 0 6853.3V6816.04C2.80005 6816.44 23.5 6810.5 33.5 6807.48C77.5 6791.37 193 6723.39 241 6723.39C289 6723.39 493 6755.11 520.5 6779.28C548 6803.45 732.5 6803.45 772.5 6779.28C812.5 6755.11 1076 6695.19 1188 6723.39Z" fill="#4C1A57" fill-opacity="0.03"/>
<path d="M251.175 1439.39C161.513 1461.95 45.6991 1448.79 -1 1439.39V1507.87C58.2078 1515.09 191.534 1525.19 251.175 1507.87C325.727 1486.22 436.804 1523.48 465.324 1529.52C493.843 1535.56 735.011 1587.43 766.533 1589.95C798.054 1592.47 1067.24 1503.34 1104.27 1495.28C1141.29 1487.22 1214.34 1512.9 1262.38 1523.48C1300.8 1531.94 1396.8 1557.55 1440 1569.3V1532.04C1437.2 1532.44 1416.48 1526.5 1406.48 1523.48C1362.45 1507.37 1246.87 1439.39 1198.83 1439.39C1150.8 1439.39 946.658 1471.11 919.138 1495.28C891.619 1519.45 706.991 1519.45 666.964 1495.28C626.936 1471.11 363.253 1411.19 251.175 1439.39Z" fill="#4C1A57" fill-opacity="0.03"/>
<path d="M251.175 2876.39C161.513 2898.95 45.6991 2885.79 -1 2876.39V2944.87C58.2078 2952.09 191.534 2962.19 251.175 2944.87C325.727 2923.22 436.804 2960.48 465.324 2966.52C493.843 2972.56 735.011 3024.43 766.533 3026.95C798.054 3029.47 1067.24 2940.34 1104.27 2932.28C1141.29 2924.22 1214.34 2949.9 1262.38 2960.48C1300.8 2968.94 1396.8 2994.55 1440 3006.3V2969.04C1437.2 2969.44 1416.48 2963.5 1406.48 2960.48C1362.45 2944.37 1246.87 2876.39 1198.83 2876.39C1150.8 2876.39 946.658 2908.11 919.138 2932.28C891.619 2956.45 706.991 2956.45 666.964 2932.28C626.936 2908.11 363.253 2848.19 251.175 2876.39Z" fill="#4C1A57" fill-opacity="0.03"/>
<path d="M251.175 3881.39C161.513 3903.95 45.6991 3890.79 -1 3881.39V3949.87C58.2078 3957.09 191.534 3967.19 251.175 3949.87C325.727 3928.22 436.804 3965.48 465.324 3971.52C493.843 3977.56 735.011 4029.43 766.533 4031.95C798.054 4034.47 1067.24 3945.34 1104.27 3937.28C1141.29 3929.22 1214.34 3954.9 1262.38 3965.48C1300.8 3973.94 1396.8 3999.55 1440 4011.3V3974.04C1437.2 3974.44 1416.48 3968.5 1406.48 3965.48C1362.45 3949.37 1246.87 3881.39 1198.83 3881.39C1150.8 3881.39 946.658 3913.11 919.138 3937.28C891.619 3961.45 706.991 3961.45 666.964 3937.28C626.936 3913.11 363.253 3853.19 251.175 3881.39Z" fill="#4C1A57" fill-opacity="0.03"/>
<path d="M251.175 6973.39C161.513 6995.95 45.6991 6982.79 -1 6973.39V7041.87C58.2078 7049.09 191.534 7059.19 251.175 7041.87C325.727 7020.22 436.804 7057.48 465.324 7063.52C493.843 7069.56 735.011 7121.43 766.533 7123.95C798.054 7126.47 1067.24 7037.34 1104.27 7029.28C1141.29 7021.22 1214.34 7046.9 1262.38 7057.48C1300.8 7065.94 1396.8 7091.55 1440 7103.3V7066.04C1437.2 7066.44 1416.48 7060.5 1406.48 7057.48C1362.45 7041.37 1246.87 6973.39 1198.83 6973.39C1150.8 6973.39 946.658 7005.11 919.138 7029.28C891.619 7053.45 706.991 7053.45 666.964 7029.28C626.936 7005.11 363.253 6945.19 251.175 6973.39Z" fill="#4C1A57" fill-opacity="0.03"/>
<path d="M251.175 6283.39C161.513 6305.95 45.6991 6292.79 -1 6283.39V6351.87C58.2078 6359.09 191.534 6369.19 251.175 6351.87C325.727 6330.22 436.804 6367.48 465.324 6373.52C493.843 6379.56 735.011 6431.43 766.533 6433.95C798.054 6436.47 1067.24 6347.34 1104.27 6339.28C1141.29 6331.22 1214.34 6356.9 1262.38 6367.48C1300.8 6375.94 1396.8 6401.55 1440 6413.3V6376.04C1437.2 6376.44 1416.48 6370.5 1406.48 6367.48C1362.45 6351.37 1246.87 6283.39 1198.83 6283.39C1150.8 6283.39 946.658 6315.11 919.138 6339.28C891.619 6363.45 706.991 6363.45 666.964 6339.28C626.936 6315.11 363.253 6255.19 251.175 6283.39Z" fill="#4C1A57" fill-opacity="0.03"/>
<path d="M-201 7539.21V8118H1671V7286.38C1654.04 7280.81 1538.88 7269.66 1480.85 7268.27C1422.83 7266.88 1263.03 7266.18 1216.61 7259.22C1170.19 7252.25 1059.5 7219.52 1006.83 7228.57C954.159 7237.63 899.704 7299.61 866.674 7330.26C833.644 7360.91 758.657 7452.84 671.172 7468.17C583.687 7483.49 585.472 7460.51 494.416 7445.18C403.361 7429.86 370.331 7447.97 329.266 7484.88C288.202 7521.8 263.206 7530.15 216.785 7539.21C170.365 7548.26 73.0601 7499.51 26.6395 7501.6C-19.7811 7503.69 -109.051 7557.32 -133.155 7560.1C-152.437 7562.33 -186.419 7547.1 -201 7539.21Z" fill="url(#paint11_linear_2_1235)"/>
<path d="M1076.36 7770.22C1057.56 7765.82 1038.86 7784.72 1031.86 7794.72C987.362 7794.72 1002.86 7863.72 1031.86 7870.72C1055.06 7876.32 1071.2 7856.72 1076.36 7846.22C1085.2 7851.72 1107.56 7862.92 1126.36 7863.72C1149.86 7864.72 1162.36 7835.72 1179.86 7835.72C1197.36 7835.72 1206.36 7851.72 1237.86 7851.72C1269.36 7851.72 1275.86 7838.22 1289.36 7835.72C1300.16 7833.72 1315.2 7845.55 1321.36 7851.72C1332.53 7859.05 1358.66 7873.12 1373.86 7870.72C1389.06 7868.32 1401.53 7857.05 1405.86 7851.72C1417.53 7853.89 1446.86 7856.92 1470.86 7851.72C1500.86 7845.22 1494.36 7821.72 1488.36 7807.22C1482.36 7792.72 1459.86 7785.72 1440.86 7785.72C1421.86 7785.72 1410.36 7794.72 1390.36 7785.72C1370.36 7776.72 1359.36 7770.22 1338.36 7770.22C1317.36 7770.22 1316.86 7785.72 1297.86 7781.22C1278.86 7776.72 1272.36 7748.22 1244.36 7751.22C1216.36 7754.22 1209.86 7770.22 1198.86 7770.22C1187.86 7770.22 1171.86 7755.72 1156.36 7762.22C1140.86 7768.72 1132.86 7787.22 1116.36 7785.72C1099.86 7784.22 1099.86 7775.72 1076.36 7770.22Z" fill="#FBFEFF" fill-opacity="0.02"/>
<path d="M264.362 7878.22C245.562 7873.82 226.862 7892.72 219.862 7902.72C175.362 7902.72 190.862 7971.72 219.862 7978.72C243.062 7984.32 259.196 7964.72 264.362 7954.22C273.196 7959.72 295.562 7970.92 314.362 7971.72C337.862 7972.72 350.362 7943.72 367.862 7943.72C385.362 7943.72 394.362 7959.72 425.862 7959.72C457.362 7959.72 463.862 7946.22 477.362 7943.72C488.162 7941.72 503.196 7953.55 509.362 7959.72C520.529 7967.05 546.662 7981.12 561.862 7978.72C577.062 7976.32 589.529 7965.05 593.862 7959.72C605.529 7961.89 634.862 7964.92 658.862 7959.72C688.862 7953.22 682.362 7929.72 676.362 7915.22C670.362 7900.72 647.862 7893.72 628.862 7893.72C609.862 7893.72 598.362 7902.72 578.362 7893.72C558.362 7884.72 547.362 7878.22 526.362 7878.22C505.362 7878.22 504.862 7893.72 485.862 7889.22C466.862 7884.72 460.362 7856.22 432.362 7859.22C404.362 7862.22 397.862 7878.22 386.862 7878.22C375.862 7878.22 359.862 7863.72 344.362 7870.22C328.862 7876.72 320.862 7895.22 304.362 7893.72C287.862 7892.22 287.862 7883.72 264.362 7878.22Z" fill="#FBFEFF" fill-opacity="0.02"/>
<path d="M613.978 7993.91C587.744 7987.75 561.649 8014.21 551.881 8028.21C489.783 8028.21 511.413 8124.82 551.881 8134.62C584.255 8142.46 606.769 8115.02 613.978 8100.32C626.305 8108.02 657.517 8123.7 683.751 8124.82C716.544 8126.22 733.988 8085.62 758.408 8085.62C782.828 8085.62 795.388 8108.02 839.344 8108.02C883.301 8108.02 892.372 8089.12 911.21 8085.62C926.281 8082.82 947.259 8099.38 955.865 8108.02C971.447 8118.28 1007.92 8137.98 1029.13 8134.62C1050.34 8131.26 1067.73 8115.48 1073.78 8108.02C1090.06 8111.05 1130.99 8115.3 1164.49 8108.02C1206.35 8098.92 1197.28 8066.01 1188.91 8045.71C1180.53 8025.41 1149.14 8015.61 1122.62 8015.61C1096.11 8015.61 1080.06 8028.21 1052.15 8015.61C1024.24 8003.01 1008.89 7993.91 979.588 7993.91C950.283 7993.91 949.585 8015.61 923.072 8009.31C896.558 8003.01 887.488 7963.11 848.415 7967.31C809.342 7971.51 800.272 7993.91 784.922 7993.91C769.572 7993.91 747.244 7973.61 725.615 7982.71C703.985 7991.81 692.822 8017.71 669.797 8015.61C646.772 8013.51 646.772 8001.61 613.978 7993.91Z" fill="#FBFEFF" fill-opacity="0.02"/>
<path d="M85.9785 7663.91C59.7439 7657.75 33.649 7684.21 23.8808 7698.21C-38.2169 7698.21 -16.5874 7794.82 23.8808 7804.62C56.2553 7812.46 78.7686 7785.02 85.9785 7770.32C98.305 7778.02 129.517 7793.7 155.751 7794.82C188.544 7796.22 205.988 7755.62 230.408 7755.62C254.828 7755.62 267.388 7778.02 311.344 7778.02C355.301 7778.02 364.372 7759.12 383.21 7755.62C398.281 7752.82 419.259 7769.38 427.865 7778.02C443.447 7788.28 479.915 7807.98 501.126 7804.62C522.337 7801.26 539.734 7785.48 545.781 7778.02C562.061 7781.05 602.994 7785.3 636.485 7778.02C678.349 7768.92 669.278 7736.01 660.906 7715.71C652.533 7695.41 621.135 7685.61 594.622 7685.61C568.108 7685.61 552.06 7698.21 524.151 7685.61C496.242 7673.01 480.892 7663.91 451.588 7663.91C422.283 7663.91 421.585 7685.61 395.072 7679.31C368.558 7673.01 359.488 7633.11 320.415 7637.31C281.342 7641.51 272.272 7663.91 256.922 7663.91C241.572 7663.91 219.244 7643.61 197.615 7652.71C175.985 7661.81 164.822 7687.71 141.797 7685.61C118.772 7683.51 118.772 7671.61 85.9785 7663.91Z" fill="#FBFEFF" fill-opacity="0.02"/>
<path d="M346.512 6275.52L346.902 6271L347.488 6275.52L351 6276.37L347.488 6277.22V6284L346.512 6277.22L343 6276.37L346.512 6275.52Z" fill="white"/>
<path d="M754.512 6312.48L754.902 6309L755.488 6312.48L759 6313.13L755.488 6313.78V6319L754.512 6313.78L751 6313.13L754.512 6312.48Z" fill="white"/>
<path d="M809.146 6356.57L809.829 6351L810.854 6356.57L817 6357.61L810.854 6358.65V6367L809.146 6358.65L803 6357.61L809.146 6356.57Z" fill="white"/>
<path d="M899.146 6421.57L899.829 6416L900.854 6421.57L907 6422.61L900.854 6423.65V6432L899.146 6423.65L893 6422.61L899.146 6421.57Z" fill="white"/>
<path d="M855.634 6435.48L855.927 6432L856.366 6435.48L859 6436.13L856.366 6436.78V6442L855.634 6436.78L853 6436.13L855.634 6435.48Z" fill="white"/>
<circle cx="882" cy="6413" r="1" fill="#D9D9D9"/>
<circle cx="922" cy="6359" r="1" fill="#D9D9D9"/>
<path d="M134 7640L136 7624L139 7640L157 7643L139 7646V7670L134 7646L116 7643L134 7640Z" fill="white"/>
<path d="M1011.39 7383.83L1013.88 7364L1017.61 7383.83L1040 7387.54L1017.61 7391.26V7421L1011.39 7391.26L989 7387.54L1011.39 7383.83Z" fill="white"/>
<path d="M129.024 7850.96L129.805 7844L130.976 7850.96L138 7852.26L130.976 7853.57V7864L129.024 7853.57L122 7852.26L129.024 7850.96Z" fill="white"/>
<path d="M1005.78 7645.35L1006.76 7637L1008.22 7645.35L1017 7646.91L1008.22 7648.48V7661L1005.78 7648.48L997 7646.91L1005.78 7645.35Z" fill="white"/>
<path d="M238.293 7939.13L239.659 7928L241.707 7939.13L254 7941.22L241.707 7943.3V7960L238.293 7943.3L226 7941.22L238.293 7939.13Z" fill="white"/>
<path d="M741.488 7898.22L743.098 7885L745.512 7898.22L760 7900.7L745.512 7903.17V7923L741.488 7903.17L727 7900.7L741.488 7898.22Z" fill="white"/>
<path d="M1140.93 7754.57L1142.59 7741L1145.07 7754.57L1160 7757.11L1145.07 7759.65V7780L1140.93 7759.65L1126 7757.11L1140.93 7754.57Z" fill="white"/>
<path d="M418.293 8069.13L419.659 8058L421.707 8069.13L434 8071.22L421.707 8073.3V8090L418.293 8073.3L406 8071.22L418.293 8069.13Z" fill="white"/>
<path d="M1363.93 7915.57L1365.59 7902L1368.07 7915.57L1383 7918.11L1368.07 7920.65V7941L1363.93 7920.65L1349 7918.11L1363.93 7915.57Z" fill="white"/>
<path d="M331.268 8096.96L331.854 8090L332.732 8096.96L338 8098.26L332.732 8099.57V8110L331.268 8099.57L326 8098.26L331.268 8096.96Z" fill="white"/>
<path d="M1256.15 7949.7L1256.83 7941L1257.85 7949.7L1264 7951.33L1257.85 7952.96V7966L1256.15 7952.96L1250 7951.33L1256.15 7949.7Z" fill="white"/>
<path d="M52 7774L54 7758L57 7774L75 7777L57 7780V7804L52 7780L34 7777L52 7774Z" fill="white"/>
<path d="M910.39 7549.83L912.878 7530L916.61 7549.83L939 7553.54L916.61 7557.26V7587L910.39 7557.26L888 7553.54L910.39 7549.83Z" fill="white"/>
<path d="M404 7856L406 7840L409 7856L427 7859L409 7862V7886L404 7862L386 7859L404 7856Z" fill="white"/>
<path d="M939.512 7799.13L941.902 7780L945.488 7799.13L967 7802.72L945.488 7806.3V7835L939.512 7806.3L918 7802.72L939.512 7799.13Z" fill="white"/>
<path d="M1346.39 7651.83L1348.88 7632L1352.61 7651.83L1375 7655.54L1352.61 7659.26V7689L1346.39 7659.26L1324 7655.54L1346.39 7651.83Z" fill="white"/>
<circle cx="384" cy="8052" r="2" fill="#D9D9D9"/>
<circle cx="915.5" cy="8032.5" r="2.5" fill="#D9D9D9"/>
<circle cx="1321.5" cy="7894.5" r="2.5" fill="#D9D9D9"/>
<circle cx="464" cy="7944" r="2" fill="#D9D9D9"/>
<ellipse cx="1010.5" cy="7904" rx="2.5" ry="2" fill="#D9D9D9"/>
<circle cx="1420.5" cy="7760.5" r="2.5" fill="#D9D9D9"/>
<g clip-path="url(#clip29_2_1235)">
<path opacity="0.85" d="M324.762 7409.52C391.457 7409.52 445.525 7355.46 445.525 7288.76C445.525 7222.07 391.457 7168 324.762 7168C258.067 7168 204 7222.07 204 7288.76C204 7355.46 258.067 7409.52 324.762 7409.52Z" fill="url(#paint12_linear_2_1235)"/>
</g>
<g clip-path="url(#clip30_2_1235)">
<path opacity="0.85" d="M324.927 7513.85C345.322 7513.85 361.855 7497.32 361.855 7476.93C361.855 7456.53 345.322 7440 324.927 7440C304.533 7440 288 7456.53 288 7476.93C288 7497.32 304.533 7513.85 324.927 7513.85Z" fill="url(#paint13_linear_2_1235)"/>
</g>
<g clip-path="url(#clip31_2_1235)">
<path opacity="0.85" d="M147.953 7426.91C161.182 7426.91 171.906 7416.18 171.906 7402.95C171.906 7389.72 161.182 7379 147.953 7379C134.724 7379 124 7389.72 124 7402.95C124 7416.18 134.724 7426.91 147.953 7426.91Z" fill="url(#paint14_linear_2_1235)"/>
</g>
<path opacity="0.85" d="M512.5 7440C540.943 7440 564 7417.61 564 7390C564 7362.39 540.943 7340 512.5 7340C484.057 7340 461 7362.39 461 7390C461 7417.61 484.057 7440 512.5 7440Z" fill="url(#paint15_linear_2_1235)"/>
<g clip-path="url(#clip32_2_1235)">
<path opacity="0.85" d="M1224.92 7586.85C1246.42 7586.85 1263.85 7569.42 1263.85 7547.92C1263.85 7526.43 1246.42 7509 1224.92 7509C1203.43 7509 1186 7526.43 1186 7547.92C1186 7569.42 1203.43 7586.85 1224.92 7586.85Z" fill="url(#paint16_linear_2_1235)"/>
</g>
<g clip-path="url(#clip33_2_1235)">
<path opacity="0.85" d="M1123.46 8073.92C1134.21 8073.92 1142.92 8065.21 1142.92 8054.46C1142.92 8043.71 1134.21 8035 1123.46 8035C1112.71 8035 1104 8043.71 1104 8054.46C1104 8065.21 1112.71 8073.92 1123.46 8073.92Z" fill="url(#paint17_linear_2_1235)"/>
</g>
<g clip-path="url(#clip34_2_1235)">
<path opacity="0.85" d="M875.967 7669.93C885.337 7669.93 892.933 7662.34 892.933 7652.97C892.933 7643.6 885.337 7636 875.967 7636C866.596 7636 859 7643.6 859 7652.97C859 7662.34 866.596 7669.93 875.967 7669.93Z" fill="url(#paint18_linear_2_1235)"/>
</g>
<path d="M1183.97 5168C1185.72 5168 1187.14 5166.58 1187.14 5164.83C1187.14 5163.08 1185.72 5161.66 1183.97 5161.66C1182.22 5161.66 1180.8 5163.08 1180.8 5164.83C1180.8 5166.58 1182.22 5168 1183.97 5168Z" fill="white"/>
<defs>
<linearGradient id="paint0_linear_2_1235" x1="733.73" y1="8117.6" x2="733.73" y2="4863.07" gradientUnits="userSpaceOnUse">
<stop stop-color="#001E76"/>
<stop offset="0.220886" stop-color="#4C1A57" stop-opacity="0.962003"/>
<stop offset="0.5" stop-color="#091B6F" stop-opacity="0.879179"/>
<stop offset="1" stop-color="#3397CB" stop-opacity="0"/>
</linearGradient>
<linearGradient id="paint1_linear_2_1235" x1="733.73" y1="8591.6" x2="733.73" y2="5337.07" gradientUnits="userSpaceOnUse">
<stop stop-color="#001E76"/>
<stop offset="0.220886" stop-color="#4C1A57" stop-opacity="0.962003"/>
<stop offset="0.5" stop-color="#091B6F" stop-opacity="0.879179"/>
<stop offset="1" stop-color="#3397CB" stop-opacity="0"/>
</linearGradient>
<linearGradient id="paint2_linear_2_1235" x1="720" y1="0" x2="720" y2="3134" gradientUnits="userSpaceOnUse">
<stop stop-color="#001E76"/>
<stop offset="0.220886" stop-color="#4C1A57" stop-opacity="0.962003"/>
<stop offset="0.5" stop-color="#091B6F" stop-opacity="0.879179"/>
<stop offset="1" stop-color="#3397CB" stop-opacity="0"/>
</linearGradient>
<linearGradient id="paint3_linear_2_1235" x1="770.931" y1="150" x2="770.931" y2="269.036" gradientUnits="userSpaceOnUse">
<stop stop-color="#F8E995"/>
<stop offset="0.458333" stop-color="#F0AE28"/>
<stop offset="0.998135" stop-color="#F08828"/>
</linearGradient>
<linearGradient id="paint4_linear_2_1235" x1="1160.55" y1="613.874" x2="1160.55" y2="763.046" gradientUnits="userSpaceOnUse">
<stop stop-color="#F8E995"/>
<stop offset="0.458333" stop-color="#F0AE28"/>
<stop offset="0.998135" stop-color="#F08828"/>
</linearGradient>
<linearGradient id="paint5_linear_2_1235" x1="1257.56" y1="637.082" x2="1257.56" y2="677.012" gradientUnits="userSpaceOnUse">
<stop stop-color="#F8E995"/>
<stop offset="0.458333" stop-color="#F0AE28"/>
<stop offset="0.998135" stop-color="#F08828"/>
</linearGradient>
<linearGradient id="paint6_linear_2_1235" x1="1297.65" y1="89.1519" x2="1297.65" y2="172.025" gradientUnits="userSpaceOnUse">
<stop stop-color="#F8E995"/>
<stop offset="0.458333" stop-color="#F0AE28"/>
<stop offset="0.998135" stop-color="#F08828"/>
</linearGradient>
<linearGradient id="paint7_linear_2_1235" x1="521.363" y1="224.15" x2="473.528" y2="206.74" gradientUnits="userSpaceOnUse">
<stop stop-color="#E9DD00"/>
<stop offset="0.2201" stop-color="#FFB53F"/>
<stop offset="0.5421" stop-color="#D46400"/>
<stop offset="0.8467" stop-color="#4C1A57"/>
<stop offset="1" stop-color="#111A69"/>
</linearGradient>
<linearGradient id="paint8_linear_2_1235" x1="80.1228" y1="320.168" x2="51.1621" y2="309.275" gradientUnits="userSpaceOnUse">
<stop stop-color="#E9DD00"/>
<stop offset="0.2201" stop-color="#FFB53F"/>
<stop offset="0.5421" stop-color="#D46400"/>
<stop offset="0.8467" stop-color="#4C1A57"/>
<stop offset="1" stop-color="#111A69"/>
</linearGradient>
<linearGradient id="paint9_linear_2_1235" x1="640.027" y1="528.812" x2="671.979" y2="517.182" gradientUnits="userSpaceOnUse">
<stop stop-color="#E9DD00"/>
<stop offset="0.2201" stop-color="#FFB53F"/>
<stop offset="0.5421" stop-color="#D46400"/>
<stop offset="0.8467" stop-color="#4C1A57"/>
<stop offset="1" stop-color="#111A69"/>
</linearGradient>
<linearGradient id="paint10_linear_2_1235" x1="1363.27" y1="689.179" x2="1402.74" y2="674.813" gradientUnits="userSpaceOnUse">
<stop stop-color="#E9DD00"/>
<stop offset="0.2201" stop-color="#FFB53F"/>
<stop offset="0.5421" stop-color="#D46400"/>
<stop offset="0.8467" stop-color="#4C1A57"/>
<stop offset="1" stop-color="#111A69"/>
</linearGradient>
<linearGradient id="paint11_linear_2_1235" x1="735" y1="8118" x2="735" y2="4863.46" gradientUnits="userSpaceOnUse">
<stop stop-color="#001E76"/>
<stop offset="0.220886" stop-color="#4C1A57" stop-opacity="0.962003"/>
<stop offset="0.5" stop-color="#091B6F" stop-opacity="0.879179"/>
<stop offset="1" stop-color="#3397CB" stop-opacity="0"/>
</linearGradient>
<linearGradient id="paint12_linear_2_1235" x1="438.691" y1="7330.37" x2="211.265" y2="7247.59" gradientUnits="userSpaceOnUse">
<stop stop-color="#E9DD00"/>
<stop offset="0.2201" stop-color="#FFB53F"/>
<stop offset="0.5421" stop-color="#D46400"/>
<stop offset="0.8467" stop-color="#4C1A57"/>
<stop offset="1" stop-color="#111A69"/>
</linearGradient>
<linearGradient id="paint13_linear_2_1235" x1="359.765" y1="7489.65" x2="290.221" y2="7464.34" gradientUnits="userSpaceOnUse">
<stop stop-color="#E9DD00"/>
<stop offset="0.2201" stop-color="#FFB53F"/>
<stop offset="0.5421" stop-color="#D46400"/>
<stop offset="0.8467" stop-color="#4C1A57"/>
<stop offset="1" stop-color="#111A69"/>
</linearGradient>
<linearGradient id="paint14_linear_2_1235" x1="170.55" y1="7411.2" x2="125.441" y2="7394.79" gradientUnits="userSpaceOnUse">
<stop stop-color="#E9DD00"/>
<stop offset="0.2201" stop-color="#FFB53F"/>
<stop offset="0.5421" stop-color="#D46400"/>
<stop offset="0.8467" stop-color="#4C1A57"/>
<stop offset="1" stop-color="#111A69"/>
</linearGradient>
<linearGradient id="paint15_linear_2_1235" x1="561.086" y1="7407.23" x2="464.784" y2="7371.12" gradientUnits="userSpaceOnUse">
<stop stop-color="#E9DD00"/>
<stop offset="0.2201" stop-color="#FFB53F"/>
<stop offset="0.5421" stop-color="#D46400"/>
<stop offset="0.8467" stop-color="#4C1A57"/>
<stop offset="1" stop-color="#111A69"/>
</linearGradient>
<linearGradient id="paint16_linear_2_1235" x1="1261.64" y1="7561.33" x2="1188.34" y2="7534.65" gradientUnits="userSpaceOnUse">
<stop stop-color="#E9DD00"/>
<stop offset="0.2201" stop-color="#FFB53F"/>
<stop offset="0.5421" stop-color="#D46400"/>
<stop offset="0.8467" stop-color="#4C1A57"/>
<stop offset="1" stop-color="#111A69"/>
</linearGradient>
<linearGradient id="paint17_linear_2_1235" x1="1141.82" y1="8061.17" x2="1105.17" y2="8047.83" gradientUnits="userSpaceOnUse">
<stop stop-color="#E9DD00"/>
<stop offset="0.2201" stop-color="#FFB53F"/>
<stop offset="0.5421" stop-color="#D46400"/>
<stop offset="0.8467" stop-color="#4C1A57"/>
<stop offset="1" stop-color="#111A69"/>
</linearGradient>
<linearGradient id="paint18_linear_2_1235" x1="891.973" y1="7658.81" x2="860.021" y2="7647.18" gradientUnits="userSpaceOnUse">
<stop stop-color="#E9DD00"/>
<stop offset="0.2201" stop-color="#FFB53F"/>
<stop offset="0.5421" stop-color="#D46400"/>
<stop offset="0.8467" stop-color="#4C1A57"/>
<stop offset="1" stop-color="#111A69"/>
</linearGradient>
<clipPath id="clip0_2_1235">
<rect width="1445" height="353" fill="white" transform="translate(-5 724)"/>
</clipPath>
<clipPath id="clip1_2_1235">
<rect width="1445" height="353" fill="white" transform="translate(-5 2161)"/>
</clipPath>
<clipPath id="clip2_2_1235">
<rect width="1445" height="353" fill="white" transform="translate(-5 4222)"/>
</clipPath>
<clipPath id="clip3_2_1235">
<rect width="1440" height="353" fill="white" transform="matrix(-1 0 0 1 1440 1694)"/>
</clipPath>
<clipPath id="clip4_2_1235">
<rect width="1440" height="353" fill="white" transform="matrix(-1 0 0 1 1444 7145)"/>
</clipPath>
<clipPath id="clip5_2_1235">
<rect width="1440" height="353" fill="white" transform="matrix(-1 0 0 1 1444 7619)"/>
</clipPath>
<clipPath id="clip6_2_1235">
<rect width="1441" height="353" fill="white" transform="matrix(-1 0 0 1 1440 468)"/>
</clipPath>
<clipPath id="clip7_2_1235">
<rect width="1440" height="162" fill="white"/>
</clipPath>
<clipPath id="clip8_2_1235">
<rect width="1441" height="119" fill="white" transform="translate(-1 172)"/>
</clipPath>
<clipPath id="clip9_2_1235">
<rect width="11" height="13" fill="white" transform="translate(670 330)"/>
</clipPath>
<clipPath id="clip10_2_1235">
<rect width="11" height="13" fill="white" transform="translate(1396 51)"/>
</clipPath>
<clipPath id="clip11_2_1235">
<rect width="11" height="13" fill="white" transform="translate(580 555)"/>
</clipPath>
<clipPath id="clip12_2_1235">
<rect width="11" height="13" fill="white" transform="translate(1353 357)"/>
</clipPath>
<clipPath id="clip13_2_1235">
<rect width="11" height="13" fill="white" transform="translate(957 769)"/>
</clipPath>
<clipPath id="clip14_2_1235">
<rect width="11" height="13" fill="white" transform="translate(758 114)"/>
</clipPath>
<clipPath id="clip15_2_1235">
<rect width="11" height="13" fill="white" transform="translate(17 415)"/>
</clipPath>
<clipPath id="clip16_2_1235">
<rect width="11" height="13" fill="white" transform="translate(243 299)"/>
</clipPath>
<clipPath id="clip17_2_1235">
<rect width="11" height="13" fill="white" transform="translate(264 120)"/>
</clipPath>
<clipPath id="clip18_2_1235">
<rect width="160" height="158" fill="white" transform="translate(710 111)"/>
</clipPath>
<clipPath id="clip19_2_1235">
<rect width="122" height="119" fill="white" transform="translate(710 150)"/>
</clipPath>
<clipPath id="clip20_2_1235">
<rect width="201" height="198" fill="white" transform="translate(1084 565)"/>
</clipPath>
<clipPath id="clip21_2_1235">
<rect width="153.262" height="149.127" fill="white" transform="translate(1084 613.874)"/>
</clipPath>
<clipPath id="clip22_2_1235">
<rect width="54" height="53" fill="white" transform="translate(1237 624)"/>
</clipPath>
<clipPath id="clip23_2_1235">
<rect width="41.175" height="39.9177" fill="white" transform="translate(1237 637.082)"/>
</clipPath>
<clipPath id="clip24_2_1235">
<rect width="112" height="110" fill="white" transform="translate(1255 62)"/>
</clipPath>
<clipPath id="clip25_2_1235">
<rect width="85.4" height="82.8481" fill="white" transform="translate(1255 89.1519)"/>
</clipPath>
<clipPath id="clip26_2_1235">
<rect width="50.9" height="50.9" fill="white" transform="translate(472 190)"/>
</clipPath>
<clipPath id="clip27_2_1235">
<rect width="34" height="34" fill="white" transform="matrix(-1 0 0 1 673 506)"/>
</clipPath>
<clipPath id="clip28_2_1235">
<rect width="42" height="42" fill="white" transform="matrix(-1 0 0 1 1404 661)"/>
</clipPath>
<clipPath id="clip29_2_1235">
<rect width="242" height="242" fill="white" transform="translate(204 7168)"/>
</clipPath>
<clipPath id="clip30_2_1235">
<rect width="74" height="74" fill="white" transform="translate(288 7440)"/>
</clipPath>
<clipPath id="clip31_2_1235">
<rect width="48" height="48" fill="white" transform="translate(124 7379)"/>
</clipPath>
<clipPath id="clip32_2_1235">
<rect width="78" height="78" fill="white" transform="translate(1186 7509)"/>
</clipPath>
<clipPath id="clip33_2_1235">
<rect width="39" height="39" fill="white" transform="translate(1104 8035)"/>
</clipPath>
<clipPath id="clip34_2_1235">
<rect width="34" height="34" fill="white" transform="translate(859 7636)"/>
</clipPath>
</defs>
</svg>
