<svg width="" height="" viewBox="0 0 1440 992" fill="none" xmlns="http://www.w3.org/2000/svg">
<g clip-path="url(#clip0_81_2217)">
<g clip-path="url(#clip1_81_2217)">
<path d="M1444 670.299C1444 670.299 1300.96 758.149 1201.7 751.228C1102.44 744.572 679.945 550.236 631.114 540.12C582.282 530.27 455.957 493 419.068 493C382.179 493 158.191 493 65.5702 528.406C65.5702 528.406 16.7386 543.581 10.104 545.178L4.26538 545.977V613.595C4.26538 613.595 231.438 502.584 404.472 547.041C577.505 591.499 833.34 639.95 825.113 674.292C816.886 708.633 738.596 718.75 653.937 696.388C569.278 674.026 406.329 631.964 347.944 635.957C289.558 639.95 4 702.511 4 702.511V825.768C4 825.768 313.709 734.989 386.16 732.859C458.611 730.729 738.596 749.098 788.755 761.078C839.179 773.324 1106.96 847.864 1189.49 846C1272.03 844.137 1444 781.31 1444 781.31V670.299Z" fill="#111A69"/>
<path fill-rule="evenodd" clip-rule="evenodd" d="M1209.16 750.833C1310.28 757.755 1456 669.904 1456 669.904V780.915C1456 780.915 1280.81 843.742 1196.73 845.605C1126.54 847.161 924.87 795.48 830.251 771.233C811.517 766.432 796.98 762.707 788.491 760.683C786.382 760.189 783.875 759.683 781 759.169C807.122 738.316 829.644 715.705 847.071 698.209C855.148 690.101 862.129 683.092 867.868 677.865C873.522 672.716 879.792 666.682 886.566 660.162C890.951 655.942 895.548 651.518 900.325 647C1026.47 697.537 1158.75 747.515 1209.16 750.833Z" fill="url(#paint0_linear_81_2217)"/>
</g>
<path d="M-201 413.209V992H1671V160.38C1654.04 154.808 1538.88 143.664 1480.85 142.271C1422.83 140.878 1263.03 140.182 1216.61 133.217C1170.19 126.252 1059.5 93.5165 1006.83 102.571C954.159 111.625 899.704 173.614 866.674 204.26C833.644 234.906 758.657 326.844 671.172 342.167C583.687 357.49 585.472 334.505 494.416 319.182C403.361 303.859 370.331 321.968 329.266 358.883C288.202 395.797 263.206 404.155 216.785 413.209C170.365 422.264 73.0601 373.509 26.6395 375.599C-19.7811 377.688 -109.051 431.318 -133.155 434.104C-152.437 436.333 -186.419 421.103 -201 413.209Z" fill="url(#paint1_linear_81_2217)"/>
<path d="M1076.36 644.221C1057.56 639.821 1038.86 658.721 1031.86 668.721C987.362 668.721 1002.86 737.721 1031.86 744.721C1055.06 750.321 1071.2 730.721 1076.36 720.221C1085.2 725.721 1107.56 736.921 1126.36 737.721C1149.86 738.721 1162.36 709.721 1179.86 709.721C1197.36 709.721 1206.36 725.721 1237.86 725.721C1269.36 725.721 1275.86 712.221 1289.36 709.721C1300.16 707.721 1315.2 719.554 1321.36 725.721C1332.53 733.054 1358.66 747.121 1373.86 744.721C1389.06 742.321 1401.53 731.054 1405.86 725.721C1417.53 727.887 1446.86 730.921 1470.86 725.721C1500.86 719.221 1494.36 695.721 1488.36 681.221C1482.36 666.721 1459.86 659.721 1440.86 659.721C1421.86 659.721 1410.36 668.721 1390.36 659.721C1370.36 650.721 1359.36 644.221 1338.36 644.221C1317.36 644.221 1316.86 659.721 1297.86 655.221C1278.86 650.721 1272.36 622.221 1244.36 625.221C1216.36 628.221 1209.86 644.221 1198.86 644.221C1187.86 644.221 1171.86 629.721 1156.36 636.221C1140.86 642.721 1132.86 661.221 1116.36 659.721C1099.86 658.221 1099.86 649.721 1076.36 644.221Z" fill="#FBFEFF" fill-opacity="0.02"/>
<path d="M264.362 752.221C245.562 747.821 226.862 766.721 219.862 776.721C175.362 776.721 190.862 845.721 219.862 852.721C243.062 858.321 259.196 838.721 264.362 828.221C273.196 833.721 295.562 844.921 314.362 845.721C337.862 846.721 350.362 817.721 367.862 817.721C385.362 817.721 394.362 833.721 425.862 833.721C457.362 833.721 463.862 820.221 477.362 817.721C488.162 815.721 503.196 827.554 509.362 833.721C520.529 841.054 546.662 855.121 561.862 852.721C577.062 850.321 589.529 839.054 593.862 833.721C605.529 835.887 634.862 838.921 658.862 833.721C688.862 827.221 682.362 803.721 676.362 789.221C670.362 774.721 647.862 767.721 628.862 767.721C609.862 767.721 598.362 776.721 578.362 767.721C558.362 758.721 547.362 752.221 526.362 752.221C505.362 752.221 504.862 767.721 485.862 763.221C466.862 758.721 460.362 730.221 432.362 733.221C404.362 736.221 397.862 752.221 386.862 752.221C375.862 752.221 359.862 737.721 344.362 744.221C328.862 750.721 320.862 769.221 304.362 767.721C287.862 766.221 287.862 757.721 264.362 752.221Z" fill="#FBFEFF" fill-opacity="0.02"/>
<path d="M613.978 867.911C587.744 861.75 561.649 888.212 551.881 902.212C489.783 902.212 511.413 998.818 551.881 1008.62C584.255 1016.46 606.769 989.017 613.978 974.317C626.305 982.017 657.517 997.698 683.751 998.818C716.544 1000.22 733.988 959.616 758.408 959.616C782.828 959.616 795.388 982.017 839.344 982.017C883.301 982.017 892.372 963.116 911.21 959.616C926.281 956.816 947.259 973.383 955.865 982.017C971.447 992.284 1007.92 1011.98 1029.13 1008.62C1050.34 1005.26 1067.73 989.484 1073.78 982.017C1090.06 985.051 1130.99 989.297 1164.49 982.017C1206.35 972.917 1197.28 940.015 1188.91 919.713C1180.53 899.412 1149.14 889.612 1122.62 889.612C1096.11 889.612 1080.06 902.212 1052.15 889.612C1024.24 877.011 1008.89 867.911 979.588 867.911C950.283 867.911 949.585 889.612 923.072 883.311C896.558 877.011 887.488 837.109 848.415 841.309C809.342 845.509 800.272 867.911 784.922 867.911C769.572 867.911 747.244 847.609 725.615 856.71C703.985 865.81 692.822 891.712 669.797 889.612C646.772 887.512 646.772 875.611 613.978 867.911Z" fill="#FBFEFF" fill-opacity="0.02"/>
<path d="M85.9785 537.911C59.7439 531.75 33.649 558.212 23.8808 572.212C-38.2169 572.212 -16.5874 668.818 23.8808 678.619C56.2553 686.459 78.7686 659.017 85.9785 644.317C98.305 652.017 129.517 667.698 155.751 668.818C188.544 670.218 205.988 629.616 230.408 629.616C254.828 629.616 267.388 652.017 311.344 652.017C355.301 652.017 364.372 633.116 383.21 629.616C398.281 626.816 419.259 643.383 427.865 652.017C443.447 662.284 479.915 681.979 501.126 678.619C522.337 675.258 539.734 659.484 545.781 652.017C562.061 655.051 602.994 659.297 636.485 652.017C678.349 642.917 669.278 610.015 660.906 589.713C652.533 569.412 621.135 559.612 594.622 559.612C568.108 559.612 552.06 572.212 524.151 559.612C496.242 547.011 480.892 537.911 451.588 537.911C422.283 537.911 421.585 559.612 395.072 553.311C368.558 547.011 359.488 507.109 320.415 511.309C281.342 515.509 272.272 537.911 256.922 537.911C241.572 537.911 219.244 517.609 197.615 526.71C175.985 535.81 164.822 561.712 141.797 559.612C118.772 557.512 118.772 545.611 85.9785 537.911Z" fill="#FBFEFF" fill-opacity="0.02"/>
<path d="M134 514L136 498L139 514L157 517L139 520V544L134 520L116 517L134 514Z" fill="white"/>
<path d="M1011.39 257.826L1013.88 238L1017.61 257.826L1040 261.543L1017.61 265.261V295L1011.39 265.261L989 261.543L1011.39 257.826Z" fill="white"/>
<path d="M129.024 724.957L129.805 718L130.976 724.957L138 726.261L130.976 727.565V738L129.024 727.565L122 726.261L129.024 724.957Z" fill="white"/>
<path d="M1005.78 519.348L1006.76 511L1008.22 519.348L1017 520.913L1008.22 522.478V535L1005.78 522.478L997 520.913L1005.78 519.348Z" fill="white"/>
<path d="M238.293 813.13L239.659 802L241.707 813.13L254 815.217L241.707 817.304V834L238.293 817.304L226 815.217L238.293 813.13Z" fill="white"/>
<path d="M741.488 772.217L743.098 759L745.512 772.217L760 774.696L745.512 777.174V797L741.488 777.174L727 774.696L741.488 772.217Z" fill="white"/>
<path d="M1140.93 628.565L1142.59 615L1145.07 628.565L1160 631.109L1145.07 633.652V654L1140.93 633.652L1126 631.109L1140.93 628.565Z" fill="white"/>
<path d="M418.293 943.13L419.659 932L421.707 943.13L434 945.217L421.707 947.304V964L418.293 947.304L406 945.217L418.293 943.13Z" fill="white"/>
<path d="M1363.93 789.565L1365.59 776L1368.07 789.565L1383 792.109L1368.07 794.652V815L1363.93 794.652L1349 792.109L1363.93 789.565Z" fill="white"/>
<path d="M331.268 970.957L331.854 964L332.732 970.957L338 972.261L332.732 973.565V984L331.268 973.565L326 972.261L331.268 970.957Z" fill="white"/>
<path d="M1256.15 823.696L1256.83 815L1257.85 823.696L1264 825.326L1257.85 826.957V840L1256.15 826.957L1250 825.326L1256.15 823.696Z" fill="white"/>
<path d="M52 648L54 632L57 648L75 651L57 654V678L52 654L34 651L52 648Z" fill="white"/>
<path d="M910.39 423.826L912.878 404L916.61 423.826L939 427.543L916.61 431.261V461L910.39 431.261L888 427.543L910.39 423.826Z" fill="white"/>
<path d="M404 730L406 714L409 730L427 733L409 736V760L404 736L386 733L404 730Z" fill="white"/>
<path d="M939.512 673.13L941.902 654L945.488 673.13L967 676.717L945.488 680.304V709L939.512 680.304L918 676.717L939.512 673.13Z" fill="white"/>
<path d="M1346.39 525.826L1348.88 506L1352.61 525.826L1375 529.543L1352.61 533.261V563L1346.39 533.261L1324 529.543L1346.39 525.826Z" fill="white"/>
<circle cx="384" cy="926" r="2" fill="#D9D9D9"/>
<circle cx="915.5" cy="906.5" r="2.5" fill="#D9D9D9"/>
<circle cx="1321.5" cy="768.5" r="2.5" fill="#D9D9D9"/>
<circle cx="464" cy="818" r="2" fill="#D9D9D9"/>
<ellipse cx="1010.5" cy="778" rx="2.5" ry="2" fill="#D9D9D9"/>
<circle cx="1420.5" cy="634.5" r="2.5" fill="#D9D9D9"/>
<g clip-path="url(#clip2_81_2217)">
<path opacity="0.85" d="M324.762 283.525C391.457 283.525 445.525 229.457 445.525 162.762C445.525 96.0671 391.457 42 324.762 42C258.067 42 204 96.0671 204 162.762C204 229.457 258.067 283.525 324.762 283.525Z" fill="url(#paint2_linear_81_2217)"/>
</g>
<g clip-path="url(#clip3_81_2217)">
<path opacity="0.85" d="M324.927 387.855C345.322 387.855 361.855 371.322 361.855 350.927C361.855 330.533 345.322 314 324.927 314C304.533 314 288 330.533 288 350.927C288 371.322 304.533 387.855 324.927 387.855Z" fill="url(#paint3_linear_81_2217)"/>
</g>
<g clip-path="url(#clip4_81_2217)">
<path opacity="0.85" d="M147.953 300.906C161.182 300.906 171.906 290.182 171.906 276.953C171.906 263.724 161.182 253 147.953 253C134.724 253 124 263.724 124 276.953C124 290.182 134.724 300.906 147.953 300.906Z" fill="url(#paint4_linear_81_2217)"/>
</g>
<path opacity="0.85" d="M512.5 314C540.943 314 564 291.614 564 264C564 236.386 540.943 214 512.5 214C484.057 214 461 236.386 461 264C461 291.614 484.057 314 512.5 314Z" fill="url(#paint5_linear_81_2217)"/>
<g clip-path="url(#clip5_81_2217)">
<path opacity="0.85" d="M1224.92 460.847C1246.42 460.847 1263.85 443.42 1263.85 421.923C1263.85 400.427 1246.42 383 1224.92 383C1203.43 383 1186 400.427 1186 421.923C1186 443.42 1203.43 460.847 1224.92 460.847Z" fill="url(#paint6_linear_81_2217)"/>
</g>
<g clip-path="url(#clip6_81_2217)">
<path opacity="0.85" d="M1123.46 947.923C1134.21 947.923 1142.92 939.21 1142.92 928.462C1142.92 917.713 1134.21 909 1123.46 909C1112.71 909 1104 917.713 1104 928.462C1104 939.21 1112.71 947.923 1123.46 947.923Z" fill="url(#paint7_linear_81_2217)"/>
</g>
<g clip-path="url(#clip7_81_2217)">
<path opacity="0.85" d="M875.967 543.933C885.337 543.933 892.933 536.337 892.933 526.967C892.933 517.596 885.337 510 875.967 510C866.596 510 859 517.596 859 526.967C859 536.337 866.596 543.933 875.967 543.933Z" fill="url(#paint8_linear_81_2217)"/>
</g>
</g>
<defs>
<linearGradient id="paint0_linear_81_2217" x1="733.73" y1="1465.6" x2="733.73" y2="-1788.93" gradientUnits="userSpaceOnUse">
<stop stop-color="#001E76"/>
<stop offset="0.220886" stop-color="#4C1A57" stop-opacity="0.962003"/>
<stop offset="0.5" stop-color="#091B6F" stop-opacity="0.879179"/>
<stop offset="1" stop-color="#3397CB" stop-opacity="0"/>
</linearGradient>
<linearGradient id="paint1_linear_81_2217" x1="735" y1="992" x2="735" y2="-2262.54" gradientUnits="userSpaceOnUse">
<stop stop-color="#001E76"/>
<stop offset="0.220886" stop-color="#4C1A57" stop-opacity="0.962003"/>
<stop offset="0.5" stop-color="#091B6F" stop-opacity="0.879179"/>
<stop offset="1" stop-color="#3397CB" stop-opacity="0"/>
</linearGradient>
<linearGradient id="paint2_linear_81_2217" x1="438.691" y1="204.366" x2="211.265" y2="121.589" gradientUnits="userSpaceOnUse">
<stop stop-color="#E9DD00"/>
<stop offset="0.2201" stop-color="#FFB53F"/>
<stop offset="0.5421" stop-color="#D46400"/>
<stop offset="0.8467" stop-color="#4C1A57"/>
<stop offset="1" stop-color="#111A69"/>
</linearGradient>
<linearGradient id="paint3_linear_81_2217" x1="359.765" y1="363.649" x2="290.221" y2="338.337" gradientUnits="userSpaceOnUse">
<stop stop-color="#E9DD00"/>
<stop offset="0.2201" stop-color="#FFB53F"/>
<stop offset="0.5421" stop-color="#D46400"/>
<stop offset="0.8467" stop-color="#4C1A57"/>
<stop offset="1" stop-color="#111A69"/>
</linearGradient>
<linearGradient id="paint4_linear_81_2217" x1="170.55" y1="285.205" x2="125.441" y2="268.786" gradientUnits="userSpaceOnUse">
<stop stop-color="#E9DD00"/>
<stop offset="0.2201" stop-color="#FFB53F"/>
<stop offset="0.5421" stop-color="#D46400"/>
<stop offset="0.8467" stop-color="#4C1A57"/>
<stop offset="1" stop-color="#111A69"/>
</linearGradient>
<linearGradient id="paint5_linear_81_2217" x1="561.086" y1="281.225" x2="464.784" y2="245.123" gradientUnits="userSpaceOnUse">
<stop stop-color="#E9DD00"/>
<stop offset="0.2201" stop-color="#FFB53F"/>
<stop offset="0.5421" stop-color="#D46400"/>
<stop offset="0.8467" stop-color="#4C1A57"/>
<stop offset="1" stop-color="#111A69"/>
</linearGradient>
<linearGradient id="paint6_linear_81_2217" x1="1261.64" y1="435.333" x2="1188.34" y2="408.653" gradientUnits="userSpaceOnUse">
<stop stop-color="#E9DD00"/>
<stop offset="0.2201" stop-color="#FFB53F"/>
<stop offset="0.5421" stop-color="#D46400"/>
<stop offset="0.8467" stop-color="#4C1A57"/>
<stop offset="1" stop-color="#111A69"/>
</linearGradient>
<linearGradient id="paint7_linear_81_2217" x1="1141.82" y1="935.166" x2="1105.17" y2="921.826" gradientUnits="userSpaceOnUse">
<stop stop-color="#E9DD00"/>
<stop offset="0.2201" stop-color="#FFB53F"/>
<stop offset="0.5421" stop-color="#D46400"/>
<stop offset="0.8467" stop-color="#4C1A57"/>
<stop offset="1" stop-color="#111A69"/>
</linearGradient>
<linearGradient id="paint8_linear_81_2217" x1="891.973" y1="532.812" x2="860.021" y2="521.182" gradientUnits="userSpaceOnUse">
<stop stop-color="#E9DD00"/>
<stop offset="0.2201" stop-color="#FFB53F"/>
<stop offset="0.5421" stop-color="#D46400"/>
<stop offset="0.8467" stop-color="#4C1A57"/>
<stop offset="1" stop-color="#111A69"/>
</linearGradient>
<clipPath id="clip0_81_2217">
<rect width="1440" height="992" fill="white"/>
</clipPath>
<clipPath id="clip1_81_2217">
<rect width="1440" height="353" fill="white" transform="matrix(-1 0 0 1 1444 493)"/>
</clipPath>
<clipPath id="clip2_81_2217">
<rect width="242" height="242" fill="white" transform="translate(204 42)"/>
</clipPath>
<clipPath id="clip3_81_2217">
<rect width="74" height="74" fill="white" transform="translate(288 314)"/>
</clipPath>
<clipPath id="clip4_81_2217">
<rect width="48" height="48" fill="white" transform="translate(124 253)"/>
</clipPath>
<clipPath id="clip5_81_2217">
<rect width="78" height="78" fill="white" transform="translate(1186 383)"/>
</clipPath>
<clipPath id="clip6_81_2217">
<rect width="39" height="39" fill="white" transform="translate(1104 909)"/>
</clipPath>
<clipPath id="clip7_81_2217">
<rect width="34" height="34" fill="white" transform="translate(859 510)"/>
</clipPath>
</defs>
</svg>
