<svg width="" height="" viewBox="0 0 46 46" fill="none" xmlns="http://www.w3.org/2000/svg">
<circle cx="22.6169" cy="22.6169" r="22.6169" fill="#F0AE28"/>
<g clip-path="url(#clip0_20_6)">
<path d="M21.8541 17.0566L21.2157 16.075C16.7983 19.0442 14.3442 22.6519 14.3442 25.6212C14.3442 28.4922 16.4551 29.8422 18.2464 29.8422C20.5042 29.8422 22.0992 27.9276 22.0992 25.9157C22.0992 24.2225 21.0194 22.7744 19.5713 22.2341C19.1543 22.0865 18.7616 21.964 18.7616 21.2525C18.7616 20.3447 19.4244 18.9955 21.8541 17.0566ZM31.5967 17.0566L30.9582 16.075C26.5896 19.0442 24.0868 22.6519 24.0868 25.6212C24.0868 28.4922 26.2464 29.8422 28.0377 29.8422C30.3198 29.8422 31.9399 27.9276 31.9399 25.9157C31.9399 24.2225 30.8357 22.7744 29.3381 22.2341C28.9211 22.0865 28.5528 21.964 28.5528 21.2525C28.5528 20.3447 29.24 18.9947 31.5959 17.0558L31.5967 17.0566Z" fill="white"/>
</g>
<defs>
<clipPath id="clip0_20_6">
<rect width="25.1299" height="25.1299" fill="white" transform="translate(14.3442 10.4058)"/>
</clipPath>
</defs>
</svg>
