<svg width="" height="" viewBox="0 0 40 42" fill="none" xmlns="http://www.w3.org/2000/svg">
<path d="M3.08331 22.2286L10.7223 24.2744L13.6668 22.5759V19.3883L10.7559 17.7168L3.08349 19.7726C2.92926 19.8137 2.77431 19.8341 2.62072 19.8341C1.83264 19.8341 1.11147 19.3077 0.898487 18.5105C0.643257 17.5577 1.20812 16.5786 2.16076 16.3237L6.36694 15.1967L2.48944 12.9705C1.6348 12.4796 1.33904 11.3884 1.83001 10.5334C2.32261 9.67844 3.41162 9.38222 4.26662 9.87428L8.1521 12.1057L7.02537 7.89808C6.77041 6.94561 7.33446 5.96631 8.28756 5.71135C9.23431 5.46301 10.2174 6.02162 10.4727 6.97345L12.52 14.6128L15.4491 16.2949L18.2258 14.6895V11.3208L12.6107 5.70573C11.9136 5.00831 11.9136 3.87868 12.6107 3.18117C13.3079 2.48385 14.4373 2.48385 15.1351 3.18117L18.2258 6.27186V1.78507C18.2258 0.799328 19.0253 0 20.0111 0C20.9967 0 21.7962 0.799238 21.7962 1.78507V6.24974L24.8645 3.18117C25.5618 2.48385 26.6914 2.48385 27.3889 3.18117C28.0863 3.87859 28.0863 5.00822 27.3889 5.70573L21.7962 11.2984V14.7024L24.5518 16.2922L27.481 14.6116L29.5268 6.97354C29.7817 6.02171 30.7601 5.46156 31.7119 5.71144C32.6644 5.9664 33.2298 6.94571 32.9745 7.89817L31.8479 12.1051L35.7332 9.87428C36.5897 9.38213 37.68 9.67771 38.1702 10.5339C38.6608 11.3891 38.3649 12.4795 37.51 12.9704L33.6329 15.1966L37.8391 16.3236C38.7918 16.5785 39.3569 17.5577 39.1018 18.5104C38.8882 19.3076 38.1673 19.834 37.3791 19.834C37.2256 19.834 37.0705 19.8137 36.9159 19.7725L29.2425 17.716L26.3348 19.3853L26.3318 22.5758L29.2773 24.2774L36.9159 22.2285C37.8618 21.9803 38.8463 22.5395 39.1018 23.491C39.3569 24.4433 38.7918 25.4227 37.8391 25.6763L33.6483 26.8003L37.5144 29.0322C38.3679 29.5256 38.6608 30.6164 38.1672 31.4699C37.8365 32.0444 37.2366 32.3625 36.6204 32.3625C36.3178 32.3625 36.0107 32.2872 35.7294 32.1226L31.8436 29.8802L32.9745 34.1032C33.2298 35.0572 32.6644 36.0335 31.7119 36.29C31.5577 36.3318 31.4027 36.3516 31.2491 36.3516C30.4613 36.3516 29.7403 35.8244 29.5268 35.0266L27.4708 27.3557L24.5466 25.6684L21.7962 27.2555V30.7031L27.3889 36.296C28.0863 36.9932 28.0863 38.1227 27.3889 38.8204C27.0402 39.1691 26.5842 39.3419 26.1267 39.3419C25.6708 39.3419 25.2132 39.1691 24.8645 38.8204L21.7962 35.752V40.2151C21.7962 41.2027 20.9967 42.0003 20.0111 42.0003C19.0253 42.0003 18.2258 41.2025 18.2258 40.2151V35.7297L15.135 38.8204C14.7864 39.1691 14.3304 39.3419 13.8728 39.3419C13.4152 39.3419 12.9592 39.1691 12.6106 38.8204C11.9135 38.1229 11.9135 36.9934 12.6106 36.296L18.2258 30.6808V27.2693L15.4518 25.6683L12.5284 27.3555L10.4724 35.0265C10.2591 35.8242 9.53814 36.3514 8.75042 36.3514C8.59737 36.3514 8.44197 36.3316 8.28738 36.2898C7.33428 36.0333 6.77032 35.057 7.02519 34.103L8.15736 29.88L4.27015 32.1224C3.98872 32.2868 3.68172 32.3623 3.37907 32.3623C2.7628 32.3623 2.16312 32.0442 1.83237 31.4697C1.33886 30.6162 1.63154 29.5255 2.48508 29.032L6.35125 26.8005L2.16049 25.6764C1.20784 25.4228 0.642986 24.4433 0.898216 23.4911C1.15191 22.5395 2.1323 21.9791 3.08331 22.2286ZM17.2371 22.5759L19.9999 24.1715L22.7608 22.5758L22.7639 19.3825L19.9999 17.788L17.2371 19.3849V22.5759Z" fill="#F0AE28"/>
</svg>
