<svg width="" height="" viewBox="0 0 36 46" fill="none" xmlns="http://www.w3.org/2000/svg">
<path d="M1.30474 6.77957C0.888956 6.15848 0.987127 5.68692 1.08819 5.52877C1.17495 5.09746 1.86779 4.83867 2.12765 4.66615C2.33554 4.52813 3.97559 4.09107 4.76963 3.88979C5.14499 3.30033 5.94769 2.0524 6.15558 1.77636C6.41544 1.43131 6.76193 1 7.4116 1C8.06126 1 8.53769 1.64697 8.581 1.77636C8.61565 1.87988 9.57715 3.22844 10.0536 3.88979L12.7822 4.66615C13.2673 4.80417 13.5906 5.29874 13.6917 5.52877C13.9083 6.43452 13.6051 6.56392 13.4751 6.77957C13.3712 6.9521 12.3057 8.28916 11.786 8.93613V11.6103C11.786 12.516 11.5261 12.6454 11.1797 12.8611C10.8332 13.0767 10.0103 13.0767 9.62046 12.8611C9.30862 12.6885 8.01795 12.2716 7.4116 12.0847C6.79081 12.286 5.4626 12.723 5.11611 12.8611C4.683 13.0336 3.99003 13.2492 3.55692 12.8611C3.12381 12.4729 2.99387 12.2572 2.99387 11.6103V8.93613C2.60407 8.47607 1.72053 7.40066 1.30474 6.77957Z" fill="#F0AE28"/>
<path d="M10.3567 31.7956C10.8332 31.6231 11.1797 31.2781 11.0064 30.3292C10.6946 28.811 8.91305 29.4666 8.06126 29.9841C6.89187 30.3723 5.50591 32.6583 5.50591 33.6071C5.50591 34.556 5.15942 40.5513 11.3962 40.1199C17.633 39.6886 17.8062 34.556 17.7629 32.2269C17.7196 29.8979 13.9949 24.6359 8.62431 25.9729C3.25374 27.31 1.78116 30.8899 1.39136 34.9873C1.00156 39.0848 4.63969 42.5784 6.15558 43.3548L6.20197 43.3786C7.76668 44.1805 12.4872 46.6 17.5897 43.3548C22.7437 40.0768 23.5233 35.4187 23.5666 31.7956C23.6099 28.1726 20.7947 24.7221 20.7514 24.6359C20.7081 24.5496 19.7119 23.3851 18.6725 24.1183C17.633 24.8515 18.6292 26.2749 18.8457 26.4042C19.0623 26.5336 20.2317 28.5608 20.5348 29.5959C20.838 30.6311 21.4444 33.6071 20.0151 36.9714C18.5858 40.3356 15.1643 41.8021 13.9949 42.1471C12.8255 42.4922 9.7937 42.6647 7.28167 40.9826C4.76963 39.3005 4.24989 37.5752 3.99003 35.1167C3.73016 32.6583 5.72247 30.3292 6.15558 29.9841C6.58869 29.6391 7.19504 28.949 9.79371 28.5608C12.3924 28.1726 15.7273 30.8468 15.1643 34.1247C14.7138 36.7471 12.4646 37.5177 11.3962 37.5752C9.23066 37.6615 8.14789 35.85 8.06126 34.9873C7.97464 34.1247 8.10458 33.9953 8.40775 33.0896C8.71093 32.1838 9.88033 31.9682 10.3567 31.7956Z" fill="#F0AE28"/>
<path d="M15.3808 16.0096C14.4453 15.6646 14.529 14.7445 14.6879 14.3275C15.069 13.2924 16.1171 13.5224 16.5935 13.7668C18.0228 13.8962 22.3972 16.786 23.5666 17.8643C24.736 18.9426 27.4646 21.1854 28.9805 26.4042C30.4964 31.6231 28.9372 35.5049 28.7639 36.0656C28.5907 36.6263 27.8544 36.9714 27.0315 36.6263C26.3732 36.3503 26.2663 35.5049 26.2952 35.1167C27.3306 32.668 26.9479 29.6202 26.7737 28.2322L26.7716 28.2158C26.5984 26.8356 25.6022 23.8595 22.6138 20.5815C19.6253 17.3036 16.5502 16.4409 15.3808 16.0096Z" fill="#F0AE28"/>
<path d="M20.968 10.1438C18.1267 10.2818 17.2143 7.52718 17.1133 6.13261C17.0542 5.65816 17.7629 2.46646 20.968 2.46646C24.173 2.46646 24.9093 5.09746 24.9526 6.13261C24.9959 7.16775 24.5195 9.97128 20.968 10.1438Z" fill="#F0AE28"/>
<path d="M10.0969 20.6247C10.1315 19.6585 10.9487 19.3595 11.3529 19.3307C11.7716 19.3307 12.6176 19.5895 12.6522 20.6247C12.6869 21.6598 11.8004 21.9474 11.3529 21.9617C10.9198 21.9186 10.0622 21.5908 10.0969 20.6247Z" fill="#F0AE28"/>
<path d="M1.34805 17.9074C1.34805 17.0448 2.21427 16.6854 2.64738 16.6135C3.06606 16.671 3.91207 17.0103 3.94672 17.9074C3.99003 19.0288 2.90725 19.2013 2.64738 19.2013C2.38752 19.2013 1.34805 18.9857 1.34805 17.9074Z" fill="#F0AE28"/>
<path d="M23.9131 15.6215C23.7399 15.4489 22.8303 13.3643 22.3972 12.3435C22.0403 11.5154 22.6528 10.9058 23.0036 10.7045C23.9737 10.2559 24.6783 11.0064 24.9093 11.4377L26.1653 14.4569C26.3039 15.2505 25.9054 15.7365 25.6889 15.8802C24.6061 16.3547 24.1297 15.8371 23.9131 15.6215Z" fill="#F0AE28"/>
<path d="M28.5907 17.5192C27.0661 14.7243 27.7245 11.8115 28.2442 10.7045C29.0758 8.25466 31.9401 6.6358 33.2683 6.13261C33.9613 5.75305 34.5387 6.29075 34.7409 6.60705C35.1018 7.00961 35.3645 8.039 33.5282 8.93613C31.2327 10.0575 31.0161 10.9633 30.4531 12.3435C29.89 13.7237 30.7562 15.6215 31.0161 16.7429C31.224 17.64 30.7274 18.2381 30.4531 18.425C29.1018 18.8735 28.6484 18.008 28.5907 17.5192Z" fill="#F0AE28"/>
<path d="M28.9805 3.71726C28.9805 2.82013 29.8467 2.45208 30.2798 2.3802C30.6841 2.45208 31.5099 2.82013 31.5792 3.71726C31.6485 4.61439 30.7418 4.95369 30.2798 5.0112C29.8467 4.95369 28.9805 4.61439 28.9805 3.71726Z" fill="#F0AE28"/>
<path d="M1.30474 6.77957C0.888956 6.15848 0.987127 5.68692 1.08819 5.52877C1.17495 5.09746 1.86779 4.83867 2.12765 4.66615C2.33554 4.52813 3.97559 4.09107 4.76963 3.88979C5.14499 3.30033 5.94769 2.0524 6.15558 1.77636C6.41544 1.43131 6.76193 1 7.4116 1C8.06126 1 8.53769 1.64697 8.581 1.77636C8.61565 1.87988 9.57715 3.22844 10.0536 3.88979L12.7822 4.66615C13.2673 4.80417 13.5906 5.29874 13.6917 5.52877C13.9083 6.43452 13.6051 6.56392 13.4751 6.77957C13.3712 6.9521 12.3057 8.28916 11.786 8.93613V11.6103C11.786 12.516 11.5261 12.6454 11.1797 12.8611C10.8332 13.0767 10.0103 13.0767 9.62046 12.8611C9.30862 12.6885 8.01795 12.2716 7.4116 12.0847C6.79081 12.286 5.4626 12.723 5.11611 12.8611C4.683 13.0336 3.99003 13.2492 3.55692 12.8611C3.12381 12.4729 2.99387 12.2572 2.99387 11.6103V8.93613C2.60407 8.47607 1.72053 7.40066 1.30474 6.77957Z" stroke="#F0AE28"/>
<path d="M10.3567 31.7956C10.8332 31.6231 11.1797 31.2781 11.0064 30.3292C10.6946 28.811 8.91305 29.4666 8.06126 29.9841C6.89187 30.3723 5.50591 32.6583 5.50591 33.6071C5.50591 34.556 5.15942 40.5513 11.3962 40.1199C17.633 39.6886 17.8062 34.556 17.7629 32.2269C17.7196 29.8979 13.9949 24.6359 8.62431 25.9729C3.25374 27.31 1.78116 30.8899 1.39136 34.9873C1.00156 39.0848 4.63969 42.5784 6.15558 43.3548L6.20197 43.3786C7.76668 44.1805 12.4872 46.6 17.5897 43.3548C22.7437 40.0768 23.5233 35.4187 23.5666 31.7956C23.6099 28.1726 20.7947 24.7221 20.7514 24.6359C20.7081 24.5496 19.7119 23.3851 18.6725 24.1183C17.633 24.8515 18.6292 26.2749 18.8457 26.4042C19.0623 26.5336 20.2317 28.5608 20.5348 29.5959C20.838 30.6311 21.4444 33.6071 20.0151 36.9714C18.5858 40.3356 15.1643 41.8021 13.9949 42.1471C12.8255 42.4922 9.7937 42.6647 7.28167 40.9826C4.76963 39.3005 4.24989 37.5752 3.99003 35.1167C3.73016 32.6583 5.72247 30.3292 6.15558 29.9841C6.58869 29.6391 7.19504 28.949 9.79371 28.5608C12.3924 28.1726 15.7273 30.8468 15.1643 34.1247C14.7138 36.7471 12.4646 37.5177 11.3962 37.5752C9.23066 37.6615 8.14789 35.85 8.06126 34.9873C7.97464 34.1247 8.10458 33.9953 8.40775 33.0896C8.71093 32.1838 9.88033 31.9682 10.3567 31.7956Z" stroke="#F0AE28"/>
<path d="M15.3808 16.0096C14.4453 15.6646 14.529 14.7445 14.6879 14.3275C15.069 13.2924 16.1171 13.5224 16.5935 13.7668C18.0228 13.8962 22.3972 16.786 23.5666 17.8643C24.736 18.9426 27.4646 21.1854 28.9805 26.4042C30.4964 31.6231 28.9372 35.5049 28.7639 36.0656C28.5907 36.6263 27.8544 36.9714 27.0315 36.6263C26.3732 36.3503 26.2663 35.5049 26.2952 35.1167C27.3306 32.668 26.9479 29.6202 26.7737 28.2322L26.7716 28.2158C26.5984 26.8356 25.6022 23.8595 22.6138 20.5815C19.6253 17.3036 16.5502 16.4409 15.3808 16.0096Z" stroke="#F0AE28"/>
<path d="M20.968 10.1438C18.1267 10.2818 17.2143 7.52718 17.1133 6.13261C17.0542 5.65816 17.7629 2.46646 20.968 2.46646C24.173 2.46646 24.9093 5.09746 24.9526 6.13261C24.9959 7.16775 24.5195 9.97128 20.968 10.1438Z" stroke="#F0AE28"/>
<path d="M10.0969 20.6247C10.1315 19.6585 10.9487 19.3595 11.3529 19.3307C11.7716 19.3307 12.6176 19.5895 12.6522 20.6247C12.6869 21.6598 11.8004 21.9474 11.3529 21.9617C10.9198 21.9186 10.0622 21.5908 10.0969 20.6247Z" stroke="#F0AE28"/>
<path d="M1.34805 17.9074C1.34805 17.0448 2.21427 16.6854 2.64738 16.6135C3.06606 16.671 3.91207 17.0103 3.94672 17.9074C3.99003 19.0288 2.90725 19.2013 2.64738 19.2013C2.38752 19.2013 1.34805 18.9857 1.34805 17.9074Z" stroke="#F0AE28"/>
<path d="M23.9131 15.6215C23.7399 15.4489 22.8303 13.3643 22.3972 12.3435C22.0403 11.5154 22.6528 10.9058 23.0036 10.7045C23.9737 10.2559 24.6783 11.0064 24.9093 11.4377L26.1653 14.4569C26.3039 15.2505 25.9054 15.7365 25.6889 15.8802C24.6061 16.3547 24.1297 15.8371 23.9131 15.6215Z" stroke="#F0AE28"/>
<path d="M28.5907 17.5192C27.0661 14.7243 27.7245 11.8115 28.2442 10.7045C29.0758 8.25466 31.9401 6.6358 33.2683 6.13261C33.9613 5.75305 34.5387 6.29075 34.7409 6.60705C35.1018 7.00961 35.3645 8.039 33.5282 8.93613C31.2327 10.0575 31.0161 10.9633 30.4531 12.3435C29.89 13.7237 30.7562 15.6215 31.0161 16.7429C31.224 17.64 30.7274 18.2381 30.4531 18.425C29.1018 18.8735 28.6484 18.008 28.5907 17.5192Z" stroke="#F0AE28"/>
<path d="M28.9805 3.71726C28.9805 2.82013 29.8467 2.45208 30.2798 2.3802C30.6841 2.45208 31.5099 2.82013 31.5792 3.71726C31.6485 4.61439 30.7418 4.95369 30.2798 5.0112C29.8467 4.95369 28.9805 4.61439 28.9805 3.71726Z" stroke="#F0AE28"/>
</svg>
