<svg width="1434" height="1505" viewBox="0 0 1434 1505" fill="none" xmlns="http://www.w3.org/2000/svg">
<g clip-path="url(#clip0_28_162)">
<path d="M951.656 1128.88C960.314 1128.88 967.333 1121.86 967.333 1113.2C967.333 1104.54 960.314 1097.52 951.656 1097.52C942.998 1097.52 935.979 1104.54 935.979 1113.2C935.979 1121.86 942.998 1128.88 951.656 1128.88Z" fill="white" fill-opacity="0.5"/>
<path d="M-5.42757 334.056C-5.42757 334.056 79.6666 403.146 242.386 391.115C404.839 379.265 752.151 257.492 788.429 247.648C824.708 238.169 1156.02 205.72 1241.11 217.569C1326.2 229.418 1433.71 239.08 1433.71 239.08V286.477C1433.71 286.477 1154.41 240.174 1029.84 256.216C905.267 272.258 622.776 317.832 619.575 330.775C616.374 343.718 613.173 365.229 666.79 363.041C720.407 360.854 1070.65 309.082 1132.27 313.457C1193.89 317.832 1299.53 349.004 1337.41 349.004C1375.29 349.004 1433.71 350.098 1433.71 350.098V431.037C1433.71 431.037 1230.17 401.87 1171.75 386.739C1113.33 371.609 898.865 377.26 835.645 383.64C772.424 390.021 430.18 449.449 325.88 456.923C221.579 464.397 18.3135 425.751 2.57502 413.902C-13.1634 402.052 -5.42757 334.056 -5.42757 334.056Z" fill="#151049"/>
<g clip-path="url(#clip1_28_162)">
<path d="M-6.32861 82.3814C-6.32861 82.3814 195.107 120.558 261.104 122.065C327.1 123.572 481.888 102.223 481.888 102.223C481.888 102.223 346.714 79.3674 278.862 41.1907C211.01 3.01395 111.352 0 111.352 0H409.265C409.265 0 594.533 71.8326 733.152 61.0326C871.772 50.2326 1021.26 21.3488 1077.71 25.8698C1134.17 30.6419 1251.58 0 1251.58 0H1433.67V47.2186C1433.67 47.2186 1325.8 36.4186 1311.22 38.1767C1296.64 39.6837 1433.67 61.0326 1433.67 61.0326L1425.45 86.9023C1425.45 86.9023 1209.71 58.0186 1121.18 73.0884C1032.66 88.1581 907.023 149.442 724.936 149.442C542.849 149.442 513.958 135.628 418.807 149.442C323.655 163.256 64.4389 177.07 -6.32861 123.572V82.3814Z" fill="#220029"/>
</g>
<path d="M713.672 571C642.072 563.8 476.172 594 402.672 610C407.672 620 431.672 640 456.172 649.5C480.672 659 526.172 648 543.672 644C561.172 640 591.672 624 620.672 621C643.872 618.6 672.672 627.333 684.172 632C688.005 630 706.072 626 747.672 626C799.672 626 937.672 716.5 1134.17 678C1291.37 647.2 1399.34 650.167 1433.67 655.5V595C1383.17 592.167 1264.17 591.9 1192.17 613.5C1102.17 640.5 803.172 580 713.672 571Z" fill="#001E76"/>
<g clip-path="url(#clip2_28_162)">
<path d="M-7.32861 201.134C-7.32861 201.134 223.146 196.641 291.702 211.135C360.257 225.63 591.799 260.127 715.839 242.878C839.879 225.63 1132.24 182.581 1170.65 179.102C1209.33 175.624 1433.67 172 1433.67 172V209.831C1433.67 209.831 1082.36 225.05 993.796 247.661C905.234 270.273 743.048 291.145 674.492 291.145C605.937 291.145 368.526 246.502 274.896 239.255C181.266 232.007 -7.32861 236.501 -7.32861 236.501V201.134Z" fill="#4C1A57" fill-opacity="0.962003"/>
</g>
<path d="M-6.32861 557.354V0H1433.67V800.819C1420.62 806.184 1332.04 816.916 1287.41 818.257C1242.77 819.599 1119.85 820.269 1084.14 826.976C1048.44 833.683 963.285 865.206 922.77 856.487C882.255 847.768 840.367 788.076 814.959 758.565C789.551 729.054 731.869 640.521 664.573 625.765C597.277 611.01 598.65 633.143 528.607 647.899C458.564 662.654 433.156 645.216 401.568 609.669C369.98 574.121 350.753 566.073 315.045 557.354C279.337 548.635 204.487 595.584 168.779 593.572C133.071 591.56 64.401 539.916 45.8602 537.233C31.0276 535.086 4.88741 549.753 -6.32861 557.354Z" fill="url(#paint0_linear_28_162)"/>
<circle cx="587.672" cy="247" r="3" fill="#5AC7FF"/>
<circle cx="155.671" cy="515" r="3" fill="#5AC7FF"/>
<circle cx="1146.67" cy="733" r="3" fill="#5AC7FF"/>
<circle cx="1346.67" cy="543" r="3" fill="#5AC7FF"/>
<circle cx="952.672" cy="98" r="3" fill="#5AC7FF"/>
<circle cx="916.672" cy="640" r="3" fill="#5AC7FF"/>
<circle cx="58.6714" cy="227" r="3" fill="#F0AE28"/>
<circle cx="453.672" cy="521" r="3" fill="#F0AE28"/>
<circle cx="412.672" cy="66" r="3" fill="#F0AE28"/>
<circle cx="772.672" cy="599" r="3" fill="#F0AE28"/>
<circle cx="1352.67" cy="247" r="3" fill="#F0AE28"/>
<circle cx="1205.67" cy="72" r="3" fill="#F0AE28"/>
<circle cx="1312.67" cy="766" r="3" fill="#F0AE28"/>
<g clip-path="url(#clip3_28_162)">
<path d="M663.672 343L668.732 338.017L674.672 343L670.712 336.5L674.672 330L669.172 333.467L663.672 330L667.412 336.5L663.672 343Z" fill="#F0AE28"/>
</g>
<g clip-path="url(#clip4_28_162)">
<path d="M1389.67 64L1394.73 59.0167L1400.67 64L1396.71 57.5L1400.67 51L1395.17 54.4667L1389.67 51L1393.41 57.5L1389.67 64Z" fill="#F0AE28"/>
</g>
<g clip-path="url(#clip5_28_162)">
<path d="M573.672 568L578.732 563.017L584.672 568L580.712 561.5L584.672 555L579.172 558.467L573.672 555L577.412 561.5L573.672 568Z" fill="#5AC7FF"/>
</g>
<g clip-path="url(#clip6_28_162)">
<path d="M1346.67 370L1351.73 365.017L1357.67 370L1353.71 363.5L1357.67 357L1352.17 360.467L1346.67 357L1350.41 363.5L1346.67 370Z" fill="#5AC7FF"/>
</g>
<g clip-path="url(#clip7_28_162)">
<path d="M950.672 782L955.732 777.017L961.672 782L957.712 775.5L961.672 769L956.172 772.467L950.672 769L954.412 775.5L950.672 782Z" fill="#5AC7FF"/>
</g>
<g clip-path="url(#clip8_28_162)">
<path d="M751.672 127L756.732 122.017L762.672 127L758.712 120.5L762.672 114L757.172 117.467L751.672 114L755.412 120.5L751.672 127Z" fill="#5AC7FF"/>
</g>
<g clip-path="url(#clip9_28_162)">
<path d="M10.6714 428L15.7314 423.017L21.6714 428L17.7114 421.5L21.6714 415L16.1714 418.467L10.6714 415L14.4114 421.5L10.6714 428Z" fill="#5AC7FF"/>
</g>
<g clip-path="url(#clip10_28_162)">
<path d="M236.671 312L241.731 307.017L247.671 312L243.711 305.5L247.671 299L242.171 302.467L236.671 299L240.411 305.5L236.671 312Z" fill="#5AC7FF"/>
</g>
<g clip-path="url(#clip11_28_162)">
<path d="M257.671 133L262.731 128.017L268.671 133L264.711 126.5L268.671 120L263.171 123.467L257.671 120L261.411 126.5L257.671 133Z" fill="#5AC7FF"/>
</g>
<g clip-path="url(#clip12_28_162)">
<path d="M863.672 111C863.672 111 743.527 260.868 728.823 267.064C713.926 273.26 697.868 262.223 705.994 247.895C714.12 233.566 863.672 111 863.672 111Z" fill="#322AB3" fill-opacity="0.5"/>
<g clip-path="url(#clip13_28_162)">
<path d="M825.672 150C825.672 150 733.905 262.918 722.668 267.678C711.431 272.438 698.857 263.976 705.278 253.398C711.699 242.82 825.672 150 825.672 150Z" fill="url(#paint1_linear_28_162)"/>
</g>
</g>
<g clip-path="url(#clip14_28_162)">
<path d="M1278.67 565C1278.67 565 1127.74 752.809 1109.27 760.574C1090.55 768.338 1070.38 754.507 1080.59 736.551C1090.8 718.596 1278.67 565 1278.67 565Z" fill="#4C1A57" fill-opacity="0.5"/>
<g clip-path="url(#clip15_28_162)">
<path d="M1230.93 613.874C1230.93 613.874 1115.65 755.378 1101.54 761.343C1087.42 767.308 1071.62 756.704 1079.69 743.448C1087.76 730.192 1230.93 613.874 1230.93 613.874Z" fill="url(#paint2_linear_28_162)" fill-opacity="0.8"/>
</g>
<g clip-path="url(#clip16_28_162)">
<path d="M1284.67 624C1284.67 624 1244.12 674.272 1239.16 676.35C1234.13 678.429 1228.71 674.727 1231.46 669.92C1234.2 665.114 1284.67 624 1284.67 624Z" fill="#4C1A57" fill-opacity="0.5"/>
<g clip-path="url(#clip17_28_162)">
<path d="M1271.85 637.082C1271.85 637.082 1240.88 674.96 1237.08 676.556C1233.29 678.153 1229.05 675.315 1231.21 671.766C1233.38 668.218 1271.85 637.082 1271.85 637.082Z" fill="url(#paint3_linear_28_162)" fill-opacity="0.8"/>
</g>
</g>
</g>
<g clip-path="url(#clip18_28_162)">
<path d="M1360.67 62C1360.67 62 1276.57 166.338 1266.28 170.652C1255.85 174.966 1244.61 167.282 1250.3 157.306C1255.98 147.331 1360.67 62 1360.67 62Z" fill="#322AB3" fill-opacity="0.5"/>
<g clip-path="url(#clip19_28_162)">
<path d="M1334.07 89.1519C1334.07 89.1519 1269.83 167.765 1261.97 171.079C1254.1 174.393 1245.3 168.502 1249.8 161.138C1254.29 153.773 1334.07 89.1519 1334.07 89.1519Z" fill="url(#paint4_linear_28_162)"/>
</g>
</g>
<path d="M538.749 1097.26C723.355 1097.26 873.007 947.606 873.007 763C873.007 578.394 723.355 428.741 538.749 428.741C354.143 428.741 204.49 578.394 204.49 763C204.49 947.606 354.143 1097.26 538.749 1097.26Z" stroke="white" stroke-opacity="0.5" stroke-miterlimit="10"/>
<path d="M538.749 1202.21C783.227 1202.21 981.416 1004.02 981.416 759.546C981.416 515.068 783.227 316.879 538.749 316.879C294.271 316.879 96.082 515.068 96.082 759.546C96.082 1004.02 294.271 1202.21 538.749 1202.21Z" stroke="white" stroke-opacity="0.5" stroke-miterlimit="10"/>
<path d="M544.329 1303.71C844.863 1303.71 1088.49 1060.08 1088.49 759.546C1088.49 459.011 844.863 215.379 544.329 215.379C243.794 215.379 0.162109 459.011 0.162109 759.546C0.162109 1060.08 243.794 1303.71 544.329 1303.71Z" stroke="white" stroke-opacity="0.5" stroke-miterlimit="10"/>
<path d="M967.333 689.931C980.394 689.931 990.981 679.343 990.981 666.283C990.981 653.223 980.394 642.635 967.333 642.635C954.273 642.635 943.686 653.223 943.686 666.283C943.686 679.343 954.273 689.931 967.333 689.931Z" fill="white" fill-opacity="0.5"/>
<path d="M541.672 1425.67C907.655 1425.67 1204.34 1128.98 1204.34 763C1204.34 397.017 907.655 100.329 541.672 100.329C175.688 100.329 -121 397.017 -121 763C-121 1128.98 175.688 1425.67 541.672 1425.67Z" stroke="white" stroke-opacity="0.5" stroke-miterlimit="10"/>
<path d="M487.202 1211.78C495.86 1211.78 502.879 1204.76 502.879 1196.1C502.879 1187.44 495.86 1180.42 487.202 1180.42C478.544 1180.42 471.525 1187.44 471.525 1196.1C471.525 1204.76 478.544 1211.78 487.202 1211.78Z" fill="white" fill-opacity="0.5"/>
<path d="M114.416 695.776C127.476 695.776 138.064 685.189 138.064 672.128C138.064 659.068 127.476 648.48 114.416 648.48C101.356 648.48 90.7681 659.068 90.7681 672.128C90.7681 685.189 101.356 695.776 114.416 695.776Z" fill="white" fill-opacity="0.5"/>
<path d="M36.0326 1207.26C44.6906 1207.26 51.7093 1200.24 51.7093 1191.58C51.7093 1182.93 44.6906 1175.91 36.0326 1175.91C27.3746 1175.91 20.356 1182.93 20.356 1191.58C20.356 1200.24 27.3746 1207.26 36.0326 1207.26Z" fill="white" fill-opacity="0.5"/>
<path d="M-0.103599 807.639C8.55439 807.639 15.5731 800.62 15.5731 791.962C15.5731 783.304 8.55439 776.285 -0.103599 776.285C-8.76159 776.285 -15.7803 783.304 -15.7803 791.962C-15.7803 800.62 -8.76159 807.639 -0.103599 807.639Z" fill="white" fill-opacity="0.5"/>
<g clip-path="url(#clip20_28_162)">
<path opacity="0.85" d="M491.072 240.8C505.1 240.8 516.472 229.428 516.472 215.4C516.472 201.372 505.1 190 491.072 190C477.044 190 465.672 201.372 465.672 215.4C465.672 229.428 477.044 240.8 491.072 240.8Z" fill="url(#paint5_linear_28_162)"/>
</g>
<path d="M1047.04 578.866C1055.7 578.866 1062.72 571.847 1062.72 563.189C1062.72 554.531 1055.7 547.512 1047.04 547.512C1038.39 547.512 1031.37 554.531 1031.37 563.189C1031.37 571.847 1038.39 578.866 1047.04 578.866Z" fill="white" fill-opacity="0.5"/>
<path opacity="0.85" d="M59.1714 330C67.7318 330 74.6714 323.284 74.6714 315C74.6714 306.716 67.7318 300 59.1714 300C50.611 300 43.6714 306.716 43.6714 315C43.6714 323.284 50.611 330 59.1714 330Z" fill="url(#paint6_linear_28_162)"/>
<g clip-path="url(#clip21_28_162)">
<path opacity="0.85" d="M649.705 539.933C640.335 539.933 632.739 532.337 632.739 522.967C632.739 513.596 640.335 506 649.705 506C659.076 506 666.672 513.596 666.672 522.967C666.672 532.337 659.076 539.933 649.705 539.933Z" fill="url(#paint7_linear_28_162)"/>
</g>
<g clip-path="url(#clip22_28_162)">
<path opacity="0.85" d="M1376.71 702.917C1365.14 702.917 1355.75 693.534 1355.75 681.959C1355.75 670.384 1365.14 661 1376.71 661C1388.29 661 1397.67 670.384 1397.67 681.959C1397.67 693.534 1388.29 702.917 1376.71 702.917Z" fill="url(#paint8_linear_28_162)"/>
</g>
</g>
<defs>
<linearGradient id="paint0_linear_28_162" x1="713.671" y1="0" x2="713.671" y2="3134" gradientUnits="userSpaceOnUse">
<stop stop-color="#001E76"/>
<stop offset="0.220886" stop-color="#4C1A57" stop-opacity="0.962003"/>
<stop offset="0.5" stop-color="#091B6F" stop-opacity="0.879179"/>
<stop offset="1" stop-color="#3397CB" stop-opacity="0"/>
</linearGradient>
<linearGradient id="paint1_linear_28_162" x1="764.604" y1="150" x2="764.604" y2="269.036" gradientUnits="userSpaceOnUse">
<stop stop-color="#F8E995"/>
<stop offset="0.458333" stop-color="#F0AE28"/>
<stop offset="0.998135" stop-color="#F08828"/>
</linearGradient>
<linearGradient id="paint2_linear_28_162" x1="1154.22" y1="613.874" x2="1154.22" y2="763.046" gradientUnits="userSpaceOnUse">
<stop stop-color="#F8E995"/>
<stop offset="0.458333" stop-color="#F0AE28"/>
<stop offset="0.998135" stop-color="#F08828"/>
</linearGradient>
<linearGradient id="paint3_linear_28_162" x1="1251.24" y1="637.082" x2="1251.24" y2="677.012" gradientUnits="userSpaceOnUse">
<stop stop-color="#F8E995"/>
<stop offset="0.458333" stop-color="#F0AE28"/>
<stop offset="0.998135" stop-color="#F08828"/>
</linearGradient>
<linearGradient id="paint4_linear_28_162" x1="1291.32" y1="89.1519" x2="1291.32" y2="172.025" gradientUnits="userSpaceOnUse">
<stop stop-color="#F8E995"/>
<stop offset="0.458333" stop-color="#F0AE28"/>
<stop offset="0.998135" stop-color="#F08828"/>
</linearGradient>
<linearGradient id="paint5_linear_28_162" x1="515.034" y1="224.15" x2="467.2" y2="206.74" gradientUnits="userSpaceOnUse">
<stop stop-color="#E9DD00"/>
<stop offset="0.2201" stop-color="#FFB53F"/>
<stop offset="0.5421" stop-color="#D46400"/>
<stop offset="0.8467" stop-color="#4C1A57"/>
<stop offset="1" stop-color="#111A69"/>
</linearGradient>
<linearGradient id="paint6_linear_28_162" x1="73.7942" y1="320.168" x2="44.8334" y2="309.275" gradientUnits="userSpaceOnUse">
<stop stop-color="#E9DD00"/>
<stop offset="0.2201" stop-color="#FFB53F"/>
<stop offset="0.5421" stop-color="#D46400"/>
<stop offset="0.8467" stop-color="#4C1A57"/>
<stop offset="1" stop-color="#111A69"/>
</linearGradient>
<linearGradient id="paint7_linear_28_162" x1="633.699" y1="528.812" x2="665.651" y2="517.182" gradientUnits="userSpaceOnUse">
<stop stop-color="#E9DD00"/>
<stop offset="0.2201" stop-color="#FFB53F"/>
<stop offset="0.5421" stop-color="#D46400"/>
<stop offset="0.8467" stop-color="#4C1A57"/>
<stop offset="1" stop-color="#111A69"/>
</linearGradient>
<linearGradient id="paint8_linear_28_162" x1="1356.94" y1="689.179" x2="1396.41" y2="674.813" gradientUnits="userSpaceOnUse">
<stop stop-color="#E9DD00"/>
<stop offset="0.2201" stop-color="#FFB53F"/>
<stop offset="0.5421" stop-color="#D46400"/>
<stop offset="0.8467" stop-color="#4C1A57"/>
<stop offset="1" stop-color="#111A69"/>
</linearGradient>
<clipPath id="clip0_28_162">
<rect width="1434" height="1505" fill="white"/>
</clipPath>
<clipPath id="clip1_28_162">
<rect width="1440" height="162" fill="white" transform="translate(-6.32861)"/>
</clipPath>
<clipPath id="clip2_28_162">
<rect width="1441" height="119" fill="white" transform="translate(-7.32861 172)"/>
</clipPath>
<clipPath id="clip3_28_162">
<rect width="11" height="13" fill="white" transform="translate(663.672 330)"/>
</clipPath>
<clipPath id="clip4_28_162">
<rect width="11" height="13" fill="white" transform="translate(1389.67 51)"/>
</clipPath>
<clipPath id="clip5_28_162">
<rect width="11" height="13" fill="white" transform="translate(573.672 555)"/>
</clipPath>
<clipPath id="clip6_28_162">
<rect width="11" height="13" fill="white" transform="translate(1346.67 357)"/>
</clipPath>
<clipPath id="clip7_28_162">
<rect width="11" height="13" fill="white" transform="translate(950.672 769)"/>
</clipPath>
<clipPath id="clip8_28_162">
<rect width="11" height="13" fill="white" transform="translate(751.672 114)"/>
</clipPath>
<clipPath id="clip9_28_162">
<rect width="11" height="13" fill="white" transform="translate(10.6714 415)"/>
</clipPath>
<clipPath id="clip10_28_162">
<rect width="11" height="13" fill="white" transform="translate(236.671 299)"/>
</clipPath>
<clipPath id="clip11_28_162">
<rect width="11" height="13" fill="white" transform="translate(257.671 120)"/>
</clipPath>
<clipPath id="clip12_28_162">
<rect width="160" height="158" fill="white" transform="translate(703.672 111)"/>
</clipPath>
<clipPath id="clip13_28_162">
<rect width="122" height="119" fill="white" transform="translate(703.672 150)"/>
</clipPath>
<clipPath id="clip14_28_162">
<rect width="201" height="198" fill="white" transform="translate(1077.67 565)"/>
</clipPath>
<clipPath id="clip15_28_162">
<rect width="153.262" height="149.127" fill="white" transform="translate(1077.67 613.874)"/>
</clipPath>
<clipPath id="clip16_28_162">
<rect width="54" height="53" fill="white" transform="translate(1230.67 624)"/>
</clipPath>
<clipPath id="clip17_28_162">
<rect width="41.175" height="39.9177" fill="white" transform="translate(1230.67 637.082)"/>
</clipPath>
<clipPath id="clip18_28_162">
<rect width="112" height="110" fill="white" transform="translate(1248.67 62)"/>
</clipPath>
<clipPath id="clip19_28_162">
<rect width="85.4" height="82.8481" fill="white" transform="translate(1248.67 89.1519)"/>
</clipPath>
<clipPath id="clip20_28_162">
<rect width="50.9" height="50.9" fill="white" transform="translate(465.672 190)"/>
</clipPath>
<clipPath id="clip21_28_162">
<rect width="34" height="34" fill="white" transform="matrix(-1 0 0 1 666.672 506)"/>
</clipPath>
<clipPath id="clip22_28_162">
<rect width="42" height="42" fill="white" transform="matrix(-1 0 0 1 1397.67 661)"/>
</clipPath>
</defs>
</svg>
