<svg width="" height="" viewBox="0 0 75 74" fill="none" xmlns="http://www.w3.org/2000/svg">
<path d="M61.0976 63.1526C58.3415 59.5548 54.7757 56.6372 50.6811 54.6295C46.5865 52.6218 42.075 51.5789 37.502 51.583C32.929 51.5789 28.4175 52.6218 24.3229 54.6295C20.2283 56.6372 16.6625 59.5548 13.9063 63.1526M61.0976 63.1526C66.4759 58.436 70.2689 52.219 71.9811 45.326C73.6932 38.433 73.2397 31.1897 70.6805 24.5566C68.1214 17.9236 63.5776 12.2143 57.6518 8.18577C51.7259 4.15729 44.698 2 37.5 2C30.302 2 23.2741 4.15729 17.3482 8.18577C11.4224 12.2143 6.87861 17.9236 4.31948 24.5566C1.76034 31.1897 1.30678 38.433 3.01893 45.326C4.73108 52.219 8.52806 58.436 13.9063 63.1526M61.0976 63.1526C54.6052 68.8623 46.2019 72.0122 37.502 72C28.8006 72.0131 20.3998 68.8632 13.9063 63.1526M49.3353 28.2493C49.3353 31.3435 48.0886 34.311 45.8694 36.499C43.6502 38.6869 40.6404 39.9161 37.502 39.9161C34.3636 39.9161 31.3537 38.6869 29.1345 36.499C26.9154 34.311 25.6686 31.3435 25.6686 28.2493C25.6686 25.155 26.9154 22.1875 29.1345 19.9996C31.3537 17.8116 34.3636 16.5824 37.502 16.5824C40.6404 16.5824 43.6502 17.8116 45.8694 19.9996C48.0886 22.1875 49.3353 25.155 49.3353 28.2493Z" stroke="#F0AE28" stroke-width="4" stroke-linecap="round" stroke-linejoin="round"/>
</svg>
