<svg width="" height="" viewBox="0 0 1430 1748" fill="none" xmlns="http://www.w3.org/2000/svg">
<path d="M875 1099C1011.97 1099 1123 987.743 1123 850.5C1123 713.257 1011.97 602 875 602C738.033 602 627 713.257 627 850.5C627 987.743 738.033 1099 875 1099Z" stroke="white" stroke-opacity="0.5" stroke-miterlimit="10"/>
<path d="M875 1177C1056.7 1177 1204 1029.7 1204 848C1204 666.298 1056.7 519 875 519C693.298 519 546 666.298 546 848C546 1029.7 693.298 1177 875 1177Z" stroke="white" stroke-opacity="0.5" stroke-miterlimit="10"/>
<path d="M867 1277C1103.93 1277 1296 1084.71 1296 847.5C1296 610.294 1103.93 418 867 418C630.07 418 438 610.294 438 847.5C438 1084.71 630.07 1277 867 1277Z" stroke="white" stroke-opacity="0.5" stroke-miterlimit="10"/>
<path d="M867 1412C1181.25 1412 1436 1157.25 1436 843C1436 528.75 1181.25 274 867 274C552.75 274 298 528.75 298 843C298 1157.25 552.75 1412 867 1412Z" stroke="white" stroke-opacity="0.5" stroke-miterlimit="10"/>
<path d="M874 1542C1260.05 1542 1573 1229.05 1573 843C1573 456.953 1260.05 144 874 144C487.953 144 175 456.953 175 843C175 1229.05 487.953 1542 874 1542Z" stroke="white" stroke-opacity="0.5" stroke-miterlimit="10"/>
<path d="M874 1747C1356.14 1747 1747 1356.14 1747 874C1747 391.855 1356.14 1 874 1C391.855 1 1 391.855 1 874C1 1356.14 391.855 1747 874 1747Z" stroke="white" stroke-opacity="0.5" stroke-miterlimit="10"/>
</svg>
