<svg width="" height="" viewBox="0 0 49 39" fill="none" xmlns="http://www.w3.org/2000/svg">
<path d="M48.9827 28.1307C48.9066 27.5671 47.555 25.1073 41.496 21.7896L37.3677 20.6475L33.7059 9.88715L42.1452 3.6118C44.8855 2.02609 43.8763 0.798699 41.3524 0.79956C26.0512 0.804537 19.2804 -1.07622 16.1055 8.44423C15.3227 10.7915 13.8942 16.0145 12.7108 20.4523C-0.201647 23.9069 -0.350466 27.0505 0.134749 27.9575L2.39755 32.1856L11.4176 36.5033L15.6727 32.3209V37.3697C15.6727 37.3697 24.1848 39.2454 31.6858 37.8025C39.1885 36.3596 43.2273 34.4848 43.2273 34.4848L42.0726 31.3107L45.6803 32.8972L48.5087 29.6911C48.8855 29.2643 49.0579 28.6945 48.9827 28.1307Z" fill="#F0AE28"/>
</svg>
