<svg width="" height="" viewBox="0 0 48 48" fill="none" xmlns="http://www.w3.org/2000/svg">
<path d="M31.18 24.52C36.8464 24.52 41.44 19.9265 41.44 14.26C41.44 8.59356 36.8464 4 31.18 4C25.5134 4 20.92 8.59356 20.92 14.26C20.92 19.9265 25.5134 24.52 31.18 24.52Z" stroke="#F0AE28" stroke-width="5" stroke-miterlimit="10"/>
<path d="M12.72 38.8801C16.1221 38.8801 18.8801 36.1223 18.8801 32.7201C18.8801 29.3181 16.1221 26.5601 12.72 26.5601C9.31796 26.5601 6.56006 29.3181 6.56006 32.7201C6.56006 36.1223 9.31796 38.8801 12.72 38.8801Z" stroke="#F0AE28" stroke-width="5" stroke-miterlimit="10"/>
<path d="M33.24 43.9998C36.0676 43.9998 38.36 41.7076 38.36 38.8798C38.36 36.0522 36.0676 33.7598 33.24 33.7598C30.4122 33.7598 28.12 36.0522 28.12 38.8798C28.12 41.7076 30.4122 43.9998 33.24 43.9998Z" stroke="#F0AE28" stroke-width="5" stroke-miterlimit="10"/>
</svg>
