<svg width="" height="" viewBox="0 0 22 22" fill="none" xmlns="http://www.w3.org/2000/svg">
<path d="M14.25 11H7.75M20.75 11C20.75 12.2804 20.4978 13.5482 20.0078 14.7312C19.5178 15.9141 18.7997 16.9889 17.8943 17.8943C16.9889 18.7997 15.9141 19.5178 14.7312 20.0078C13.5482 20.4978 12.2804 20.75 11 20.75C9.71961 20.75 8.45176 20.4978 7.26884 20.0078C6.08591 19.5178 5.01108 18.7997 4.10571 17.8943C3.20034 16.9889 2.48216 15.9141 1.99217 14.7312C1.50219 13.5482 1.25 12.2804 1.25 11C1.25 8.41414 2.27723 5.93419 4.10571 4.10571C5.93419 2.27723 8.41414 1.25 11 1.25C13.5859 1.25 16.0658 2.27723 17.8943 4.10571C19.7228 5.93419 20.75 8.41414 20.75 11Z" stroke="#F0AE28" stroke-width="1.5" stroke-linecap="round" stroke-linejoin="round"/>
</svg>
