<svg width="" height="" viewBox="0 0 27 44" fill="none" xmlns="http://www.w3.org/2000/svg">
<path d="M26 21.4367C25.9189 21.1427 25.7766 20.8691 25.5824 20.6339C25.3883 20.3986 25.1466 20.2071 24.8734 20.0717L17.5284 16.4317L19.5 2.80332C19.5648 2.33101 19.4721 1.8505 19.2361 1.43625C19.0001 1.02201 18.6341 0.697157 18.1948 0.512043C17.7554 0.326929 17.2673 0.291886 16.806 0.412344C16.3448 0.532803 15.9361 0.802037 15.6434 1.17833L0.476692 20.6783C0.27083 20.9412 0.128518 21.2481 0.0608661 21.5751C-0.00678608 21.9021 0.00205259 22.2403 0.0866927 22.5633C0.182333 22.8865 0.348572 23.1843 0.573396 23.4354C0.79822 23.6864 1.07601 23.8844 1.38669 24.015L10.6384 27.72L8.66669 41.1967C8.59967 41.6804 8.69801 42.1725 8.94578 42.5933C9.19354 43.0142 9.5762 43.3389 10.0317 43.515C10.2856 43.6203 10.5585 43.6719 10.8334 43.6667C11.1902 43.6648 11.5411 43.5748 11.8548 43.4047C12.1686 43.2347 12.4354 42.9897 12.6317 42.6917L25.6317 23.1917C25.8148 22.9424 25.9424 22.6568 26.0059 22.3541C26.0695 22.0513 26.0675 21.7385 26 21.4367Z" fill="#F0AE28"/>
</svg>
