<svg width="" height="" viewBox="0 0 1200 708" fill="none" xmlns="http://www.w3.org/2000/svg">
<g clip-path="url(#clip0_94_2219)">
<path d="M1200 1.04679L0 0V136.606C0 144.98 80.625 151.261 108.75 143.41C136.875 135.559 153.75 119.5 165 109.389C175.54 99.9163 204.375 94.2108 238.125 94.2108C271.875 94.2108 298.125 116.023 343.125 115.5C388.125 114.977 414.375 109.711 436.875 105C459.375 100.289 532.993 92.2266 585 94.2108C645 96.5 738.75 109.389 798.75 109.389C858.75 109.389 1003.12 99.4447 1068.75 88.9769C1121.25 80.6026 1178.12 75.7176 1200 74.3219V1.04679Z" fill="url(#paint0_linear_94_2219)"/>
<line x1="0.000308641" y1="-0.0999995" x2="320" y2="0.887655" stroke="#F0AE28" stroke-width="0.2"/>
<ellipse cx="446.5" cy="12" rx="1.5" ry="1" fill="#5AC7FF"/>
<circle cx="496" cy="79" r="1" fill="#5AC7FF"/>
<ellipse cx="566" cy="48.5" rx="2" ry="1.5" fill="#F0AE28"/>
<g clip-path="url(#clip1_94_2219)">
<path d="M785 46L787.76 43.3167L791 46L788.84 42.5L791 39L788 40.8667L785 39L787.04 42.5L785 46Z" fill="#5AC7FF"/>
</g>
<g clip-path="url(#clip2_94_2219)">
<path d="M719 16L721.76 13.7L725 16L722.84 13L725 10L722 11.6L719 10L721.04 13L719 16Z" fill="#F0AE28"/>
</g>
<path d="M869.77 73.4139C859.438 72.1746 849.16 77.4982 845.313 80.3149C820.856 80.3149 829.375 99.7504 845.313 101.722C858.064 103.299 866.931 97.7787 869.77 94.8211C874.625 96.3703 886.918 99.525 897.25 99.7504C910.166 100.032 917.036 91.8635 926.654 91.8635C936.272 91.8635 941.219 96.3703 958.531 96.3703C975.843 96.3703 979.416 92.5677 986.835 91.8635C992.771 91.3002 1001.03 94.6333 1004.42 96.3703C1010.56 98.4359 1024.92 102.398 1033.28 101.722C1041.63 101.046 1048.48 97.8725 1050.86 96.3703C1057.28 96.9806 1073.4 97.835 1086.59 96.3703C1103.08 94.5394 1099.5 87.9201 1096.21 83.8358C1092.91 79.7516 1080.54 77.7799 1070.1 77.7799C1059.66 77.7799 1053.34 80.3149 1042.35 77.7799C1031.35 75.2448 1025.31 73.4139 1013.77 73.4139C1002.22 73.4139 1001.95 77.7799 991.507 76.5123C981.065 75.2448 977.492 67.2171 962.103 68.0622C946.715 68.9072 943.142 73.4139 937.097 73.4139C931.051 73.4139 922.257 69.3297 913.738 71.1606C905.22 72.9914 900.823 78.2024 891.754 77.7799C882.686 77.3574 882.686 74.9631 869.77 73.4139Z" fill="#FBFEFF" fill-opacity="0.05"/>
<circle cx="146" cy="5" r="1" fill="#F0AE28"/>
<path d="M0 113.173C0 113.173 31.7877 132.583 53.8445 131.053C75.9012 129.583 169.79 86.6458 180.641 84.4108C191.493 82.2345 219.565 74 227.763 74C235.96 74 285.735 74 306.318 81.8228C306.318 81.8228 317.169 85.1754 318.644 85.5283L319.941 85.7047V100.644C319.941 100.644 269.458 76.1174 231.006 85.94C192.554 95.7626 135.702 106.467 137.53 114.055C139.359 121.642 156.756 123.878 175.57 118.937C194.383 113.996 230.593 104.703 243.568 105.585C256.543 106.467 320 120.29 320 120.29V147.522C320 147.522 251.176 127.465 235.076 126.995C218.975 126.524 156.756 130.583 145.61 133.23C134.405 135.935 74.8986 152.404 56.5573 151.992C38.216 151.581 0 137.7 0 137.7V113.173Z" fill="#001E76" fill-opacity="0.02"/>
<ellipse cx="274" cy="43.5" rx="2" ry="2.5" fill="#F0AE28"/>
<g clip-path="url(#clip3_94_2219)">
<path d="M172 88L175.22 84.55L179 88L176.48 83.5L179 79L175.5 81.4L172 79L174.38 83.5L172 88Z" fill="#5AC7FF"/>
</g>
<ellipse cx="12.5" cy="113" rx="2.5" ry="2" fill="#F0AE28"/>
<circle cx="86" cy="85" r="2" fill="#F0AE28"/>
<g clip-path="url(#clip4_94_2219)">
<path d="M48 31L51.68 27.9333L56 31L53.12 27L56 23L52 25.1333L48 23L50.72 27L48 31Z" fill="#5AC7FF"/>
</g>
<g clip-path="url(#clip5_94_2219)">
<path d="M162 105L164.76 101.933L168 105L165.84 101L168 97L165 99.1333L162 97L164.04 101L162 105Z" fill="#5AC7FF"/>
</g>
<g clip-path="url(#clip6_94_2219)">
<path opacity="0.85" d="M307.99 88.9804C310.746 88.9804 312.98 86.7462 312.98 83.9902C312.98 81.2342 310.746 79 307.99 79C305.234 79 303 81.2342 303 83.9902C303 86.7462 305.234 88.9804 307.99 88.9804Z" fill="url(#paint1_linear_94_2219)"/>
</g>
<path d="M446.5 492C567.727 492 666 393.726 666 272.5C666 151.273 567.727 53 446.5 53C325.273 53 227 151.273 227 272.5C227 393.726 325.273 492 446.5 492Z" stroke="white" stroke-opacity="0.5" stroke-miterlimit="10"/>
<path d="M445.5 561C605.939 561 736 430.715 736 270C736 109.285 605.939 -21 445.5 -21C285.061 -21 155 109.285 155 270C155 430.715 285.061 561 445.5 561Z" stroke="white" stroke-opacity="0.4" stroke-miterlimit="10"/>
<path d="M450.5 629C647.942 629 808 468.942 808 271.5C808 74.0582 647.942 -86 450.5 -86C253.058 -86 93 74.0582 93 271.5C93 468.942 253.058 629 450.5 629Z" stroke="white" stroke-opacity="0.4" stroke-miterlimit="10"/>
<path d="M447 708C687.796 708 883 513.02 883 272.5C883 31.98 687.796 -163 447 -163C206.204 -163 11 31.98 11 272.5C11 513.02 206.204 708 447 708Z" stroke="white" stroke-opacity="0.4" stroke-miterlimit="10"/>
<g clip-path="url(#clip7_94_2219)">
<path d="M319 22C319 22 286.711 63.7353 282.759 65.4608C278.756 67.1863 274.44 64.1127 276.624 60.1225C278.808 56.1323 319 22 319 22Z" fill="#111A69" fill-opacity="0.5"/>
<g clip-path="url(#clip8_94_2219)">
<path d="M308.788 32.8608C308.788 32.8608 284.125 64.3063 281.105 65.6319C278.085 66.9574 274.706 64.6009 276.431 61.6552C278.157 58.7094 308.788 32.8608 308.788 32.8608Z" fill="url(#paint2_linear_94_2219)" fill-opacity="0.8"/>
<g clip-path="url(#clip9_94_2219)">
<path d="M280.789 35.5294L281.758 34.5379L282.895 35.5294L282.137 34.2361L282.895 32.9429L281.842 33.6326L280.789 32.9429L281.505 34.2361L280.789 35.5294Z" fill="#F0AE28"/>
</g>
</g>
<g clip-path="url(#clip10_94_2219)">
<path d="M320.284 35.1113C320.284 35.1113 311.609 46.2829 310.547 46.7448C309.472 47.2066 308.312 46.3839 308.899 45.3158C309.486 44.2478 320.284 35.1113 320.284 35.1113Z" fill="#111A69" fill-opacity="0.5"/>
<g clip-path="url(#clip11_94_2219)">
<path d="M317.54 38.0186C317.54 38.0186 310.914 46.4358 310.103 46.7906C309.292 47.1454 308.384 46.5146 308.847 45.7261C309.311 44.9376 317.54 38.0186 317.54 38.0186Z" fill="url(#paint3_linear_94_2219)" fill-opacity="0.8"/>
</g>
</g>
<g clip-path="url(#clip12_94_2219)">
<path d="M316.415 65.9708L317.384 64.9793L318.521 65.9708L317.763 64.6775L318.521 63.3843L317.468 64.074L316.415 63.3843L317.131 64.6775L316.415 65.9708Z" fill="#5AC7FF"/>
</g>
</g>
<g clip-path="url(#clip13_94_2219)">
<path opacity="0.85" d="M52.9823 89.9646C57.9431 89.9646 61.9646 85.9431 61.9646 80.9823C61.9646 76.0215 57.9431 72 52.9823 72C48.0215 72 44 76.0215 44 80.9823C44 85.9431 48.0215 89.9646 52.9823 89.9646Z" fill="url(#paint4_linear_94_2219)"/>
</g>
<g clip-path="url(#clip14_94_2219)">
<path d="M1099 19C1099 19 1077.22 51.25 1074.56 52.5833C1071.86 53.9167 1068.95 51.5417 1070.42 48.4583C1071.89 45.375 1099 19 1099 19Z" fill="#322AB3" fill-opacity="0.5"/>
<g clip-path="url(#clip15_94_2219)">
<path d="M1092.11 27.3926C1092.11 27.3926 1075.48 51.6913 1073.44 52.7156C1071.41 53.7399 1069.13 51.919 1070.29 49.6427C1071.45 47.3665 1092.11 27.3926 1092.11 27.3926Z" fill="url(#paint5_linear_94_2219)"/>
</g>
</g>
<g clip-path="url(#clip16_94_2219)">
<path d="M713 46C713 46 697.231 64.0221 695.301 64.7672C693.346 65.5123 691.238 64.185 692.305 62.462C693.371 60.739 713 46 713 46Z" fill="#322AB3" fill-opacity="0.5"/>
<g clip-path="url(#clip17_94_2219)">
<path d="M708.013 50.6899C708.013 50.6899 695.968 64.2687 694.493 64.8411C693.018 65.4135 691.368 64.3959 692.211 63.1239C693.054 61.8518 708.013 50.6899 708.013 50.6899Z" fill="url(#paint6_linear_94_2219)"/>
</g>
</g>
<path d="M424.195 89.7826L424.439 87L424.805 89.7826L427 90.3043L424.805 90.8261V95L424.195 90.8261L422 90.3043L424.195 89.7826Z" fill="white"/>
<path d="M422.585 24.913L423.317 19L424.415 24.913L431 26.0217L424.415 27.1304V36L422.585 27.1304L416 26.0217L422.585 24.913Z" fill="white"/>
<g clip-path="url(#clip18_94_2219)">
<path opacity="0.85" d="M894.939 79.8802C912.026 79.8802 925.878 66.2517 925.878 49.4401C925.878 32.6285 912.026 19 894.939 19C877.852 19 864 32.6285 864 49.4401C864 66.2517 877.852 79.8802 894.939 79.8802Z" fill="url(#paint7_linear_94_2219)"/>
</g>
<g clip-path="url(#clip19_94_2219)">
<path opacity="0.85" d="M656.982 77.9627C661.943 77.9627 665.965 73.7177 665.965 68.4813C665.965 63.2449 661.943 59 656.982 59C652.022 59 648 63.2449 648 68.4813C648 73.7177 652.022 77.9627 656.982 77.9627Z" fill="url(#paint8_linear_94_2219)"/>
</g>
</g>
<defs>
<linearGradient id="paint0_linear_94_2219" x1="600" y1="0" x2="600" y2="147" gradientUnits="userSpaceOnUse">
<stop stop-color="#111A69"/>
<stop offset="1" stop-color="#4C1A57"/>
</linearGradient>
<linearGradient id="paint1_linear_94_2219" x1="312.698" y1="85.7093" x2="303.3" y2="82.2888" gradientUnits="userSpaceOnUse">
<stop stop-color="#E9DD00"/>
<stop offset="0.2201" stop-color="#FFB53F"/>
<stop offset="0.5421" stop-color="#D46400"/>
<stop offset="0.8467" stop-color="#4C1A57"/>
<stop offset="1" stop-color="#111A69"/>
</linearGradient>
<linearGradient id="paint2_linear_94_2219" x1="292.375" y1="32.8608" x2="292.375" y2="66.0102" gradientUnits="userSpaceOnUse">
<stop stop-color="#F8E995"/>
<stop offset="0.458333" stop-color="#F0AE28"/>
<stop offset="0.998135" stop-color="#F08828"/>
</linearGradient>
<linearGradient id="paint3_linear_94_2219" x1="313.131" y1="38.0186" x2="313.131" y2="46.8919" gradientUnits="userSpaceOnUse">
<stop stop-color="#F8E995"/>
<stop offset="0.458333" stop-color="#F0AE28"/>
<stop offset="0.998135" stop-color="#F08828"/>
</linearGradient>
<linearGradient id="paint4_linear_94_2219" x1="61.4563" y1="84.0768" x2="44.5404" y2="77.9199" gradientUnits="userSpaceOnUse">
<stop stop-color="#E9DD00"/>
<stop offset="0.2201" stop-color="#FFB53F"/>
<stop offset="0.5421" stop-color="#D46400"/>
<stop offset="0.8467" stop-color="#4C1A57"/>
<stop offset="1" stop-color="#111A69"/>
</linearGradient>
<linearGradient id="paint5_linear_94_2219" x1="1081.04" y1="27.3926" x2="1081.04" y2="53.008" gradientUnits="userSpaceOnUse">
<stop stop-color="#F8E995"/>
<stop offset="0.458333" stop-color="#F0AE28"/>
<stop offset="0.998135" stop-color="#F08828"/>
</linearGradient>
<linearGradient id="paint6_linear_94_2219" x1="699.997" y1="50.6899" x2="699.997" y2="65.0045" gradientUnits="userSpaceOnUse">
<stop stop-color="#F8E995"/>
<stop offset="0.458333" stop-color="#F0AE28"/>
<stop offset="0.998135" stop-color="#F08828"/>
</linearGradient>
<linearGradient id="paint7_linear_94_2219" x1="924.127" y1="59.9269" x2="866.086" y2="38.4551" gradientUnits="userSpaceOnUse">
<stop stop-color="#E9DD00"/>
<stop offset="0.2201" stop-color="#FFB53F"/>
<stop offset="0.5421" stop-color="#D46400"/>
<stop offset="0.8467" stop-color="#4C1A57"/>
<stop offset="1" stop-color="#111A69"/>
</linearGradient>
<linearGradient id="paint8_linear_94_2219" x1="665.456" y1="71.7477" x2="648.335" y2="65.8441" gradientUnits="userSpaceOnUse">
<stop stop-color="#E9DD00"/>
<stop offset="0.2201" stop-color="#FFB53F"/>
<stop offset="0.5421" stop-color="#D46400"/>
<stop offset="0.8467" stop-color="#4C1A57"/>
<stop offset="1" stop-color="#111A69"/>
</linearGradient>
<clipPath id="clip0_94_2219">
<rect width="1200" height="708" fill="white"/>
</clipPath>
<clipPath id="clip1_94_2219">
<rect width="6" height="7" fill="white" transform="translate(785 39)"/>
</clipPath>
<clipPath id="clip2_94_2219">
<rect width="6" height="6" fill="white" transform="translate(719 10)"/>
</clipPath>
<clipPath id="clip3_94_2219">
<rect width="7" height="9" fill="white" transform="translate(172 79)"/>
</clipPath>
<clipPath id="clip4_94_2219">
<rect width="8" height="8" fill="white" transform="translate(48 23)"/>
</clipPath>
<clipPath id="clip5_94_2219">
<rect width="6" height="8" fill="white" transform="translate(162 97)"/>
</clipPath>
<clipPath id="clip6_94_2219">
<rect width="10" height="10" fill="white" transform="translate(303 79)"/>
</clipPath>
<clipPath id="clip7_94_2219">
<rect width="43" height="44" fill="white" transform="translate(276 22)"/>
</clipPath>
<clipPath id="clip8_94_2219">
<rect width="32.7875" height="33.1392" fill="white" transform="translate(276 32.8608)"/>
</clipPath>
<clipPath id="clip9_94_2219">
<rect width="2.10692" height="2.58651" fill="white" transform="translate(280.789 32.9429)"/>
</clipPath>
<clipPath id="clip10_94_2219">
<rect width="11.5522" height="11.7778" fill="white" transform="translate(308.731 35.1113)"/>
</clipPath>
<clipPath id="clip11_94_2219">
<rect width="8.80858" height="8.87061" fill="white" transform="translate(308.731 38.0186)"/>
</clipPath>
<clipPath id="clip12_94_2219">
<rect width="2.10692" height="2.58651" fill="white" transform="translate(316.415 63.3843)"/>
</clipPath>
<clipPath id="clip13_94_2219">
<rect width="18" height="18" fill="white" transform="translate(44 72)"/>
</clipPath>
<clipPath id="clip14_94_2219">
<rect width="29" height="34" fill="white" transform="translate(1070 19)"/>
</clipPath>
<clipPath id="clip15_94_2219">
<rect width="22.1125" height="25.6076" fill="white" transform="translate(1070 27.3926)"/>
</clipPath>
<clipPath id="clip16_94_2219">
<rect width="21" height="19" fill="white" transform="translate(692 46)"/>
</clipPath>
<clipPath id="clip17_94_2219">
<rect width="16.0125" height="14.3101" fill="white" transform="translate(692 50.6899)"/>
</clipPath>
<clipPath id="clip18_94_2219">
<rect width="62" height="61" fill="white" transform="translate(864 19)"/>
</clipPath>
<clipPath id="clip19_94_2219">
<rect width="18" height="19" fill="white" transform="translate(648 59)"/>
</clipPath>
</defs>
</svg>
